<svg xmlns="http://www.w3.org/2000/svg" width="406" height="227.606" viewBox="0 0 406 227.606">
  <g id="Grupo_25793" data-name="Grupo 25793" transform="translate(-783 -1029)">
    <g id="Grupo_4824" data-name="Grupo 4824" transform="translate(741.717 877.576)">
      <g id="Grupo_4681" data-name="Grupo 4681" transform="translate(41.283 236.22)" opacity="0.5">
        <path id="Trazado_1039" data-name="Trazado 1039" d="M182.239,276.436v-33.4l-22.656,24.762v41.173h-14.6V249.96h-3.711l-10.568-9.876-10.627,9.876h-3.65v79.631h-53.7v43.373h154.9V276.436Zm-40.963,21.173H120.143v-2.158h21.133Zm0-4.308H120.143v-2.159h21.133Zm0-4.309H120.143v-2.154h21.133Zm0-4.309H120.143v-2.153h21.133Zm0-4.3H120.143v-2.158h21.133Zm0-4.308H120.143v-2.158h21.133Zm0-4.309H120.143V269.61h21.133Zm0-4.308H120.143V265.3h21.133Zm0-4.309H120.143v-2.154h21.133Zm0-4.3H120.143v-2.158h21.133Zm0-4.308H120.143v-2.154h21.133Zm38.089,104.928h-2.193V253.456l2.193-2.4Z" transform="translate(-41.87 -240.084)" fill="#ddd6ff" opacity="0.43"/>
        <path id="Trazado_1040" data-name="Trazado 1040" d="M346.728,276.436v-33.4l-22.656,24.762v41.173h-14.6V249.96h-3.711L295.2,240.084,284.57,249.96h-3.649v79.631h-53.7v43.373h154.9V276.436Zm-40.963,21.173H284.632v-2.158h21.133Zm0-4.308H284.632v-2.159h21.133Zm0-4.309H284.632v-2.154h21.133Zm0-4.309H284.632v-2.153h21.133Zm0-4.3H284.632v-2.158h21.133Zm0-4.308H284.632v-2.158h21.133Zm0-4.309H284.632V269.61h21.133Zm0-4.308H284.632V265.3h21.133Zm0-4.309H284.632v-2.154h21.133Zm0-4.3H284.632v-2.158h21.133Zm0-4.308H284.632v-2.154h21.133Zm38.089,104.928h-2.193V253.456l2.193-2.4Z" transform="translate(-46.376 -240.084)" fill="#ddd6ff" opacity="0.43"/>
        <path id="Trazado_1041" data-name="Trazado 1041" d="M284.838,332.786v-75.5h-3.4v-7.638H255.118v7.638h-3.382V352.2h-24.7V309.219H191.072v56.4H173.7V264.589H138.267v77.622h-4.158V296.005H127.7l-17.866-9.435v9.435h-3.908v57.066H97.252v-77.28H88.479V248.679h-1.2v27.112H78.5v97.576H307V332.786Zm-189.7-7.337H80.663v-1.68H95.138Zm0-3.887H80.663v-1.68H95.138Zm0-3.891H80.663v-1.68H95.138Zm0-3.887H80.663V312.1H95.138Zm0-3.887H80.663v-1.68H95.138Zm0-3.891H80.663v-1.68H95.138Zm0-3.887H80.663v-1.68H95.138Zm0-3.887H80.663v-1.68H95.138Zm0-3.891H80.663v-1.68H95.138Zm0-3.887H80.663v-1.68H95.138Zm0-3.886H80.663v-1.68H95.138Zm0-3.892H80.663V281H95.138Zm0-3.887H80.663v-1.68H95.138Zm50.76,23.144h-4.31v-4.3h4.31Zm0-7.18h-4.31v-4.311h4.31Zm0-7.186h-4.31v-4.3h4.31Zm0-7.181h-4.31v-4.31h4.31Zm0-7.186h-4.31v-4.31h4.31Zm8.186,28.732h-4.3v-4.3h4.3Zm0-7.18h-4.3v-4.311h4.3Zm0-7.186h-4.3v-4.3h4.3Zm0-7.181h-4.3v-4.31h4.3Zm0-7.186h-4.3v-4.31h4.3Zm8.19,28.732h-4.31v-4.3h4.31Zm0-7.18h-4.31v-4.311h4.31Zm0-7.186h-4.31v-4.3h4.31Zm0-7.181h-4.31v-4.31h4.31Zm0-7.186h-4.31v-4.31h4.31Zm8.186,28.732h-4.3v-4.3h4.3Zm0-7.18h-4.3v-4.311h4.3Zm0-7.186h-4.3v-4.3h4.3Zm0-7.181h-4.3v-4.31h4.3ZM288.23,368.318h-4.479v-4.479h4.479Zm0-8.968h-4.479V354.87h4.479Zm0-8.968h-4.479V345.9h4.479Zm0-8.968h-4.479v-4.479h4.479Zm8.311,26.905h-4.479v-4.479h4.479Zm0-8.968h-4.479V354.87h4.479Zm0-8.968h-4.479V345.9h4.479Zm0-8.968h-4.479v-4.479h4.479Zm8.31,26.905h-4.484v-4.479h4.484Zm0-8.968h-4.484V354.87h4.484Zm0-8.968h-4.484V345.9h4.484Zm0-8.968h-4.484v-4.479h4.484Z" transform="translate(-42.303 -240.319)" fill="#ddd6ff"/>
        <path id="Trazado_1042" data-name="Trazado 1042" d="M392.894,324.765V257.289h-3.4v-7.638H363.174v7.638h-3.382V352.2h-24.7V309.219H299.128v56.4H281.751V264.589H246.323v77.622h-4.158V296.005h-6.408l-17.867-9.435v9.435h-3.908v57.066h-8.675v-77.28h-8.773V248.679h-1.2v27.112h-8.773v97.576h228.5v-48.6Zm-189.7.684H188.719v-1.68h14.474Zm0-3.887H188.719v-1.68h14.474Zm0-3.891H188.719v-1.68h14.474Zm0-3.887H188.719V312.1h14.474Zm0-3.887H188.719v-1.68h14.474Zm0-3.891H188.719v-1.68h14.474Zm0-3.887H188.719v-1.68h14.474Zm0-3.887H188.719v-1.68h14.474Zm0-3.891H188.719v-1.68h14.474Zm0-3.887H188.719v-1.68h14.474Zm0-3.886H188.719v-1.68h14.474Zm0-3.892H188.719V281h14.474Zm0-3.887H188.719v-1.68h14.474Zm50.761,23.144h-4.311v-4.3h4.311Zm0-7.18h-4.311v-4.311h4.311Zm0-7.186h-4.311v-4.3h4.311Zm0-7.181h-4.311v-4.31h4.311Zm0-7.186h-4.311v-4.31h4.311Zm8.186,28.732h-4.3v-4.3h4.3Zm0-7.18h-4.3v-4.311h4.3Zm0-7.186h-4.3v-4.3h4.3Zm0-7.181h-4.3v-4.31h4.3Zm0-7.186h-4.3v-4.31h4.3Zm8.191,28.732h-4.311v-4.3h4.311Zm0-7.18h-4.311v-4.311h4.311Zm0-7.186h-4.311v-4.3h4.311Zm0-7.181h-4.311v-4.31h4.311Zm0-7.186h-4.311v-4.31h4.311Zm8.185,28.732h-4.3v-4.3h4.3Zm0-7.18h-4.3v-4.311h4.3Zm0-7.186h-4.3v-4.3h4.3Zm0-7.181h-4.3v-4.31h4.3Zm120.04,76.04h-3.867v-3.866h3.867Zm0-7.742h-3.867v-3.867h3.867Zm0-7.743h-3.867v-3.867h3.867Zm0-7.743h-3.867v-3.866h3.867Zm7.175,23.228h-3.867v-3.866h3.867Zm0-7.742h-3.867v-3.867h3.867Zm0-7.743h-3.867v-3.867h3.867Zm0-7.743h-3.867v-3.866h3.867Zm7.175,23.228h-3.872v-3.866h3.872Zm0-7.742h-3.872v-3.867h3.872Zm0-7.743h-3.872v-3.867h3.872Zm0-7.743h-3.872v-3.866h3.872Z" transform="translate(-45.262 -240.319)" fill="#ddd6ff"/>
        <rect id="Rectángulo_2462" data-name="Rectángulo 2462" width="15.345" height="34.194" transform="translate(369.797 98.854)" fill="#ddd6ff" opacity="0.43"/>
        <path id="Trazado_1043" data-name="Trazado 1043" d="M446.826,377.114H41.74a.457.457,0,0,1-.457-.457h0a.457.457,0,0,1,.457-.457H446.826a.457.457,0,0,1,.457.457h0A.457.457,0,0,1,446.826,377.114Z" transform="translate(-41.283 -243.812)" fill="#bfb8f4"/>
      </g>
      <g id="Grupo_4704" data-name="Grupo 4704" transform="translate(104.746 274.792)">
        <g id="Grupo_4688" data-name="Grupo 4688" transform="translate(0.687 19.298)">
          <path id="Trazado_1044" data-name="Trazado 1044" d="M147.6,346.4c-1.615-2.593-3.276-5.311-3.543-8.355-.247-2.82-.707-5.932-.281-8.731a22.922,22.922,0,0,0-.384-8.433c-1.94-8.665-5.58-7.7-6.9-7.041-1.3.651-1.911,2.074-1.973,4.363-.05,1.842,1.281,10.453-1.533,9.193-3.257-1.458-3.206-10.457-3.736-13.451-.793-4.48-2.66-9.26-6.112-12.353-1.7-1.524-4.2-2.633-6.241-1.613a5.285,5.285,0,0,0-2.439,3.166c-1.3,3.908.079,7.951,1.633,11.561.65,1.509,5.9,8.474,1.6,7.825-1.027-.155-9.639-6.8-10.426.156-.277,2.45,2.478,4.941,6.847,8.05,2.728,1.942,12.808,6.991,12.322,9.7s-6.084-1.575-5.388,3.462c.39,2.823,4.113,4.83,6.637,5.877,1.2.5,2.5.756,3.663,1.332,1.383.683,3.08,2.347,2.042,3.989-.454.717-1.34,1.08-1.77,1.812a2.414,2.414,0,0,0,.17,2.451,5.6,5.6,0,0,0,1.922,1.694c4.73,2.856,10.634,3.281,16.044,2.167s10.422-3.646,15.207-6.408" transform="translate(-107.239 -299.584)" fill="#d6d4ff"/>
          <g id="Grupo_4687" data-name="Grupo 4687" transform="translate(3.992 4.749)" opacity="0.25">
            <g id="Grupo_4682" data-name="Grupo 4682" transform="translate(8.027)">
              <path id="Trazado_1045" data-name="Trazado 1045" d="M143.891,352.881a.338.338,0,0,1-.241-.1c-17.909-18.129-23.986-47.611-24.046-47.908a.339.339,0,0,1,.266-.4.345.345,0,0,1,.4.267c.059.294,6.1,29.581,23.864,47.563a.34.34,0,0,1-.242.579Z" transform="translate(-119.597 -304.467)" fill="#fff"/>
            </g>
            <g id="Grupo_4683" data-name="Grupo 4683" transform="translate(0 19.512)">
              <path id="Trazado_1046" data-name="Trazado 1046" d="M129.981,334.005l-.045,0c-8.232-1.064-18.047-8.548-18.461-8.866a.339.339,0,0,1,.414-.537c.1.076,10.084,7.689,18.134,8.728a.34.34,0,0,1-.043.677Z" transform="translate(-111.343 -324.529)" fill="#fff"/>
            </g>
            <g id="Grupo_4684" data-name="Grupo 4684" transform="translate(23.174 12.832)">
              <path id="Trazado_1047" data-name="Trazado 1047" d="M135.509,342.209a.339.339,0,0,1-.279-.532c4.09-5.913,3.9-18.045,3.223-23.633a.34.34,0,0,1,.3-.378.334.334,0,0,1,.377.3c.684,5.678.867,18.021-3.339,24.1A.338.338,0,0,1,135.509,342.209Z" transform="translate(-135.17 -317.661)" fill="#fff"/>
            </g>
            <g id="Grupo_4685" data-name="Grupo 4685" transform="translate(13.165 40.17)">
              <path id="Trazado_1048" data-name="Trazado 1048" d="M141.342,351.1l-.036,0c-12.133-1.285-16.143-4.6-16.308-4.737a.339.339,0,0,1,.44-.517c.04.033,4.057,3.32,15.939,4.578a.34.34,0,0,1-.035.678Z" transform="translate(-124.879 -345.768)" fill="#fff"/>
            </g>
            <g id="Grupo_4686" data-name="Grupo 4686" transform="translate(22.432 50.77)">
              <path id="Trazado_1049" data-name="Trazado 1049" d="M137.221,359.778a16.466,16.466,0,0,1-2.531-.172.339.339,0,0,1-.278-.391.344.344,0,0,1,.39-.279,19.048,19.048,0,0,0,11.615-2.221.339.339,0,1,1,.348.583A18.786,18.786,0,0,1,137.221,359.778Z" transform="translate(-134.407 -356.667)" fill="#fff"/>
            </g>
          </g>
        </g>
        <g id="Grupo_4695" data-name="Grupo 4695" transform="translate(45.297)">
          <path id="Trazado_1050" data-name="Trazado 1050" d="M193.46,326.558c-1.615-2.593-3.275-5.311-3.542-8.355-.248-2.82-.708-5.932-.282-8.731a22.9,22.9,0,0,0-.384-8.432c-1.94-8.665-5.579-7.7-6.9-7.042-1.3.652-1.911,2.075-1.972,4.364-.051,1.842,1.281,10.453-1.534,9.193-3.256-1.458-3.2-10.457-3.735-13.451-.793-4.48-2.661-9.26-6.113-12.353-1.7-1.525-4.2-2.633-6.24-1.613a5.286,5.286,0,0,0-2.439,3.166c-1.3,3.908.078,7.951,1.633,11.561.65,1.509,5.9,8.474,1.6,7.825-1.028-.155-9.639-6.8-10.426.156-.277,2.45,2.478,4.941,6.847,8.05,2.728,1.942,12.808,6.991,12.322,9.7s-6.085-1.574-5.388,3.463c.389,2.823,4.113,4.83,6.637,5.877,1.2.5,2.5.756,3.663,1.332,1.382.683,3.08,2.347,2.042,3.989-.454.717-1.34,1.08-1.77,1.811a2.416,2.416,0,0,0,.17,2.452,5.6,5.6,0,0,0,1.921,1.694c4.73,2.855,10.634,3.281,16.045,2.166s10.421-3.645,15.207-6.407" transform="translate(-153.105 -279.743)" fill="#d6d4ff"/>
          <g id="Grupo_4694" data-name="Grupo 4694" transform="translate(3.991 4.749)" opacity="0.25">
            <g id="Grupo_4689" data-name="Grupo 4689" transform="translate(8.027)">
              <path id="Trazado_1051" data-name="Trazado 1051" d="M189.756,333.04a.34.34,0,0,1-.241-.1c-17.909-18.13-23.986-47.612-24.046-47.909a.34.34,0,0,1,.267-.4.346.346,0,0,1,.4.267c.058.294,6.1,29.581,23.863,47.565a.339.339,0,0,1-.242.578Z" transform="translate(-165.462 -284.625)" fill="#fff"/>
            </g>
            <g id="Grupo_4690" data-name="Grupo 4690" transform="translate(0 19.514)">
              <path id="Trazado_1052" data-name="Trazado 1052" d="M175.847,314.165a.344.344,0,0,1-.045,0c-8.233-1.064-18.047-8.547-18.461-8.866a.339.339,0,1,1,.414-.537c.1.076,10.084,7.689,18.134,8.728a.34.34,0,0,1-.043.678Z" transform="translate(-157.209 -304.689)" fill="#fff"/>
            </g>
            <g id="Grupo_4691" data-name="Grupo 4691" transform="translate(23.174 12.834)">
              <path id="Trazado_1053" data-name="Trazado 1053" d="M181.374,322.368a.34.34,0,0,1-.278-.533c4.089-5.911,3.9-18.044,3.223-23.632a.339.339,0,1,1,.674-.082c.684,5.678.867,18.021-3.339,24.1A.339.339,0,0,1,181.374,322.368Z" transform="translate(-181.036 -297.821)" fill="#fff"/>
            </g>
            <g id="Grupo_4692" data-name="Grupo 4692" transform="translate(13.166 40.171)">
              <path id="Trazado_1054" data-name="Trazado 1054" d="M187.207,331.262l-.036,0c-12.133-1.285-16.142-4.595-16.307-4.736a.339.339,0,0,1,.44-.517c.039.033,4.056,3.32,15.939,4.577a.34.34,0,0,1-.036.678Z" transform="translate(-170.745 -325.927)" fill="#fff"/>
            </g>
            <g id="Grupo_4693" data-name="Grupo 4693" transform="translate(22.432 50.771)">
              <path id="Trazado_1055" data-name="Trazado 1055" d="M183.087,339.937a16.721,16.721,0,0,1-2.532-.171.34.34,0,0,1,.113-.671,19.048,19.048,0,0,0,11.615-2.221.34.34,0,1,1,.348.584A18.793,18.793,0,0,1,183.087,339.937Z" transform="translate(-180.272 -336.826)" fill="#fff"/>
            </g>
          </g>
        </g>
        <g id="Grupo_4696" data-name="Grupo 4696" transform="translate(0 44.194)">
          <path id="Trazado_1056" data-name="Trazado 1056" d="M150.4,345.94c-.622-3.52-7.1-25.648-18.482-19.771-6.759,3.49-5.543,16.343,5.013,26.052-2.072-2-4.464-4.277-7.292-4.838a5.632,5.632,0,0,0-4.54,1.456,5.323,5.323,0,0,0-1.365,3.809,14.993,14.993,0,0,0,6.679,12.825c-2.335-1.3-4.358-2.938-7.022-3.167a3.269,3.269,0,0,0-2.735,1.192c-.436.839-.406,3.986,4.735,6.336-20.95-3.974-22.173,4.956-14.642,4.956h61.762" transform="translate(-106.533 -325.182)" fill="#bfb8f4"/>
          <path id="Trazado_1057" data-name="Trazado 1057" d="M350.677,345.94c.621-3.52,7.1-25.648,18.482-19.771,6.758,3.49,5.543,16.343-5.014,26.052,2.073-2,4.465-4.277,7.292-4.838a5.634,5.634,0,0,1,4.541,1.456,5.327,5.327,0,0,1,1.364,3.809,14.992,14.992,0,0,1-6.678,12.825c2.334-1.3,4.357-2.938,7.022-3.167a3.269,3.269,0,0,1,2.734,1.192c.436.839.406,3.986-4.734,6.336,20.95-3.974,22.172,4.956,14.642,4.956H340.56" transform="translate(-112.943 -325.182)" fill="#bfb8f4"/>
        </g>
        <g id="Grupo_4703" data-name="Grupo 4703" transform="translate(217.331 5.532)">
          <path id="Trazado_1058" data-name="Trazado 1058" d="M346.068,335.222c1.316-2.756,2.66-5.645,2.585-8.7-.069-2.829.039-5.974-.7-8.707a22.917,22.917,0,0,1-.562-8.424c.958-8.827,4.681-8.28,6.07-7.769,1.365.5,2.131,1.847,2.449,4.116.256,1.825-.1,10.529,2.553,8.964,3.072-1.813,2.014-10.75,2.2-13.786.287-4.54,1.608-9.5,4.692-12.959,1.52-1.706,3.875-3.086,6.02-2.3a5.284,5.284,0,0,1,2.779,2.873c1.73,3.738.812,7.909-.329,11.671-.477,1.574-4.918,9.082-.715,7.955,1-.269,8.817-7.838,10.378-1.013.551,2.4-1.909,5.188-5.9,8.767-2.494,2.235-11.946,8.38-11.159,11.021s5.87-2.245,5.742,2.838c-.071,2.848-3.547,5.26-5.938,6.583-1.137.63-2.4,1.031-3.491,1.733-1.3.834-2.8,2.678-1.581,4.193.531.661,1.452.923,1.962,1.6a2.417,2.417,0,0,1,.105,2.455,5.594,5.594,0,0,1-1.72,1.9c-4.381,3.367-10.2,4.451-15.7,3.95s-10.764-2.456-15.828-4.665" transform="translate(-329.985 -285.431)" fill="#d6d4ff"/>
          <g id="Grupo_4702" data-name="Grupo 4702" transform="translate(18.493 4.853)" opacity="0.25">
            <g id="Grupo_4697" data-name="Grupo 4697" transform="translate(1.941)">
              <path id="Trazado_1059" data-name="Trazado 1059" d="M351.334,341.216a.333.333,0,0,1-.21-.073.34.34,0,0,1-.057-.477c15.641-19.864,18.363-49.638,18.389-49.938a.335.335,0,0,1,.368-.308.34.34,0,0,1,.308.368c-.025.3-2.765,30.277-18.531,50.3A.337.337,0,0,1,351.334,341.216Z" transform="translate(-350.995 -290.42)" fill="#fff"/>
            </g>
            <g id="Grupo_4698" data-name="Grupo 4698" transform="translate(13.364 18.492)">
              <path id="Trazado_1060" data-name="Trazado 1060" d="M363.079,320.9a.34.34,0,0,1-.081-.67c7.882-1.934,16.952-10.617,17.042-10.7a.339.339,0,0,1,.472.488c-.375.363-9.29,8.9-17.352,10.876A.329.329,0,0,1,363.079,320.9Z" transform="translate(-362.74 -309.433)" fill="#fff"/>
            </g>
            <g id="Grupo_4699" data-name="Grupo 4699" transform="translate(3.524 14.817)">
              <path id="Trazado_1061" data-name="Trazado 1061" d="M358.9,329.683a.336.336,0,0,1-.255-.117c-4.858-5.567-6.06-17.855-6.018-23.575a.37.37,0,0,1,.343-.338.341.341,0,0,1,.337.343c-.043,5.63,1.125,17.709,5.848,23.123a.339.339,0,0,1-.032.479A.335.335,0,0,1,358.9,329.683Z" transform="translate(-352.622 -305.654)" fill="#fff"/>
            </g>
            <g id="Grupo_4700" data-name="Grupo 4700" transform="translate(4.293 40.492)">
              <path id="Trazado_1062" data-name="Trazado 1062" d="M353.752,339.165a.34.34,0,0,1-.073-.671c11.708-2.59,15.288-6.3,15.323-6.334a.34.34,0,1,1,.5.466c-.148.158-3.761,3.9-15.674,6.53A.318.318,0,0,1,353.752,339.165Z" transform="translate(-353.413 -332.052)" fill="#fff"/>
            </g>
            <g id="Grupo_4701" data-name="Grupo 4701" transform="translate(0 53.39)">
              <path id="Trazado_1063" data-name="Trazado 1063" d="M356.615,347.492a17.924,17.924,0,0,1-7.417-1.53.339.339,0,1,1,.281-.617,19.083,19.083,0,0,0,11.79.906.344.344,0,0,1,.42.234.34.34,0,0,1-.233.419A19.042,19.042,0,0,1,356.615,347.492Z" transform="translate(-348.999 -345.314)" fill="#fff"/>
            </g>
          </g>
        </g>
      </g>
      <g id="Grupo_4705" data-name="Grupo 4705" transform="translate(175.047 354.055)">
        <rect id="Rectángulo_2463" data-name="Rectángulo 2463" width="5.278" height="14.522" fill="#581e96"/>
        <rect id="Rectángulo_2464" data-name="Rectángulo 2464" width="5.278" height="14.522" transform="translate(135.748)" fill="#581e96"/>
      </g>
      <g id="Grupo_4738" data-name="Grupo 4738" transform="translate(142.225 151.424)">
        <g id="Grupo_4707" data-name="Grupo 4707" transform="translate(0 156.685)">
          <rect id="Rectángulo_2465" data-name="Rectángulo 2465" width="39.984" height="53.081" transform="translate(1.557 7.388)" fill="#9d74ed"/>
          <rect id="Rectángulo_2466" data-name="Rectángulo 2466" width="41.541" height="8.64" fill="#581e96"/>
          <rect id="Rectángulo_2467" data-name="Rectángulo 2467" width="41.541" height="1.877" transform="translate(0 58.592)" fill="#581e96"/>
          <g id="Grupo_4706" data-name="Grupo 4706" transform="translate(8.665 14.25)">
            <path id="Trazado_1064" data-name="Trazado 1064" d="M178.058,339.971V356.91H155.4V339.971a11.321,11.321,0,0,1,10.7-11.306c.206-.008.412-.017.619-.017s.412.009.619.017a11.32,11.32,0,0,1,10.712,11.306Z" transform="translate(-154.016 -328.649)" fill="#ddd6ff"/>
            <path id="Trazado_1065" data-name="Trazado 1065" d="M176.851,355.749H156.677V339.96a10.087,10.087,0,0,1,10.087-10.087h0a10.087,10.087,0,0,1,10.087,10.087Z" transform="translate(-154.051 -328.683)" fill="#c3bdef"/>
            <rect id="Rectángulo_2468" data-name="Rectángulo 2468" width="23.971" height="1.258" transform="translate(0.728 28.261)" fill="#fff"/>
            <rect id="Rectángulo_2469" data-name="Rectángulo 2469" width="25.427" height="1.258" transform="translate(0 29.477)" fill="#fff"/>
            <rect id="Rectángulo_2470" data-name="Rectángulo 2470" width="25.427" height="0.902" transform="translate(0 30.735)" fill="#6f3fbc"/>
            <rect id="Rectángulo_2471" data-name="Rectángulo 2471" width="22.653" height="1.237" transform="translate(1.387 10.943)" fill="#fff"/>
            <path id="Trazado_1066" data-name="Trazado 1066" d="M167.647,328.666V356.91H166.41V328.666c.206-.008.412-.017.619-.017S167.441,328.658,167.647,328.666Z" transform="translate(-154.317 -328.649)" fill="#fff"/>
          </g>
        </g>
        <g id="Grupo_4709" data-name="Grupo 4709" transform="translate(165.105 156.685)">
          <rect id="Rectángulo_2472" data-name="Rectángulo 2472" width="39.984" height="53.081" transform="translate(39.984 60.469) rotate(180)" fill="#9d74ed"/>
          <rect id="Rectángulo_2473" data-name="Rectángulo 2473" width="41.541" height="8.64" transform="translate(41.541 8.64) rotate(180)" fill="#581e96"/>
          <rect id="Rectángulo_2474" data-name="Rectángulo 2474" width="41.541" height="1.396" transform="translate(41.541 60.446) rotate(180)" fill="#581e96"/>
          <g id="Grupo_4708" data-name="Grupo 4708" transform="translate(7.279 14.25)">
            <path id="Trazado_1067" data-name="Trazado 1067" d="M346.387,339.971V356.91H323.734V339.971a11.322,11.322,0,0,1,10.7-11.306c.206-.008.412-.017.619-.017s.411.009.618.017a11.318,11.318,0,0,1,10.712,11.306Z" transform="translate(-322.345 -328.649)" fill="#ddd6ff"/>
            <path id="Trazado_1068" data-name="Trazado 1068" d="M345.18,355.749H325.007V339.96a10.087,10.087,0,0,1,10.087-10.087h0A10.086,10.086,0,0,1,345.18,339.96Z" transform="translate(-322.38 -328.683)" fill="#c3bdef"/>
            <rect id="Rectángulo_2475" data-name="Rectángulo 2475" width="23.971" height="1.258" transform="translate(0.728 28.261)" fill="#fff"/>
            <rect id="Rectángulo_2476" data-name="Rectángulo 2476" width="25.427" height="1.258" transform="translate(0 29.477)" fill="#fff"/>
            <rect id="Rectángulo_2477" data-name="Rectángulo 2477" width="25.427" height="0.902" transform="translate(0 30.735)" fill="#6f3fbc"/>
            <rect id="Rectángulo_2478" data-name="Rectángulo 2478" width="22.653" height="1.237" transform="translate(1.387 10.943)" fill="#fff"/>
            <path id="Trazado_1069" data-name="Trazado 1069" d="M335.976,328.666V356.91H334.74V328.666c.206-.008.412-.017.619-.017S335.77,328.658,335.976,328.666Z" transform="translate(-322.647 -328.649)" fill="#fff"/>
          </g>
        </g>
        <g id="Grupo_4711" data-name="Grupo 4711" transform="translate(36.674 16.384)">
          <rect id="Rectángulo_2479" data-name="Rectángulo 2479" width="123.563" height="186.582" transform="translate(4.867 14.189)" fill="#854dce"/>
          <rect id="Rectángulo_2480" data-name="Rectángulo 2480" width="123.542" height="2.474" transform="translate(4.889 185.08)" fill="#905de2"/>
          <rect id="Rectángulo_2481" data-name="Rectángulo 2481" width="133.298" height="10.552" transform="translate(0 126.301)" fill="#581e96"/>
          <rect id="Rectángulo_2482" data-name="Rectángulo 2482" width="123.563" height="2.523" transform="translate(4.867 136.659)" fill="#6f3fbc"/>
          <rect id="Rectángulo_2483" data-name="Rectángulo 2483" width="133.298" height="14.189" fill="#581e96"/>
          <rect id="Rectángulo_2484" data-name="Rectángulo 2484" width="123.563" height="1.736" transform="translate(4.867 14.189)" fill="#6f3fbc"/>
          <rect id="Rectángulo_2485" data-name="Rectángulo 2485" width="133.298" height="3.986" transform="translate(0 67.98)" fill="#581e96"/>
          <rect id="Rectángulo_2486" data-name="Rectángulo 2486" width="123.563" height="1.477" transform="translate(4.867 71.966)" fill="#6f3fbc"/>
          <g id="Grupo_4710" data-name="Grupo 4710" transform="translate(0.147 1.855)">
            <rect id="Rectángulo_2487" data-name="Rectángulo 2487" width="133.15" height="1.762" fill="#401577"/>
            <rect id="Rectángulo_2488" data-name="Rectángulo 2488" width="133.15" height="1.762" transform="translate(0 3.524)" fill="#401577"/>
            <rect id="Rectángulo_2489" data-name="Rectángulo 2489" width="133.15" height="1.762" transform="translate(0 7.047)" fill="#401577"/>
            <rect id="Rectángulo_2490" data-name="Rectángulo 2490" width="133.15" height="1.762" transform="translate(0 10.571)" fill="#401577"/>
          </g>
        </g>
        <g id="Grupo_4720" data-name="Grupo 4720" transform="translate(47.487 39.464)">
          <g id="Grupo_4712" data-name="Grupo 4712" transform="translate(0 119.264)">
            <rect id="Rectángulo_2491" data-name="Rectángulo 2491" width="27.659" height="33.547" transform="translate(1.558 1.467)" fill="#ddd6ff"/>
            <rect id="Rectángulo_2492" data-name="Rectángulo 2492" width="25.096" height="31.096" transform="translate(2.84 2.722)" fill="#c3bdef"/>
            <path id="Trazado_1070" data-name="Trazado 1070" d="M219.854,317.606l-24.36,24.36v-6.787l17.565-17.573Z" transform="translate(-193.936 -316.139)" fill="#fff" opacity="0.3"/>
            <path id="Trazado_1071" data-name="Trazado 1071" d="M223.153,317.606v.75l-27.659,27.659v-2.309l26.1-26.1Z" transform="translate(-193.936 -316.139)" fill="#fff" opacity="0.3"/>
            <path id="Trazado_1072" data-name="Trazado 1072" d="M223.289,328.645v6.779l-16.031,16.031H200.48Z" transform="translate(-194.073 -316.441)" fill="#fff" opacity="0.3"/>
            <path id="Trazado_1073" data-name="Trazado 1073" d="M223.529,337.4v2.317l-11.974,11.974h-2.317Z" transform="translate(-194.313 -316.681)" fill="#fff" opacity="0.3"/>
            <rect id="Rectángulo_2493" data-name="Rectángulo 2493" width="29.348" height="1.589" transform="translate(0.714 35.012)" fill="#fff"/>
            <rect id="Rectángulo_2494" data-name="Rectángulo 2494" width="29.348" height="1.589" transform="translate(0.714)" fill="#fff"/>
            <rect id="Rectángulo_2495" data-name="Rectángulo 2495" width="34.761" height="1.589" transform="translate(16.182 0.74) rotate(90)" fill="#fff"/>
            <rect id="Rectángulo_2496" data-name="Rectángulo 2496" width="30.776" height="1.589" transform="translate(0 36.601)" fill="#fff"/>
            <rect id="Rectángulo_2497" data-name="Rectángulo 2497" width="30.776" height="1.364" transform="translate(0 38.2)" fill="#6f3fbc"/>
          </g>
          <g id="Grupo_4713" data-name="Grupo 4713" transform="translate(0 57.286)">
            <rect id="Rectángulo_2498" data-name="Rectángulo 2498" width="27.659" height="33.547" transform="translate(1.558 1.467)" fill="#ddd6ff"/>
            <rect id="Rectángulo_2499" data-name="Rectángulo 2499" width="25.096" height="31.096" transform="translate(2.84 2.722)" fill="#c3bdef"/>
            <path id="Trazado_1074" data-name="Trazado 1074" d="M219.854,253.883l-24.36,24.36v-6.787l17.565-17.573Z" transform="translate(-193.936 -252.416)" fill="#fff" opacity="0.3"/>
            <path id="Trazado_1075" data-name="Trazado 1075" d="M223.153,253.883v.75l-27.659,27.659v-2.309l26.1-26.1Z" transform="translate(-193.936 -252.416)" fill="#fff" opacity="0.3"/>
            <path id="Trazado_1076" data-name="Trazado 1076" d="M223.289,264.922V271.7l-16.031,16.031H200.48Z" transform="translate(-194.073 -252.718)" fill="#fff" opacity="0.3"/>
            <path id="Trazado_1077" data-name="Trazado 1077" d="M223.529,273.68V276l-11.974,11.974h-2.317Z" transform="translate(-194.313 -252.958)" fill="#fff" opacity="0.3"/>
            <rect id="Rectángulo_2500" data-name="Rectángulo 2500" width="29.348" height="1.589" transform="translate(0.714 35.012)" fill="#fff"/>
            <rect id="Rectángulo_2501" data-name="Rectángulo 2501" width="29.348" height="1.589" transform="translate(0.714)" fill="#fff"/>
            <rect id="Rectángulo_2502" data-name="Rectángulo 2502" width="34.761" height="1.589" transform="translate(16.182 0.74) rotate(90)" fill="#fff"/>
            <rect id="Rectángulo_2503" data-name="Rectángulo 2503" width="30.776" height="1.589" transform="translate(0 36.601)" fill="#fff"/>
            <rect id="Rectángulo_2504" data-name="Rectángulo 2504" width="30.776" height="1.364" transform="translate(0 38.2)" fill="#6f3fbc"/>
          </g>
          <g id="Grupo_4714" data-name="Grupo 4714" transform="translate(40.459 57.286)">
            <rect id="Rectángulo_2505" data-name="Rectángulo 2505" width="27.659" height="33.547" transform="translate(1.558 1.467)" fill="#ddd6ff"/>
            <rect id="Rectángulo_2506" data-name="Rectángulo 2506" width="25.096" height="31.096" transform="translate(2.84 2.722)" fill="#c3bdef"/>
            <path id="Trazado_1078" data-name="Trazado 1078" d="M261.453,253.883l-24.36,24.36v-6.787l17.565-17.573Z" transform="translate(-235.535 -252.416)" fill="#fff" opacity="0.3"/>
            <path id="Trazado_1079" data-name="Trazado 1079" d="M264.751,253.883v.75l-27.659,27.659v-2.309l26.1-26.1Z" transform="translate(-235.535 -252.416)" fill="#fff" opacity="0.3"/>
            <path id="Trazado_1080" data-name="Trazado 1080" d="M264.888,264.922V271.7l-16.031,16.031h-6.779Z" transform="translate(-235.671 -252.718)" fill="#fff" opacity="0.3"/>
            <path id="Trazado_1081" data-name="Trazado 1081" d="M265.128,273.68V276l-11.974,11.974h-2.317Z" transform="translate(-235.911 -252.958)" fill="#fff" opacity="0.3"/>
            <rect id="Rectángulo_2507" data-name="Rectángulo 2507" width="29.348" height="1.589" transform="translate(0.714 35.012)" fill="#fff"/>
            <rect id="Rectángulo_2508" data-name="Rectángulo 2508" width="29.348" height="1.589" transform="translate(0.714)" fill="#fff"/>
            <rect id="Rectángulo_2509" data-name="Rectángulo 2509" width="34.761" height="1.589" transform="translate(16.182 0.74) rotate(90)" fill="#fff"/>
            <rect id="Rectángulo_2510" data-name="Rectángulo 2510" width="30.776" height="1.589" transform="translate(0 36.601)" fill="#fff"/>
            <rect id="Rectángulo_2511" data-name="Rectángulo 2511" width="30.776" height="1.364" transform="translate(0 38.2)" fill="#6f3fbc"/>
          </g>
          <g id="Grupo_4715" data-name="Grupo 4715" transform="translate(80.918 57.286)">
            <rect id="Rectángulo_2512" data-name="Rectángulo 2512" width="27.659" height="33.547" transform="translate(1.558 1.467)" fill="#ddd6ff"/>
            <rect id="Rectángulo_2513" data-name="Rectángulo 2513" width="25.096" height="31.096" transform="translate(2.84 2.722)" fill="#c3bdef"/>
            <path id="Trazado_1082" data-name="Trazado 1082" d="M303.051,253.883l-24.36,24.36v-6.787l17.565-17.573Z" transform="translate(-277.133 -252.416)" fill="#fff" opacity="0.3"/>
            <path id="Trazado_1083" data-name="Trazado 1083" d="M306.35,253.883v.75l-27.659,27.659v-2.309l26.1-26.1Z" transform="translate(-277.133 -252.416)" fill="#fff" opacity="0.3"/>
            <path id="Trazado_1084" data-name="Trazado 1084" d="M306.487,264.922V271.7l-16.031,16.031h-6.779Z" transform="translate(-277.27 -252.718)" fill="#fff" opacity="0.3"/>
            <path id="Trazado_1085" data-name="Trazado 1085" d="M306.726,273.68V276l-11.974,11.974h-2.317Z" transform="translate(-277.51 -252.958)" fill="#fff" opacity="0.3"/>
            <rect id="Rectángulo_2514" data-name="Rectángulo 2514" width="29.348" height="1.589" transform="translate(0.714 35.012)" fill="#fff"/>
            <rect id="Rectángulo_2515" data-name="Rectángulo 2515" width="29.348" height="1.589" transform="translate(0.714)" fill="#fff"/>
            <rect id="Rectángulo_2516" data-name="Rectángulo 2516" width="34.761" height="1.589" transform="translate(16.182 0.74) rotate(90)" fill="#fff"/>
            <rect id="Rectángulo_2517" data-name="Rectángulo 2517" width="30.776" height="1.589" transform="translate(0 36.601)" fill="#fff"/>
            <rect id="Rectángulo_2518" data-name="Rectángulo 2518" width="30.776" height="1.364" transform="translate(0 38.2)" fill="#6f3fbc"/>
          </g>
          <g id="Grupo_4716" data-name="Grupo 4716">
            <rect id="Rectángulo_2519" data-name="Rectángulo 2519" width="27.659" height="33.547" transform="translate(1.558 1.467)" fill="#ddd6ff"/>
            <rect id="Rectángulo_2520" data-name="Rectángulo 2520" width="25.096" height="31.096" transform="translate(2.84 2.722)" fill="#c3bdef"/>
            <path id="Trazado_1086" data-name="Trazado 1086" d="M219.854,194.984l-24.36,24.36v-6.787l17.565-17.573Z" transform="translate(-193.936 -193.517)" fill="#fff" opacity="0.3"/>
            <path id="Trazado_1087" data-name="Trazado 1087" d="M223.153,194.984v.75l-27.659,27.659v-2.309l26.1-26.1Z" transform="translate(-193.936 -193.517)" fill="#fff" opacity="0.3"/>
            <path id="Trazado_1088" data-name="Trazado 1088" d="M223.289,206.023V212.8l-16.031,16.031H200.48Z" transform="translate(-194.073 -193.819)" fill="#fff" opacity="0.3"/>
            <path id="Trazado_1089" data-name="Trazado 1089" d="M223.529,214.781V217.1l-11.974,11.974h-2.317Z" transform="translate(-194.313 -194.059)" fill="#fff" opacity="0.3"/>
            <rect id="Rectángulo_2521" data-name="Rectángulo 2521" width="29.348" height="1.589" transform="translate(0.714 35.012)" fill="#fff"/>
            <rect id="Rectángulo_2522" data-name="Rectángulo 2522" width="29.348" height="1.589" transform="translate(0.714)" fill="#fff"/>
            <rect id="Rectángulo_2523" data-name="Rectángulo 2523" width="34.761" height="1.589" transform="translate(16.182 0.74) rotate(90)" fill="#fff"/>
            <rect id="Rectángulo_2524" data-name="Rectángulo 2524" width="30.776" height="1.589" transform="translate(0 36.601)" fill="#fff"/>
            <rect id="Rectángulo_2525" data-name="Rectángulo 2525" width="30.776" height="1.364" transform="translate(0 38.2)" fill="#6f3fbc"/>
          </g>
          <g id="Grupo_4717" data-name="Grupo 4717" transform="translate(40.459)">
            <rect id="Rectángulo_2526" data-name="Rectángulo 2526" width="27.659" height="33.547" transform="translate(1.558 1.467)" fill="#ddd6ff"/>
            <rect id="Rectángulo_2527" data-name="Rectángulo 2527" width="25.096" height="31.096" transform="translate(2.84 2.722)" fill="#c3bdef"/>
            <path id="Trazado_1090" data-name="Trazado 1090" d="M261.453,194.984l-24.36,24.36v-6.787l17.565-17.573Z" transform="translate(-235.535 -193.517)" fill="#fff" opacity="0.3"/>
            <path id="Trazado_1091" data-name="Trazado 1091" d="M264.751,194.984v.75l-27.659,27.659v-2.309l26.1-26.1Z" transform="translate(-235.535 -193.517)" fill="#fff" opacity="0.3"/>
            <path id="Trazado_1092" data-name="Trazado 1092" d="M264.888,206.023V212.8l-16.031,16.031h-6.779Z" transform="translate(-235.671 -193.819)" fill="#fff" opacity="0.3"/>
            <path id="Trazado_1093" data-name="Trazado 1093" d="M265.128,214.781V217.1l-11.974,11.974h-2.317Z" transform="translate(-235.911 -194.059)" fill="#fff" opacity="0.3"/>
            <rect id="Rectángulo_2528" data-name="Rectángulo 2528" width="29.348" height="1.589" transform="translate(0.714 35.012)" fill="#fff"/>
            <rect id="Rectángulo_2529" data-name="Rectángulo 2529" width="29.348" height="1.589" transform="translate(0.714)" fill="#fff"/>
            <rect id="Rectángulo_2530" data-name="Rectángulo 2530" width="34.761" height="1.589" transform="translate(16.182 0.74) rotate(90)" fill="#fff"/>
            <rect id="Rectángulo_2531" data-name="Rectángulo 2531" width="30.776" height="1.589" transform="translate(0 36.601)" fill="#fff"/>
            <rect id="Rectángulo_2532" data-name="Rectángulo 2532" width="30.776" height="1.364" transform="translate(0 38.2)" fill="#6f3fbc"/>
          </g>
          <g id="Grupo_4718" data-name="Grupo 4718" transform="translate(80.918)">
            <rect id="Rectángulo_2533" data-name="Rectángulo 2533" width="27.659" height="33.547" transform="translate(1.558 1.467)" fill="#ddd6ff"/>
            <rect id="Rectángulo_2534" data-name="Rectángulo 2534" width="25.096" height="31.096" transform="translate(2.84 2.722)" fill="#c3bdef"/>
            <path id="Trazado_1094" data-name="Trazado 1094" d="M303.051,194.984l-24.36,24.36v-6.787l17.565-17.573Z" transform="translate(-277.133 -193.517)" fill="#fff" opacity="0.3"/>
            <path id="Trazado_1095" data-name="Trazado 1095" d="M306.35,194.984v.75l-27.659,27.659v-2.309l26.1-26.1Z" transform="translate(-277.133 -193.517)" fill="#fff" opacity="0.3"/>
            <path id="Trazado_1096" data-name="Trazado 1096" d="M306.487,206.023V212.8l-16.031,16.031h-6.779Z" transform="translate(-277.27 -193.819)" fill="#fff" opacity="0.3"/>
            <path id="Trazado_1097" data-name="Trazado 1097" d="M306.726,214.781V217.1l-11.974,11.974h-2.317Z" transform="translate(-277.51 -194.059)" fill="#fff" opacity="0.3"/>
            <rect id="Rectángulo_2535" data-name="Rectángulo 2535" width="29.348" height="1.589" transform="translate(0.714 35.012)" fill="#fff"/>
            <rect id="Rectángulo_2536" data-name="Rectángulo 2536" width="29.348" height="1.589" transform="translate(0.714)" fill="#fff"/>
            <rect id="Rectángulo_2537" data-name="Rectángulo 2537" width="34.761" height="1.589" transform="translate(16.182 0.74) rotate(90)" fill="#fff"/>
            <rect id="Rectángulo_2538" data-name="Rectángulo 2538" width="30.776" height="1.589" transform="translate(0 36.601)" fill="#fff"/>
            <rect id="Rectángulo_2539" data-name="Rectángulo 2539" width="30.776" height="1.364" transform="translate(0 38.2)" fill="#6f3fbc"/>
          </g>
          <g id="Grupo_4719" data-name="Grupo 4719" transform="translate(80.908 119.264)">
            <rect id="Rectángulo_2540" data-name="Rectángulo 2540" width="27.659" height="33.547" transform="translate(1.558 1.467)" fill="#ddd6ff"/>
            <rect id="Rectángulo_2541" data-name="Rectángulo 2541" width="25.096" height="31.096" transform="translate(2.84 2.722)" fill="#c3bdef"/>
            <path id="Trazado_1098" data-name="Trazado 1098" d="M303.041,317.606l-24.36,24.36v-6.787l17.565-17.573Z" transform="translate(-277.123 -316.139)" fill="#fff" opacity="0.3"/>
            <path id="Trazado_1099" data-name="Trazado 1099" d="M306.34,317.606v.75l-27.659,27.659v-2.309l26.1-26.1Z" transform="translate(-277.123 -316.139)" fill="#fff" opacity="0.3"/>
            <path id="Trazado_1100" data-name="Trazado 1100" d="M306.476,328.645v6.779l-16.031,16.031h-6.779Z" transform="translate(-277.26 -316.441)" fill="#fff" opacity="0.3"/>
            <path id="Trazado_1101" data-name="Trazado 1101" d="M306.716,337.4v2.317l-11.974,11.974h-2.317Z" transform="translate(-277.5 -316.681)" fill="#fff" opacity="0.3"/>
            <rect id="Rectángulo_2542" data-name="Rectángulo 2542" width="29.348" height="1.589" transform="translate(0.714 35.012)" fill="#fff"/>
            <rect id="Rectángulo_2543" data-name="Rectángulo 2543" width="29.348" height="1.589" transform="translate(0.714)" fill="#fff"/>
            <rect id="Rectángulo_2544" data-name="Rectángulo 2544" width="34.761" height="1.589" transform="translate(16.182 0.74) rotate(90)" fill="#fff"/>
            <rect id="Rectángulo_2545" data-name="Rectángulo 2545" width="30.776" height="1.589" transform="translate(0 36.601)" fill="#fff"/>
            <rect id="Rectángulo_2546" data-name="Rectángulo 2546" width="30.776" height="1.364" transform="translate(0 38.2)" fill="#6f3fbc"/>
          </g>
        </g>
        <g id="Grupo_4725" data-name="Grupo 4725" transform="translate(41.541 32.961)">
          <g id="Grupo_4721" data-name="Grupo 4721" transform="translate(0 58.498)">
            <rect id="Rectángulo_2547" data-name="Rectángulo 2547" width="5.345" height="3.917" fill="#7144b7"/>
            <rect id="Rectángulo_2548" data-name="Rectángulo 2548" width="3.85" height="3.917" transform="translate(0 5.796)" fill="#7144b7"/>
            <rect id="Rectángulo_2549" data-name="Rectángulo 2549" width="5.345" height="3.917" transform="translate(0 11.591)" fill="#7144b7"/>
            <rect id="Rectángulo_2550" data-name="Rectángulo 2550" width="3.85" height="3.917" transform="translate(0 17.387)" fill="#7144b7"/>
            <rect id="Rectángulo_2551" data-name="Rectángulo 2551" width="5.345" height="3.917" transform="translate(0 23.183)" fill="#7144b7"/>
            <rect id="Rectángulo_2552" data-name="Rectángulo 2552" width="3.85" height="3.917" transform="translate(0 28.978)" fill="#7144b7"/>
            <rect id="Rectángulo_2553" data-name="Rectángulo 2553" width="5.345" height="3.917" transform="translate(0 34.774)" fill="#7144b7"/>
            <rect id="Rectángulo_2554" data-name="Rectángulo 2554" width="3.85" height="3.917" transform="translate(0 40.57)" fill="#7144b7"/>
            <rect id="Rectángulo_2555" data-name="Rectángulo 2555" width="5.345" height="3.917" transform="translate(0 46.365)" fill="#7144b7"/>
          </g>
          <g id="Grupo_4722" data-name="Grupo 4722" transform="translate(118.218 58.498)">
            <rect id="Rectángulo_2556" data-name="Rectángulo 2556" width="5.345" height="3.917" transform="translate(5.345 3.917) rotate(180)" fill="#7144b7"/>
            <rect id="Rectángulo_2557" data-name="Rectángulo 2557" width="3.85" height="3.917" transform="translate(5.345 9.713) rotate(180)" fill="#7144b7"/>
            <rect id="Rectángulo_2558" data-name="Rectángulo 2558" width="5.345" height="3.917" transform="translate(5.345 15.508) rotate(180)" fill="#7144b7"/>
            <rect id="Rectángulo_2559" data-name="Rectángulo 2559" width="3.85" height="3.917" transform="translate(5.345 21.304) rotate(180)" fill="#7144b7"/>
            <rect id="Rectángulo_2560" data-name="Rectángulo 2560" width="5.345" height="3.917" transform="translate(5.345 27.1) rotate(180)" fill="#7144b7"/>
            <rect id="Rectángulo_2561" data-name="Rectángulo 2561" width="3.85" height="3.917" transform="translate(5.345 32.895) rotate(180)" fill="#7144b7"/>
            <rect id="Rectángulo_2562" data-name="Rectángulo 2562" width="5.345" height="3.917" transform="translate(5.345 38.691) rotate(180)" fill="#7144b7"/>
            <rect id="Rectángulo_2563" data-name="Rectángulo 2563" width="3.85" height="3.917" transform="translate(5.345 44.487) rotate(180)" fill="#7144b7"/>
            <rect id="Rectángulo_2564" data-name="Rectángulo 2564" width="5.345" height="3.917" transform="translate(5.345 50.282) rotate(180)" fill="#7144b7"/>
          </g>
          <g id="Grupo_4723" data-name="Grupo 4723">
            <rect id="Rectángulo_2565" data-name="Rectángulo 2565" width="5.345" height="3.917" fill="#7144b7"/>
            <rect id="Rectángulo_2566" data-name="Rectángulo 2566" width="3.85" height="3.917" transform="translate(0 5.796)" fill="#7144b7"/>
            <rect id="Rectángulo_2567" data-name="Rectángulo 2567" width="5.345" height="3.917" transform="translate(0 11.591)" fill="#7144b7"/>
            <rect id="Rectángulo_2568" data-name="Rectángulo 2568" width="3.85" height="3.917" transform="translate(0 17.387)" fill="#7144b7"/>
            <rect id="Rectángulo_2569" data-name="Rectángulo 2569" width="5.345" height="3.917" transform="translate(0 23.183)" fill="#7144b7"/>
            <rect id="Rectángulo_2570" data-name="Rectángulo 2570" width="3.85" height="3.917" transform="translate(0 28.978)" fill="#7144b7"/>
            <rect id="Rectángulo_2571" data-name="Rectángulo 2571" width="5.345" height="3.917" transform="translate(0 34.774)" fill="#7144b7"/>
            <rect id="Rectángulo_2572" data-name="Rectángulo 2572" width="3.85" height="3.917" transform="translate(0 40.57)" fill="#7144b7"/>
            <rect id="Rectángulo_2573" data-name="Rectángulo 2573" width="5.345" height="3.917" transform="translate(0 46.365)" fill="#7144b7"/>
          </g>
          <g id="Grupo_4724" data-name="Grupo 4724" transform="translate(118.218)">
            <rect id="Rectángulo_2574" data-name="Rectángulo 2574" width="5.345" height="3.917" transform="translate(5.345 3.917) rotate(180)" fill="#7144b7"/>
            <rect id="Rectángulo_2575" data-name="Rectángulo 2575" width="3.85" height="3.917" transform="translate(5.345 9.713) rotate(180)" fill="#7144b7"/>
            <rect id="Rectángulo_2576" data-name="Rectángulo 2576" width="5.345" height="3.917" transform="translate(5.345 15.508) rotate(180)" fill="#7144b7"/>
            <rect id="Rectángulo_2577" data-name="Rectángulo 2577" width="3.85" height="3.917" transform="translate(5.345 21.304) rotate(180)" fill="#7144b7"/>
            <rect id="Rectángulo_2578" data-name="Rectángulo 2578" width="5.345" height="3.917" transform="translate(5.345 27.1) rotate(180)" fill="#7144b7"/>
            <rect id="Rectángulo_2579" data-name="Rectángulo 2579" width="3.85" height="3.917" transform="translate(5.345 32.895) rotate(180)" fill="#7144b7"/>
            <rect id="Rectángulo_2580" data-name="Rectángulo 2580" width="5.345" height="3.917" transform="translate(5.345 38.691) rotate(180)" fill="#7144b7"/>
            <rect id="Rectángulo_2581" data-name="Rectángulo 2581" width="3.85" height="3.917" transform="translate(5.345 44.487) rotate(180)" fill="#7144b7"/>
            <rect id="Rectángulo_2582" data-name="Rectángulo 2582" width="5.345" height="3.917" transform="translate(5.345 50.282) rotate(180)" fill="#7144b7"/>
          </g>
        </g>
        <g id="Grupo_4729" data-name="Grupo 4729" transform="translate(77.788 156.974)">
          <g id="Grupo_4726" data-name="Grupo 4726" transform="translate(0 50.537)">
            <rect id="Rectángulo_2583" data-name="Rectángulo 2583" width="51.07" height="4.821" transform="translate(0 4.821)" fill="#fff"/>
            <rect id="Rectángulo_2584" data-name="Rectángulo 2584" width="44.193" height="4.821" transform="translate(3.439)" fill="#fff"/>
            <rect id="Rectángulo_2585" data-name="Rectángulo 2585" width="44.193" height="1.076" transform="translate(3.439 3.745)" fill="#ddd6ff"/>
          </g>
          <g id="Grupo_4728" data-name="Grupo 4728" transform="translate(6.956)">
            <path id="Trazado_1102" data-name="Trazado 1102" d="M250.778,314.3a18.6,18.6,0,0,0-18.58,18.579v31.955h1.65V332.874a16.93,16.93,0,1,1,33.86,0v31.955h1.649V332.874A18.6,18.6,0,0,0,250.778,314.3Z" transform="translate(-232.198 -314.295)" fill="#fff"/>
            <path id="Trazado_1103" data-name="Trazado 1103" d="M267.754,332.92v31.955h-33.86V332.92a15.51,15.51,0,0,1,.083-1.65,16.922,16.922,0,0,1,16.848-15.281,15.094,15.094,0,0,1,2.219.158,16.588,16.588,0,0,1,6.432,2.218,15.248,15.248,0,0,1,1.913,1.336,14.328,14.328,0,0,1,1.41,1.245l.05.05a16.828,16.828,0,0,1,4.741,9.632c.033.215.057.429.083.643A15.764,15.764,0,0,1,267.754,332.92Z" transform="translate(-232.244 -314.341)" fill="#ddd6ff"/>
            <g id="Grupo_4727" data-name="Grupo 4727" transform="translate(1.65 1.806)" opacity="0.3">
              <path id="Trazado_1104" data-name="Trazado 1104" d="M259.475,318.37l-25.581,25.573V335.3l19.149-19.148A16.588,16.588,0,0,1,259.475,318.37Z" transform="translate(-233.894 -316.152)" fill="#fff"/>
              <path id="Trazado_1105" data-name="Trazado 1105" d="M262.848,321.1l-28.954,28.945v-2.738l27.494-27.5a14.328,14.328,0,0,1,1.41,1.245Z" transform="translate(-233.894 -316.252)" fill="#fff"/>
              <path id="Trazado_1106" data-name="Trazado 1106" d="M267.754,333.332v6.194l-25.77,25.761h-8.09v-.552l33.7-33.7A15.046,15.046,0,0,1,267.754,333.332Z" transform="translate(-233.894 -316.56)" fill="#fff"/>
              <path id="Trazado_1107" data-name="Trazado 1107" d="M268.074,343.114v2.746l-19.758,19.758h-2.746Z" transform="translate(-234.214 -316.891)" fill="#fff"/>
            </g>
            <path id="Trazado_1108" data-name="Trazado 1108" d="M267.754,333.351v.083h-33.86v-.083a15.51,15.51,0,0,1,.083-1.65h33.7A15.764,15.764,0,0,1,267.754,333.351Z" transform="translate(-232.244 -314.772)" fill="#fff"/>
            <rect id="Rectángulo_2586" data-name="Rectángulo 2586" width="32.742" height="1.739" transform="translate(19.449 17.795) rotate(90)" fill="#fff"/>
          </g>
        </g>
        <g id="Grupo_4732" data-name="Grupo 4732" transform="translate(76.779 141.038)">
          <g id="Grupo_4730" data-name="Grupo 4730">
            <path id="Trazado_1109" data-name="Trazado 1109" d="M271.048,311.755H230.074a1.467,1.467,0,0,1-1.466-1.466v-.428a5.052,5.052,0,0,1,0-10.063v-.423a1.467,1.467,0,0,1,1.466-1.466h40.974a1.467,1.467,0,0,1,1.466,1.466.5.5,0,0,0,.434.485,5.056,5.056,0,0,1,0,9.942.5.5,0,0,0-.435.486A1.467,1.467,0,0,1,271.048,311.755Zm-41.955-11a4.081,4.081,0,1,0-.029,8.162h.486l.031.484v.891a.494.494,0,0,0,.493.493h40.974a.494.494,0,0,0,.493-.493,1.484,1.484,0,0,1,1.231-1.443,4.083,4.083,0,0,0,0-8.028,1.48,1.48,0,0,1-1.231-1.442.494.494,0,0,0-.493-.493H230.074a.494.494,0,0,0-.493.493v1.376h-.488Z" transform="translate(-224.009 -297.91)" fill="#eaa221"/>
          </g>
          <path id="Trazado_1110" data-name="Trazado 1110" d="M272.041,299.389h0a.98.98,0,0,0-.979-.979H230.088a.98.98,0,0,0-.979.979v.89h-.031a4.568,4.568,0,1,0,0,9.136l.031,0v.891a.979.979,0,0,0,.979.978h40.974a.979.979,0,0,0,.979-.978h0a.99.99,0,0,1,.833-.965,4.569,4.569,0,0,0,0-8.984A.992.992,0,0,1,272.041,299.389Z" transform="translate(-224.023 -297.924)" fill="#f8d846"/>
          <g id="Grupo_4731" data-name="Grupo 4731" transform="translate(9.769 3.347)">
            <path id="Trazado_1111" data-name="Trazado 1111" d="M240.326,301.454v7.06h-1.311v-3.026h-3.651v3.026h-1.311v-7.06h1.311v2.915h3.651v-2.915Z" transform="translate(-234.053 -301.354)" fill="#581e96"/>
            <path id="Trazado_1112" data-name="Trazado 1112" d="M243.79,308.143a3.476,3.476,0,0,1-1.362-1.3,3.752,3.752,0,0,1,0-3.722,3.478,3.478,0,0,1,1.362-1.3,4.284,4.284,0,0,1,3.893,0,3.48,3.48,0,0,1,1.362,1.3,3.77,3.77,0,0,1,0,3.732,3.485,3.485,0,0,1-1.362,1.3,4.276,4.276,0,0,1-3.893,0Zm3.217-1a2.3,2.3,0,0,0,.888-.887,2.685,2.685,0,0,0,0-2.553,2.3,2.3,0,0,0-.888-.887,2.7,2.7,0,0,0-2.541,0,2.3,2.3,0,0,0-.887.887,2.685,2.685,0,0,0,0,2.553,2.3,2.3,0,0,0,.887.887,2.7,2.7,0,0,0,2.541,0Z" transform="translate(-234.269 -301.351)" fill="#581e96"/>
            <path id="Trazado_1113" data-name="Trazado 1113" d="M252.487,302.564h-2.34v-1.11h5.991v1.11H253.8v5.95h-1.312Z" transform="translate(-234.494 -301.354)" fill="#581e96"/>
            <path id="Trazado_1114" data-name="Trazado 1114" d="M262.619,307.415v1.1h-5.3v-7.06h5.154v1.1h-3.842v1.836h3.409v1.079h-3.409v1.947Z" transform="translate(-234.69 -301.354)" fill="#581e96"/>
            <path id="Trazado_1115" data-name="Trazado 1115" d="M264.271,301.454h1.312v5.95h3.691v1.11h-5Z" transform="translate(-234.881 -301.354)" fill="#581e96"/>
          </g>
        </g>
        <g id="Grupo_4737" data-name="Grupo 4737" transform="translate(47.241)">
          <rect id="Rectángulo_2587" data-name="Rectángulo 2587" width="108.427" height="11.891" transform="translate(1.868 4.493)" fill="#854dce"/>
          <rect id="Rectángulo_2588" data-name="Rectángulo 2588" width="112.163" height="4.493" fill="#581e96"/>
          <rect id="Rectángulo_2589" data-name="Rectángulo 2589" width="108.427" height="1.737" transform="translate(1.868 4.493)" fill="#6f3fbc"/>
          <g id="Grupo_4733" data-name="Grupo 4733" transform="translate(4.777 7.589)">
            <rect id="Rectángulo_2590" data-name="Rectángulo 2590" width="23.305" height="7.249" fill="#c3bdef"/>
            <path id="Trazado_1116" data-name="Trazado 1116" d="M214.626,160.7l-7.249,7.249h-7.158l7.249-7.249Z" transform="translate(-198.597 -160.702)" fill="#fff" opacity="0.3"/>
            <path id="Trazado_1117" data-name="Trazado 1117" d="M218.944,160.7l-7.249,7.249h-2.03l7.249-7.249Z" transform="translate(-198.856 -160.702)" fill="#fff" opacity="0.3"/>
          </g>
          <g id="Grupo_4734" data-name="Grupo 4734" transform="translate(31.056 7.589)">
            <rect id="Rectángulo_2591" data-name="Rectángulo 2591" width="23.305" height="7.249" fill="#c3bdef"/>
            <path id="Trazado_1118" data-name="Trazado 1118" d="M241.645,160.7l-7.249,7.249h-7.158l7.249-7.249Z" transform="translate(-225.616 -160.702)" fill="#fff" opacity="0.3"/>
            <path id="Trazado_1119" data-name="Trazado 1119" d="M245.963,160.7l-7.249,7.249h-2.03l7.249-7.249Z" transform="translate(-225.875 -160.702)" fill="#fff" opacity="0.3"/>
          </g>
          <g id="Grupo_4735" data-name="Grupo 4735" transform="translate(57.334 7.589)">
            <rect id="Rectángulo_2592" data-name="Rectángulo 2592" width="23.305" height="7.249" fill="#c3bdef"/>
            <path id="Trazado_1120" data-name="Trazado 1120" d="M268.664,160.7l-7.249,7.249h-7.158l7.249-7.249Z" transform="translate(-252.634 -160.702)" fill="#fff" opacity="0.3"/>
            <path id="Trazado_1121" data-name="Trazado 1121" d="M272.982,160.7l-7.249,7.249H263.7l7.249-7.249Z" transform="translate(-252.893 -160.702)" fill="#fff" opacity="0.3"/>
          </g>
          <g id="Grupo_4736" data-name="Grupo 4736" transform="translate(83.613 7.589)">
            <rect id="Rectángulo_2593" data-name="Rectángulo 2593" width="23.305" height="7.249" fill="#c3bdef"/>
            <path id="Trazado_1122" data-name="Trazado 1122" d="M295.683,160.7l-7.249,7.249h-7.158l7.249-7.249Z" transform="translate(-279.653 -160.702)" fill="#fff" opacity="0.3"/>
            <path id="Trazado_1123" data-name="Trazado 1123" d="M300,160.7l-7.249,7.249h-2.03l7.249-7.249Z" transform="translate(-279.912 -160.702)" fill="#fff" opacity="0.3"/>
          </g>
        </g>
      </g>
      <g id="Grupo_4745" data-name="Grupo 4745" transform="translate(301.128 209.122)">
        <path id="Trazado_1124" data-name="Trazado 1124" d="M330.413,399.839c0,1.305,12.016,2.365,26.839,2.365s26.836-1.06,26.836-2.365-12.016-2.365-26.836-2.365S330.413,398.533,330.413,399.839Z" transform="translate(-309.048 -232.298)" fill="#e6ecef"/>
        <path id="Trazado_1125" data-name="Trazado 1125" d="M352.55,250.452a10.017,10.017,0,0,0-2.446,3.484,4.552,4.552,0,0,0,.337,4.114,1.9,1.9,0,0,0,1.928.923,2.115,2.115,0,0,0,.549-.265,7.368,7.368,0,0,0,3.346-5.238" transform="translate(-309.578 -228.271)" fill="#153351"/>
        <g id="Grupo_4744" data-name="Grupo 4744">
          <g id="Grupo_4739" data-name="Grupo 4739" transform="translate(59.651 156.669)">
            <path id="Trazado_1126" data-name="Trazado 1126" d="M374.334,389.586s1.2,3.477,1.543,4.35,2.927.07,3.076-.494-1.013-4.715-1.013-4.715" transform="translate(-369.902 -388.727)" fill="#fcb6ac"/>
            <path id="Trazado_1127" data-name="Trazado 1127" d="M379.591,393.63a8.876,8.876,0,0,1,.771,2.709c-.124.465-3.4,1.855-4.131,2.3a9.213,9.213,0,0,1-2.367.9c-2.177.389-3.847.01-4.012-.328-.693-1.41,3.619-2.35,5.457-6.332a.881.881,0,0,1,.665.3,1.516,1.516,0,0,0,1.842.372,2.425,2.425,0,0,0,.9-1.038A1.677,1.677,0,0,1,379.591,393.63Z" transform="translate(-369.777 -388.831)" fill="#5245b5"/>
          </g>
          <g id="Grupo_4740" data-name="Grupo 4740" transform="translate(28.226 158.961)">
            <path id="Trazado_1128" data-name="Trazado 1128" d="M344.719,391.084s.085,3.676.148,4.613,2.766.956,3.08.465.468-4.8.468-4.8" transform="translate(-337.666 -391.084)" fill="#fcb6ac"/>
            <path id="Trazado_1129" data-name="Trazado 1129" d="M348.45,396.568a8.847,8.847,0,0,1-.089,2.815c-.258.406-3.8.734-4.634.937a9.194,9.194,0,0,1-2.528.138c-2.192-.291-3.668-1.159-3.723-1.531-.231-1.555,4.163-1.139,7.123-4.374a.88.88,0,0,1,.543.487,1.516,1.516,0,0,0,1.642.914,2.419,2.419,0,0,0,1.177-.713A1.671,1.671,0,0,1,348.45,396.568Z" transform="translate(-337.467 -391.179)" fill="#5245b5"/>
          </g>
          <path id="Trazado_1130" data-name="Trazado 1130" d="M314.12,243.494c.014-.4.54-.247.7.071a2.287,2.287,0,0,1,.093.278c-.1-.652-.166-1.183-.161-1.315.012-.379.5-.274.68.009-.03-.263-.05-.461-.048-.547.007-.486.538-.325.7.064a5.928,5.928,0,0,1,.167.66,3.318,3.318,0,0,1-.031-.367c.013-.4.478-.333.634-.015a4.959,4.959,0,0,1,.2.761c.091.394.237.813.321,1.211.076.361.644,2.041,1.509,2.152,1.329.172.313-2.03,1.191-2.615.275-.183.728,1.551.832,2.545a11.111,11.111,0,0,1,.106,2.085,13.789,13.789,0,0,0-.214,1.8,7.4,7.4,0,0,0,.885,1.685l-3.234,1.022a13.335,13.335,0,0,0-1.362-2.135,7.563,7.563,0,0,1-2.288-3.365,14.7,14.7,0,0,1-.6-2.637S314.116,243.624,314.12,243.494Z" transform="translate(-308.601 -228.031)" fill="#fcb6ac"/>
          <path id="Trazado_1131" data-name="Trazado 1131" d="M347.49,268.721s-10.46.772-16.661-5.119c-5.052-5.969-10.006-12.625-10.386-13.25-.863.414-2.7,1.449-2.7,1.449s7.087,12.888,9.671,15.751,7.58,7.491,17.472,9.175C349.08,271.017,347.49,268.721,347.49,268.721Z" transform="translate(-308.7 -228.268)" fill="#fcb6ac"/>
          <path id="Trazado_1132" data-name="Trazado 1132" d="M341.058,354.388c-.6-7.9,2.128-32.675,2.395-34.807s1.765-2.4,2.911-2.753c5.714-1.719,12.492,7.146,10.687,15.106-.025.128-.061.266-.1.4-1.074,4.61-7.137,19.425-6.711,23.707,3.319,8.964-.447,27.537-1.584,35.348-.139,0-.277,0-.406-.006a23.293,23.293,0,0,1-4.464-.491S341.663,362.29,341.058,354.388Z" transform="translate(-309.337 -230.083)" fill="#5245b5"/>
          <path id="Trazado_1133" data-name="Trazado 1133" d="M348.519,356.326c-.206-2.919,2.744-26.115,3.473-25.8a1.267,1.267,0,0,1,.525.576c.611,1.049,1.2,2.114,1.71,3.214a29.319,29.319,0,0,1,1.353,3.5c-2.139,6.311-5.449,15.4-5.13,18.607,1.968,5.314,1.444,14,.456,21.828C351.288,367.96,348.684,358.655,348.519,356.326Z" transform="translate(-309.543 -230.464)" fill="#39349b"/>
          <path id="Trazado_1134" data-name="Trazado 1134" d="M344.429,310.923a27.125,27.125,0,0,0,6.5.424c5.491-.144,12.456-2.924,12.456-2.924,7.006,7.581,3.155,16.459,3.4,19.38s.81,16.792,1.437,24.52c7.1,6.957,7.364,25.455,9.442,35.18l.076.332a24.066,24.066,0,0,1-4.712,1.315l-.275-.779c-2.115-6.4-11.888-24.745-14.321-31.915-2.207-6.5-7.907-26.249-8.012-26.23l-7.268,1.243A139.792,139.792,0,0,1,344.429,310.923Z" transform="translate(-309.396 -229.859)" fill="#5245b5"/>
          <g id="Grupo_4742" data-name="Grupo 4742" transform="translate(39.303 22.063)">
            <g id="Grupo_4741" data-name="Grupo 4741">
              <path id="Trazado_1135" data-name="Trazado 1135" d="M364.475,259.333a10.869,10.869,0,0,1-1.758,3.235c-1.45,2.03-3.271,4.041-3.434,4.35a4.094,4.094,0,0,0,.508,4.2l-4,3.642-1.223,1.123-.816-.815-2.5-2.492.2-3.344a2.09,2.09,0,0,0,.806-1.26c.036-.118.072-.227.109-.336.1-.326.181-.607.19-.68-.28-.135-.987-.416-2.238-1.115a3.427,3.427,0,0,1-1.341-3.914c.272-1.224,2.193-7.368,2.193-7.368,1.74-7.611,11.607-2.935,12.93-1.476S365,257.005,364.475,259.333Z" transform="translate(-348.856 -250.33)" fill="#fcb6ac"/>
            </g>
          </g>
          <path id="Trazado_1136" data-name="Trazado 1136" d="M368.2,318.362c-1.367.254-2.7.453-4,.608a65.749,65.749,0,0,1-21.639-.743s-1.051-30.011,3.543-45.959c.824-2.873,2.292-3.453,5.156-3.19,2.6,4.6,7.9.676,7.9.676a28.991,28.991,0,0,1,5.646,3.837,2.864,2.864,0,0,1,.616,1.476,38.546,38.546,0,0,1,.48,6.352c.073,3.988-.09,7.992,0,8.119.063.09.126,2.383.235,5.6l.027.508C366.343,300.684,367.5,313.959,368.2,318.362Z" transform="translate(-309.377 -228.78)" fill="#b0b1fd"/>
          <path id="Trazado_1137" data-name="Trazado 1137" d="M366.307,295.964l-.027-.508c-.109-3.216-.172-5.509-.235-5.6-.09-.127.073-4.132,0-8.119l-3.334-.48s-5.057-.5-5.174-.362c-.048.055-1.147.725-2.429,1.5-1.411-.673-2.592-1.218-2.7-1.233l-3.681-.528-.956.941a20.475,20.475,0,0,0,3.09,1.928,6.493,6.493,0,0,0,0,1.681,51.648,51.648,0,0,0,8.107,1.865,4.119,4.119,0,0,1,3.427,2.867c.054.182.1.373.148.577.426,1.948,1.413,20.967,1.794,28.8,1.3-.155,2.637-.354,4-.608C367.648,314.277,366.489,301,366.307,295.964Z" transform="translate(-309.523 -229.098)" fill="#989ded"/>
          <path id="Trazado_1138" data-name="Trazado 1138" d="M348.912,269.078a20.732,20.732,0,0,1-10.135-1.381c-2.7,3.179-3.8,8.289-3.8,8.289s6.538,4.154,11.316,4.554A66.807,66.807,0,0,1,348.912,269.078Z" transform="translate(-309.173 -228.743)" fill="#b0b1fd"/>
          <path id="Trazado_1139" data-name="Trazado 1139" d="M347.991,270.144a22.968,22.968,0,0,0-3.913,10.062,29.177,29.177,0,0,1-9.1-4.153c1.451.469,7.643,2.772,8.49.866A29.509,29.509,0,0,1,347.991,270.144Z" transform="translate(-309.173 -228.81)" fill="#989ded"/>
          <path id="Trazado_1140" data-name="Trazado 1140" d="M310.888,234.9,321.3,236.56a2.107,2.107,0,0,0,1.857-.627l7.27-7.631a2.1,2.1,0,0,1,3.6,1.125l1.635,10.413a2.1,2.1,0,0,0,1.17,1.572l9.5,4.557a2.1,2.1,0,0,1,.043,3.775l-9.4,4.773a2.11,2.11,0,0,0-1.134,1.6l-1.4,10.447a2.105,2.105,0,0,1-3.577,1.208l-7.443-7.463a2.1,2.1,0,0,0-1.869-.585l-10.368,1.9a2.1,2.1,0,0,1-2.254-3.029l4.8-9.385a2.1,2.1,0,0,0-.022-1.96l-5.011-9.273A2.1,2.1,0,0,1,310.888,234.9Z" transform="translate(-308.446 -227.646)" fill="#f8d845"/>
          <g id="Grupo_4743" data-name="Grupo 4743" transform="translate(30.928 15.576)">
            <path id="Trazado_1141" data-name="Trazado 1141" d="M356.083,284.216a39.283,39.283,0,0,1-11.96-5.53,9.246,9.246,0,0,1-3.571-5.18c-1.035-5.779.808-16.227,1.7-20.053,2.593.167,3.117.714,3.117.714s.789,11.267.689,17.908c0,0,6.344,3.982,13.1,3.585" transform="translate(-340.245 -243.929)" fill="#fcb6ac"/>
            <path id="Trazado_1142" data-name="Trazado 1142" d="M345.38,254.227a7.62,7.62,0,0,1,.612-3.028c.615-1.089,2.253-2.617,1.809-4.21a5.185,5.185,0,0,0-2.844-2.651c-2.484-1.016-3.505-.728-3.677-.178s1.287,1.68,1.2,2.741-.63,1.427-1.075,2.378c-.669,1.43.843,3.141.838,4.055C342.237,253.983,345.38,254.227,345.38,254.227Z" transform="translate(-340.272 -243.661)" fill="#fcb6ac"/>
          </g>
          <path id="Trazado_1143" data-name="Trazado 1143" d="M361.608,275.188a25.77,25.77,0,0,1-8.094.246,37.483,37.483,0,0,0-2.194,8.868s4.885,2.847,12.2.5a5.157,5.157,0,0,0,3.493-4.847c.148-5.108-2.416-6.612-2.416-6.612" transform="translate(-309.62 -228.898)" fill="#b0b1fd"/>
          <path id="Trazado_1144" data-name="Trazado 1144" d="M353.576,275.488s.487-.025,1.212-.037l2.647-.023,1.409-.013c.449-.012.87-.011,1.23-.03s.662-.022.872-.05l.335-.019a7.487,7.487,0,0,1-1.178.322,14.411,14.411,0,0,1-2.666.242,19.684,19.684,0,0,1-2.665-.175C354.051,275.607,353.576,275.488,353.576,275.488Z" transform="translate(-309.682 -228.952)" fill="#989ded"/>
        </g>
        <path id="Trazado_1145" data-name="Trazado 1145" d="M354.831,252.036c-2.2-.686-5.13-.816-3.836-4.014.755-1.867,3.311-3.389,6.4-3.22,1.271.069,2.65,1.133,3.711,2.62a7.994,7.994,0,0,0,2.393,2.308c3.541,2.084,3.919,5.592,3.049,9.133,0,0-2.162,7.5-7.833,7.775a15.627,15.627,0,0,1,.582-3.451s2.431-.722,2.842-2.093a1.253,1.253,0,0,0-1.038-1.529c-.684-.017-1.211.84-1.211.84a14.56,14.56,0,0,1,.264-2.849,2.306,2.306,0,0,1,.809-1.256C360.865,256.107,359.742,253.566,354.831,252.036Z" transform="translate(-309.603 -228.116)" fill="#153351"/>
        <path id="Trazado_1146" data-name="Trazado 1146" d="M356.092,267.549a4.924,4.924,0,0,1-3.624.562c.1-.326.181-.607.19-.68A13.539,13.539,0,0,0,356.092,267.549Z" transform="translate(-309.652 -228.736)" fill="#f2a49c"/>
      </g>
      <g id="Grupo_4823" data-name="Grupo 4823" transform="translate(97.246 99)">
        <g id="Grupo_4762" data-name="Grupo 4762" transform="translate(0 93.723)">
          <rect id="Rectángulo_2594" data-name="Rectángulo 2594" width="66.638" height="19.812" rx="1.691" fill="#ddd6ff"/>
          <g id="Grupo_4753" data-name="Grupo 4753" transform="translate(3.839 2.016)">
            <g id="Grupo_4746" data-name="Grupo 4746" transform="translate(0 1.323)">
              <path id="Trazado_1147" data-name="Trazado 1147" d="M114.4,213.252H102.769V198.8H114.4Zm-10.726-.906h9.819V199.7h-9.819Z" transform="translate(-102.769 -198.796)" fill="#fff"/>
            </g>
            <g id="Grupo_4747" data-name="Grupo 4747" transform="translate(0.453 4.38)">
              <rect id="Rectángulo_2595" data-name="Rectángulo 2595" width="10.726" height="0.906" fill="#fff"/>
            </g>
            <g id="Grupo_4748" data-name="Grupo 4748" transform="translate(0.453 8.098)">
              <rect id="Rectángulo_2596" data-name="Rectángulo 2596" width="10.726" height="0.906" fill="#fff"/>
            </g>
            <g id="Grupo_4749" data-name="Grupo 4749" transform="translate(3.324 9.703)">
              <path id="Trazado_1148" data-name="Trazado 1148" d="M111.171,213.488h-4.984V209.9a2.492,2.492,0,0,1,4.984,0Zm-4.078-.906h3.172V209.9a1.586,1.586,0,0,0-3.172,0Z" transform="translate(-106.187 -207.412)" fill="#fff"/>
            </g>
            <g id="Grupo_4750" data-name="Grupo 4750" transform="translate(3.523 1.776)">
              <rect id="Rectángulo_2597" data-name="Rectángulo 2597" width="0.906" height="6.775" fill="#fff"/>
            </g>
            <g id="Grupo_4751" data-name="Grupo 4751" transform="translate(7.223 1.776)">
              <rect id="Rectángulo_2598" data-name="Rectángulo 2598" width="0.906" height="6.775" fill="#fff"/>
            </g>
            <g id="Grupo_4752" data-name="Grupo 4752" transform="translate(2.456)">
              <rect id="Rectángulo_2599" data-name="Rectángulo 2599" width="6.72" height="0.906" fill="#fff"/>
            </g>
          </g>
          <g id="Grupo_4754" data-name="Grupo 4754" transform="translate(18.307 3.261)">
            <path id="Trazado_1149" data-name="Trazado 1149" d="M120.64,198.715l.925,1.875,2.07.3-1.5,1.46.354,2.061-1.851-.973-1.851.973.354-2.061-1.5-1.46,2.07-.3Z" transform="translate(-117.645 -198.715)" fill="#fff0b0"/>
            <path id="Trazado_1150" data-name="Trazado 1150" d="M130.1,198.715l.926,1.875,2.069.3-1.5,1.46.353,2.061-1.851-.973-1.851.973.353-2.061-1.5-1.46,2.069-.3Z" transform="translate(-117.904 -198.715)" fill="#fff0b0"/>
            <path id="Trazado_1151" data-name="Trazado 1151" d="M139.57,198.715l.925,1.875,2.07.3-1.5,1.46.354,2.061-1.851-.973-1.851.973.354-2.061-1.5-1.46,2.07-.3Z" transform="translate(-118.163 -198.715)" fill="#fff0b0"/>
            <path id="Trazado_1152" data-name="Trazado 1152" d="M149.036,198.715l.926,1.875,2.069.3-1.5,1.46.353,2.061-1.851-.973-1.851.973.354-2.061-1.5-1.46,2.07-.3Z" transform="translate(-118.422 -198.715)" fill="#fff0b0"/>
            <path id="Trazado_1153" data-name="Trazado 1153" d="M158.5,198.715l.925,1.875,2.07.3-1.5,1.46.354,2.061-1.851-.973-1.851.973.353-2.061-1.5-1.46,2.069-.3Z" transform="translate(-118.682 -198.715)" fill="#fff0b0"/>
          </g>
          <g id="Grupo_4761" data-name="Grupo 4761" transform="translate(17.854 10.944)">
            <g id="Grupo_4755" data-name="Grupo 4755">
              <path id="Trazado_1154" data-name="Trazado 1154" d="M134.306,207.521H117.632a.453.453,0,1,1,0-.906h16.673a.453.453,0,0,1,0,.906Z" transform="translate(-117.179 -206.615)" fill="#fff"/>
            </g>
            <g id="Grupo_4756" data-name="Grupo 4756" transform="translate(18.801)">
              <path id="Trazado_1155" data-name="Trazado 1155" d="M153.637,207.521H136.963a.453.453,0,1,1,0-.906h16.673a.453.453,0,1,1,0,.906Z" transform="translate(-136.51 -206.615)" fill="#fff"/>
            </g>
            <g id="Grupo_4757" data-name="Grupo 4757" transform="translate(37.202)">
              <path id="Trazado_1156" data-name="Trazado 1156" d="M161.494,207.521h-5.612a.453.453,0,1,1,0-.906h5.612a.453.453,0,0,1,0,.906Z" transform="translate(-155.429 -206.615)" fill="#fff"/>
            </g>
            <g id="Grupo_4758" data-name="Grupo 4758" transform="translate(0 2.598)">
              <path id="Trazado_1157" data-name="Trazado 1157" d="M139.039,210.191H117.632a.453.453,0,1,1,0-.906h21.407a.453.453,0,1,1,0,.906Z" transform="translate(-117.179 -209.286)" fill="#fff"/>
            </g>
            <g id="Grupo_4759" data-name="Grupo 4759" transform="translate(0 5.154)">
              <path id="Trazado_1158" data-name="Trazado 1158" d="M160.446,212.82H117.632a.453.453,0,1,1,0-.906h42.814a.453.453,0,0,1,0,.906Z" transform="translate(-117.179 -211.914)" fill="#fff"/>
            </g>
            <g id="Grupo_4760" data-name="Grupo 4760" transform="translate(22.903 2.598)">
              <path id="Trazado_1159" data-name="Trazado 1159" d="M161.091,210.191H141.179a.453.453,0,0,1,0-.906h19.912a.453.453,0,0,1,0,.906Z" transform="translate(-140.727 -209.286)" fill="#fff"/>
            </g>
          </g>
        </g>
        <g id="Grupo_4779" data-name="Grupo 4779" transform="translate(220.037 55.105)">
          <rect id="Rectángulo_2600" data-name="Rectángulo 2600" width="66.638" height="19.812" rx="1.691" fill="#ddd6ff"/>
          <g id="Grupo_4770" data-name="Grupo 4770" transform="translate(3.839 2.016)">
            <g id="Grupo_4763" data-name="Grupo 4763" transform="translate(0 1.323)">
              <path id="Trazado_1160" data-name="Trazado 1160" d="M338.859,155.039H327.227V140.583h11.632Zm-10.727-.906h9.82V141.489h-9.82Z" transform="translate(-327.227 -140.583)" fill="#fff"/>
            </g>
            <g id="Grupo_4764" data-name="Grupo 4764" transform="translate(0.453 4.38)">
              <rect id="Rectángulo_2601" data-name="Rectángulo 2601" width="10.726" height="0.906" fill="#fff"/>
            </g>
            <g id="Grupo_4765" data-name="Grupo 4765" transform="translate(0.453 8.098)">
              <rect id="Rectángulo_2602" data-name="Rectángulo 2602" width="10.726" height="0.906" fill="#fff"/>
            </g>
            <g id="Grupo_4766" data-name="Grupo 4766" transform="translate(3.324 9.703)">
              <path id="Trazado_1161" data-name="Trazado 1161" d="M335.629,155.275h-4.984v-3.584a2.492,2.492,0,0,1,4.984,0Zm-4.078-.906h3.172v-2.679a1.586,1.586,0,0,0-3.172,0Z" transform="translate(-330.645 -149.199)" fill="#fff"/>
            </g>
            <g id="Grupo_4767" data-name="Grupo 4767" transform="translate(3.523 1.776)">
              <rect id="Rectángulo_2603" data-name="Rectángulo 2603" width="0.906" height="6.775" fill="#fff"/>
            </g>
            <g id="Grupo_4768" data-name="Grupo 4768" transform="translate(7.224 1.776)">
              <rect id="Rectángulo_2604" data-name="Rectángulo 2604" width="0.906" height="6.775" fill="#fff"/>
            </g>
            <g id="Grupo_4769" data-name="Grupo 4769" transform="translate(2.456)">
              <rect id="Rectángulo_2605" data-name="Rectángulo 2605" width="6.72" height="0.906" fill="#fff"/>
            </g>
          </g>
          <g id="Grupo_4771" data-name="Grupo 4771" transform="translate(18.307 3.261)">
            <path id="Trazado_1162" data-name="Trazado 1162" d="M345.1,140.5l.925,1.875,2.07.3-1.5,1.46.354,2.061-1.851-.973-1.851.973.354-2.061-1.5-1.46,2.07-.3Z" transform="translate(-342.102 -140.502)" fill="#fff0b0"/>
            <path id="Trazado_1163" data-name="Trazado 1163" d="M354.563,140.5l.926,1.875,2.069.3-1.5,1.46.353,2.061-1.851-.973-1.851.973.354-2.061-1.5-1.46,2.069-.3Z" transform="translate(-342.362 -140.502)" fill="#fff0b0"/>
            <path id="Trazado_1164" data-name="Trazado 1164" d="M364.028,140.5l.925,1.875,2.07.3-1.5,1.46.354,2.061-1.851-.973-1.851.973.354-2.061-1.5-1.46,2.069-.3Z" transform="translate(-342.621 -140.502)" fill="#fff0b0"/>
            <path id="Trazado_1165" data-name="Trazado 1165" d="M373.494,140.5l.926,1.875,2.07.3-1.5,1.46.354,2.061-1.851-.973-1.851.973.354-2.061-1.5-1.46,2.07-.3Z" transform="translate(-342.88 -140.502)" fill="#fff0b0"/>
            <path id="Trazado_1166" data-name="Trazado 1166" d="M382.959,140.5l.926,1.875,2.069.3-1.5,1.46.354,2.061-1.851-.973-1.851.973.353-2.061-1.5-1.46,2.069-.3Z" transform="translate(-343.14 -140.502)" fill="#fbfaff"/>
          </g>
          <g id="Grupo_4778" data-name="Grupo 4778" transform="translate(17.854 10.944)">
            <g id="Grupo_4772" data-name="Grupo 4772">
              <path id="Trazado_1167" data-name="Trazado 1167" d="M358.763,149.308H342.09a.453.453,0,1,1,0-.906h16.672a.453.453,0,1,1,0,.906Z" transform="translate(-341.637 -148.402)" fill="#fff"/>
            </g>
            <g id="Grupo_4773" data-name="Grupo 4773" transform="translate(18.802)">
              <path id="Trazado_1168" data-name="Trazado 1168" d="M378.095,149.308H361.422a.453.453,0,1,1,0-.906h16.672a.453.453,0,0,1,0,.906Z" transform="translate(-360.969 -148.402)" fill="#fff"/>
            </g>
            <g id="Grupo_4774" data-name="Grupo 4774" transform="translate(37.202)">
              <path id="Trazado_1169" data-name="Trazado 1169" d="M385.952,149.308H380.34a.453.453,0,1,1,0-.906h5.612a.453.453,0,0,1,0,.906Z" transform="translate(-379.887 -148.402)" fill="#fff"/>
            </g>
            <g id="Grupo_4775" data-name="Grupo 4775" transform="translate(0 2.598)">
              <path id="Trazado_1170" data-name="Trazado 1170" d="M363.5,151.979H342.09a.453.453,0,1,1,0-.906H363.5a.453.453,0,1,1,0,.906Z" transform="translate(-341.637 -151.073)" fill="#fff"/>
            </g>
            <g id="Grupo_4776" data-name="Grupo 4776" transform="translate(0 5.154)">
              <path id="Trazado_1171" data-name="Trazado 1171" d="M384.9,154.607H342.09a.453.453,0,1,1,0-.906H384.9a.453.453,0,0,1,0,.906Z" transform="translate(-341.637 -153.701)" fill="#fff"/>
            </g>
            <g id="Grupo_4777" data-name="Grupo 4777" transform="translate(22.903 2.598)">
              <path id="Trazado_1172" data-name="Trazado 1172" d="M385.549,151.979H365.637a.453.453,0,0,1,0-.906h19.912a.453.453,0,1,1,0,.906Z" transform="translate(-365.185 -151.073)" fill="#fff"/>
            </g>
          </g>
        </g>
        <g id="Grupo_4822" data-name="Grupo 4822" transform="translate(261.06 101.277)">
          <g id="Grupo_4821" data-name="Grupo 4821">
            <g id="Grupo_4819" data-name="Grupo 4819">
              <rect id="Rectángulo_2609" data-name="Rectángulo 2609" width="55.502" height="17.573" rx="1.741" fill="#7762ef"/>
              <path id="Trazado_1200" data-name="Trazado 1200" d="M372.927,232.262s-1.555,11.1-1.556,10.421,7.854-9.483,7.854-9.483Z" transform="translate(-367.347 -218.196)" fill="#7762ef"/>
            </g>
            <g id="Grupo_4820" data-name="Grupo 4820" transform="translate(2.373 3.859)">
              <path id="Trazado_1201" data-name="Trazado 1201" d="M415.984,224.488l-2.973.477,2.187,2.07-.465,2.975,2.644-1.44,2.686,1.362-.553-2.96,2.125-2.133-2.986-.389-1.372-2.68Z" transform="translate(-370.861 -221.768)" fill="#fff0b0"/>
              <path id="Trazado_1202" data-name="Trazado 1202" d="M405.15,224.488l-2.973.477,2.187,2.07-.465,2.975,2.644-1.44,2.686,1.362-.553-2.96,2.125-2.133-2.986-.389-1.372-2.68Z" transform="translate(-370.564 -221.768)" fill="#fff0b0"/>
              <path id="Trazado_1203" data-name="Trazado 1203" d="M394.315,224.488l-2.973.477,2.187,2.07-.465,2.975,2.644-1.44,2.685,1.362-.552-2.96,2.125-2.133-2.986-.389-1.372-2.68Z" transform="translate(-370.267 -221.768)" fill="#fff0b0"/>
              <path id="Trazado_1204" data-name="Trazado 1204" d="M382.7,227.033l-.471,2.972,2.546-1.377.1-.054,2.682,1.359-.544-2.963,2.12-2.129-2.981-.39-1.377-2.682-1.3,2.718-2.972.48Z" transform="translate(-369.971 -221.768)" fill="#fff0b0"/>
              <path id="Trazado_1205" data-name="Trazado 1205" d="M372.647,224.488l-2.973.477,2.187,2.07-.465,2.975,2.644-1.44,2.686,1.362-.553-2.96,2.125-2.133-2.986-.389-1.372-2.68Z" transform="translate(-369.674 -221.768)" fill="#fff0b0"/>
            </g>
          </g>
        </g>
      </g>
    </g>
  </g>
</svg>
