<svg xmlns="http://www.w3.org/2000/svg" width="104" height="132" viewBox="0 0 104 132">
  <g id="Grupo_25807" data-name="Grupo 25807" transform="translate(-546 -2465)">
    <text id="Baños_de_habitaciones" data-name="Baños de
habitaciones" transform="translate(598 2572)" fill="#111e61" font-size="18" font-family="Roboto-Medium, Roboto" font-weight="500"><tspan x="-37.472" y="0">Baños de</tspan><tspan x="-51.706" y="20">habitaciones</tspan></text>
    <g id="banera_2_" data-name="banera (2)" transform="translate(557 2454)">
      <path id="Trazado_19248" data-name="Trazado 19248" d="M88,49.5A38.5,38.5,0,1,1,49.5,11,38.5,38.5,0,0,1,88,49.5Z" transform="translate(-9.271)" fill="#fdbf43"/>
      <path id="Trazado_19249" data-name="Trazado 19249" d="M103.754,359.723a38.516,38.516,0,0,1-69.779,0Z" transform="translate(-28.636 -293.924)" fill="#ce9047"/>
      <path id="Trazado_19250" data-name="Trazado 19250" d="M200,57.085h3.143V84.257H200Zm17.286,0V84.257h3.143V57.085Z" transform="translate(-168.571 -38.843)" fill="#6c7fd7"/>
      <path id="Trazado_19251" data-name="Trazado 19251" d="M131.857,68.268a6.883,6.883,0,0,1-6.875,6.875H107.657a1.179,1.179,0,0,1,0-2.357h17.325a4.518,4.518,0,0,0,0-9.036H86.875a6.875,6.875,0,0,1,0-13.75h24.554a1.179,1.179,0,0,1,0,2.357H86.875a4.518,4.518,0,1,0,0,9.036h38.107A6.883,6.883,0,0,1,131.857,68.268Z" transform="translate(-67.429 -32.871)" fill="#fd4fb6"/>
      <path id="Trazado_19252" data-name="Trazado 19252" d="M107.886,176.286a2.357,2.357,0,0,1-2.357,2.357H95.941a4.715,4.715,0,0,1-7.461.932,5.5,5.5,0,0,1-7.388,0,4.714,4.714,0,0,1-6.52.225,4.714,4.714,0,0,1-6.52-.225,5.5,5.5,0,0,1-7.388,0,4.715,4.715,0,0,1-7.461-.932H42.357a2.357,2.357,0,1,1,0-4.714H53.2a4.716,4.716,0,0,1,6.656-1.594,5.5,5.5,0,0,1,9,0,4.715,4.715,0,0,1,5.716.437,4.715,4.715,0,0,1,5.716-.437,5.5,5.5,0,0,1,9,0,4.716,4.716,0,0,1,6.656,1.594h9.588A2.357,2.357,0,0,1,107.886,176.286Z" transform="translate(-33.714 -134.014)" fill="#e3f0fb"/>
      <path id="Trazado_19253" data-name="Trazado 19253" d="M49.193,199.714H42.357a2.357,2.357,0,0,1,0-4.714h6.836a2.357,2.357,0,0,0,0,4.714Z" transform="translate(-33.714 -155.086)" fill="#bbe0fb"/>
      <path id="Trazado_19254" data-name="Trazado 19254" d="M159.236,408.848A38.479,38.479,0,0,1,153.915,412l-9-12h11Zm-44.35,0A38.48,38.48,0,0,0,120.207,412l9-12h-11Z" transform="translate(-96.832 -327.871)" fill="#003278"/>
      <path id="Trazado_19255" data-name="Trazado 19255" d="M89.393,264.571H85.464A29.464,29.464,0,0,1,56,235.107V230h62.857v5.107A29.464,29.464,0,0,1,89.393,264.571Z" transform="translate(-47.2 -184.586)" fill="#2740af"/>
      <path id="Trazado_19256" data-name="Trazado 19256" d="M113.2,234.61a1.571,1.571,0,0,1-1.568,1.676H64.62a1.576,1.576,0,0,0-1.563,1.738,29.47,29.47,0,0,0,27.829,26.51q-.742.037-1.493.037H85.464A29.464,29.464,0,0,1,56,235.107V230h6.914a3.143,3.143,0,0,0,3.143,3.143h45.518A1.607,1.607,0,0,1,113.2,234.61Z" transform="translate(-47.2 -184.586)" fill="#003278"/>
      <path id="Trazado_19257" data-name="Trazado 19257" d="M60.392,244.043c-5.067,5.362-12.775,7.786-13.671,6.443-1.594-2.389,16.75-19.1,19.014-17.286C66.9,234.13,64.075,240.145,60.392,244.043ZM78.1,220H2.357a2.357,2.357,0,0,0,0,4.714H78.1a2.357,2.357,0,0,0,0-4.714Z" transform="translate(0 -176.157)" fill="#0055c7"/>
      <path id="Trazado_19258" data-name="Trazado 19258" d="M120.243,224.714H52.357a2.357,2.357,0,0,1,0-4.714h67.886a2.357,2.357,0,1,1,0,4.714Z" transform="translate(-42.143 -176.157)" fill="#0266eb"/>
      <path id="Trazado_19259" data-name="Trazado 19259" d="M231.509,201.3a4.154,4.154,0,0,1-8.173,1.045,3.367,3.367,0,1,1,.342-2.974,4.154,4.154,0,0,1,7.832,1.929Z" transform="translate(-183.02 -156.892)" fill="#e3f0fb"/>
      <path id="Trazado_19260" data-name="Trazado 19260" d="M283.13,46.571v5.143a1.571,1.571,0,0,1-1.571,1.571h-7.214a1.571,1.571,0,0,1-1.571-1.571V49.143H259.059a.786.786,0,0,1-.786-.786V45.786a.786.786,0,0,1,.786-.786h22.5A1.571,1.571,0,0,1,283.13,46.571Z" transform="translate(-217.687 -28.657)" fill="#fd2aa7"/>
      <path id="Trazado_19261" data-name="Trazado 19261" d="M360.9,71.364v2.571a1.571,1.571,0,0,1-1.571,1.571h-7.214a1.571,1.571,0,0,1-1.571-1.571V71.364Z" transform="translate(-295.46 -50.878)" fill="#d80d80"/>
      <path id="Trazado_19262" data-name="Trazado 19262" d="M200.214,63.143h-7.857A2.357,2.357,0,0,1,190,60.786a.786.786,0,0,1,.786-.786h11a.786.786,0,0,1,.786.786A2.357,2.357,0,0,1,200.214,63.143Z" transform="translate(-160.143 -41.3)" fill="#003278"/>
      <path id="Trazado_19263" data-name="Trazado 19263" d="M236.5,63.143H222.357A2.357,2.357,0,0,1,220,60.786a.786.786,0,0,1,.786-.786h17.286a.786.786,0,0,1,.786.786A2.357,2.357,0,0,1,236.5,63.143Z" transform="translate(-185.429 -41.3)" fill="#2740af"/>
      <path id="Trazado_19264" data-name="Trazado 19264" d="M189.429,104.714a1.571,1.571,0,0,1-1.571,1.571h-1.571v1.571a1.571,1.571,0,1,1-3.143,0v-1.571h-1.571a1.571,1.571,0,0,1,0-3.143h1.571v-1.571a1.571,1.571,0,0,1,3.143,0v1.571h1.571A1.571,1.571,0,0,1,189.429,104.714Zm15.714-1.571h-1.571v-1.571a1.571,1.571,0,0,0-3.143,0v1.571h-1.571a1.571,1.571,0,1,0,0,3.143h1.571v1.571a1.571,1.571,0,0,0,3.143,0v-1.571h1.571a1.571,1.571,0,0,0,0-3.143Z" transform="translate(-151.714 -75.014)" fill="#fff5f5"/>
      <path id="Trazado_19265" data-name="Trazado 19265" d="M199.714,117.357A2.357,2.357,0,1,1,197.357,115,2.357,2.357,0,0,1,199.714,117.357Z" transform="translate(-164.357 -87.657)" fill="#f52c2c"/>
      <path id="Trazado_19266" data-name="Trazado 19266" d="M309.714,117.357A2.357,2.357,0,1,1,307.357,115,2.357,2.357,0,0,1,309.714,117.357Z" transform="translate(-257.071 -87.657)" fill="#003278"/>
    </g>
  </g>
</svg>
