<svg xmlns="http://www.w3.org/2000/svg" width="134" height="151" viewBox="0 0 134 151">
  <g id="Grupo_25804" data-name="Grupo 25804" transform="translate(-1056 -2196)">
    <g id="Grupo_25797" data-name="Grupo 25797">
      <text id="Reserva_de_agua_para_todo_el_establecimiento" data-name="Reserva de agua
para todo el
establecimiento" transform="translate(1123 2302)" fill="#111e61" font-size="18" font-family="Roboto-Medium, Roboto" font-weight="500"><tspan x="-66.652" y="0">Reserva de agua</tspan><tspan x="-47.637" y="20">para todo el</tspan><tspan x="-64.49" y="40">establecimiento</tspan></text>
      <g id="articulos-de-aseo" transform="translate(1079.5 2196)">
        <path id="Trazado_18965" data-name="Trazado 18965" d="M8.523,63.658a37.818,37.818,0,1,1,69.169.949,7.863,7.863,0,0,1-7.153,4.546H16.889a9.089,9.089,0,0,1-8.367-5.5Z" transform="translate(0 -9.303)" fill="#f19b0b"/>
        <path id="Trazado_18966" data-name="Trazado 18966" d="M115.7,130.1A30.1,30.1,0,1,1,85.6,100,30.1,30.1,0,0,1,115.7,130.1Z" transform="translate(-42.282 -84.565)" fill="#f5c02c"/>
        <path id="Trazado_18967" data-name="Trazado 18967" d="M290.209,256.044A7.855,7.855,0,0,1,275.4,259.7a7.931,7.931,0,0,1-2.513-.115,7.851,7.851,0,1,1-5.252-11.506,7.857,7.857,0,0,1,13.82.164,7.942,7.942,0,0,1,.9-.051A7.854,7.854,0,0,1,290.209,256.044Z" transform="translate(-213.666 -206.371)" fill="#f3d373"/>
        <path id="Trazado_18968" data-name="Trazado 18968" d="M119.265,420a2.176,2.176,0,0,1,1.39,3.85A37.82,37.82,0,0,1,68.484,420Z" transform="translate(-53.262 -355.17)" fill="#0ca12d"/>
        <path id="Trazado_18969" data-name="Trazado 18969" d="M320.674,184.7a3.087,3.087,0,1,1-3.087-3.087A3.087,3.087,0,0,1,320.674,184.7Zm9.261-16.979a3.087,3.087,0,1,0,3.087,3.087A3.087,3.087,0,0,0,329.936,167.718ZM322.99,160a2.315,2.315,0,1,0,2.315,2.315A2.315,2.315,0,0,0,322.99,160Z" transform="translate(-261.304 -135.303)" fill="#bbe0fb"/>
        <path id="Trazado_18970" data-name="Trazado 18970" d="M337.587,280a3.087,3.087,0,1,1-3.087,3.087A3.087,3.087,0,0,1,337.587,280Z" transform="translate(-278.216 -236.78)" fill="#e1ebf0"/>
        <path id="Trazado_18971" data-name="Trazado 18971" d="M190.16,290.066H174.725a1.544,1.544,0,0,1-1.544-1.544V271.544A1.544,1.544,0,0,1,174.725,270H190.16a1.544,1.544,0,0,1,1.544,1.544v16.979A1.544,1.544,0,0,1,190.16,290.066Z" transform="translate(-141.798 -228.324)" fill="#4f66cf"/>
        <path id="Trazado_18972" data-name="Trazado 18972" d="M216.645,290.066h-10.6a1.544,1.544,0,0,1-1.544-1.544V271.544A1.544,1.544,0,0,1,206.044,270h10.6a1.544,1.544,0,0,1,1.544,1.544v16.979A1.544,1.544,0,0,1,216.645,290.066Z" transform="translate(-168.283 -228.324)" fill="#6c7fd7"/>
        <path id="Trazado_18973" data-name="Trazado 18973" d="M160.337,42.75H138.514a1.544,1.544,0,0,1-1.54-1.434L134.142,1.654A1.544,1.544,0,0,1,136.056.046,34.4,34.4,0,0,0,144.4,1.074h10.053A34.4,34.4,0,0,0,162.8.046a1.544,1.544,0,0,1,1.914,1.607l-2.833,39.663A1.544,1.544,0,0,1,160.337,42.75Z" transform="translate(-108.782)" fill="#003278"/>
        <path id="Trazado_18974" data-name="Trazado 18974" d="M209.565,1.655l-2.335,32.7A12.349,12.349,0,0,1,187.181,24.7V7.718a12.29,12.29,0,0,1,1.938-6.644h10.189A34.4,34.4,0,0,0,207.651.047,1.543,1.543,0,0,1,209.565,1.655Z" transform="translate(-153.637 -0.001)" fill="#2740af"/>
        <path id="Trazado_18975" data-name="Trazado 18975" d="M195.16,58.49a8.49,8.49,0,1,1-8.49-8.49A8.49,8.49,0,0,1,195.16,58.49Z" transform="translate(-146.026 -42.283)" fill="#fadeb9"/>
        <path id="Trazado_18976" data-name="Trazado 18976" d="M207.282,71.828l1.179,2.389a.389.389,0,0,0,.293.213l2.636.383a.389.389,0,0,1,.216.664L209.7,77.336a.39.39,0,0,0-.112.345l.45,2.625a.389.389,0,0,1-.565.411l-2.358-1.239a.39.39,0,0,0-.362,0l-2.358,1.239a.39.39,0,0,1-.565-.411l.45-2.625a.389.389,0,0,0-.112-.345l-1.907-1.859a.389.389,0,0,1,.216-.664l2.636-.383a.39.39,0,0,0,.293-.213l1.179-2.389A.39.39,0,0,1,207.282,71.828Z" transform="translate(-166.288 -60.558)" fill="#f5c02c"/>
        <path id="Trazado_18977" data-name="Trazado 18977" d="M201.784,180.772v.772a.772.772,0,0,1-.772.772H188.534a.772.772,0,0,1-.772-.772v-.772a.772.772,0,0,1,.772-.772h12.478A.772.772,0,0,1,201.784,180.772Zm-3.613,3.087h-6.8a.772.772,0,0,0-.772.772v.772a.772.772,0,0,0,.772.772h6.8a.772.772,0,0,0,.772-.772v-.772A.772.772,0,0,0,198.171,183.859Z" transform="translate(-154.129 -152.216)" fill="#6c7fd7"/>
        <path id="Trazado_18978" data-name="Trazado 18978" d="M285.067,338.165a1.71,1.71,0,0,1,3.037.427,7.515,7.515,0,0,1,.329,1.662,37.757,37.757,0,0,1-3.325,5.94,5.114,5.114,0,0,1-4.174,2.26H262.18a7.568,7.568,0,0,1-7.6-8.659,1.711,1.711,0,0,1,2.761-1.083,7.526,7.526,0,0,0,4.718,1.653h18.875a4.985,4.985,0,0,0,4.1-2.156Z" transform="translate(-210.565 -285.337)" fill="#d80d80"/>
        <path id="Trazado_18979" data-name="Trazado 18979" d="M255.191,317.241a7.561,7.561,0,0,1,9.091-6.1,35.874,35.874,0,0,0,15.564,0,7.561,7.561,0,0,1,9.091,6.1,46.4,46.4,0,0,1-33.745,0Z" transform="translate(-211.149 -262.961)" fill="#fd2aa7"/>
        <path id="Trazado_18980" data-name="Trazado 18980" d="M367.587,300a3.087,3.087,0,1,1-3.087,3.087A3.087,3.087,0,0,1,367.587,300Z" transform="translate(-303.586 -253.693)" fill="#e1ebf0"/>
        <path id="Trazado_18981" data-name="Trazado 18981" d="M19.92,305.331a1.536,1.536,0,0,1-.136-.828l1.386-12.271a1.544,1.544,0,1,1,3.068.347l-.265,2.346c.281-.169,2.812.206,3.03.682l.3-2.681a1.544,1.544,0,0,1,3.068.347l-.265,2.346c.281-.169,2.812.206,3.03.682l.3-2.681a1.544,1.544,0,1,1,3.068.347l-.265,2.346c.281-.169,2.812.206,3.03.682l.3-2.681a1.544,1.544,0,0,1,3.068.347L42.379,297c.281-.169,1.713.46,1.617,1.308l-1.085,9.6-4.586-.5-.006-.013v.012l-6.128-.692-.006-.013v.012l-6.128-.692-.006-.013v.012l-6.09-.688-.037,0Z" transform="translate(-12.071 -245.966)" fill="#fff2b4"/>
        <path id="Trazado_18982" data-name="Trazado 18982" d="M42.989,304.761,41.6,317.031a1.544,1.544,0,1,1-3.068-.347l1.386-12.271a1.544,1.544,0,1,1,3.068.347Zm4.775-1.014a1.544,1.544,0,0,0-1.707,1.361L44.67,317.378a1.544,1.544,0,1,0,3.068.347l1.386-12.271A1.544,1.544,0,0,0,47.764,303.747Zm6.135.693a1.544,1.544,0,0,0-1.707,1.361l-1.386,12.271a1.544,1.544,0,1,0,3.068.347l1.386-12.271A1.544,1.544,0,0,0,53.9,304.44Zm6.135.693a1.544,1.544,0,0,0-1.707,1.361l-1.386,12.271a1.544,1.544,0,0,0,3.068.347l1.386-12.271A1.544,1.544,0,0,0,60.034,305.134Z" transform="translate(-27.927 -256.267)" fill="#49cb5c"/>
        <path id="Trazado_18983" data-name="Trazado 18983" d="M73.293,390.468a38.041,38.041,0,0,1-6.13,6.293l-10.88.218-18.634.373a1.532,1.532,0,0,1-.2-.01L6.87,393.888a1.544,1.544,0,0,1-1.361-1.707l.347-3.068a1.544,1.544,0,0,1,1.707-1.361l29.044,3.282a1.567,1.567,0,0,0,.2.01l19.478-.308Z" transform="translate(0 -327.892)" fill="#f1ca50"/>
        <path id="Trazado_18984" data-name="Trazado 18984" d="M77.078,371.93a37.98,37.98,0,0,1-4.952,6.263l-14.074.282-18.311.367a1.552,1.552,0,0,1-.2-.009L8.962,375.377A1.544,1.544,0,0,1,7.6,373.67l.347-3.068a1.544,1.544,0,0,1,1.707-1.361L38.7,372.524a1.534,1.534,0,0,0,.2.01l19.155-.3Z" transform="translate(-1.769 -312.239)" fill="#fdf385"/>
      </g>
    </g>
  </g>
</svg>
