<svg xmlns="http://www.w3.org/2000/svg" width="126" height="131" viewBox="0 0 126 131">
  <g id="Grupo_25802" data-name="Grupo 25802" transform="translate(-715 -2196)">
    <g id="Grupo_25795" data-name="Grupo 25795">
      <text id="Restaurantes_y_comedores" data-name="Restaurantes y 
comedores" transform="translate(778 2302)" fill="#111e61" font-size="18" font-family="Roboto-Medium, Roboto" font-weight="500"><tspan x="-62.191" y="0">Restaurantes y </tspan><tspan x="-45.338" y="20">comedores</tspan></text>
      <g id="cuchilleria" transform="translate(734.5 2196)">
        <path id="Trazado_18924" data-name="Trazado 18924" d="M5.5,48.818a37.818,37.818,0,1,1,62.21,28.9,2.279,2.279,0,0,1-2.775.11,37.836,37.836,0,0,0-43.234,0,2.279,2.279,0,0,1-2.775-.11A37.736,37.736,0,0,1,5.5,48.818Z" transform="translate(0 -9.302)" fill="#003278"/>
        <path id="Trazado_18925" data-name="Trazado 18925" d="M115.859,209.153,91.283,184.576,115.859,160l24.576,24.576Z" transform="translate(-72.542 -135.303)" fill="#f52c2c"/>
        <path id="Trazado_18926" data-name="Trazado 18926" d="M128.585,22.608a8.712,8.712,0,0,1-8.421,9.8V49.395H113.99V32.412a8.712,8.712,0,0,1-8.421-9.8l2.7-21.281a1.518,1.518,0,0,1,3.024.191V23.154a1.544,1.544,0,0,0,1.544,1.544h.772a1.544,1.544,0,0,0,1.544-1.544V1.518A1.518,1.518,0,0,1,116.665,0h.823a1.518,1.518,0,0,1,1.518,1.518V23.154A1.544,1.544,0,0,0,120.55,24.7h.772a1.544,1.544,0,0,0,1.544-1.544V1.518a1.518,1.518,0,0,1,3.024-.191Zm22.288,13.9-7.05-31.985A5.762,5.762,0,0,0,138.2,0a1.544,1.544,0,0,0-1.544,1.544V49.395h6.174V40.921l7.078-2.635a1.543,1.543,0,0,0,.969-1.779Z" transform="translate(-84.564 0)" fill="#81bdfd"/>
        <path id="Trazado_18927" data-name="Trazado 18927" d="M131.37,1.327l1.764,13.928a13.818,13.818,0,0,1-4.788,4.243V1.518a1.518,1.518,0,0,1,3.024-.191Zm-10.742.191V20.789a12.331,12.331,0,0,0,3.859,0V1.518A1.518,1.518,0,0,0,122.969,0h-.823a1.518,1.518,0,0,0-1.518,1.518Zm-3.859,0a1.518,1.518,0,0,0-3.024-.191l-1.764,13.928a13.819,13.819,0,0,0,4.788,4.243Zm32.535,3a5.748,5.748,0,0,0-1-2.19V40.921l7.078-2.635a1.544,1.544,0,0,0,.969-1.779Z" transform="translate(-90.045)" fill="#acd1fd"/>
        <path id="Trazado_18928" data-name="Trazado 18928" d="M159.761,334.98H150.5V310h9.261ZM182.424,310h-9.261v24.98h9.261Z" transform="translate(-122.618 -262.149)" fill="#f19b0b"/>
        <path id="Trazado_18929" data-name="Trazado 18929" d="M176.97,318.979a2.8,2.8,0,0,1-2.8-2.8V312.8a2.8,2.8,0,0,1,5.608,0v3.37A2.8,2.8,0,0,1,176.97,318.979Zm25.467-2.8V312.8a2.8,2.8,0,0,0-5.608,0v3.37a2.8,2.8,0,0,0,5.608,0Z" transform="translate(-142.631 -262.149)" fill="#f4aa39"/>
        <path id="Trazado_18930" data-name="Trazado 18930" d="M146.386,304.631h-9.57a2.315,2.315,0,1,1,0-4.631h9.57a2.315,2.315,0,1,1,0,4.631Zm24.978-2.315A2.315,2.315,0,0,0,169.048,300h-9.57a2.315,2.315,0,1,0,0,4.631h9.57A2.315,2.315,0,0,0,171.363,302.315Z" transform="translate(-109.088 -253.693)" fill="#f5c02c"/>
        <path id="Trazado_18931" data-name="Trazado 18931" d="M170.909,304.631h-5.094a2.315,2.315,0,1,1,0-4.631h5.094a2.315,2.315,0,1,1,0,4.631Zm24.978-2.315A2.315,2.315,0,0,0,193.572,300h-5.094a2.315,2.315,0,1,0,0,4.631h5.094A2.315,2.315,0,0,0,195.887,302.315Z" transform="translate(-133.611 -253.693)" fill="#fded32"/>
        <path id="Trazado_18932" data-name="Trazado 18932" d="M114.628,333.879a2.316,2.316,0,0,0,2.463,0l23.345-14.662V338.2a37.821,37.821,0,0,1-49.153,0V319.217Z" transform="translate(-72.542 -269.943)" fill="#ffdf8e"/>
        <path id="Trazado_18933" data-name="Trazado 18933" d="M97.954,342.777a37.9,37.9,0,0,1-6.671-4.574V319.217l6.671,4.19Z" transform="translate(-72.542 -269.943)" fill="#fbc56d"/>
        <path id="Trazado_18934" data-name="Trazado 18934" d="M223.914,81.325l1.478,2.7a.464.464,0,0,0,.184.184l2.7,1.478a.463.463,0,0,1,0,.813l-2.7,1.478a.464.464,0,0,0-.184.184l-1.478,2.7a.463.463,0,0,1-.813,0l-1.478-2.7a.464.464,0,0,0-.184-.184l-2.7-1.478a.463.463,0,0,1,0-.813l2.7-1.478a.464.464,0,0,0,.184-.184l1.478-2.7a.463.463,0,0,1,.813,0Z" transform="translate(-180.119 -68.568)" fill="#fff5f5"/>
      </g>
    </g>
  </g>
</svg>
