<svg xmlns="http://www.w3.org/2000/svg" width="90" height="148.667" viewBox="0 0 90 148.667">
  <g id="Grupo_25812" data-name="Grupo 25812" transform="translate(-373 -2628.333)">
    <text id="Servicio_de_conserjería_y_portería" data-name="Servicio de
conserjería
y portería" transform="translate(418 2732)" fill="#111e61" font-size="18" font-family="Roboto-Medium, Roboto" font-weight="500"><tspan x="-44.539" y="0">Servicio de</tspan><tspan x="-44.96" y="20">conserjería</tspan><tspan x="-38.417" y="40">y portería</tspan></text>
    <g id="portero_1_" data-name="portero (1)" transform="translate(374.5 2628.333)">
      <path id="Trazado_19023" data-name="Trazado 19023" d="M15.214,72.214A3.22,3.22,0,0,1,12.6,70.88a37.819,37.819,0,1,1,60.433,1.333Z" transform="translate(0 -9.302)" fill="#6c7fd7"/>
      <path id="Trazado_19024" data-name="Trazado 19024" d="M264.785,110a17.455,17.455,0,0,1,16.465,13.243,37.892,37.892,0,0,1-8.267,34.26,14.578,14.578,0,0,1-1.2,1.207c-10.9,9.8-28.281,1.877-28.281-12.778v-15.1A20.838,20.838,0,0,1,264.339,110Q264.562,110,264.785,110Z" transform="translate(-201.264 -93.021)" fill="#003278"/>
      <path id="Trazado_19025" data-name="Trazado 19025" d="M228.5,118.154a23.148,23.148,0,0,1,34.083-20.408,37.653,37.653,0,0,1,6,12.894,18.523,18.523,0,0,0-35.453,7.514v39.5q-.615.02-1.235.02-1.717,0-3.4-.15Z" transform="translate(-188.578 -80.336)" fill="#a1ade5"/>
      <path id="Trazado_19026" data-name="Trazado 19026" d="M389.044,268.051l-3.523,8.276-2.84-1.209,3.523-8.276a1.544,1.544,0,1,1,2.841,1.209Z" transform="translate(-318.959 -224.858)" fill="#d27d69"/>
      <path id="Trazado_19027" data-name="Trazado 19027" d="M391.948,256.456l-2.94,6.859a3.56,3.56,0,0,1-.755,1.115l-1.741,1.741v4.791h-6.174l0-4.9a3.088,3.088,0,0,1,.9-2.18l3.307-3.307a3.56,3.56,0,0,0,.667-.925l1.616-3.232a8.856,8.856,0,0,1,1.571-2.213,2.18,2.18,0,0,1,2.828-.312,2.125,2.125,0,0,1,.712,2.561Z" transform="translate(-316.979 -214.378)" fill="#e1a595"/>
      <path id="Trazado_19028" data-name="Trazado 19028" d="M127.924,60.815A17.906,17.906,0,0,1,110.018,78.72h-1.364a17.906,17.906,0,1,1,0-35.811h1.364A17.906,17.906,0,0,1,127.924,60.815Z" transform="translate(-72.09 -36.286)" fill="#fcf498"/>
      <path id="Trazado_19029" data-name="Trazado 19029" d="M112.372,78.567a18.082,18.082,0,0,1-2.354.153h-1.364a17.906,17.906,0,0,1,0-35.811h1.364a18.085,18.085,0,0,1,2.354.153,17.908,17.908,0,0,0,0,35.5Z" transform="translate(-72.09 -36.286)" fill="#f3d373"/>
      <path id="Trazado_19030" data-name="Trazado 19030" d="M80.026,189.262a3.859,3.859,0,0,1-3.859-3.859v-1.544a3.859,3.859,0,1,1,7.718,0V185.4A3.859,3.859,0,0,1,80.026,189.262Z" transform="translate(-59.759 -152.216)" fill="#eac0b5"/>
      <path id="Trazado_19031" data-name="Trazado 19031" d="M78.482,73.154v3.087a3.853,3.853,0,0,0,1.543,3.087,3.859,3.859,0,0,1-3.859-3.859V73.926a3.859,3.859,0,0,1,3.859-3.859A3.853,3.853,0,0,0,78.482,73.154Zm35.5-3.087V66.979a16.979,16.979,0,1,0-33.959,0v6.174a16.987,16.987,0,0,0,12.349,16.34v9.9h9.261v-9.9A17.02,17.02,0,0,0,112.888,79.17a3.862,3.862,0,0,0,4.956-3.7V73.926A3.859,3.859,0,0,0,113.985,70.067Z" transform="translate(-59.759 -42.282)" fill="#e1a595"/>
      <path id="Trazado_19032" data-name="Trazado 19032" d="M160.5,67.838v6.174A16.987,16.987,0,0,1,147.959,90.4a8.154,8.154,0,0,1-4.255,0,16.987,16.987,0,0,1-12.536-16.392V67.838a16.983,16.983,0,0,1,14.664-16.823A16.983,16.983,0,0,1,160.5,67.838Z" transform="translate(-106.269 -43.14)" fill="#eac0b5"/>
      <path id="Trazado_19033" data-name="Trazado 19033" d="M181.446,195.9a1.158,1.158,0,1,1,1.637-1.637.849.849,0,0,0,1.2,0,1.158,1.158,0,1,1,1.637,1.637,3.164,3.164,0,0,1-4.476,0Zm6.916,4.26a1.158,1.158,0,0,0-1.637,0,4.3,4.3,0,0,1-6.081,0,1.158,1.158,0,0,0-1.637,1.637,6.623,6.623,0,0,0,9.355,0,1.158,1.158,0,0,0,0-1.637Z" transform="translate(-146.437 -163.994)" fill="#dd9683"/>
      <path id="Trazado_19034" data-name="Trazado 19034" d="M153.3,154.815a2.315,2.315,0,1,1-2.315-2.315A2.315,2.315,0,0,1,153.3,154.815Zm12.349-2.315a2.315,2.315,0,1,0,2.315,2.315A2.315,2.315,0,0,0,165.646,152.5Z" transform="translate(-121.068 -128.96)" fill="#533022"/>
      <path id="Trazado_19035" data-name="Trazado 19035" d="M168.482,153.658a1.158,1.158,0,1,1-1.158-1.158A1.158,1.158,0,0,1,168.482,153.658Zm13.506-1.158a1.158,1.158,0,1,0,1.158,1.158A1.158,1.158,0,0,0,181.989,152.5Z" transform="translate(-135.867 -128.96)" fill="#fff5f5"/>
      <path id="Trazado_19036" data-name="Trazado 19036" d="M105.321,56.086A17.888,17.888,0,0,1,99.662,57q-.878,0-1.735-.083A17.929,17.929,0,0,1,119,43.271,17.932,17.932,0,0,0,105.321,56.086Z" transform="translate(-78.16 -36.286)" fill="#f3d373"/>
      <path id="Trazado_19037" data-name="Trazado 19037" d="M164.206,62.976q-.409.019-.823.019a17.823,17.823,0,0,1-10.39-3.321,17.991,17.991,0,0,1-11.946.217,17.815,17.815,0,0,1-6.1,2.66A16.987,16.987,0,0,1,151.343,50a17.16,17.16,0,0,1,1.8.094A17.939,17.939,0,0,1,164.206,62.976Z" transform="translate(-109.466 -42.282)" fill="#fcf498"/>
      <path id="Trazado_19038" data-name="Trazado 19038" d="M151.717,2.315v9.261a.772.772,0,0,1-.772.772H125.939a.772.772,0,0,1-.772-.772V2.315A2.315,2.315,0,0,1,127.482,0H149.4A2.315,2.315,0,0,1,151.717,2.315Z" transform="translate(-101.195)" fill="#c92c2c"/>
      <path id="Trazado_19039" data-name="Trazado 19039" d="M177.086,2.315v9.261a.772.772,0,0,1-.772.772H155.939a.772.772,0,0,1-.772-.772V2.315A2.315,2.315,0,0,1,157.482,0H174.77A2.315,2.315,0,0,1,177.086,2.315Z" transform="translate(-126.565)" fill="#f52c2c"/>
      <path id="Trazado_19040" data-name="Trazado 19040" d="M100.575,325.584v10.693a37.84,37.84,0,0,1-49.392-10.924,10.805,10.805,0,0,1,10.8-10.574H68.16v-1.235A1.544,1.544,0,0,1,69.7,312h9.57v2.778h10.5A10.805,10.805,0,0,1,100.575,325.584Z" transform="translate(-38.631 -263.84)" fill="#c92c2c"/>
      <path id="Trazado_19041" data-name="Trazado 19041" d="M85.8,334.467a37.994,37.994,0,0,1-4.631-3.78v-5.1a10.805,10.805,0,0,1,10.805-10.805h1.544v23.8l.373.144a37.635,37.635,0,0,1-5-2.333v-9.265a1.544,1.544,0,1,0-3.087,0Zm29.328-19.688h-6.174v-1.235A1.544,1.544,0,0,0,107.408,312H99.69a3.088,3.088,0,0,0-3.072,2.778H96.6v24.86a38.128,38.128,0,0,0,16.979,1.017V327.127a1.544,1.544,0,0,1,3.087,0v12.878a37.581,37.581,0,0,0,9.261-3.729V325.584A10.805,10.805,0,0,0,115.126,314.778Z" transform="translate(-63.987 -263.84)" fill="#f52c2c"/>
      <path id="Trazado_19042" data-name="Trazado 19042" d="M375.044,346.667h4.785a1.544,1.544,0,0,1,1.544,1.544V353.3H373.5v-5.094A1.544,1.544,0,0,1,375.044,346.667Z" transform="translate(-311.196 -293.156)" fill="#e3f0fb"/>
      <path id="Trazado_19043" data-name="Trazado 19043" d="M363.5,383.148V368.21a1.544,1.544,0,0,1,1.544-1.544h7.872a1.544,1.544,0,0,1,1.544,1.544v6.345A37.964,37.964,0,0,1,363.5,383.148Z" transform="translate(-302.74 -310.068)" fill="#f52c2c"/>
      <path id="Trazado_19044" data-name="Trazado 19044" d="M365.044,366.667h3.087a1.544,1.544,0,0,0-1.544,1.544v13.14q-1.5.969-3.087,1.8V368.211A1.544,1.544,0,0,1,365.044,366.667Z" transform="translate(-302.74 -310.069)" fill="#c92c2c"/>
      <path id="Trazado_19045" data-name="Trazado 19045" d="M151.717,43.087h-26.55V40h26.55Zm10.239,50.424V96.6h10.959V93.511Z" transform="translate(-101.195 -33.826)" fill="#f4aa39"/>
      <path id="Trazado_19046" data-name="Trazado 19046" d="M164.428,90.938a1.544,1.544,0,1,1-1.544-1.544A1.544,1.544,0,0,1,164.428,90.938Zm6.174,1.544a1.544,1.544,0,1,0-1.544-1.544A1.544,1.544,0,0,0,170.6,92.482Zm-7.718,3.087a1.544,1.544,0,1,0,1.544,1.544A1.544,1.544,0,0,0,162.885,95.569Zm7.718,0a1.544,1.544,0,1,0,1.544,1.544A1.544,1.544,0,0,0,170.6,95.569Zm-7.718,6.174a1.544,1.544,0,1,0,1.544,1.544A1.544,1.544,0,0,0,162.885,101.743Zm7.718,0a1.544,1.544,0,1,0,1.544,1.544A1.544,1.544,0,0,0,170.6,101.743Zm6.483-58.656H155.167V40h21.919Zm13.326,50.424V96.6h7.872V93.511Z" transform="translate(-126.565 -33.826)" fill="#fdbf43"/>
    </g>
  </g>
</svg>
