<svg xmlns="http://www.w3.org/2000/svg" width="108" height="108" viewBox="0 0 108 108">
  <g id="Grupo_55583" data-name="Grupo 55583" transform="translate(-839 -3144)">
    <g id="servicio-de-habitacion" transform="translate(843 3101.698)">
      <g id="Grupo_55525" data-name="Grupo 55525" transform="translate(12.843 66.855)">
        <path id="Trazado_101168" data-name="Trazado 101168" d="M305.805,104.731H272.414a16.7,16.7,0,0,1,33.391,0Z" transform="translate(-235.276 -87.269)" fill="#f5e9c6"/>
        <g id="Grupo_55523" data-name="Grupo 55523" transform="translate(8.729)">
          <path id="Trazado_101169" data-name="Trazado 101169" d="M204.909,83.853v7.291a3.669,3.669,0,0,1-7.339,0V83.853Z" transform="translate(-182.893 -83.853)" fill="#ff9d21"/>
          <path id="Trazado_101170" data-name="Trazado 101170" d="M124.912,83.853v7.291a3.669,3.669,0,0,1-7.339,0V83.853Z" transform="translate(-117.573 -83.853)" fill="#ff9d21"/>
        </g>
        <path id="Trazado_101171" data-name="Trazado 101171" d="M82.4,179.029H143.19a4.136,4.136,0,0,1,4.043,4.036l2.022,36.327H70L71.912,185l.108-1.932a4.136,4.136,0,0,1,4.044-4.036H82.4Z" transform="translate(-69.998 -161.567)" fill="#ff9800"/>
        <g id="Grupo_55524" data-name="Grupo 55524" transform="translate(9.163 57.825)">
          <circle id="Elipse_1388" data-name="Elipse 1388" cx="3.664" cy="3.664" r="3.664" transform="translate(53.602)" fill="#f5e9c6"/>
          <path id="Trazado_101172" data-name="Trazado 101172" d="M127.269,402.687a3.664,3.664,0,1,1-3.664-3.664A3.665,3.665,0,0,1,127.269,402.687Z" transform="translate(-119.94 -399.023)" fill="#f5e9c6"/>
        </g>
      </g>
      <path id="Trazado_101173" data-name="Trazado 101173" d="M93.926,124.46,91.911,88.251a6,6,0,0,0-5.875-5.769h-.919a18.562,18.562,0,0,0-16.6-16.6V64.87a1.835,1.835,0,1,0-3.669,0v1.008a18.563,18.563,0,0,0-16.605,16.6H41.754V79.334a5.512,5.512,0,0,0,3.669-5.188V66.855a1.835,1.835,0,0,0-1.835-1.835H36.249a1.835,1.835,0,0,0-1.835,1.835v7.291a5.513,5.513,0,0,0,3.67,5.188v3.148H27.076V79.334a5.512,5.512,0,0,0,3.669-5.188V66.855A1.835,1.835,0,0,0,28.91,65.02H21.572a1.835,1.835,0,0,0-1.835,1.835v7.291a5.513,5.513,0,0,0,3.669,5.188v3.148h-4.5a6,6,0,0,0-5.875,5.769l-.011.2H8.563l-5.431-5.43A1.835,1.835,0,0,0,.538,85.614l5.968,5.968a1.835,1.835,0,0,0,1.3.537h5.015l-1.807,32.459a1.835,1.835,0,0,0,1.832,1.937h7.642a5.5,5.5,0,1,0,10.37,0H74.089a5.5,5.5,0,1,0,10.37,0H92.1a1.835,1.835,0,0,0,1.835-1.835A1.935,1.935,0,0,0,93.926,124.46ZM38.084,68.689h3.669v5.457a1.837,1.837,0,0,1-1.835,1.835h0a1.837,1.837,0,0,1-1.835-1.835V68.689Zm-14.677,0h3.669v5.457a1.837,1.837,0,0,1-1.835,1.835h0a1.837,1.837,0,0,1-1.835-1.835V68.689Zm43.27.767A14.88,14.88,0,0,1,81.42,82.482H51.933A14.88,14.88,0,0,1,66.677,69.457ZM27.5,128.344a1.83,1.83,0,1,1-1.839-1.829h.018A1.832,1.832,0,0,1,27.5,128.344Zm51.773,1.83a1.83,1.83,0,0,1-.009-3.66h.018a1.83,1.83,0,0,1-.009,3.66Zm4.387-7.329v-10.42a1.835,1.835,0,1,0-3.669,0v10.42H68.984V105.332a1.835,1.835,0,0,0-3.669,0v17.514H54.306V100.172a1.835,1.835,0,1,0-3.669,0v22.674H39.629v-12.09a1.835,1.835,0,0,0-3.669,0v12.09H24.951v-10.42a1.835,1.835,0,1,0-3.669,0v10.42h-6.5L16.7,88.455a2.3,2.3,0,0,1,2.211-2.3H86.036a2.3,2.3,0,0,1,2.212,2.3l1.914,34.39Z" transform="translate(0)"/>
      <path id="Trazado_101174" data-name="Trazado 101174" d="M197.828,283.568a1.835,1.835,0,0,0-1.835,1.835v.087a1.835,1.835,0,1,0,3.669,0V285.4A1.835,1.835,0,0,0,197.828,283.568Z" transform="translate(-160.033 -180.071)"/>
    </g>
    <rect id="Rectángulo_5477" data-name="Rectángulo 5477" width="108" height="108" transform="translate(839 3144)" fill="none"/>
  </g>
</svg>
