<svg xmlns="http://www.w3.org/2000/svg" width="1035" height="261" viewBox="0 0 1035 261">
  <g id="Grupo_55653" data-name="Grupo 55653" transform="translate(7648 6802)">
    <path id="Trazado_101490" data-name="Trazado 101490" d="M10,0H239a10,10,0,0,1,10,10V72a10,10,0,0,1-10,10H10A10,10,0,0,1,0,72V10A10,10,0,0,1,10,0Z" transform="translate(-7648 -6802)" fill="#f3f9ff"/>
    <path id="Trazado_101491" data-name="Trazado 101491" d="M10,0H311a10,10,0,0,1,10,10V72a10,10,0,0,1-10,10H10A10,10,0,0,1,0,72V10A10,10,0,0,1,10,0Z" transform="translate(-7375 -6713)" fill="#f3f9ff"/>
    <path id="Trazado_101492" data-name="Trazado 101492" d="M10,0H268a10,10,0,0,1,10,10V72a10,10,0,0,1-10,10H10A10,10,0,0,1,0,72V10A10,10,0,0,1,10,0Z" transform="translate(-7648 -6624)" fill="#f3f9ff"/>
    <path id="Trazado_101493" data-name="Trazado 101493" d="M10,0H194a10,10,0,0,1,10,10V72a10,10,0,0,1-10,10H10A10,10,0,0,1,0,72V10A10,10,0,0,1,10,0Z" transform="translate(-7362 -6623)" fill="#f3f9ff"/>
    <path id="Trazado_101494" data-name="Trazado 101494" d="M10,0H423a10,10,0,0,1,10,10V72a10,10,0,0,1-10,10H10A10,10,0,0,1,0,72V10A10,10,0,0,1,10,0Z" transform="translate(-7046 -6713)" fill="#f3f9ff"/>
    <path id="Trazado_101495" data-name="Trazado 101495" d="M10,0H205a10,10,0,0,1,10,10V72a10,10,0,0,1-10,10H10A10,10,0,0,1,0,72V10A10,10,0,0,1,10,0Z" transform="translate(-7170 -6802)" fill="#f3f9ff"/>
    <path id="Trazado_101496" data-name="Trazado 101496" d="M10,0H256a10,10,0,0,1,10,10V72a10,10,0,0,1-10,10H10A10,10,0,0,1,0,72V10A10,10,0,0,1,10,0Z" transform="translate(-7648 -6713)" fill="#f3f9ff"/>
    <path id="Trazado_101497" data-name="Trazado 101497" d="M10,0H205a10,10,0,0,1,10,10V72a10,10,0,0,1-10,10H10A10,10,0,0,1,0,72V10A10,10,0,0,1,10,0Z" transform="translate(-7391 -6802)" fill="#f3f9ff"/>
    <path id="Trazado_101498" data-name="Trazado 101498" d="M10,0H229a10,10,0,0,1,10,10V72a10,10,0,0,1-10,10H10A10,10,0,0,1,0,72V10A10,10,0,0,1,10,0Z" transform="translate(-6948 -6802)" fill="#f3f9ff"/>
    <path id="Trazado_101499" data-name="Trazado 101499" d="M10,0H263a10,10,0,0,1,10,10V72a10,10,0,0,1-10,10H10A10,10,0,0,1,0,72V10A10,10,0,0,1,10,0Z" transform="translate(-7150 -6623)" fill="#f3f9ff"/>
    <g id="Trazado_101500" data-name="Trazado 101500" transform="translate(-6956 -6692)" fill="#fff">
      <path d="M 304 29.5 L 10 29.5 C 4.761692523956299 29.5 0.5 25.23830795288086 0.5 20 L 0.5 10 C 0.5 4.761692523956299 4.761692523956299 0.5 10 0.5 L 304 0.5 C 309.2383117675781 0.5 313.5 4.761692523956299 313.5 10 L 313.5 20 C 313.5 25.23830795288086 309.2383117675781 29.5 304 29.5 Z" stroke="none"/>
      <path d="M 10 1 C 5.037384033203125 1 1 5.037374496459961 1 10 L 1 20 C 1 24.96262550354004 5.037384033203125 29 10 29 L 304 29 C 308.9626159667969 29 313 24.96262550354004 313 20 L 313 10 C 313 5.037374496459961 308.9626159667969 1 304 1 L 10 1 M 10 0 L 304 0 C 309.5228271484375 0 314 4.477167129516602 314 10 L 314 20 C 314 25.5228328704834 309.5228271484375 30 304 30 L 10 30 C 4.47711181640625 30 0 25.5228328704834 0 20 L 0 10 C 0 4.477167129516602 4.47711181640625 0 10 0 Z" stroke="none" fill="#111e61"/>
    </g>
    <g id="Grupo_55643" data-name="Grupo 55643" transform="translate(-7815.182 -11343.869)">
      <g id="Rectángulo_2674" data-name="Rectángulo 2674" transform="translate(257.362 4581)" fill="#fff" stroke="#111e61" stroke-width="1">
        <rect width="139" height="30" rx="10" stroke="none"/>
        <rect x="0.5" y="0.5" width="138" height="29" rx="9.5" fill="none"/>
      </g>
      <text id="CL_o_C_cliente" data-name="CL o C = cliente" transform="translate(263.362 4602)" fill="#111e61" font-size="18" font-family="Roboto-Black, Roboto" font-weight="800"><tspan x="0" y="0">CL o C</tspan><tspan y="0" xml:space="preserve" font-family="Roboto-Regular, Roboto" font-weight="400"> = cliente</tspan></text>
    </g>
    <path id="Trazado_101501" data-name="Trazado 101501" d="M5.933-3.48,8.481-12.8h3.445L7.62,0H4.245L-.026-12.8H3.393ZM16.146,0H13.069V-12.8h3.076Zm5.229-4.342V0H18.29V-12.8H23.4a5.948,5.948,0,0,1,2.6.541,4.074,4.074,0,0,1,1.749,1.538,4.2,4.2,0,0,1,.62,2.263,3.7,3.7,0,0,1-1.34,2.993,5.561,5.561,0,0,1-3.678,1.121Zm0-2.382H23.4a1.906,1.906,0,0,0,1.367-.448,1.665,1.665,0,0,0,.47-1.266A2.059,2.059,0,0,0,24.75-9.87a1.712,1.712,0,0,0-1.318-.545H21.375Zm20.786-.431h-7.33V-8.569h7.33Zm0,3.647h-7.33V-4.913h7.33ZM52.2-2.206l2.355-7.3h1.661L52.8,0H51.565L48.12-9.51h1.661ZM61.611.176a4.155,4.155,0,0,1-3.146-1.27,4.714,4.714,0,0,1-1.213-3.4v-.3a5.707,5.707,0,0,1,.541-2.527A4.217,4.217,0,0,1,59.3-9.057a3.8,3.8,0,0,1,2.1-.628,3.562,3.562,0,0,1,2.883,1.222,5.289,5.289,0,0,1,1.028,3.5v.677H58.878A3.38,3.38,0,0,0,59.7-2.017a2.583,2.583,0,0,0,2,.866A2.832,2.832,0,0,0,63.158-1.5,3.666,3.666,0,0,0,64.2-2.435l.993.773A3.993,3.993,0,0,1,61.611.176Zm-.2-8.525a2.169,2.169,0,0,0-1.652.716,3.482,3.482,0,0,0-.826,2.008h4.764v-.123a3.1,3.1,0,0,0-.668-1.92A2.042,2.042,0,0,0,61.409-8.35Zm10.389.3a4.873,4.873,0,0,0-.8-.062A2.143,2.143,0,0,0,68.827-6.75V0H67.2V-9.51h1.582l.026,1.1a2.532,2.532,0,0,1,2.268-1.274,1.661,1.661,0,0,1,.721.123Zm4.764,5.669L78.776-9.51h1.74L76.693,1.468q-.888,2.373-2.821,2.373l-.308-.026L72.958,3.7V2.382l.439.035a2.164,2.164,0,0,0,1.288-.334,2.417,2.417,0,0,0,.76-1.222l.36-.967-3.393-9.4h1.775ZM88.189,0H86.563V-9.51h1.626ZM86.432-12.032a.971.971,0,0,1,.242-.668.907.907,0,0,1,.716-.272.922.922,0,0,1,.721.272.96.96,0,0,1,.246.668.929.929,0,0,1-.246.659.938.938,0,0,1-.721.264.924.924,0,0,1-.716-.264A.938.938,0,0,1,86.432-12.032ZM92.32-9.51l.044,1.055a3.512,3.512,0,0,1,2.821-1.23A2.719,2.719,0,0,1,97.9-8.156a3.6,3.6,0,0,1,1.235-1.107,3.647,3.647,0,0,1,1.8-.422q3.129,0,3.182,3.313V0h-1.626V-6.275a2.184,2.184,0,0,0-.466-1.525,2.051,2.051,0,0,0-1.564-.505,2.156,2.156,0,0,0-1.5.541,2.193,2.193,0,0,0-.694,1.455V0H96.627V-6.231A1.814,1.814,0,0,0,94.6-8.306a2.175,2.175,0,0,0-2.188,1.362V0H90.782V-9.51Zm22.28,4.86a5.694,5.694,0,0,1-.993,3.5A3.183,3.183,0,0,1,110.918.176a3.488,3.488,0,0,1-2.725-1.1V3.656h-1.626V-9.51h1.485l.079,1.055a3.35,3.35,0,0,1,2.76-1.23A3.243,3.243,0,0,1,113.6-8.394a5.756,5.756,0,0,1,1,3.595Zm-1.626-.185a4.2,4.2,0,0,0-.686-2.54,2.208,2.208,0,0,0-1.881-.932A2.39,2.39,0,0,0,108.193-7v4.544a2.4,2.4,0,0,0,2.232,1.3,2.2,2.2,0,0,0,1.859-.927A4.587,4.587,0,0,0,112.975-4.834Zm3.261-.009a5.617,5.617,0,0,1,.549-2.514,4.1,4.1,0,0,1,1.529-1.723,4.163,4.163,0,0,1,2.237-.606,4.01,4.01,0,0,1,3.142,1.345,5.174,5.174,0,0,1,1.2,3.577v.114a5.666,5.666,0,0,1-.532,2.492A4.038,4.038,0,0,1,122.84-.439a4.211,4.211,0,0,1-2.272.615,4,4,0,0,1-3.133-1.345,5.147,5.147,0,0,1-1.2-3.56Zm1.635.193a4.068,4.068,0,0,0,.734,2.54,2.349,2.349,0,0,0,1.964.958,2.335,2.335,0,0,0,1.969-.971,4.449,4.449,0,0,0,.729-2.72,4.061,4.061,0,0,0-.743-2.536,2.361,2.361,0,0,0-1.973-.971,2.335,2.335,0,0,0-1.942.958A4.416,4.416,0,0,0,117.87-4.649Zm13.658-3.4a4.873,4.873,0,0,0-.8-.062,2.143,2.143,0,0,0-2.171,1.362V0h-1.626V-9.51h1.582l.026,1.1a2.532,2.532,0,0,1,2.268-1.274,1.661,1.661,0,0,1,.721.123Zm4.14-3.762v2.3h1.775v1.257h-1.775v5.9a1.317,1.317,0,0,0,.237.857,1,1,0,0,0,.809.286,3.937,3.937,0,0,0,.773-.105V0a4.714,4.714,0,0,1-1.248.176A2.025,2.025,0,0,1,134.6-.483a2.832,2.832,0,0,1-.554-1.872v-5.9h-1.731V-9.51h1.731v-2.3ZM145.213,0a3.416,3.416,0,0,1-.229-1A3.628,3.628,0,0,1,142.277.176a3.357,3.357,0,0,1-2.307-.8,2.573,2.573,0,0,1-.9-2.017A2.688,2.688,0,0,1,140.2-4.944a5.325,5.325,0,0,1,3.177-.822h1.582v-.747a1.826,1.826,0,0,0-.51-1.358,2.049,2.049,0,0,0-1.5-.505,2.371,2.371,0,0,0-1.459.439,1.3,1.3,0,0,0-.589,1.063h-1.635a2.244,2.244,0,0,1,.505-1.375,3.449,3.449,0,0,1,1.371-1.05,4.613,4.613,0,0,1,1.9-.387,3.759,3.759,0,0,1,2.575.822,2.964,2.964,0,0,1,.967,2.263v4.377a5.351,5.351,0,0,0,.334,2.083V0Zm-2.7-1.239a2.858,2.858,0,0,0,1.45-.4,2.392,2.392,0,0,0,.993-1.028V-4.614h-1.274q-2.988,0-2.988,1.749a1.48,1.48,0,0,0,.51,1.2A1.959,1.959,0,0,0,142.515-1.239Zm8.156-8.271.053,1.2a3.465,3.465,0,0,1,2.848-1.371q3.015,0,3.041,3.4V0h-1.626V-6.293a2.189,2.189,0,0,0-.47-1.521,1.884,1.884,0,0,0-1.437-.492,2.347,2.347,0,0,0-1.389.422,2.865,2.865,0,0,0-.932,1.107V0h-1.626V-9.51Zm10.6-2.3v2.3h1.775v1.257h-1.775v5.9a1.317,1.317,0,0,0,.237.857,1,1,0,0,0,.809.286,3.937,3.937,0,0,0,.773-.105V0a4.714,4.714,0,0,1-1.248.176A2.025,2.025,0,0,1,160.2-.483a2.832,2.832,0,0,1-.554-1.872v-5.9h-1.731V-9.51h1.731v-2.3Zm16.163,7.163a5.694,5.694,0,0,1-.993,3.5A3.183,3.183,0,0,1,173.751.176a3.488,3.488,0,0,1-2.725-1.1V3.656H169.4V-9.51h1.485l.079,1.055a3.35,3.35,0,0,1,2.76-1.23,3.243,3.243,0,0,1,2.711,1.292,5.756,5.756,0,0,1,1,3.595Zm-1.626-.185a4.2,4.2,0,0,0-.686-2.54,2.208,2.208,0,0,0-1.881-.932A2.39,2.39,0,0,0,171.026-7v4.544a2.4,2.4,0,0,0,2.232,1.3,2.2,2.2,0,0,0,1.859-.927A4.587,4.587,0,0,0,175.808-4.834Zm7.638,5.01a4.155,4.155,0,0,1-3.146-1.27,4.714,4.714,0,0,1-1.213-3.4v-.3a5.707,5.707,0,0,1,.541-2.527,4.217,4.217,0,0,1,1.512-1.74,3.8,3.8,0,0,1,2.1-.628,3.562,3.562,0,0,1,2.883,1.222,5.289,5.289,0,0,1,1.028,3.5v.677h-6.442a3.38,3.38,0,0,0,.822,2.272,2.583,2.583,0,0,0,2,.866,2.832,2.832,0,0,0,1.459-.352,3.666,3.666,0,0,0,1.046-.932l.993.773A3.993,3.993,0,0,1,183.445.176Zm-.2-8.525a2.169,2.169,0,0,0-1.652.716,3.482,3.482,0,0,0-.826,2.008h4.764v-.123a3.1,3.1,0,0,0-.668-1.92A2.042,2.042,0,0,0,183.243-8.35Zm10.389.3a4.873,4.873,0,0,0-.8-.062,2.143,2.143,0,0,0-2.171,1.362V0h-1.626V-9.51h1.582l.026,1.1a2.532,2.532,0,0,1,2.268-1.274,1.661,1.661,0,0,1,.721.123Zm7.031,5.528a1.2,1.2,0,0,0-.5-1.024,4.78,4.78,0,0,0-1.731-.628,8.186,8.186,0,0,1-1.96-.633,2.788,2.788,0,0,1-1.072-.879,2.1,2.1,0,0,1-.347-1.213,2.467,2.467,0,0,1,.989-1.978,3.861,3.861,0,0,1,2.527-.809,3.974,3.974,0,0,1,2.624.835A2.652,2.652,0,0,1,202.2-6.715h-1.635A1.468,1.468,0,0,0,200-7.866a2.124,2.124,0,0,0-1.428-.483,2.223,2.223,0,0,0-1.389.387,1.217,1.217,0,0,0-.5,1.011.986.986,0,0,0,.466.888,5.731,5.731,0,0,0,1.683.571,8.77,8.77,0,0,1,1.973.65,2.878,2.878,0,0,1,1.121.91,2.237,2.237,0,0,1,.365,1.3,2.434,2.434,0,0,1-1.02,2.043,4.277,4.277,0,0,1-2.646.769,4.789,4.789,0,0,1-2.021-.4,3.288,3.288,0,0,1-1.375-1.129,2.722,2.722,0,0,1-.5-1.569h1.626a1.683,1.683,0,0,0,.655,1.3,2.54,2.54,0,0,0,1.613.479,2.622,2.622,0,0,0,1.481-.374A1.148,1.148,0,0,0,200.663-2.522Zm3.313-2.32a5.617,5.617,0,0,1,.549-2.514,4.1,4.1,0,0,1,1.529-1.723,4.163,4.163,0,0,1,2.237-.606,4.01,4.01,0,0,1,3.142,1.345,5.174,5.174,0,0,1,1.2,3.577v.114a5.666,5.666,0,0,1-.532,2.492,4.038,4.038,0,0,1-1.521,1.718,4.211,4.211,0,0,1-2.272.615,4,4,0,0,1-3.133-1.345,5.147,5.147,0,0,1-1.2-3.56Zm1.635.193a4.068,4.068,0,0,0,.734,2.54,2.349,2.349,0,0,0,1.964.958,2.335,2.335,0,0,0,1.969-.971,4.449,4.449,0,0,0,.729-2.72,4.061,4.061,0,0,0-.743-2.536,2.361,2.361,0,0,0-1.973-.971,2.335,2.335,0,0,0-1.942.958A4.416,4.416,0,0,0,205.611-4.649Zm10.6-4.86.053,1.2a3.465,3.465,0,0,1,2.848-1.371q3.015,0,3.041,3.4V0h-1.626V-6.293a2.189,2.189,0,0,0-.47-1.521,1.884,1.884,0,0,0-1.437-.492,2.347,2.347,0,0,0-1.389.422,2.865,2.865,0,0,0-.932,1.107V0h-1.626V-9.51ZM229.386,1.1h-1.4l5.344-13.9h1.389Zm19.582-5.748a5.694,5.694,0,0,1-.993,3.5A3.183,3.183,0,0,1,245.285.176a3.488,3.488,0,0,1-2.725-1.1V3.656h-1.626V-9.51h1.485l.079,1.055a3.35,3.35,0,0,1,2.76-1.23,3.243,3.243,0,0,1,2.711,1.292,5.756,5.756,0,0,1,1,3.595Zm-1.626-.185a4.2,4.2,0,0,0-.686-2.54,2.208,2.208,0,0,0-1.881-.932A2.39,2.39,0,0,0,242.561-7v4.544a2.4,2.4,0,0,0,2.232,1.3,2.2,2.2,0,0,0,1.859-.927A4.587,4.587,0,0,0,247.342-4.834Zm7.638,5.01a4.155,4.155,0,0,1-3.146-1.27,4.714,4.714,0,0,1-1.213-3.4v-.3a5.707,5.707,0,0,1,.541-2.527,4.217,4.217,0,0,1,1.512-1.74,3.8,3.8,0,0,1,2.1-.628,3.562,3.562,0,0,1,2.883,1.222,5.289,5.289,0,0,1,1.028,3.5v.677h-6.442a3.38,3.38,0,0,0,.822,2.272,2.583,2.583,0,0,0,2,.866,2.832,2.832,0,0,0,1.459-.352,3.666,3.666,0,0,0,1.046-.932l.993.773A3.993,3.993,0,0,1,254.979.176Zm-.2-8.525a2.169,2.169,0,0,0-1.652.716,3.482,3.482,0,0,0-.826,2.008h4.764v-.123a3.1,3.1,0,0,0-.668-1.92A2.042,2.042,0,0,0,254.777-8.35Zm5.361,3.507a5.617,5.617,0,0,1,.549-2.514,4.1,4.1,0,0,1,1.529-1.723,4.163,4.163,0,0,1,2.237-.606A4.01,4.01,0,0,1,267.6-8.341a5.174,5.174,0,0,1,1.2,3.577v.114a5.666,5.666,0,0,1-.532,2.492,4.038,4.038,0,0,1-1.521,1.718,4.211,4.211,0,0,1-2.272.615,4,4,0,0,1-3.133-1.345,5.147,5.147,0,0,1-1.2-3.56Zm1.635.193a4.068,4.068,0,0,0,.734,2.54,2.349,2.349,0,0,0,1.964.958,2.335,2.335,0,0,0,1.969-.971,4.449,4.449,0,0,0,.729-2.72,4.061,4.061,0,0,0-.743-2.536,2.361,2.361,0,0,0-1.973-.971,2.335,2.335,0,0,0-1.942.958A4.416,4.416,0,0,0,261.773-4.649Zm17.095,0a5.694,5.694,0,0,1-.993,3.5A3.183,3.183,0,0,1,275.186.176a3.488,3.488,0,0,1-2.725-1.1V3.656h-1.626V-9.51h1.485l.079,1.055a3.35,3.35,0,0,1,2.76-1.23,3.243,3.243,0,0,1,2.711,1.292,5.756,5.756,0,0,1,1,3.595Zm-1.626-.185a4.2,4.2,0,0,0-.686-2.54,2.208,2.208,0,0,0-1.881-.932A2.39,2.39,0,0,0,272.461-7v4.544a2.4,2.4,0,0,0,2.232,1.3,2.2,2.2,0,0,0,1.859-.927A4.587,4.587,0,0,0,277.242-4.834ZM282.7,0h-1.626V-13.5H282.7Zm6.548.176a4.155,4.155,0,0,1-3.146-1.27,4.714,4.714,0,0,1-1.213-3.4v-.3a5.707,5.707,0,0,1,.541-2.527,4.217,4.217,0,0,1,1.512-1.74,3.8,3.8,0,0,1,2.1-.628,3.562,3.562,0,0,1,2.883,1.222,5.289,5.289,0,0,1,1.028,3.5v.677h-6.442a3.38,3.38,0,0,0,.822,2.272,2.583,2.583,0,0,0,2,.866,2.832,2.832,0,0,0,1.459-.352,3.666,3.666,0,0,0,1.046-.932l.993.773A3.993,3.993,0,0,1,289.248.176Zm-.2-8.525a2.169,2.169,0,0,0-1.652.716,3.482,3.482,0,0,0-.826,2.008h4.764v-.123a3.1,3.1,0,0,0-.668-1.92A2.042,2.042,0,0,0,289.046-8.35Z" transform="translate(-6949 -6671)" fill="#111e61"/>
    <path id="Trazado_101502" data-name="Trazado 101502" d="M4.063-3.751a9.814,9.814,0,0,1,.384-2.755,8,8,0,0,1,1.146-2.4,4.874,4.874,0,0,1,1.581-1.523l.241.774a5.056,5.056,0,0,0-1.52,2.171,9.411,9.411,0,0,0-.651,3.269l-.006.54a9.46,9.46,0,0,0,.9,4.253A5.079,5.079,0,0,0,7.414,2.266l-.241.717A5.031,5.031,0,0,1,5.561,1.409,8.823,8.823,0,0,1,4.063-3.751Zm10.29.394a4.113,4.113,0,0,1-.717,2.526,2.3,2.3,0,0,1-1.942.958A2.519,2.519,0,0,1,9.725-.667V2.641H8.55V-6.868H9.623l.057.762A2.419,2.419,0,0,1,11.673-7a2.342,2.342,0,0,1,1.958.933,4.157,4.157,0,0,1,.72,2.6Zm-1.174-.133a3.035,3.035,0,0,0-.5-1.834A1.6,1.6,0,0,0,11.324-6a1.726,1.726,0,0,0-1.6.946v3.282a1.73,1.73,0,0,0,1.612.939,1.587,1.587,0,0,0,1.343-.67A3.312,3.312,0,0,0,13.178-3.491ZM18.694.127A3,3,0,0,1,16.421-.79a3.4,3.4,0,0,1-.876-2.453v-.216a4.121,4.121,0,0,1,.39-1.825,3.045,3.045,0,0,1,1.092-1.257A2.745,2.745,0,0,1,18.548-7a2.572,2.572,0,0,1,2.082.882,3.82,3.82,0,0,1,.743,2.526V-3.1H16.72a2.441,2.441,0,0,0,.594,1.641,1.866,1.866,0,0,0,1.444.625,2.045,2.045,0,0,0,1.054-.254,2.648,2.648,0,0,0,.755-.673l.717.559A2.884,2.884,0,0,1,18.694.127ZM18.548-6.03a1.566,1.566,0,0,0-1.193.517,2.515,2.515,0,0,0-.6,1.45H20.2v-.089a2.237,2.237,0,0,0-.482-1.387A1.475,1.475,0,0,0,18.548-6.03Zm7.5.216a3.519,3.519,0,0,0-.578-.044,1.547,1.547,0,0,0-1.568.984V0H22.731V-6.868h1.143l.019.793A1.829,1.829,0,0,1,25.53-7a1.2,1.2,0,0,1,.521.089Zm5.078,3.993a.864.864,0,0,0-.359-.74,3.452,3.452,0,0,0-1.25-.454A5.912,5.912,0,0,1,28.1-3.472a2.014,2.014,0,0,1-.774-.635,1.518,1.518,0,0,1-.251-.876,1.782,1.782,0,0,1,.714-1.428A2.789,2.789,0,0,1,29.618-7a2.87,2.87,0,0,1,1.895.6A1.915,1.915,0,0,1,32.24-4.85H31.059a1.06,1.06,0,0,0-.409-.832,1.534,1.534,0,0,0-1.031-.349,1.606,1.606,0,0,0-1,.279.879.879,0,0,0-.362.73.712.712,0,0,0,.336.641,4.139,4.139,0,0,0,1.216.413,6.334,6.334,0,0,1,1.425.47,2.079,2.079,0,0,1,.809.657A1.615,1.615,0,0,1,32.3-1.9a1.758,1.758,0,0,1-.736,1.476,3.089,3.089,0,0,1-1.911.555A3.459,3.459,0,0,1,28.2-.165,2.375,2.375,0,0,1,27.2-.981a1.966,1.966,0,0,1-.359-1.133h1.174a1.216,1.216,0,0,0,.473.936,1.835,1.835,0,0,0,1.165.346,1.894,1.894,0,0,0,1.07-.27A.829.829,0,0,0,31.129-1.822ZM33.522-3.5a4.057,4.057,0,0,1,.4-1.815,2.96,2.96,0,0,1,1.1-1.244A3.007,3.007,0,0,1,36.639-7a2.9,2.9,0,0,1,2.269.971,3.736,3.736,0,0,1,.866,2.583v.083a4.092,4.092,0,0,1-.384,1.8,2.916,2.916,0,0,1-1.1,1.241,3.041,3.041,0,0,1-1.641.444,2.889,2.889,0,0,1-2.263-.971,3.718,3.718,0,0,1-.866-2.571Zm1.181.14a2.938,2.938,0,0,0,.53,1.834,1.7,1.7,0,0,0,1.419.692,1.686,1.686,0,0,0,1.422-.7A3.213,3.213,0,0,0,38.6-3.5a2.933,2.933,0,0,0-.536-1.831,1.705,1.705,0,0,0-1.425-.7,1.686,1.686,0,0,0-1.4.692A3.189,3.189,0,0,0,34.7-3.358Zm7.655-3.51L42.4-6A2.5,2.5,0,0,1,44.453-7q2.177,0,2.2,2.457V0H45.475V-4.545a1.581,1.581,0,0,0-.34-1.1A1.361,1.361,0,0,0,44.1-6a1.7,1.7,0,0,0-1,.3,2.069,2.069,0,0,0-.673.8V0H41.247V-6.868ZM52.66,0A2.467,2.467,0,0,1,52.5-.724,2.62,2.62,0,0,1,50.54.127a2.424,2.424,0,0,1-1.666-.574A1.859,1.859,0,0,1,48.223-1.9a1.942,1.942,0,0,1,.816-1.666,3.846,3.846,0,0,1,2.295-.594h1.143V-4.7a1.319,1.319,0,0,0-.368-.981,1.48,1.48,0,0,0-1.085-.365,1.712,1.712,0,0,0-1.054.317.935.935,0,0,0-.425.768H48.363a1.621,1.621,0,0,1,.365-.993,2.491,2.491,0,0,1,.99-.759A3.331,3.331,0,0,1,51.092-7a2.715,2.715,0,0,1,1.86.594,2.141,2.141,0,0,1,.7,1.635v3.161a3.865,3.865,0,0,0,.241,1.5V0ZM50.711-.9a2.064,2.064,0,0,0,1.047-.286,1.728,1.728,0,0,0,.717-.743V-3.333h-.92q-2.158,0-2.158,1.263a1.069,1.069,0,0,0,.368.863A1.415,1.415,0,0,0,50.711-.9Zm9.1-5.973.032.762A2.536,2.536,0,0,1,61.883-7a1.964,1.964,0,0,1,1.961,1.1,2.6,2.6,0,0,1,.892-.8,2.634,2.634,0,0,1,1.3-.3q2.26,0,2.3,2.393V0H67.158V-4.532a1.577,1.577,0,0,0-.336-1.1A1.482,1.482,0,0,0,65.692-6a1.557,1.557,0,0,0-1.085.39,1.584,1.584,0,0,0-.5,1.051V0H62.924V-4.5A1.31,1.31,0,0,0,61.458-6a1.571,1.571,0,0,0-1.581.984V0H58.7V-6.868ZM74.344-.679a2.494,2.494,0,0,1-2.012.806,2.135,2.135,0,0,1-1.673-.638A2.761,2.761,0,0,1,70.078-2.4V-6.868h1.174v4.437q0,1.562,1.27,1.562a1.758,1.758,0,0,0,1.79-1v-5h1.174V0H74.369ZM79.517-1.72l1.6-5.148h1.257L79.612,1.06q-.641,1.714-2.038,1.714l-.222-.019-.438-.083V1.72l.317.025a1.563,1.563,0,0,0,.93-.241,1.746,1.746,0,0,0,.549-.882l.26-.7-2.45-6.792H77.8ZM87.915,0H86.741V-6.868h1.174Zm-1.27-8.69a.7.7,0,0,1,.175-.482.655.655,0,0,1,.517-.2.666.666,0,0,1,.521.2.694.694,0,0,1,.178.482.671.671,0,0,1-.178.476.678.678,0,0,1-.521.19.667.667,0,0,1-.517-.19A.678.678,0,0,1,86.646-8.69ZM90.9-6.868l.032.762A2.536,2.536,0,0,1,92.968-7a1.964,1.964,0,0,1,1.961,1.1,2.6,2.6,0,0,1,.892-.8,2.634,2.634,0,0,1,1.3-.3q2.26,0,2.3,2.393V0H98.243V-4.532a1.577,1.577,0,0,0-.336-1.1A1.482,1.482,0,0,0,96.776-6a1.557,1.557,0,0,0-1.085.39,1.584,1.584,0,0,0-.5,1.051V0H94.009V-4.5A1.31,1.31,0,0,0,92.542-6a1.571,1.571,0,0,0-1.581.984V0H89.788V-6.868Zm16.091,3.51a4.113,4.113,0,0,1-.717,2.526,2.3,2.3,0,0,1-1.942.958,2.519,2.519,0,0,1-1.968-.793V2.641h-1.174V-6.868h1.073l.057.762A2.419,2.419,0,0,1,104.311-7a2.342,2.342,0,0,1,1.958.933,4.157,4.157,0,0,1,.72,2.6Zm-1.174-.133a3.035,3.035,0,0,0-.5-1.834A1.6,1.6,0,0,0,103.962-6a1.726,1.726,0,0,0-1.6.946v3.282a1.73,1.73,0,0,0,1.612.939,1.587,1.587,0,0,0,1.343-.67A3.313,3.313,0,0,0,105.815-3.491ZM108.17-3.5a4.057,4.057,0,0,1,.4-1.815,2.96,2.96,0,0,1,1.1-1.244A3.007,3.007,0,0,1,111.287-7a2.9,2.9,0,0,1,2.269.971,3.736,3.736,0,0,1,.866,2.583v.083a4.092,4.092,0,0,1-.384,1.8,2.916,2.916,0,0,1-1.1,1.241A3.041,3.041,0,0,1,111.3.127a2.889,2.889,0,0,1-2.263-.971,3.718,3.718,0,0,1-.866-2.571Zm1.181.14a2.938,2.938,0,0,0,.53,1.834,1.7,1.7,0,0,0,1.419.692,1.686,1.686,0,0,0,1.422-.7,3.213,3.213,0,0,0,.527-1.965,2.933,2.933,0,0,0-.536-1.831,1.705,1.705,0,0,0-1.425-.7,1.686,1.686,0,0,0-1.4.692A3.189,3.189,0,0,0,109.351-3.358Zm9.864-2.457a3.519,3.519,0,0,0-.578-.044,1.547,1.547,0,0,0-1.568.984V0H115.9V-6.868h1.143l.019.793A1.829,1.829,0,0,1,118.695-7a1.2,1.2,0,0,1,.521.089Zm2.99-2.717v1.663h1.282v.908h-1.282V-1.7a.951.951,0,0,0,.171.619.722.722,0,0,0,.584.206,2.843,2.843,0,0,0,.559-.076V0a3.4,3.4,0,0,1-.9.127,1.462,1.462,0,0,1-1.187-.476,2.045,2.045,0,0,1-.4-1.352V-5.96h-1.25v-.908h1.25V-8.531ZM129.1,0a2.467,2.467,0,0,1-.165-.724,2.62,2.62,0,0,1-1.955.851,2.424,2.424,0,0,1-1.666-.574,1.859,1.859,0,0,1-.651-1.457,1.942,1.942,0,0,1,.816-1.666,3.846,3.846,0,0,1,2.295-.594h1.143V-4.7a1.319,1.319,0,0,0-.368-.981,1.48,1.48,0,0,0-1.085-.365,1.712,1.712,0,0,0-1.054.317.935.935,0,0,0-.425.768H124.8a1.621,1.621,0,0,1,.365-.993,2.491,2.491,0,0,1,.99-.759A3.331,3.331,0,0,1,127.531-7a2.715,2.715,0,0,1,1.86.594,2.141,2.141,0,0,1,.7,1.635v3.161a3.865,3.865,0,0,0,.241,1.5V0ZM127.15-.9a2.064,2.064,0,0,0,1.047-.286,1.728,1.728,0,0,0,.717-.743V-3.333h-.92q-2.158,0-2.158,1.263a1.069,1.069,0,0,0,.368.863A1.415,1.415,0,0,0,127.15-.9Zm5.891-5.973.038.863A2.5,2.5,0,0,1,135.135-7q2.177,0,2.2,2.457V0h-1.174V-4.545a1.581,1.581,0,0,0-.34-1.1A1.361,1.361,0,0,0,134.78-6a1.7,1.7,0,0,0-1,.3,2.069,2.069,0,0,0-.673.8V0H131.93V-6.868ZM140.7-8.531v1.663h1.282v.908H140.7V-1.7a.951.951,0,0,0,.171.619.722.722,0,0,0,.584.206,2.843,2.843,0,0,0,.559-.076V0a3.4,3.4,0,0,1-.9.127,1.462,1.462,0,0,1-1.187-.476,2.045,2.045,0,0,1-.4-1.352V-5.96h-1.25v-.908h1.25V-8.531ZM146.2.127a3,3,0,0,1-2.272-.917,3.4,3.4,0,0,1-.876-2.453v-.216a4.121,4.121,0,0,1,.39-1.825,3.045,3.045,0,0,1,1.092-1.257A2.745,2.745,0,0,1,146.053-7a2.572,2.572,0,0,1,2.082.882,3.82,3.82,0,0,1,.743,2.526V-3.1h-4.653a2.441,2.441,0,0,0,.594,1.641,1.866,1.866,0,0,0,1.444.625,2.045,2.045,0,0,0,1.054-.254,2.647,2.647,0,0,0,.755-.673l.717.559A2.884,2.884,0,0,1,146.2.127Zm-.146-6.157a1.566,1.566,0,0,0-1.193.517,2.515,2.515,0,0,0-.6,1.45h3.44v-.089a2.237,2.237,0,0,0-.482-1.387A1.475,1.475,0,0,0,146.053-6.03Zm6.894,2.342a9.819,9.819,0,0,1-.371,2.714,8.024,8.024,0,0,1-1.136,2.4,4.978,4.978,0,0,1-1.6,1.562l-.248-.717A5.1,5.1,0,0,0,151.16-.06a10.065,10.065,0,0,0,.606-3.5v-.2a10.449,10.449,0,0,0-.279-2.479,8.366,8.366,0,0,0-.778-2.053,4.743,4.743,0,0,0-1.12-1.416l.248-.717a4.959,4.959,0,0,1,1.6,1.549,8.041,8.041,0,0,1,1.136,2.393A10.045,10.045,0,0,1,152.947-3.688Z" transform="translate(-6954 -6645)" fill="#111e61"/>
    <g id="Grupo_55644" data-name="Grupo 55644" transform="translate(-7549 -11516)">
      <g id="Rectángulo_2675" data-name="Rectángulo 2675" transform="translate(257 4753)" fill="#fff" stroke="#111e61" stroke-width="1">
        <rect width="79" height="30" rx="10" stroke="none"/>
        <rect x="0.5" y="0.5" width="78" height="29" rx="9.5" fill="none"/>
      </g>
      <text id="L_libre" data-name="L = libre" transform="translate(264 4774)" fill="#111e61" font-size="18" font-family="Roboto-Black, Roboto" font-weight="800"><tspan x="0" y="0">L</tspan><tspan y="0" xml:space="preserve" font-family="Roboto-Regular, Roboto" font-weight="400"> = libre</tspan></text>
    </g>
    <g id="Grupo_55645" data-name="Grupo 55645" transform="translate(-7326 -11429.94)">
      <g id="Rectángulo_2676" data-name="Rectángulo 2676" transform="translate(257.362 4667.071)" fill="#fff" stroke="#111e61" stroke-width="1">
        <rect width="93" height="30" rx="10" stroke="none"/>
        <rect x="0.5" y="0.5" width="92" height="29" rx="9.5" fill="none"/>
      </g>
      <text id="S_salida" data-name="S = salida" transform="translate(264.362 4688.071)" fill="#111e61" font-size="18" font-family="Roboto-Black, Roboto" font-weight="800"><tspan x="0" y="0">S</tspan><tspan y="0" xml:space="preserve" font-family="Roboto-Regular, Roboto" font-weight="400"> = salida</tspan></text>
    </g>
    <g id="Grupo_55646" data-name="Grupo 55646" transform="translate(-7507 -11506)">
      <g id="Rectángulo_2677" data-name="Rectángulo 2677" transform="translate(667 4743)" fill="#fff" stroke="#111e61" stroke-width="1">
        <rect width="106" height="30" rx="10" stroke="none"/>
        <rect x="0.5" y="0.5" width="105" height="29" rx="9.5" fill="none"/>
      </g>
      <text id="E_entrada" data-name="E = entrada" transform="translate(674 4764)" fill="#111e61" font-size="18" font-family="Roboto-Black, Roboto" font-weight="800"><tspan x="0" y="0">E</tspan><tspan y="0" xml:space="preserve" font-family="Roboto-Regular, Roboto" font-weight="400"> = entrada</tspan></text>
    </g>
    <g id="Grupo_55647" data-name="Grupo 55647" transform="translate(-8369 -11424)">
      <g id="Rectángulo_2679" data-name="Rectángulo 2679" transform="translate(808 4743)" fill="#fff" stroke="#111e61" stroke-width="1">
        <rect width="144" height="30" rx="10" stroke="none"/>
        <rect x="0.5" y="0.5" width="143" height="29" rx="9.5" fill="none"/>
      </g>
      <text id="BQ_bloqueada" data-name="BQ = bloqueada" transform="translate(815 4764)" fill="#111e61" font-size="18" font-family="Roboto-Black, Roboto" font-weight="800"><tspan x="0" y="0">BQ</tspan><tspan y="0" xml:space="preserve" font-family="Roboto-Regular, Roboto" font-weight="400"> = bloqueada</tspan></text>
    </g>
    <g id="Grupo_55648" data-name="Grupo 55648" transform="translate(-8293 -11592)">
      <g id="Rectángulo_2682" data-name="Rectángulo 2682" transform="translate(715 5007)" fill="#fff" stroke="#111e61" stroke-width="1">
        <rect width="182" height="30" rx="10" stroke="none"/>
        <rect x="0.5" y="0.5" width="181" height="29" rx="9.5" fill="none"/>
      </g>
      <text id="DND_do_not_disturb" data-name="DND = do not disturb" transform="translate(722 5028)" fill="#111e61" font-size="18" font-family="Roboto-Black, Roboto" font-weight="800"><tspan x="0" y="0">DND</tspan><tspan y="0" xml:space="preserve" font-family="Roboto-Regular, Roboto" font-weight="400"> = do not disturb</tspan></text>
    </g>
    <g id="Grupo_55649" data-name="Grupo 55649" transform="translate(-8180.423 -11595)">
      <g id="Rectángulo_2683" data-name="Rectángulo 2683" transform="translate(902 5007)" fill="#fff" stroke="#111e61" stroke-width="1">
        <rect width="99" height="30" rx="10" stroke="none"/>
        <rect x="0.5" y="0.5" width="98" height="29" rx="9.5" fill="none"/>
      </g>
      <text id="CU_cuna" data-name="CU = cuna" transform="translate(909 5028)" fill="#111e61" font-size="18" font-family="Roboto-Black, Roboto" font-weight="800"><tspan x="0" y="0">CU</tspan><tspan y="0" xml:space="preserve" font-family="Roboto-Regular, Roboto" font-weight="400"> = cuna</tspan></text>
    </g>
    <g id="Grupo_55650" data-name="Grupo 55650" transform="translate(-8056 -11589)">
      <g id="Rectángulo_2684" data-name="Rectángulo 2684" transform="translate(1006 5007)" fill="#fff" stroke="#111e61" stroke-width="1">
        <rect width="156" height="30" rx="10" stroke="none"/>
        <rect x="0.5" y="0.5" width="155" height="29" rx="9.5" fill="none"/>
      </g>
      <text id="CEx_cama_extra" data-name="CEx = cama extra" transform="translate(1013 5028)" fill="#111e61" font-size="18" font-family="Roboto-Regular, Roboto"><tspan x="0" y="0">CEx = cama extra</tspan></text>
    </g>
    <g id="Grupo_55651" data-name="Grupo 55651" transform="translate(-7844 -11534)">
      <g id="Rectángulo_2680" data-name="Rectángulo 2680" transform="translate(557 4860)" fill="#fff" stroke="#111e61" stroke-width="1">
        <rect width="208" height="30" rx="10" stroke="none"/>
        <rect x="0.5" y="0.5" width="207" height="29" rx="9.5" fill="none"/>
      </g>
      <text id="R_repaso_para_revisar" data-name="R = repaso/para revisar" transform="translate(567 4881)" fill="#111e61" font-size="18" font-family="Roboto-Black, Roboto" font-weight="800"><tspan x="0" y="0">R</tspan><tspan y="0" xml:space="preserve" font-family="Roboto-Regular, Roboto" font-weight="400"> = repaso/para revisar</tspan></text>
    </g>
    <g id="XMLID_1484_" transform="translate(-7148.363 -6782.125)">
      <path id="XMLID_1684_" d="M104,40h25.048V78.646H104Z" transform="translate(-94.696 -36.422)" fill="#fff"/>
      <path id="XMLID_1683_" d="M384,51.33l10.556,2.684V10L384,12.684Z" transform="translate(-349.648 -9.105)" fill="#ffcd69"/>
      <path id="XMLID_1195_" d="M10,83.452H39.521V97.765H10Z" transform="translate(-9.105 -75.987)" fill="#ff7b79"/>
      <path id="XMLID_2473_" d="M54.356,315.06l-7.818-4.513v2.143H34.545v4.741H46.539v2.143Z" transform="translate(-31.455 -282.766)" fill="#8aa8bd"/>
      <g id="XMLID_552_" transform="translate(0 0)">
        <path id="XMLID_573_" d="M206.622,122.581a.9.9,0,0,0,.895-.895V114.53a.895.895,0,1,0-1.789,0v7.157A.9.9,0,0,0,206.622,122.581Z" transform="translate(-187.323 -103.469)"/>
        <path id="XMLID_645_" d="M43.883,115.789a.895.895,0,0,0,0-1.789H40.895a.9.9,0,0,0-.895.895v7.091a.9.9,0,0,0,.895.895h2.988a.895.895,0,1,0,0-1.789H41.789v-1.757h1.873a.895.895,0,1,0,0-1.789H41.789v-1.757Z" transform="translate(-36.422 -103.802)"/>
        <path id="XMLID_646_" d="M109.748,122.416a.894.894,0,0,0,1.247-.216l1.968-2.794,1.965,2.793a.895.895,0,0,0,1.463-1.029l-2.334-3.317,1.979-2.809a.895.895,0,0,0-1.463-1.03l-1.61,2.285-1.607-2.285a.895.895,0,1,0-1.463,1.029l1.976,2.809-2.337,3.318A.9.9,0,0,0,109.748,122.416Z" transform="translate(-99.585 -103.468)"/>
        <path id="XMLID_650_" d="M246.622,115.424H247.7v6.262a.895.895,0,0,0,1.789,0v-6.262h1.09a.895.895,0,0,0,0-1.789h-3.952a.895.895,0,1,0,0,1.789Z" transform="translate(-223.745 -103.469)"/>
        <path id="XMLID_653_" d="M45.457.188a.894.894,0,0,0-.77-.161L34.24,2.684H9.3a.9.9,0,0,0-.895.895V6.571H.895A.9.9,0,0,0,0,7.465V21.779a.9.9,0,0,0,.895.895H8.409v6.356H3.09a.9.9,0,0,0-.895.895v4.741a.9.9,0,0,0,.895.895H8.409v6.665a.9.9,0,0,0,.895.895H34.24l10.447,2.656a.894.894,0,0,0,1.115-.867V.895a.9.9,0,0,0-.345-.706ZM1.789,8.36H29.521V20.884H1.789Zm2.2,22.459h11.1a.9.9,0,0,0,.895-.895V29.33l5.134,2.964-5.134,2.964v-.594a.9.9,0,0,0-.895-.895H3.985ZM44.014,43.758l-8.767-2.229v-14.6a.895.895,0,1,0-1.789,0v14.4H10.2V35.56h3.991v1.248a.895.895,0,0,0,1.342.775l7.818-4.513a.895.895,0,0,0,0-1.549l-7.818-4.513a.895.895,0,0,0-1.342.775v1.248H10.2V22.673H30.416a.9.9,0,0,0,.895-.895V7.465a.9.9,0,0,0-.895-.895H10.2v-2.1H33.457V18.881a.895.895,0,1,0,1.789,0V4.274l8.767-2.229Z" transform="translate(0 0)"/>
        <path id="XMLID_656_" d="M374.955,246.06a.895.895,0,1,0,.633.262A.9.9,0,0,0,374.955,246.06Z" transform="translate(-340.597 -224.048)"/>
      </g>
    </g>
    <g id="tarjeta-vip" transform="translate(-7140.279 -6702.257)">
      <g id="Grupo_55604" data-name="Grupo 55604" transform="translate(128.135 15.124)">
        <path id="Trazado_101365" data-name="Trazado 101365" d="M160.1,175.109H137.083a2.3,2.3,0,0,1-2.3-2.3V135.062a2.3,2.3,0,0,1,2.3-2.3H160.1a2.3,2.3,0,0,1,2.3,2.3v37.746A2.3,2.3,0,0,1,160.1,175.109Z" transform="translate(-134.781 -132.76)" fill="#bc95e2"/>
      </g>
      <g id="Grupo_55605" data-name="Grupo 55605" transform="translate(150.46 15.124)">
        <path id="Trazado_101366" data-name="Trazado 101366" d="M333.744,132.76h-2.992a2.3,2.3,0,0,1,2.3,2.3v37.746a2.3,2.3,0,0,1-2.3,2.3h2.992a2.3,2.3,0,0,0,2.3-2.3V135.062A2.3,2.3,0,0,0,333.744,132.76Z" transform="translate(-330.752 -132.76)" fill="#ac80dd"/>
      </g>
      <g id="Grupo_55606" data-name="Grupo 55606" transform="translate(140.793 0.854)">
        <path id="Trazado_101367" data-name="Trazado 101367" d="M250.962,21.77H245.9L251.652,7.5h5.064Z" transform="translate(-245.898 -7.5)" fill="#dd5790"/>
      </g>
      <g id="Grupo_55607" data-name="Grupo 55607" transform="translate(132.277 0.854)">
        <path id="Trazado_101368" data-name="Trazado 101368" d="M176.9,21.77h5.064L176.209,7.5h-5.063Z" transform="translate(-171.146 -7.5)" fill="#e490b7"/>
      </g>
      <g id="Grupo_55608" data-name="Grupo 55608" transform="translate(136.19 15.124)">
        <path id="Trazado_101369" data-name="Trazado 101369" d="M205.492,132.76H217v3.913H205.492Z" transform="translate(-205.492 -132.76)" fill="#efecef"/>
      </g>
      <g id="Grupo_55609" data-name="Grupo 55609" transform="translate(132.507 46.425)">
        <path id="Trazado_101370" data-name="Trazado 101370" d="M173.167,407.524H192.04v3.913H173.167Z" transform="translate(-173.167 -407.524)" fill="#b1e4f9"/>
      </g>
      <g id="Grupo_55610" data-name="Grupo 55610" transform="translate(137.14 22.719)">
        <path id="Trazado_101371" data-name="Trazado 101371" d="M218.967,207.571l1.871.983a.709.709,0,0,0,1.028-.747l-.357-2.083a.709.709,0,0,1,.2-.627l1.513-1.475a.709.709,0,0,0-.393-1.209l-2.091-.3a.709.709,0,0,1-.534-.388l-.935-1.9a.709.709,0,0,0-1.271,0l-.935,1.9a.709.709,0,0,1-.534.388l-2.091.3a.709.709,0,0,0-.393,1.209l1.513,1.475a.709.709,0,0,1,.2.627l-.357,2.083a.709.709,0,0,0,1.028.747l1.871-.983A.709.709,0,0,1,218.967,207.571Z" transform="translate(-213.834 -199.431)" fill="#ffe07d"/>
      </g>
      <g id="Grupo_55611" data-name="Grupo 55611" transform="translate(127.28 0)">
        <path id="Trazado_101372" data-name="Trazado 101372" d="M165.667,400.878v3.913a.854.854,0,0,0,.854.854h18.873a.854.854,0,0,0,.854-.854v-3.913a.854.854,0,0,0-.854-.854H166.521A.854.854,0,0,0,165.667,400.878Zm1.709.854H184.54v2.2H167.376Z" transform="translate(-161.294 -354.453)"/>
        <path id="Trazado_101373" data-name="Trazado 101373" d="M253.021,305.923v6.9a.854.854,0,0,0,1.709,0v-6.9a.854.854,0,0,0-1.709,0Z" transform="translate(-238.696 -270.315)"/>
        <path id="Trazado_101374" data-name="Trazado 101374" d="M178.172,305.115a.854.854,0,0,0-.527,1.087l2.363,6.807a1.011,1.011,0,0,0,.952.672h.006a1.013,1.013,0,0,0,.952-.691l2.254-6.786a.854.854,0,1,0-1.622-.539l-1.606,4.833-1.686-4.857A.854.854,0,0,0,178.172,305.115Z" transform="translate(-171.865 -270.314)"/>
        <path id="Trazado_101375" data-name="Trazado 101375" d="M285.856,305.078a.863.863,0,0,0-.769.85v6.9a.854.854,0,1,0,1.709,0v-2.149l1.068,0a2.8,2.8,0,1,0,0-5.605h-1.922A.827.827,0,0,0,285.856,305.078Zm2.008,1.7a1.095,1.095,0,1,1,0,2.188l-1.059,0c0-.4,0-.844,0-1.1,0-.215,0-.675,0-1.094Z" transform="translate(-267.109 -270.32)"/>
        <path id="Trazado_101376" data-name="Trazado 101376" d="M153.453,14.27h-6.329l5.281-13.1A.854.854,0,0,0,151.611,0h-5.063a.854.854,0,0,0-.792.535l-3.811,9.451L138.134.535A.855.855,0,0,0,137.342,0h-5.063a.854.854,0,0,0-.792,1.174l5.281,13.1h-6.329a3.16,3.16,0,0,0-3.156,3.156V43.518a.854.854,0,0,0,1.709,0V17.426a1.449,1.449,0,0,1,1.447-1.447h4.9v3.058a.854.854,0,0,0,.854.854H147.7a.854.854,0,0,0,.854-.854V15.979h4.9a1.449,1.449,0,0,1,1.447,1.447V21.44a.854.854,0,0,0,1.709,0V17.426a3.16,3.16,0,0,0-3.156-3.156ZM147.125,1.709h3.221L145.281,14.27h-1.608l-.806-2Zm-13.581,0h3.221L141.83,14.27h-3.221Zm13.3,16.474h-9.8v-2.2h9.8Z" transform="translate(-127.281 0)"/>
        <path id="Trazado_101377" data-name="Trazado 101377" d="M155.753,215.714a.854.854,0,0,0-.854.854v29.743a1.449,1.449,0,0,1-1.447,1.447H130.436a1.449,1.449,0,0,1-1.447-1.447v-7.662a.854.854,0,0,0-1.709,0v7.662a3.16,3.16,0,0,0,3.156,3.156h23.016a3.16,3.16,0,0,0,3.156-3.156V216.568A.854.854,0,0,0,155.753,215.714Z" transform="translate(-127.28 -191.14)"/>
        <path id="Trazado_101378" data-name="Trazado 101378" d="M216.309,194.922l-2.016-.293-.9-1.827a1.563,1.563,0,0,0-2.8,0l-.9,1.827-2.016.293a1.563,1.563,0,0,0-.866,2.666l1.459,1.422-.344,2.007a1.563,1.563,0,0,0,2.268,1.648l1.8-.948,1.8.948a1.563,1.563,0,0,0,2.268-1.648l-.344-2.008,1.459-1.422a1.563,1.563,0,0,0-.866-2.666Zm-1.84,2.918a1.563,1.563,0,0,0-.449,1.384l.307,1.792-1.609-.846a1.562,1.562,0,0,0-1.455,0l-1.609.846.307-1.792a1.563,1.563,0,0,0-.45-1.383l-1.3-1.269,1.8-.261a1.563,1.563,0,0,0,1.177-.855l.8-1.631.8,1.631a1.563,1.563,0,0,0,1.177.855l1.8.261Z" transform="translate(-197.326 -170.066)"/>
      </g>
    </g>
    <g id="cuna" transform="translate(-7347 -6605.321)">
      <g id="Grupo_55612" data-name="Grupo 55612" transform="translate(0.69 2.01)">
        <path id="Trazado_101379" data-name="Trazado 101379" d="M240.579,23.86H237.1v-13.3a1.737,1.737,0,0,1,3.474,0v13.3Z" transform="translate(-215.996 -8.82)" fill="#c38c66"/>
        <path id="Trazado_101380" data-name="Trazado 101380" d="M123.5,313.342h3.218v14.507H123.5Z" transform="translate(-112.834 -285.345)" fill="#d19a6e"/>
        <path id="Trazado_101381" data-name="Trazado 101381" d="M353.5,319.98h3.218v14.507H353.5Z" transform="translate(-321.688 -291.372)" fill="#d19a6e"/>
        <path id="Trazado_101382" data-name="Trazado 101382" d="M51.949,432.651a68.852,68.852,0,0,1-43.19,0A1.721,1.721,0,0,1,7.6,430.467l.006-.016a1.756,1.756,0,0,1,2.214-1.021,65.458,65.458,0,0,0,41.062,0,1.756,1.756,0,0,1,2.214,1.021l.006.016A1.721,1.721,0,0,1,51.949,432.651Z" transform="translate(-7.508 -390.675)" fill="#c38c66"/>
        <path id="Trazado_101383" data-name="Trazado 101383" d="M91.949,172.411v12.523a4.6,4.6,0,0,1-4.6,4.6H59.585a4.6,4.6,0,0,1-4.6-4.6V172.411Z" transform="translate(-50.623 -157.371)" fill="#fe99a0"/>
        <path id="Trazado_101384" data-name="Trazado 101384" d="M61.883,189.531h-2.3a4.6,4.6,0,0,1-4.6-4.6V172.411h2.3v12.523A4.6,4.6,0,0,0,61.883,189.531Z" transform="translate(-50.623 -157.371)" fill="#fd8087"/>
        <path id="Trazado_101385" data-name="Trazado 101385" d="M183.618,159.3h13.309v18.325H183.618Z" transform="translate(-167.427 -145.466)" fill="#8ac9fe"/>
        <path id="Trazado_101386" data-name="Trazado 101386" d="M183.618,159.3h2.3v18.325h-2.3Z" transform="translate(-167.427 -145.466)" fill="#60b7ff"/>
        <path id="Trazado_101387" data-name="Trazado 101387" d="M79.918,154.656H41.883a.736.736,0,0,1-.736-.736v-2.226a.736.736,0,0,1,.736-.736H79.918a.736.736,0,0,1,.736.736v2.226A.735.735,0,0,1,79.918,154.656Z" transform="translate(-38.054 -137.891)" fill="#d19a6e"/>
        <path id="Trazado_101388" data-name="Trazado 101388" d="M44.182,154.659h-2.3a.736.736,0,0,1-.736-.736V151.7a.735.735,0,0,1,.736-.736h2.3a.735.735,0,0,0-.736.736v2.227A.736.736,0,0,0,44.182,154.659Z" transform="translate(-38.055 -137.893)" fill="#c38c66"/>
        <path id="Trazado_101389" data-name="Trazado 101389" d="M220.277,237.378l.98,1.986a.184.184,0,0,0,.138.1l2.192.319a.184.184,0,0,1,.1.314l-1.586,1.546a.184.184,0,0,0-.053.163l.374,2.183a.184.184,0,0,1-.267.194l-1.961-1.031a.184.184,0,0,0-.171,0l-1.961,1.031a.184.184,0,0,1-.267-.194l.374-2.183a.184.184,0,0,0-.053-.163l-1.586-1.546a.184.184,0,0,1,.1-.314l2.192-.319a.184.184,0,0,0,.138-.1l.98-1.986A.184.184,0,0,1,220.277,237.378Z" transform="translate(-197.266 -216.272)" fill="#fff0ad"/>
      </g>
      <g id="Grupo_55613" data-name="Grupo 55613" transform="translate(0 1.321)">
        <path id="Trazado_101390" data-name="Trazado 101390" d="M46.936,41.571l0-.011,0-.01a2.432,2.432,0,0,0-3.078-1.439,63.884,63.884,0,0,1-7.443,1.968V34.86h1.012a5.292,5.292,0,0,0,5.286-5.286V19.457a1.427,1.427,0,0,0,1.273-1.417V15.814a1.427,1.427,0,0,0-1.425-1.425H37.048a.69.69,0,1,0,0,1.379h5.505a.046.046,0,0,1,.046.046v2.227a.046.046,0,0,1-.046.046H4.518a.047.047,0,0,1-.046-.046V15.814a.046.046,0,0,1,.046-.046H33.83a.69.69,0,1,0,0-1.379H25.962V3.747a2.425,2.425,0,0,0-2.453-2.426,2.457,2.457,0,0,0-2.4,2.471v10.6H4.518a1.427,1.427,0,0,0-1.425,1.425v2.227a1.427,1.427,0,0,0,1.272,1.417v2.114a.69.69,0,1,0,1.379,0V19.466H16.192V33.481H9.652a3.912,3.912,0,0,1-3.907-3.907V24.789a.69.69,0,1,0-1.379,0v4.784A5.292,5.292,0,0,0,9.652,34.86h1.012v7.218A63.868,63.868,0,0,1,3.221,40.11a2.432,2.432,0,0,0-3.078,1.44l-.006.016a2.277,2.277,0,0,0,.1,1.787,2.538,2.538,0,0,0,1.489,1.289A69.42,69.42,0,0,0,23.536,48.15a69.421,69.421,0,0,0,21.812-3.509,2.538,2.538,0,0,0,1.489-1.289,2.273,2.273,0,0,0,.1-1.782ZM22.489,3.792A1.074,1.074,0,0,1,23.524,2.7a1.027,1.027,0,0,1,.752.306,1.04,1.04,0,0,1,.306.741V14.389H22.489ZM35.028,42.34q-.917.164-1.839.3V34.86h1.839ZM31.81,34.86v7.971a65.6,65.6,0,0,1-16.549,0V34.86Zm5.609-1.379H30.88V19.466H41.327V29.573A3.912,3.912,0,0,1,37.419,33.481ZM17.571,19.466H29.5V33.481H17.571ZM12.043,34.86h1.839v7.781q-.921-.137-1.839-.3Zm33.551,7.892a1.153,1.153,0,0,1-.68.58h0a68.616,68.616,0,0,1-42.758,0,1.152,1.152,0,0,1-.68-.58.909.909,0,0,1-.044-.713l.006-.016a1.046,1.046,0,0,1,.994-.661,1.136,1.136,0,0,1,.356.057,66.034,66.034,0,0,0,20.747,3.338,66.032,66.032,0,0,0,20.747-3.338,1.072,1.072,0,0,1,1.349.6l0,.011,0,.01A.908.908,0,0,1,45.595,42.752Z" transform="translate(0 -1.321)"/>
        <path id="Trazado_101391" data-name="Trazado 101391" d="M217.577,232.886a.868.868,0,0,0-.7-.594l-1.929-.28-.863-1.748h0a.873.873,0,0,0-1.566,0l-.863,1.748-1.929.28a.873.873,0,0,0-.484,1.49l1.4,1.361-.33,1.921a.872.872,0,0,0,1.267.921l1.725-.907,1.725.907a.873.873,0,0,0,1.267-.921l-.33-1.921,1.4-1.361A.868.868,0,0,0,217.577,232.886Zm-2.77,1.454a.873.873,0,0,0-.251.773l.2,1.173-1.054-.554a.873.873,0,0,0-.813,0l-1.054.554.2-1.173a.873.873,0,0,0-.251-.773l-.852-.831,1.178-.171a.873.873,0,0,0,.658-.478l.527-1.068.527,1.068a.874.874,0,0,0,.657.477l1.178.171Z" transform="translate(-189.761 -208.773)"/>
      </g>
    </g>
    <g id="llave-del-hotel" transform="translate(-7371 -6809.182)">
      <path id="Trazado_101392" data-name="Trazado 101392" d="M171.572,48.109,161.7,38.235a14.92,14.92,0,0,0-20-1L136,47.688v7.6l14.672,14.672A14.778,14.778,0,0,0,175.9,59.509v-.95A14.779,14.779,0,0,0,171.572,48.109ZM144.55,45.788a2.85,2.85,0,1,1,2.85-2.85A2.85,2.85,0,0,1,144.55,45.788Z" transform="translate(-119.85 -7.162)" fill="#0378a3"/>
      <path id="Trazado_101393" data-name="Trazado 101393" d="M56,198.265v24.7l1.9,1.9,1.622,1.622,1.228,1.228,4.75-4.75v-.95l-2.85-2.85,2.85-2.85v-2.85l-2.85-2.85v-2.85l2.85-2.85v-6.65Z" transform="translate(-49.35 -152.039)" fill="#f4e09c"/>
      <path id="Trazado_101394" data-name="Trazado 101394" d="M27,38.265H9.9a1.9,1.9,0,0,0-1.9,1.9v15.2a1.9,1.9,0,0,0,1.9,1.9H27a1.9,1.9,0,0,0,1.9-1.9v-15.2A1.9,1.9,0,0,0,27,38.265Zm-4.75,9.5h-7.6a2.85,2.85,0,1,1,0-5.7h7.6a2.85,2.85,0,1,1,0,5.7Z" transform="translate(-7.05 -11.039)" fill="#29485a"/>
      <path id="Trazado_101395" data-name="Trazado 101395" d="M42.519,30.4a15.807,15.807,0,0,0-19.855-2.09,2.85,2.85,0,0,0-2.714-2.036H2.85A2.85,2.85,0,0,0,0,29.126v15.2a2.85,2.85,0,0,0,2.85,2.85H5.7v23.75a.95.95,0,0,0,.278.672l2.85,2.85,1.9,1.9a.95.95,0,0,0,1.343,0l4.75-4.75a.95.95,0,0,0,.278-.672v-.95a.95.95,0,0,0-.278-.672l-2.178-2.178,2.178-2.178a.95.95,0,0,0,.278-.672v-2.85a.95.95,0,0,0-.278-.672L14.25,58.182V56.119l2.572-2.572a.95.95,0,0,0,.278-.672V50.419l13.049,13.05A15.729,15.729,0,0,0,57,52.347V51.4a15.624,15.624,0,0,0-4.607-11.122ZM15.2,52.482l-2.572,2.572a.95.95,0,0,0-.278.672v2.85a.95.95,0,0,0,.278.672L15.2,61.819v2.063l-2.572,2.572a.95.95,0,0,0,0,1.343L15.2,70.369v.163l-3.8,3.8-.95-.95V49.076a.95.95,0,1,0-1.9,0V71.482l-.95-.95V47.176h7.6Zm.95-7.207H2.85a.95.95,0,0,1-.95-.95v-15.2a.95.95,0,0,1,.95-.95h17.1a.95.95,0,0,1,.95.95v4.833l-1.935-.43A3.791,3.791,0,0,0,15.2,30.076H7.6a3.8,3.8,0,1,0,0,7.6h7.6a3.8,3.8,0,0,0,3.471-2.267L20.9,35.9v8.422a.95.95,0,0,1-.95.95ZM15.944,34.8l.8.177a1.9,1.9,0,0,1-1.54.8H7.6a1.9,1.9,0,1,1,0-3.8h7.6a1.9,1.9,0,0,1,1.716,1.1l-.56-.124A.95.95,0,1,0,15.91,34.8l.034.008ZM55.1,52.347a13.829,13.829,0,0,1-23.607,9.778L17.1,47.732v-.557h2.85a2.85,2.85,0,0,0,2.85-2.85h0V39.047a3.761,3.761,0,0,0,1.9.528,3.8,3.8,0,1,0,0-7.6,3.761,3.761,0,0,0-1.9.528V30.551a13.916,13.916,0,0,1,18.376,1.193l9.873,9.875A13.736,13.736,0,0,1,55.1,51.4Zm-30.194-17.5-1.6-.355a1.9,1.9,0,1,1-.412,1.852l1.6.354a.967.967,0,0,0,.209.026.95.95,0,0,0,.205-1.877Z" transform="translate(0 0)"/>
      <path id="Trazado_101396" data-name="Trazado 101396" d="M235.208,126.63a.95.95,0,0,0-1.343,1.343l4.553,4.553-8.157,8.157-4.553-4.553a.95.95,0,0,0-1.343,1.343l10.45,10.45a.95.95,0,0,0,1.343-1.343l-4.553-4.553,8.157-8.157,4.553,4.553a.95.95,0,0,0,1.343-1.343Z" transform="translate(-197.487 -88.676)"/>
    </g>
    <g id="cliente" transform="translate(-7654.711 -6806.081)">
      <path id="Trazado_101397" data-name="Trazado 101397" d="M99.216,237.608a3.739,3.739,0,0,0-3.739-3.739h-2.8L91.739,232H88l1.017,3.052a3.739,3.739,0,0,0,3.547,2.556h1.044l5.608,14.955h5.608Z" transform="translate(-56.523 -190.764)" fill="#f7cca9"/>
      <path id="Trazado_101398" data-name="Trazado 101398" d="M250.171,44.563V35.216a11.216,11.216,0,1,0-22.432,0v9.347A3.739,3.739,0,0,0,224,48.3v1.869a3.739,3.739,0,0,0,3.739,3.739h22.432a3.739,3.739,0,0,0,3.739-3.739V48.3A3.739,3.739,0,0,0,250.171,44.563Z" transform="translate(-176.633 -7.065)" fill="#ad6643"/>
      <path id="Trazado_101399" data-name="Trazado 101399" d="M228.04,264H208.924a3.739,3.739,0,0,0-3.388,2.158L200,277.085l4.673,3.739,4.673-5.608v14.955h22.432V267.739A3.739,3.739,0,0,0,228.04,264Z" transform="translate(-155.437 -219.025)" fill="#f7b030"/>
      <path id="Trazado_101400" data-name="Trazado 101400" d="M424,392h5.608v11.216H424Z" transform="translate(-353.266 -332.07)" fill="#f7cca9"/>
      <g id="Grupo_55614" data-name="Grupo 55614" transform="translate(51.105 28.151)">
        <path id="Trazado_101401" data-name="Trazado 101401" d="M259.739,127.477a3.739,3.739,0,1,1,0-7.477h.935v7.477Z" transform="translate(-256 -120)" fill="#edc4a2"/>
        <path id="Trazado_101402" data-name="Trazado 101402" d="M408.935,120a3.739,3.739,0,1,1,0,7.477H408V120Z" transform="translate(-390.241 -120)" fill="#edc4a2"/>
        <path id="Trazado_101403" data-name="Trazado 101403" d="M328,216h5.608v5.608a1.869,1.869,0,0,1-1.869,1.869h-1.869A1.869,1.869,0,0,1,328,221.608Z" transform="translate(-319.588 -204.784)" fill="#edc4a2"/>
      </g>
      <path id="Trazado_101404" data-name="Trazado 101404" d="M299.216,88,288,91.739v5.608a7.477,7.477,0,1,0,14.955,0V91.739Z" transform="translate(-233.156 -63.588)" fill="#f7cca9"/>
      <path id="Trazado_101405" data-name="Trazado 101405" d="M90.694,328H73.869L72,346.694H92.563Z" transform="translate(-42.392 -275.548)" fill="#c7312e"/>
      <path id="Trazado_101406" data-name="Trazado 101406" d="M50.694,328H33.869L32,346.694H52.563Z" transform="translate(-7.065 -275.548)" fill="#eb423f"/>
      <path id="Trazado_101407" data-name="Trazado 101407" d="M74.472,36.656V28.151a12.151,12.151,0,1,0-24.3,0v8.506a4.682,4.682,0,0,0-3.739,4.58v1.869a4.708,4.708,0,0,0,2.55,4.162l-2.153,4.25H45.444l-1.819-4.852a4.679,4.679,0,0,0-4.67-4.495H36.728l-.676-1.353a.935.935,0,0,0-.836-.517H31.477a.935.935,0,0,0-.887,1.23l.6,1.806c-.074.065-.146.132-.216.2a4.643,4.643,0,0,0-1.368,3.3v4.673H26.8a.935.935,0,0,0-.93.841L24,71.052a.935.935,0,0,0,.93,1.028H50.171a.935.935,0,0,0,.93-1.028l-.9-8.957,2.77-3.323V71.146a.935.935,0,0,0,.935.935H76.342a.935.935,0,0,0,.935-.935V48.714a4.643,4.643,0,0,0-.549-2.2,4.7,4.7,0,0,0,1.484-3.412V41.236a4.682,4.682,0,0,0-3.739-4.58Zm1.869,4.58v1.869a2.781,2.781,0,0,1-.809,1.971A4.651,4.651,0,0,0,72.6,44.04H66.06V41.291a8.455,8.455,0,0,0,4.2-4.752,4.648,4.648,0,0,0,2.344-.914V37.5a.935.935,0,0,0,.935.935,2.807,2.807,0,0,1,2.8,2.8ZM62.322,40.3a6.55,6.55,0,0,1-6.543-6.543V28.824l10.029-3.343,3.057,3.056v5.221A6.55,6.55,0,0,1,62.322,40.3Zm-1.869,1.657a8.35,8.35,0,0,0,3.739,0v3.016a.936.936,0,0,1-.935.935H61.387a.936.936,0,0,1-.935-.935Zm10.281-8.2V29.246a2.8,2.8,0,0,1-.038,5.3c.024-.259.038-.521.038-.787ZM62.322,17.869A10.293,10.293,0,0,1,72.6,28.151v0a4.649,4.649,0,0,0-2.4-.919l-3.484-3.484a.935.935,0,0,0-.957-.226L54.681,27.22a4.648,4.648,0,0,0-2.64.933v0A10.293,10.293,0,0,1,62.322,17.869ZM53.947,34.546a2.8,2.8,0,0,1-.038-5.3v4.513C53.91,34.024,53.923,34.286,53.947,34.546ZM48.3,41.236a2.807,2.807,0,0,1,2.8-2.8.935.935,0,0,0,.935-.935V35.626a4.648,4.648,0,0,0,2.344.914,8.455,8.455,0,0,0,4.2,4.751V44.04h-5.1a4.691,4.691,0,0,0-3.533,1.619A2.823,2.823,0,0,1,48.3,43.106Zm-6.543,5.608a.935.935,0,0,0,.06.328l1.629,4.345H40.824V46.844a4.641,4.641,0,0,0-.776-2.582,2.808,2.808,0,0,1,1.711,2.582Zm-7.12-4.673.676,1.353a.935.935,0,0,0,.836.517,2.8,2.8,0,0,1,2.8,2.8v2.323l-.994-2.651a.935.935,0,0,0-.875-.606H36.041a2.8,2.8,0,0,1-2.66-1.917l-.608-1.821Zm-3.161,4.673a2.785,2.785,0,0,1,.449-1.524,4.666,4.666,0,0,0,4.115,2.458h.4l1.4,3.739H31.477Zm-5.51,23.367L27.65,53.387H42.782l1.682,16.824Zm20.376,0L44.661,53.387h2.795l1.682,16.824Zm8.5-17.759a.935.935,0,0,0-1.869,0v3.4l-3.03,3.636-.713-7.13a.932.932,0,0,0-.393-.671l2.094-4.133.013-.027a2.814,2.814,0,0,1,2.541-1.618h5.258a2.809,2.809,0,0,0,2.643,1.869h1.869A2.809,2.809,0,0,0,65.9,45.91h6.7a2.807,2.807,0,0,1,2.8,2.8V59H71.668V52.452a.935.935,0,0,0-1.869,0V70.211H54.844ZM71.668,70.211V60.864h3.739v9.347Z"/>
      <circle id="Elipse_1395" data-name="Elipse 1395" cx="1" cy="1" r="1" transform="translate(58 31.081)"/>
      <circle id="Elipse_1396" data-name="Elipse 1396" cx="1" cy="1" r="1" transform="translate(65 31.081)"/>
    </g>
    <g id="proteger" transform="translate(-7654.195 -6696.569)">
      <path id="Trazado_101408" data-name="Trazado 101408" d="M55.156,53.771l-2.133,1.121a1.172,1.172,0,0,1-1.091,0L49.8,53.771C38.084,47.614,30.871,36.252,30.871,23.958V16.449A1.166,1.166,0,0,1,31.9,15.285a8.508,8.508,0,0,0,7.76-6.972,1.179,1.179,0,0,1,1.163-1.026h23.3a1.179,1.179,0,0,1,1.163,1.026,8.508,8.508,0,0,0,7.76,6.972,1.166,1.166,0,0,1,1.034,1.164v7.509C74.084,36.252,66.871,47.614,55.156,53.771Z" transform="translate(-6.588 -6.588)" fill="#e1e6e9"/>
      <path id="Trazado_101409" data-name="Trazado 101409" d="M273.482,15.284a8.508,8.508,0,0,1-7.76-6.973,1.179,1.179,0,0,0-1.163-1.026h-1.586c.229,5.069,3.84,8.663,7.748,9.076a1.166,1.166,0,0,1,1.034,1.164v7.509c0,12.294-7.214,23.656-18.928,29.813l-.246.129a1.17,1.17,0,0,0,.874-.086l2.133-1.121c11.714-6.157,18.928-17.519,18.928-29.813V16.448A1.166,1.166,0,0,0,273.482,15.284Z" transform="translate(-207.019 -6.587)" fill="#cbcbcb"/>
      <path id="Trazado_101410" data-name="Trazado 101410" d="M84.045,81.27a33.564,33.564,0,0,1-12.778-11.6,29.078,29.078,0,0,1-4.6-15.587V49.816a1.5,1.5,0,0,1,.948-1.4,13.208,13.208,0,0,0,7.1-6.528,1.5,1.5,0,0,1,1.358-.851H93.6a1.5,1.5,0,0,1,1.358.851,13.208,13.208,0,0,0,7.1,6.528,1.5,1.5,0,0,1,.948,1.4v4.262a29.078,29.078,0,0,1-4.6,15.587,33.565,33.565,0,0,1-12.778,11.6l-.088.046a1.509,1.509,0,0,1-1.4,0Z" transform="translate(-38.945 -37.098)" fill="#4ad194"/>
      <path id="Trazado_101411" data-name="Trazado 101411" d="M273.224,48.414l-.074-.03-.123-.05-.208-.088-.12-.052-.22-.1-.1-.046q-.158-.075-.313-.153l-.023-.012q-.144-.073-.286-.149l-.1-.055-.205-.115-.112-.065-.191-.114-.11-.067-.2-.125-.1-.061q-.134-.088-.266-.179l-.02-.013q-.141-.1-.28-.2l-.086-.064-.189-.143-.1-.078-.172-.137-.1-.081-.174-.147-.089-.076q-.107-.093-.211-.188l-.043-.039q-.125-.115-.247-.233l-.07-.069q-.087-.085-.172-.171l-.086-.089-.151-.159-.087-.094q-.075-.082-.148-.165l-.079-.09c-.057-.066-.114-.133-.169-.2l-.049-.058q-.107-.13-.211-.264l-.052-.069q-.077-.1-.152-.2l-.071-.1q-.064-.089-.127-.179l-.072-.105q-.062-.09-.121-.182l-.067-.1c-.045-.069-.088-.139-.131-.209l-.048-.077q-.087-.144-.17-.29l-.034-.062q-.065-.116-.128-.233l-.054-.1c-.034-.066-.068-.131-.1-.2l-.056-.114-.043-.087a1.5,1.5,0,0,0-1.358-.851H256V81.489a1.508,1.508,0,0,0,.7-.173l.088-.046a33.564,33.564,0,0,0,12.778-11.6,29.078,29.078,0,0,0,4.6-15.587V49.815A1.5,1.5,0,0,0,273.224,48.414Z" transform="translate(-210.111 -37.097)" fill="#35b79e"/>
      <path id="Trazado_101412" data-name="Trazado 101412" d="M273.224,48.414l-.074-.03-.123-.05-.208-.088-.12-.052-.22-.1-.1-.046q-.158-.075-.313-.153l-.023-.012q-.144-.073-.286-.149l-.1-.055-.205-.115-.112-.065-.191-.114-.11-.067-.2-.125-.1-.061q-.134-.088-.266-.179l-.02-.013q-.141-.1-.28-.2l-.086-.064-.189-.143-.1-.078-.172-.137-.1-.081-.174-.147-.088-.076q-.107-.093-.211-.188l-.043-.039q-.125-.115-.247-.233l-.07-.069c-.058-.057-.115-.114-.172-.171l-.086-.089-.151-.159-.087-.094q-.075-.082-.148-.165l-.079-.09c-.057-.066-.114-.133-.169-.2l-.049-.058q-.107-.13-.211-.264l-.052-.069q-.077-.1-.152-.2l-.071-.1q-.064-.089-.127-.179l-.072-.105q-.062-.09-.121-.182l-.067-.1c-.045-.069-.088-.139-.131-.209l-.048-.077q-.087-.144-.17-.29l-.034-.062q-.065-.116-.128-.233l-.054-.1q-.051-.1-.1-.2l-.056-.114-.043-.087a1.5,1.5,0,0,0-1.358-.851h-2.425a13.465,13.465,0,0,1,1.066,1.608c.016.028.028.058.043.087l.056.114q.05.1.1.2l.054.1q.063.117.128.233l.034.062q.083.146.17.29l.048.077q.065.105.131.209l.066.1c.04.061.08.122.121.182l.072.105q.063.09.127.179l.071.1c.05.068.1.134.152.2l.052.069q.1.133.211.264l.049.058c.056.067.112.134.169.2l.079.09q.073.083.148.165l.087.094.151.159.086.089c.057.058.114.115.172.171l.07.069q.122.118.247.233l.043.039q.1.1.211.188l.089.076.174.147.1.081.172.137.1.078q.094.072.189.143l.086.064q.139.1.28.2l.02.013q.132.091.266.179l.1.061.2.125.11.067.191.114.112.065.205.115.1.055q.142.076.286.149l.023.012q.155.079.313.153l.1.046.22.1.12.052.208.088.123.05.074.03a1.5,1.5,0,0,1,.948,1.4v4.262a29.078,29.078,0,0,1-4.6,15.587A35.813,35.813,0,0,1,256,81.449v.04a1.509,1.509,0,0,0,.7-.173l.088-.046a33.564,33.564,0,0,0,12.778-11.6,29.078,29.078,0,0,0,4.6-15.587V49.815A1.5,1.5,0,0,0,273.224,48.414Z" transform="translate(-210.111 -37.097)" fill="#1e9690"/>
      <path id="Trazado_101413" data-name="Trazado 101413" d="M174.7,202.214H158.739a1.525,1.525,0,0,1-1.525-1.525V190.677a1.525,1.525,0,0,1,1.525-1.525H174.7a1.525,1.525,0,0,1,1.525,1.525V200.69A1.525,1.525,0,0,1,174.7,202.214Z" transform="translate(-120.805 -170.998)" fill="#636a75"/>
      <path id="Trazado_101414" data-name="Trazado 101414" d="M313.456,189.152H310.7a1.525,1.525,0,0,1,1.525,1.525V200.69a1.525,1.525,0,0,1-1.525,1.525h2.761a1.525,1.525,0,0,0,1.525-1.525V190.677A1.525,1.525,0,0,0,313.456,189.152Z" transform="translate(-259.556 -170.998)" fill="#515a66"/>
      <path id="Trazado_101415" data-name="Trazado 101415" d="M240.153,235.373v1.991a.7.7,0,1,0,1.4,0v-1.991a1.638,1.638,0,1,0-1.4,0Z" transform="translate(-194.935 -209.965)"/>
      <path id="Trazado_101416" data-name="Trazado 101416" d="M77.134,75.3h0l.088.046a2.208,2.208,0,0,0,2.055,0l.089-.047A34.264,34.264,0,0,0,92.408,63.453,29.776,29.776,0,0,0,97.12,47.491V43.228a2.192,2.192,0,0,0-1.39-2.051A12.436,12.436,0,0,1,89,35a2.21,2.21,0,0,0-1.989-1.25H69.487A2.21,2.21,0,0,0,67.5,35a12.435,12.435,0,0,1-6.729,6.178,2.192,2.192,0,0,0-1.39,2.051v4.262a29.775,29.775,0,0,0,4.712,15.962A34.263,34.263,0,0,0,77.134,75.3ZM60.778,47.491V43.228a.8.8,0,0,1,.506-.75A13.828,13.828,0,0,0,68.761,35.6a.8.8,0,0,1,.726-.452H87.012a.8.8,0,0,1,.726.452,13.83,13.83,0,0,0,7.477,6.878.8.8,0,0,1,.506.75v4.262A28.38,28.38,0,0,1,91.228,62.7a32.866,32.866,0,0,1-12.512,11.36l-.089.046a.81.81,0,0,1-.754,0l-.088-.046A32.865,32.865,0,0,1,65.272,62.7,28.38,28.38,0,0,1,60.778,47.491Z" transform="translate(-32.36 -30.51)"/>
      <path id="Trazado_101417" data-name="Trazado 101417" d="M74.085,245.544a.7.7,0,0,0-.836.528,34.149,34.149,0,0,1-17.8,22.419l-2.133,1.121a.473.473,0,0,1-.44,0l-2.133-1.121a34.139,34.139,0,0,1-17.806-22.458.7.7,0,0,0-1.365.307,35.533,35.533,0,0,0,18.52,23.389l2.133,1.121a1.871,1.871,0,0,0,1.741,0l2.133-1.121A35.544,35.544,0,0,0,74.613,246.38.7.7,0,0,0,74.085,245.544Z" transform="translate(-7.208 -221.927)"/>
      <path id="Trazado_101418" data-name="Trazado 101418" d="M66.536,8A7.778,7.778,0,0,1,59.4,1.628,1.889,1.889,0,0,0,57.54,0h-23.3a1.889,1.889,0,0,0-1.855,1.628A7.778,7.778,0,0,1,25.244,8a1.859,1.859,0,0,0-1.66,1.859v7.509a32.191,32.191,0,0,0,.168,3.279.7.7,0,0,0,.695.628.708.708,0,0,0,.072,0,.7.7,0,0,0,.624-.767,30.8,30.8,0,0,1-.161-3.136V9.861a.469.469,0,0,1,.408-.468,9.171,9.171,0,0,0,8.379-7.571.478.478,0,0,1,.47-.423h23.3a.478.478,0,0,1,.47.423,9.171,9.171,0,0,0,8.379,7.571.469.469,0,0,1,.408.468v7.509a30.809,30.809,0,0,1-.157,3.1.7.7,0,0,0,1.392.141,32.2,32.2,0,0,0,.164-3.245V9.861A1.859,1.859,0,0,0,66.536,8Z"/>
      <path id="Trazado_101419" data-name="Trazado 101419" d="M168.117,100.517a2.227,2.227,0,0,0,2.224-2.224V88.28a2.227,2.227,0,0,0-2.224-2.224h-1.15V82.718a6.833,6.833,0,0,0-13.666,0v3.338h-1.15a2.227,2.227,0,0,0-2.224,2.224V98.293a2.227,2.227,0,0,0,2.224,2.224ZM154.7,82.718a5.435,5.435,0,0,1,10.869,0v3.338H154.7Zm-3.374,15.575V88.28a.826.826,0,0,1,.825-.825h15.966a.826.826,0,0,1,.825.825V98.293a.826.826,0,0,1-.825.825H152.151A.826.826,0,0,1,151.326,98.293Z" transform="translate(-114.217 -68.602)"/>
    </g>
    <g id="verificar" transform="translate(-7362.423 -6696.031)">
      <path id="Trazado_101420" data-name="Trazado 101420" d="M142.49,35.25H107.5a5,5,0,0,0-5,5V76.49a5,5,0,0,0,5,5H142.49a5,5,0,0,0,5-5V40.249A5,5,0,0,0,142.49,35.25Zm0,0" transform="translate(-89.691 -30.626)" fill="#f8ec7d"/>
      <path id="Trazado_101421" data-name="Trazado 101421" d="M124.963,35.25H107.5a5,5,0,0,0-5,5V76.49a5,5,0,0,0,5,5h17.464Zm0,0" transform="translate(-89.691 -30.626)" fill="#e2d574"/>
      <path id="Trazado_101422" data-name="Trazado 101422" d="M135.8,40.374a2.5,2.5,0,1,0,1.767.732A2.5,2.5,0,0,0,135.8,40.374Zm0-5.124h6.686a5,5,0,0,1,5,5V50.5H102.5V40.249a5,5,0,0,1,5-5ZM114.56,40.374a2.5,2.5,0,1,0,1.767.732A2.5,2.5,0,0,0,114.56,40.374Zm0,0" transform="translate(-89.691 -30.626)" fill="#e48e66"/>
      <path id="Trazado_101423" data-name="Trazado 101423" d="M114.56,35.25H107.5a5,5,0,0,0-5,5V50.5h22.713V35.25Zm0,0" transform="translate(-89.691 -30.626)" fill="#d18162"/>
      <g id="Grupo_55615" data-name="Grupo 55615" transform="translate(0 0.25)">
        <path id="Trazado_101424" data-name="Trazado 101424" d="M3.84,221.373H25.994a1.125,1.125,0,1,0,0-2.249H3.84l3.954-3.954a1.125,1.125,0,1,0-1.59-1.59L.33,219.453a1.124,1.124,0,0,0,0,1.59L6.2,226.917a1.125,1.125,0,0,0,1.59-1.59Zm0,0" transform="translate(0 -186.632)" fill="#363636"/>
        <path id="Trazado_101425" data-name="Trazado 101425" d="M134.615,3.5h-5.561V1.375a1.125,1.125,0,0,0-2.249,0V3.5h-19V1.375a1.125,1.125,0,1,0-2.249,0V3.5H99.623A6.13,6.13,0,0,0,93.5,9.623V28.368a1.125,1.125,0,1,0,2.249,0V20.995h42.739V45.864a3.878,3.878,0,0,1-3.874,3.874H99.623a3.878,3.878,0,0,1-3.874-3.874v-6.5a1.125,1.125,0,1,0-2.249,0v6.5a6.13,6.13,0,0,0,6.123,6.123h34.991a6.13,6.13,0,0,0,6.123-6.123V9.623A6.13,6.13,0,0,0,134.615,3.5ZM95.749,18.745V9.623a3.878,3.878,0,0,1,3.874-3.874h5.936V8.8a3.62,3.62,0,1,0,2.249,0V5.749h19V8.8a3.619,3.619,0,1,0,2.249,0V5.749h5.561a3.878,3.878,0,0,1,3.874,3.874v9.123Zm9.964-7.471a1.375,1.375,0,1,1-.3,1.5A1.375,1.375,0,0,1,105.714,11.274Zm21.245,0a1.375,1.375,0,1,1-.3,1.5A1.375,1.375,0,0,1,126.958,11.274Zm0,0" transform="translate(-81.815 -0.25)" fill="#363636"/>
      </g>
    </g>
    <g id="signo-de-hotel" transform="translate(-7734.99 -6608.551)">
      <g id="Grupo_55617" data-name="Grupo 55617" transform="translate(109.06 0.825)">
        <g id="Grupo_55616" data-name="Grupo 55616" transform="translate(0)">
          <path id="Trazado_101426" data-name="Trazado 101426" d="M160.787,47.69A9.117,9.117,0,0,1,142.7,49.3c-.093-.523.958-1.062.958-1.611,0-5.035,2.981-9.116,8.016-9.116a9.116,9.116,0,0,1,9.116,9.116Z" transform="translate(-139.726 -35.156)" fill="#a2abb8"/>
          <path id="Trazado_101427" data-name="Trazado 101427" d="M156.871,53.766a7.032,7.032,0,0,1-.091,1.133,6.3,6.3,0,0,0-12.2-.872,2.814,2.814,0,0,1-2.681,1.939,2.747,2.747,0,0,1-.3-.016,9.18,9.18,0,0,1-.139-1.6c0-.209.007-.416.021-.62.137.021.5-1.373.646-1.373,1.219,0,1.53-1.1,1.905-2.259.821-2.527,3.816-4.039,6.611-4.039,1.736,0,4.316,1.558,5.456,2.7s.774,3.267.774,5Z" transform="translate(-138.628 -41.821)" fill="#909ba6"/>
          <path id="Trazado_101428" data-name="Trazado 101428" d="M137.425,19.922v41.51a1.13,1.13,0,0,1-1.13,1.13H116.865a1.13,1.13,0,0,1-1.13-1.13v-24.5a7.073,7.073,0,0,1,4.325-6.518l9.576-4.037a7.1,7.1,0,0,0,4.341-6.542,6.3,6.3,0,0,0-12.289-1.94,2.824,2.824,0,0,1-5.375-1.734,11.983,11.983,0,0,1,9.6-8.142,12.223,12.223,0,0,1,3.243.07c6,.725,8.266,5.791,8.266,11.834Z" transform="translate(-115.735 -7.889)" fill="#ffe187"/>
          <path id="Trazado_101429" data-name="Trazado 101429" d="M222.1,19.533v41.51a1.13,1.13,0,0,1-1.13,1.13h-3.52a1.13,1.13,0,0,0,1.13-1.13V19.533a12,12,0,0,0-10.176-11.9,12.122,12.122,0,0,1,3.229-.04A11.99,11.99,0,0,1,222.1,19.533Z" transform="translate(-198.213 -7.499)" fill="#ffd271"/>
          <path id="Trazado_101430" data-name="Trazado 101430" d="M219.351,99.416h-12.8a3.106,3.106,0,1,1,0-6.213h12.8a3.106,3.106,0,0,1,0,6.213Z" transform="translate(-193.798 -83.775)" fill="#f9f8f9"/>
          <path id="Trazado_101431" data-name="Trazado 101431" d="M344.434,96.3a3.106,3.106,0,0,1-3.105,3.107h-3.3a3.107,3.107,0,0,0,0-6.213h3.3A3.107,3.107,0,0,1,344.434,96.3Z" transform="translate(-313.574 -83.771)" fill="#e8e8e8"/>
        </g>
      </g>
      <g id="Grupo_55618" data-name="Grupo 55618" transform="translate(108.235 0)">
        <path id="Trazado_101432" data-name="Trazado 101432" d="M132.95,366.789a.825.825,0,0,0-.825.825v4.844a.3.3,0,0,1-.3.3H110.19a.3.3,0,0,1-.3-.3V358.232a.825.825,0,1,0-1.65,0v14.226a1.957,1.957,0,0,0,1.955,1.955h21.631a1.957,1.957,0,0,0,1.955-1.955v-4.844A.825.825,0,0,0,132.95,366.789Z" transform="translate(-108.235 -318.09)"/>
        <path id="Trazado_101433" data-name="Trazado 101433" d="M156.585,298.1a8.372,8.372,0,1,0-8.372-8.372A8.382,8.382,0,0,0,156.585,298.1Zm0-1.65a6.686,6.686,0,0,1-3.981-1.31L162,285.745a6.718,6.718,0,0,1-5.412,10.7Zm0-13.444a6.691,6.691,0,0,1,4.279,1.542L151.4,294a6.719,6.719,0,0,1,5.181-11Z" transform="translate(-143.815 -250.403)"/>
        <path id="Trazado_101434" data-name="Trazado 101434" d="M154.664,450.843a.825.825,0,1,0,0,1.65h13.857a.825.825,0,1,0,0-1.65Z" transform="translate(-148.822 -401.247)"/>
        <path id="Trazado_101435" data-name="Trazado 101435" d="M168.521,250.729a.825.825,0,1,0,0-1.65H154.665a.825.825,0,0,0,0,1.65Z" transform="translate(-148.823 -221.679)"/>
        <path id="Trazado_101436" data-name="Trazado 101436" d="M136.815,9.427h-3.5a12.743,12.743,0,0,0-18.08-8.047.825.825,0,1,0,.748,1.471,11.091,11.091,0,0,1,15.611,6.576h-4.3a7.122,7.122,0,0,0-13.065,1.149,2,2,0,0,1-3.521.541,1.951,1.951,0,0,1-.284-1.766,11.185,11.185,0,0,1,2.8-4.519.825.825,0,1,0-1.155-1.178,12.839,12.839,0,0,0-3.217,5.189,3.584,3.584,0,0,0,.52,3.245,3.633,3.633,0,0,0,1.692,1.285,9.954,9.954,0,0,0,4.368,8.218l-2.367,1a7.883,7.883,0,0,0-4.83,7.278v6.679a.825.825,0,0,0,1.65,0V29.867a6.236,6.236,0,0,1,3.821-5.758l3.937-1.66.014-.006,5.625-2.372a7.872,7.872,0,0,0,3.429-2.783h5.414V45.928a.825.825,0,1,0,1.65,0V17.29h3.038a3.931,3.931,0,1,0,0-7.863Zm-14.173,9.125-5.312,2.239a8.3,8.3,0,0,1-4.611-7.219,3.624,3.624,0,0,0,3.08-2.488,5.47,5.47,0,0,1,9.537-1.658h-3.52a3.931,3.931,0,0,0,0,7.863h2.741A6.247,6.247,0,0,1,122.642,18.552Zm14.173-7.475a2.281,2.281,0,0,1,0,4.562h-15a2.281,2.281,0,0,1,0-4.562Z" transform="translate(-108.237 0)"/>
      </g>
    </g>
    <g id="cama" transform="translate(-7135.793 -6665.579)">
      <path id="Trazado_101232" data-name="Trazado 101232" d="M8.108,112.869h3.455a.608.608,0,0,0,.608-.608V72.467a3.216,3.216,0,0,0-3.216-3.216H8.108a.608.608,0,0,0-.608.608v42.4A.608.608,0,0,0,8.108,112.869Z" transform="translate(-6.624 -6.624)" fill="#d8aa8b"/>
      <path id="Trazado_101233" data-name="Trazado 101233" d="M144.882,222.005v-7.1a3.1,3.1,0,0,1,3.1-3.1H143.35a3.1,3.1,0,0,0-3.1,3.1v7.1Z" transform="translate(-123.87 -132.532)" fill="#407093"/>
      <path id="Trazado_101234" data-name="Trazado 101234" d="M213.153,214.909a3.1,3.1,0,0,0-3.1-3.1H183.02a3.1,3.1,0,0,0-3.1,3.1v7.1h33.234Z" transform="translate(-158.908 -132.533)" fill="#365e7d"/>
      <path id="Trazado_101235" data-name="Trazado 101235" d="M49.957,101.372a3.312,3.312,0,0,0-2.342,4.056l1.684,6.286A3.312,3.312,0,0,0,55.7,110l-1.684-6.286A3.312,3.312,0,0,0,49.957,101.372Z" transform="translate(-41.954 -34.893)" fill="#d3effb"/>
      <path id="Trazado_101236" data-name="Trazado 101236" d="M71.39,110l-1.684-6.286a3.313,3.313,0,0,0-3.2-2.455,3.323,3.323,0,0,1,.277.7l1.684,6.286a3.314,3.314,0,0,1-3.2,4.169A3.312,3.312,0,0,0,71.39,110Z" transform="translate(-57.648 -34.894)" fill="#b1e4f9"/>
      <path id="Trazado_101237" data-name="Trazado 101237" d="M61.435,211.808H50.6a3.1,3.1,0,0,0-3.1,3.1v7.1H58.333v-7.1A3.1,3.1,0,0,1,61.435,211.808Z" transform="translate(-41.955 -132.533)" fill="#d3effb"/>
      <path id="Trazado_101238" data-name="Trazado 101238" d="M140.249,279.132h4.633v2.336h-4.633Z" transform="translate(-123.87 -191.995)" fill="#365e7d"/>
      <path id="Trazado_101239" data-name="Trazado 101239" d="M47.5,279.132H58.333v2.336H47.5Z" transform="translate(-41.955 -191.995)" fill="#b1e4f9"/>
      <path id="Trazado_101240" data-name="Trazado 101240" d="M210.052,211.808h-1.665a3.111,3.111,0,0,1,.1.766v1.1a5.993,5.993,0,0,1-5.993,5.993H179.919v2.336h33.234v-7.1A3.1,3.1,0,0,0,210.052,211.808Z" transform="translate(-158.908 -132.533)" fill="#2b4d66"/>
      <path id="Trazado_101241" data-name="Trazado 101241" d="M47.5,299.132H96.2v7.212H47.5Z" transform="translate(-41.955 -209.659)" fill="#ce9875"/>
      <path id="Trazado_101242" data-name="Trazado 101242" d="M465.106,277.809h3.455a.608.608,0,0,0,.608-.608V256.608a.608.608,0,0,0-.608-.608h-.847a3.216,3.216,0,0,0-3.216,3.216V277.2A.608.608,0,0,0,465.106,277.809Z" transform="translate(-410.252 -171.564)" fill="#d8aa8b"/>
      <path id="Trazado_101243" data-name="Trazado 101243" d="M58.309,83.56h-.847a4.069,4.069,0,0,0-2.341.737V82.376A3.982,3.982,0,0,0,51.144,78.4H43.781a.876.876,0,1,0,0,1.752h7.363a2.228,2.228,0,0,1,2.225,2.225V88.6H21.887V82.376a2.228,2.228,0,0,1,2.225-2.225H39.693a.876.876,0,1,0,0-1.752H13.947a4.181,4.181,0,0,0,.641-3.52.876.876,0,1,0-1.692.453,2.436,2.436,0,0,1-4.705,1.261L6.507,70.307a2.436,2.436,0,0,1,4.705-1.261l.618,2.305a.876.876,0,1,0,1.692-.453L12.9,68.593a4.193,4.193,0,0,0-6.481-2.324v-.426a4.1,4.1,0,0,0-4.092-4.092H1.484A1.486,1.486,0,0,0,0,63.235v42.4a1.486,1.486,0,0,0,1.484,1.484H4.939a1.486,1.486,0,0,0,1.484-1.484V97.561h.992a.876.876,0,1,0,0-1.752H6.423v-5.46H53.369v5.46H11.5a.876.876,0,1,0,0,1.752H53.37v8.076a1.486,1.486,0,0,0,1.484,1.484h3.455a1.486,1.486,0,0,0,1.484-1.484V85.044a1.486,1.486,0,0,0-1.484-1.484ZM19.48,80.151h1.338a3.955,3.955,0,0,0-.682,2.225V88.6H17.255V82.376A2.228,2.228,0,0,1,19.48,80.151ZM6.5,77.047a4.165,4.165,0,0,0,.816,1.583,3.966,3.966,0,0,0-.892.453V76.763ZM4.672,105.369H1.752V63.5h.579a2.343,2.343,0,0,1,2.341,2.341ZM6.423,82.376a2.228,2.228,0,0,1,2.225-2.225h7.537a3.954,3.954,0,0,0-.682,2.225V88.6H6.423Zm51.618,22.993h-2.92V87.652a2.343,2.343,0,0,1,2.341-2.341h.579Z" transform="translate(0 0)"/>
    </g>
    <g id="iniciar-sesion" transform="translate(-6921.786 -6787.125)">
      <path id="Trazado_101437" data-name="Trazado 101437" d="M71.878,53.4H56.842a3.447,3.447,0,0,1-3.447-3.448V10.866a3.447,3.447,0,0,1,3.447-3.448H90.361Zm0,0" transform="translate(-47.149 -6.612)" fill="#494a59"/>
      <path id="Trazado_101438" data-name="Trazado 101438" d="M193.559,19.928V53.4h3.26L215.3,7.418h-6.6l-11.737,6.664A6.734,6.734,0,0,0,193.559,19.928Zm0,0" transform="translate(-172.09 -6.612)" fill="#3f404d"/>
      <path id="Trazado_101439" data-name="Trazado 101439" d="M86.547,40.57h28.736V79.354H86.547Zm0,0" transform="translate(-76.701 -36.164)" fill="#ecebed"/>
      <path id="Trazado_101440" data-name="Trazado 101440" d="M198.265,79.354l12.407-30.867V40.57h-8.315l-5.395,3.063a6.735,6.735,0,0,0-3.4,5.846V79.354Zm0,0" transform="translate(-172.09 -36.164)" fill="#dfdfe0"/>
      <path id="Trazado_101441" data-name="Trazado 101441" d="M225.323,16.916l16.73-9.5V53.4L228.743,60.96a3.463,3.463,0,0,1-5.173-3.011V19.928A3.462,3.462,0,0,1,225.323,16.916Zm0,0" transform="translate(-198.842 -6.612)" fill="#64c6fb"/>
      <path id="Trazado_101442" data-name="Trazado 101442" d="M262.225,258.54a2.54,2.54,0,1,1-2.541-2.54A2.54,2.54,0,0,1,262.225,258.54Zm0,0" transform="translate(-228.77 -228.195)" fill="#ecebed"/>
      <path id="Trazado_101443" data-name="Trazado 101443" d="M9.623,182.212H20.062v-1.787a1.015,1.015,0,0,1,1.683-.764l6.583,5.755a1.015,1.015,0,0,1,0,1.528L21.745,192.7a1.015,1.015,0,0,1-1.683-.764v-1.786H9.623A1.619,1.619,0,0,1,8,188.529v-4.7A1.619,1.619,0,0,1,9.623,182.212Zm0,0" transform="translate(-6.689 -159.922)" fill="#b6d97a"/>
      <path id="Trazado_101444" data-name="Trazado 101444" d="M249.645,251.937A3.355,3.355,0,1,0,253,248.582,3.359,3.359,0,0,0,249.645,251.937Zm5.08,0A1.725,1.725,0,1,1,253,250.212,1.727,1.727,0,0,1,254.725,251.937Zm0,0" transform="translate(-222.084 -221.583)"/>
      <path id="Trazado_101445" data-name="Trazado 101445" d="M9.692,1.63h6.333a.815.815,0,1,0,0-1.63H9.692A4.267,4.267,0,0,0,5.43,4.262V21.484h-2.5A2.437,2.437,0,0,0,.5,23.918v4.7a2.437,2.437,0,0,0,2.434,2.434h2.5v12.3a4.267,4.267,0,0,0,4.262,4.262H23.913v3.73a4.318,4.318,0,0,0,6.39,3.72l13.311-7.557a.815.815,0,0,0,.412-.709V40.555a.815.815,0,1,0-1.63,0v5.771L29.5,53.648a2.674,2.674,0,0,1-3.956-2.3V13.324a2.688,2.688,0,0,1,1.341-2.3L42.4,2.215V37.3a.815.815,0,1,0,1.63,0V.815A.829.829,0,0,0,43.212,0H19.285a.815.815,0,1,0,0,1.63H40.126L36.654,3.6H9.846a.815.815,0,0,0-.815.815V21.484H7.06V4.262A2.636,2.636,0,0,1,9.692,1.63Zm0,44.356A2.636,2.636,0,0,1,7.06,43.353v-12.3H9.031V43.2a.815.815,0,0,0,.815.815H23.913v1.971ZM10.66,5.23H33.783L26.079,9.6a4.285,4.285,0,0,0-2.166,3.72v29.06H10.66V31.051h1.9v.972s0,0,0,0A1.849,1.849,0,0,0,15.593,33.4l6.583-5.755a1.849,1.849,0,0,0,.141-2.617c-.044-.048-6.822-5.973-6.874-6.009a1.813,1.813,0,0,0-1.233-.328H14.2a1.863,1.863,0,0,0-1.644,1.818s0,0,0,0v.972h-1.9Zm2.713,17.883a.815.815,0,0,0,.815-.815V20.512a.2.2,0,0,1,.331-.151L21.1,26.117a.2.2,0,0,1,0,.3l-6.586,5.758a.2.2,0,0,1-.328-.153V30.236a.824.824,0,0,0-.815-.815H2.934a.806.806,0,0,1-.8-.8v-4.7a.806.806,0,0,1,.8-.8Zm0,0"/>
    </g>
  </g>
</svg>
