<svg xmlns="http://www.w3.org/2000/svg" width="62.341" height="62.34" viewBox="0 0 62.341 62.34">
  <g id="subasta" transform="translate(0 -0.001)">
    <path id="Trazado_101107" data-name="Trazado 101107" d="M386.132,377.912a6,6,0,0,1,.2,6.1,6.1,6.1,0,0,1-9.684,1.427q-.177-.177-.336-.365l-5.176-5.946,7.817-7.817,5.94,5.182A6.45,6.45,0,0,1,386.132,377.912Z" transform="translate(-325.948 -326.097)" fill="#ff9800"/>
    <path id="Trazado_101108" data-name="Trazado 101108" d="M355.829,348.167l-7.817,7.817-3.206-3.684.022-.02,7.317-7.317,0,0Z" transform="translate(-302.824 -302.956)" fill="#fff"/>
    <path id="Trazado_101109" data-name="Trazado 101109" d="M196.267,21.4a3.652,3.652,0,0,1-5.165,5.166L180.77,16.236a3.652,3.652,0,1,1,5.166-5.165Z" transform="translate(-157.82 -8.782)" fill="#ff9800"/>
    <path id="Trazado_101110" data-name="Trazado 101110" d="M81.688,66.194l-4.282,4.282-.023.022-6.888,6.888-.022.023-4.282,4.282-.861-.861L55,70.5l-.861-.861,15.5-15.5.861.861L80.827,65.333Z" transform="translate(-47.545 -47.547)" fill="#feb756"/>
    <g id="Grupo_55501" data-name="Grupo 55501" transform="translate(1.218 21.882)">
      <path id="Trazado_101111" data-name="Trazado 101111" d="M192.808,187.646l.861-.861a2.435,2.435,0,0,0-3.421-3.466l-6.933,6.933a2.435,2.435,0,0,0,3.466,3.421l.861-.861,14.729,16.922.022-.02,7.317-7.317,0,0Z" transform="translate(-161.605 -182.271)" fill="#ff9800"/>
      <path id="Trazado_101112" data-name="Trazado 101112" d="M41.656,456.854v1.218H10v-1.218a4.87,4.87,0,0,1,4.87-4.87H36.786A4.87,4.87,0,0,1,41.656,456.854Z" transform="translate(-10 -418.832)" fill="#fff"/>
      <path id="Trazado_101113" data-name="Trazado 101113" d="M53.741,401.987a3.044,3.044,0,1,1,0,6.088h-20.7a3.044,3.044,0,1,1,0-6.088Z" transform="translate(-27.564 -374.922)" fill="#fff"/>
      <path id="Trazado_101114" data-name="Trazado 101114" d="M26.567,191.106a3.652,3.652,0,1,1-5.166,5.165L11.07,185.94a3.652,3.652,0,0,1,5.165-5.166Z" transform="translate(-10 -179.705)" fill="#ff9800"/>
    </g>
    <path id="Trazado_101115" data-name="Trazado 101115" d="M101.061,171.776a1.217,1.217,0,1,0,1.722,0A1.216,1.216,0,0,0,101.061,171.776Z" transform="translate(-88.442 -150.547)"/>
    <path id="Trazado_101116" data-name="Trazado 101116" d="M30.829,398.773a4.263,4.263,0,0,0-3.434-6.786H6.7a4.259,4.259,0,0,0-3.432,6.784A6.093,6.093,0,0,0,0,404.162v1.218A1.218,1.218,0,0,0,1.218,406.6H32.874a1.218,1.218,0,0,0,1.218-1.218v-1.218A6.093,6.093,0,0,0,30.829,398.773ZM5.4,394.957a1.814,1.814,0,0,1,1.292-.535h20.7a1.826,1.826,0,1,1,0,3.653H6.7A1.827,1.827,0,0,1,5.4,394.957Zm-2.97,9.206a3.657,3.657,0,0,1,3.653-3.653H28a3.657,3.657,0,0,1,3.653,3.653Z" transform="translate(0 -344.258)"/>
    <path id="Trazado_101117" data-name="Trazado 101117" d="M61.226,51.155a7.667,7.667,0,0,0-1.467-1.684L54.07,44.509a1.209,1.209,0,0,0-.484-.422l-3.441-3L34.22,27.194a3.646,3.646,0,0,0-1.069-5.815l1.473-1.473a4.873,4.873,0,0,0,4.7-1.259,4.869,4.869,0,0,0,0-6.888L28.995,1.428a4.868,4.868,0,0,0-8.146,4.7l-14.7,14.7a4.9,4.9,0,0,0-1.261-.165,4.87,4.87,0,0,0-3.443,8.314L11.776,39.309a4.869,4.869,0,0,0,8.147-4.7l1.47-1.47A3.654,3.654,0,0,0,27.21,34.2L44.172,53.692a1.223,1.223,0,0,0,.165.206c.022.022.045.042.068.061l5.054,5.807c.126.148.26.294.4.434a7.242,7.242,0,0,0,5.147,2.141,7.474,7.474,0,0,0,1.025-.071,7.368,7.368,0,0,0,5.436-3.763A7.2,7.2,0,0,0,61.226,51.155ZM43.667,49.4,49.4,43.668l1.839,1.6L45.27,51.244ZM28.937,32.48,32.5,28.921,47.563,42.063l-5.5,5.5ZM23.829,3.15a2.434,2.434,0,0,1,3.444,0L37.6,13.481a2.435,2.435,0,0,1-3.443,3.444L23.83,6.593h0A2.437,2.437,0,0,1,23.829,3.15ZM16.942,37.587a2.438,2.438,0,0,1-3.444,0L3.167,27.256a2.435,2.435,0,0,1,3.442-3.445L16.942,34.144A2.437,2.437,0,0,1,16.942,37.587Zm-8.61-15.5L22.107,8.315,32.439,18.647l-3.411,3.411-.034.032-6.884,6.884-.042.043-3.4,3.4ZM24.69,32.778a1.217,1.217,0,0,1-.876-2.063L30.73,23.8a1.218,1.218,0,0,1,2.066.875,1.206,1.206,0,0,1-.357.861l-.852.852-.017.017-5.153,5.153-.007.007-.857.857A1.21,1.21,0,0,1,24.69,32.778ZM59.342,57.317A4.953,4.953,0,0,1,55.7,59.858a4.838,4.838,0,0,1-4.116-1.38c-.094-.094-.183-.191-.267-.29l-.012-.014-4.43-5.09,6.209-6.209,5.083,4.434.012.01a5.242,5.242,0,0,1,1,1.156A4.807,4.807,0,0,1,59.342,57.317Z" transform="translate(-0.018)"/>
    <path id="Trazado_101118" data-name="Trazado 101118" d="M136.23,101.064a1.218,1.218,0,0,0-1.722,0l-5.166,5.166a1.218,1.218,0,0,0,1.722,1.722l5.166-5.166A1.217,1.217,0,0,0,136.23,101.064Z" transform="translate(-113.28 -88.444)"/>
  </g>
</svg>
