<svg xmlns="http://www.w3.org/2000/svg" xmlns:xlink="http://www.w3.org/1999/xlink" width="480.504" height="402.245" viewBox="0 0 480.504 402.245">
  <defs>
    <linearGradient id="linear-gradient" x1="-0.078" y1="0.981" x2="1.185" y2="0.046" gradientUnits="objectBoundingBox">
      <stop offset="0" stop-color="#efa2ff"/>
      <stop offset="1" stop-color="#6921d4"/>
    </linearGradient>
    <linearGradient id="linear-gradient-2" x1="0.375" y1="1.443" x2="0.837" y2="-0.193" gradientUnits="objectBoundingBox">
      <stop offset="0" stop-color="#511aa5"/>
      <stop offset="1" stop-color="#ca7cf2"/>
    </linearGradient>
    <linearGradient id="linear-gradient-3" x1="0.345" y1="-1.45" x2="0.655" y2="2.45" gradientUnits="objectBoundingBox">
      <stop offset="0" stop-color="#ab51db"/>
      <stop offset="1" stop-color="#31027a"/>
    </linearGradient>
    <linearGradient id="linear-gradient-4" x1="0.354" y1="3.061" x2="0.646" y2="-2.061" xlink:href="#linear-gradient-2"/>
    <linearGradient id="linear-gradient-5" x1="-0.12" y1="0.97" x2="1.12" y2="0.03" gradientUnits="objectBoundingBox">
      <stop offset="0" stop-color="#e362e8"/>
      <stop offset="1" stop-color="#fff"/>
    </linearGradient>
    <linearGradient id="linear-gradient-6" x1="0.343" y1="-1.358" x2="0.657" y2="2.358" gradientUnits="objectBoundingBox">
      <stop offset="0" stop-color="#511aa5"/>
      <stop offset="1" stop-color="#9954d3"/>
    </linearGradient>
    <linearGradient id="linear-gradient-13" x1="-0.132" y1="0.968" x2="1.025" y2="0.112" xlink:href="#linear-gradient"/>
    <linearGradient id="linear-gradient-14" x1="0.269" y1="1.318" x2="0.657" y2="-0.058" xlink:href="#linear-gradient-2"/>
    <linearGradient id="linear-gradient-15" x1="0.375" y1="1.834" x2="0.698" y2="-0.323" xlink:href="#linear-gradient-2"/>
    <linearGradient id="linear-gradient-18" x1="0.059" y1="1.023" x2="0.941" y2="-0.023" xlink:href="#linear-gradient"/>
    <linearGradient id="linear-gradient-19" x1="0.357" y1="-2.553" x2="0.643" y2="3.553" xlink:href="#linear-gradient-3"/>
    <linearGradient id="linear-gradient-21" x1="0.363" y1="4.663" x2="0.637" y2="-3.663" xlink:href="#linear-gradient-2"/>
    <linearGradient id="linear-gradient-24" x1="-0.292" y1="0.945" x2="1.292" y2="0.055" xlink:href="#linear-gradient-5"/>
    <linearGradient id="linear-gradient-27" x1="0.343" y1="2.358" x2="0.657" y2="-1.358" xlink:href="#linear-gradient-2"/>
    <linearGradient id="linear-gradient-39" x1="0.5" y1="1" x2="0.5" y2="0" xlink:href="#linear-gradient-2"/>
    <linearGradient id="linear-gradient-43" x1="0.362" y1="4.592" x2="0.638" y2="-3.592" xlink:href="#linear-gradient-2"/>
    <linearGradient id="linear-gradient-52" y1="0.5" x2="1" y2="0.5" gradientUnits="objectBoundingBox">
      <stop offset="0" stop-color="#31027a"/>
      <stop offset="1" stop-color="#ab51db"/>
    </linearGradient>
    <linearGradient id="linear-gradient-53" x1="0.011" y1="0.916" x2="1.083" y2="0.133" gradientUnits="objectBoundingBox">
      <stop offset="0" stop-color="#60a90d"/>
      <stop offset="1" stop-color="#ffe548"/>
    </linearGradient>
    <linearGradient id="linear-gradient-55" x1="0.011" y1="0.916" x2="1.083" y2="0.133" xlink:href="#linear-gradient-53"/>
  </defs>
  <g id="Grupo_25917" data-name="Grupo 25917" transform="translate(-1379.638 832.6)">
    <g id="Grupo_25911" data-name="Grupo 25911" transform="translate(1412.937 -778.281)">
      <path id="Trazado_19384" data-name="Trazado 19384" d="M455.753,253.878,353.092,279.271V494.159H455.753Z" transform="translate(-345.573 -146.233)" fill="url(#linear-gradient)"/>
      <rect id="Rectángulo_2795" data-name="Rectángulo 2795" width="102.661" height="8.972" transform="translate(7.519 338.954)" fill="#fff"/>
      <path id="Trazado_19385" data-name="Trazado 19385" d="M458.133,238.627h-77.4l-32.245,53.563H458.133V238.627" transform="translate(-347.954 -154.116)" fill="url(#linear-gradient-2)"/>
      <rect id="Rectángulo_2796" data-name="Rectángulo 2796" width="110.18" height="8.459" transform="translate(0 133.451)" fill="#fff"/>
      <rect id="Rectángulo_2797" data-name="Rectángulo 2797" width="11.686" height="206.016" transform="translate(98.494 141.911)" fill="#d2ceb8" opacity="0.52" style="mix-blend-mode: multiply;isolation: isolate"/>
      <rect id="Rectángulo_2798" data-name="Rectángulo 2798" width="11.686" height="53.563" transform="translate(98.494 84.511)" fill="#d2ceb8" opacity="0.52" style="mix-blend-mode: multiply;isolation: isolate"/>
      <rect id="Rectángulo_2799" data-name="Rectángulo 2799" width="11.686" height="8.459" transform="translate(98.494 133.451)" fill="#d2ceb8" opacity="0.52" style="mix-blend-mode: multiply;isolation: isolate"/>
      <g id="Grupo_25794" data-name="Grupo 25794" transform="translate(1.99 224.802)">
        <rect id="Rectángulo_2800" data-name="Rectángulo 2800" width="121.352" height="16.679" fill="url(#linear-gradient-3)"/>
        <rect id="Rectángulo_2801" data-name="Rectángulo 2801" width="121.352" height="12.02" fill="url(#linear-gradient-4)"/>
      </g>
      <g id="Grupo_25800" data-name="Grupo 25800" transform="translate(18.041 156.225)">
        <g id="Grupo_25799" data-name="Grupo 25799" transform="translate(0 1.389)">
          <g id="Grupo_25795" data-name="Grupo 25795" transform="translate(7.62)">
            <rect id="Rectángulo_2802" data-name="Rectángulo 2802" width="26.091" height="51.804" transform="translate(26.091 51.804) rotate(180)" fill="#fff"/>
            <rect id="Rectángulo_2803" data-name="Rectángulo 2803" width="20.169" height="46.074" transform="translate(23.13 48.939) rotate(180)" fill="url(#linear-gradient-5)"/>
            <rect id="Rectángulo_2804" data-name="Rectángulo 2804" width="20.169" height="23.911" transform="translate(23.13 26.776) rotate(180)" fill="#fff" opacity="0.49"/>
          </g>
          <g id="Grupo_25796" data-name="Grupo 25796" transform="translate(9.33 26.137)">
            <rect id="Rectángulo_2805" data-name="Rectángulo 2805" width="22.669" height="1.517" fill="#fff"/>
          </g>
          <g id="Grupo_25797" data-name="Grupo 25797" transform="translate(19.906 2.866)">
            <rect id="Rectángulo_2806" data-name="Rectángulo 2806" width="1.517" height="48.059" fill="#fff"/>
          </g>
          <g id="Grupo_25798" data-name="Grupo 25798" transform="translate(0 50.925)">
            <rect id="Rectángulo_2807" data-name="Rectángulo 2807" width="40.844" height="3.546" transform="translate(0 2.11)" fill="#fff" style="mix-blend-mode: multiply;isolation: isolate"/>
            <rect id="Rectángulo_2808" data-name="Rectángulo 2808" width="40.844" height="3.546" fill="#fff"/>
          </g>
        </g>
        <rect id="Rectángulo_2809" data-name="Rectángulo 2809" width="26.983" height="4.691" transform="translate(34.156 6.6) rotate(180)" fill="#fff" style="mix-blend-mode: multiply;isolation: isolate"/>
        <rect id="Rectángulo_2810" data-name="Rectángulo 2810" width="32.14" height="4.691" transform="translate(36.735 4.691) rotate(180)" fill="url(#linear-gradient-6)"/>
      </g>
      <g id="Grupo_25806" data-name="Grupo 25806" transform="translate(65.774 156.225)">
        <g id="Grupo_25805" data-name="Grupo 25805" transform="translate(0 1.389)">
          <g id="Grupo_25801" data-name="Grupo 25801" transform="translate(7.62)">
            <rect id="Rectángulo_2811" data-name="Rectángulo 2811" width="26.091" height="51.804" transform="translate(26.091 51.804) rotate(180)" fill="#fff"/>
            <rect id="Rectángulo_2812" data-name="Rectángulo 2812" width="20.169" height="46.074" transform="translate(23.13 48.939) rotate(180)" fill="url(#linear-gradient-5)"/>
            <rect id="Rectángulo_2813" data-name="Rectángulo 2813" width="20.169" height="23.911" transform="translate(23.13 26.776) rotate(180)" fill="#fff" opacity="0.49"/>
          </g>
          <g id="Grupo_25802" data-name="Grupo 25802" transform="translate(9.331 26.137)">
            <rect id="Rectángulo_2814" data-name="Rectángulo 2814" width="22.669" height="1.517" fill="#fff"/>
          </g>
          <g id="Grupo_25803" data-name="Grupo 25803" transform="translate(19.907 2.866)">
            <rect id="Rectángulo_2815" data-name="Rectángulo 2815" width="1.517" height="48.059" fill="#fff"/>
          </g>
          <g id="Grupo_25804" data-name="Grupo 25804" transform="translate(0 50.925)">
            <rect id="Rectángulo_2816" data-name="Rectángulo 2816" width="40.844" height="3.546" transform="translate(0 2.11)" fill="#fff" style="mix-blend-mode: multiply;isolation: isolate"/>
            <rect id="Rectángulo_2817" data-name="Rectángulo 2817" width="40.844" height="3.546" fill="#fff"/>
          </g>
        </g>
        <rect id="Rectángulo_2818" data-name="Rectángulo 2818" width="26.983" height="4.691" transform="translate(34.156 6.6) rotate(180)" fill="#fff" style="mix-blend-mode: multiply;isolation: isolate"/>
        <rect id="Rectángulo_2819" data-name="Rectángulo 2819" width="32.14" height="4.691" transform="translate(36.735 4.691) rotate(180)" fill="url(#linear-gradient-6)"/>
      </g>
      <g id="Grupo_25812" data-name="Grupo 25812" transform="translate(18.041 260.541)">
        <g id="Grupo_25811" data-name="Grupo 25811" transform="translate(0 1.39)">
          <g id="Grupo_25807" data-name="Grupo 25807" transform="translate(7.62)">
            <rect id="Rectángulo_2820" data-name="Rectángulo 2820" width="26.091" height="51.804" transform="translate(26.091 51.804) rotate(180)" fill="#fff"/>
            <rect id="Rectángulo_2821" data-name="Rectángulo 2821" width="20.169" height="46.074" transform="translate(23.13 48.939) rotate(180)" fill="url(#linear-gradient-5)"/>
            <rect id="Rectángulo_2822" data-name="Rectángulo 2822" width="20.169" height="23.911" transform="translate(23.13 26.776) rotate(180)" fill="#fff" opacity="0.49"/>
          </g>
          <g id="Grupo_25808" data-name="Grupo 25808" transform="translate(9.33 26.137)">
            <rect id="Rectángulo_2823" data-name="Rectángulo 2823" width="22.669" height="1.517" fill="#fff"/>
          </g>
          <g id="Grupo_25809" data-name="Grupo 25809" transform="translate(19.906 2.865)">
            <rect id="Rectángulo_2824" data-name="Rectángulo 2824" width="1.517" height="48.061" fill="#fff"/>
          </g>
          <g id="Grupo_25810" data-name="Grupo 25810" transform="translate(0 50.925)">
            <rect id="Rectángulo_2825" data-name="Rectángulo 2825" width="40.844" height="3.546" transform="translate(0 2.11)" fill="#fff" style="mix-blend-mode: multiply;isolation: isolate"/>
            <rect id="Rectángulo_2826" data-name="Rectángulo 2826" width="40.844" height="3.546" fill="#fff"/>
          </g>
        </g>
        <rect id="Rectángulo_2827" data-name="Rectángulo 2827" width="26.983" height="4.692" transform="translate(34.156 6.601) rotate(180)" fill="#fff" style="mix-blend-mode: multiply;isolation: isolate"/>
        <rect id="Rectángulo_2828" data-name="Rectángulo 2828" width="32.14" height="4.692" transform="translate(36.735 4.692) rotate(180)" fill="url(#linear-gradient-6)"/>
      </g>
      <g id="Grupo_25818" data-name="Grupo 25818" transform="translate(65.774 260.541)">
        <g id="Grupo_25817" data-name="Grupo 25817" transform="translate(0 1.39)">
          <g id="Grupo_25813" data-name="Grupo 25813" transform="translate(7.62)">
            <rect id="Rectángulo_2829" data-name="Rectángulo 2829" width="26.091" height="51.804" transform="translate(26.091 51.804) rotate(180)" fill="#fff"/>
            <rect id="Rectángulo_2830" data-name="Rectángulo 2830" width="20.169" height="46.074" transform="translate(23.13 48.939) rotate(180)" fill="url(#linear-gradient-5)"/>
            <rect id="Rectángulo_2831" data-name="Rectángulo 2831" width="20.169" height="23.911" transform="translate(23.13 26.776) rotate(180)" fill="#fff" opacity="0.49"/>
          </g>
          <g id="Grupo_25814" data-name="Grupo 25814" transform="translate(9.331 26.137)">
            <rect id="Rectángulo_2832" data-name="Rectángulo 2832" width="22.669" height="1.517" fill="#fff"/>
          </g>
          <g id="Grupo_25815" data-name="Grupo 25815" transform="translate(19.907 2.865)">
            <rect id="Rectángulo_2833" data-name="Rectángulo 2833" width="1.517" height="48.061" fill="#fff"/>
          </g>
          <g id="Grupo_25816" data-name="Grupo 25816" transform="translate(0 50.925)">
            <rect id="Rectángulo_2834" data-name="Rectángulo 2834" width="40.844" height="3.546" transform="translate(0 2.11)" fill="#fff" style="mix-blend-mode: multiply;isolation: isolate"/>
            <rect id="Rectángulo_2835" data-name="Rectángulo 2835" width="40.844" height="3.546" fill="#fff"/>
          </g>
        </g>
        <rect id="Rectángulo_2836" data-name="Rectángulo 2836" width="26.983" height="4.692" transform="translate(34.156 6.601) rotate(180)" fill="#fff" style="mix-blend-mode: multiply;isolation: isolate"/>
        <rect id="Rectángulo_2837" data-name="Rectángulo 2837" width="32.14" height="4.692" transform="translate(36.735 4.692) rotate(180)" fill="url(#linear-gradient-6)"/>
      </g>
      <path id="Trazado_19386" data-name="Trazado 19386" d="M548.911,253.878l102.661,25.393V494.159H548.911Z" transform="translate(-244.356 -146.233)" fill="url(#linear-gradient-13)"/>
      <rect id="Rectángulo_2838" data-name="Rectángulo 2838" width="102.661" height="8.972" transform="translate(304.555 338.954)" fill="#fff"/>
      <path id="Trazado_19387" data-name="Trazado 19387" d="M548.911,238.627h77.4l32.245,53.563H548.911V238.627" transform="translate(-244.356 -154.116)" fill="url(#linear-gradient-14)"/>
      <path id="Trazado_19388" data-name="Trazado 19388" d="M590.7,182.914H448.86l-32.245,53.563H622.947Z" transform="translate(-312.739 -182.914)" fill="url(#linear-gradient-15)"/>
      <path id="Trazado_19389" data-name="Trazado 19389" d="M422.4,211.885l-5.79,9.617H622.947l-5.79-9.617Z" transform="translate(-312.739 -167.939)" fill="#fff" opacity="0.09" style="mix-blend-mode: overlay;isolation: isolate"/>
      <rect id="Rectángulo_2839" data-name="Rectángulo 2839" width="110.18" height="8.459" transform="translate(304.555 133.451)" fill="#fff"/>
      <rect id="Rectángulo_2840" data-name="Rectángulo 2840" width="11.686" height="206.016" transform="translate(304.555 141.911)" fill="#d2ceb8" opacity="0.52" style="mix-blend-mode: multiply;isolation: isolate"/>
      <rect id="Rectángulo_2841" data-name="Rectángulo 2841" width="11.686" height="53.563" transform="translate(304.555 84.511)" fill="#d2ceb8" opacity="0.52" style="mix-blend-mode: multiply;isolation: isolate"/>
      <rect id="Rectángulo_2842" data-name="Rectángulo 2842" width="11.686" height="8.459" transform="translate(304.555 133.451)" fill="#d2ceb8" opacity="0.52" style="mix-blend-mode: multiply;isolation: isolate"/>
      <g id="Grupo_25819" data-name="Grupo 25819" transform="translate(291.393 224.802)">
        <rect id="Rectángulo_2843" data-name="Rectángulo 2843" width="121.352" height="16.679" transform="translate(121.352 16.679) rotate(180)" fill="url(#linear-gradient-3)"/>
        <rect id="Rectángulo_2844" data-name="Rectángulo 2844" width="121.352" height="12.02" transform="translate(121.352 12.02) rotate(180)" fill="url(#linear-gradient-4)"/>
      </g>
      <rect id="Rectángulo_2845" data-name="Rectángulo 2845" width="206.964" height="9.627" transform="translate(310.208 345.473) rotate(180)" fill="#fff"/>
      <rect id="Rectángulo_2846" data-name="Rectángulo 2846" width="195.026" height="285" transform="translate(304.555 338.563) rotate(180)" fill="url(#linear-gradient-18)"/>
      <rect id="Rectángulo_2847" data-name="Rectángulo 2847" width="206.332" height="16.679" transform="translate(310.208 70.242) rotate(180)" fill="url(#linear-gradient-19)"/>
      <rect id="Rectángulo_2848" data-name="Rectángulo 2848" width="206.332" height="12.712" transform="translate(310.208 65.666) rotate(180)" fill="#fff"/>
      <rect id="Rectángulo_2849" data-name="Rectángulo 2849" width="206.332" height="16.679" transform="translate(310.208 272.1) rotate(180)" fill="url(#linear-gradient-19)"/>
      <rect id="Rectángulo_2850" data-name="Rectángulo 2850" width="206.332" height="11.792" transform="translate(310.208 267.213) rotate(180)" fill="url(#linear-gradient-21)"/>
      <g id="Grupo_25833" data-name="Grupo 25833" transform="translate(142.138 282.704)">
        <g id="Grupo_25820" data-name="Grupo 25820" transform="translate(109.955 0.693)">
          <rect id="Rectángulo_2851" data-name="Rectángulo 2851" width="21.894" height="43.472" fill="#fff"/>
          <rect id="Rectángulo_2852" data-name="Rectángulo 2852" width="16.926" height="38.664" transform="translate(2.484 2.404)" fill="url(#linear-gradient-5)"/>
          <rect id="Rectángulo_2853" data-name="Rectángulo 2853" width="16.926" height="20.065" transform="translate(2.484 2.404)" fill="#fff" opacity="0.49"/>
        </g>
        <g id="Grupo_25821" data-name="Grupo 25821" transform="translate(0 0.693)">
          <rect id="Rectángulo_2854" data-name="Rectángulo 2854" width="21.894" height="43.472" fill="#fff"/>
          <rect id="Rectángulo_2855" data-name="Rectángulo 2855" width="16.926" height="38.664" transform="translate(2.485 2.404)" fill="url(#linear-gradient-5)"/>
          <rect id="Rectángulo_2856" data-name="Rectángulo 2856" width="16.926" height="20.065" transform="translate(2.485 2.404)" fill="#fff" opacity="0.49"/>
        </g>
        <g id="Grupo_25828" data-name="Grupo 25828" transform="translate(42.946)">
          <g id="Grupo_25822" data-name="Grupo 25822" transform="translate(21.895)">
            <rect id="Rectángulo_2857" data-name="Rectángulo 2857" width="21.895" height="56.934" fill="#fff"/>
            <rect id="Rectángulo_2858" data-name="Rectángulo 2858" width="16.925" height="52.125" transform="translate(2.485 2.404)" fill="url(#linear-gradient-24)"/>
            <rect id="Rectángulo_2859" data-name="Rectángulo 2859" width="16.925" height="22.146" transform="translate(2.485 2.404)" fill="#fff" opacity="0.49"/>
          </g>
          <g id="Grupo_25823" data-name="Grupo 25823">
            <rect id="Rectángulo_2860" data-name="Rectángulo 2860" width="21.894" height="56.934" fill="#fff"/>
            <rect id="Rectángulo_2861" data-name="Rectángulo 2861" width="16.926" height="52.125" transform="translate(2.485 2.404)" fill="url(#linear-gradient-24)"/>
            <rect id="Rectángulo_2862" data-name="Rectángulo 2862" width="16.926" height="22.146" transform="translate(2.485 2.404)" fill="#fff" opacity="0.49"/>
          </g>
          <rect id="Rectángulo_2863" data-name="Rectángulo 2863" width="1.734" height="5.831" transform="translate(17.703 34.859) rotate(180)" fill="#fff"/>
          <rect id="Rectángulo_2864" data-name="Rectángulo 2864" width="1.734" height="5.831" transform="translate(27.965 34.859) rotate(180)" fill="#fff"/>
          <g id="Grupo_25824" data-name="Grupo 25824" transform="translate(10.189 0.305)">
            <rect id="Rectángulo_2865" data-name="Rectángulo 2865" width="1.517" height="54.223" fill="#fff"/>
          </g>
          <g id="Grupo_25825" data-name="Grupo 25825" transform="translate(32.083 0.305)">
            <rect id="Rectángulo_2866" data-name="Rectángulo 2866" width="1.517" height="54.223" fill="#fff"/>
          </g>
          <g id="Grupo_25826" data-name="Grupo 25826" transform="translate(21.894 23.791)">
            <rect id="Rectángulo_2867" data-name="Rectángulo 2867" width="19.41" height="1.517" fill="#fff"/>
          </g>
          <g id="Grupo_25827" data-name="Grupo 25827" transform="translate(0.865 23.791)">
            <rect id="Rectángulo_2868" data-name="Rectángulo 2868" width="19.41" height="1.517" fill="#fff"/>
          </g>
        </g>
        <g id="Grupo_25829" data-name="Grupo 25829" transform="translate(120.145 3.098)">
          <rect id="Rectángulo_2869" data-name="Rectángulo 2869" width="1.517" height="41.067" fill="#fff"/>
        </g>
        <g id="Grupo_25830" data-name="Grupo 25830" transform="translate(112.44 22.404)">
          <rect id="Rectángulo_2870" data-name="Rectángulo 2870" width="16.926" height="1.517" fill="#fff"/>
        </g>
        <g id="Grupo_25831" data-name="Grupo 25831" transform="translate(10.189 3.098)">
          <rect id="Rectángulo_2871" data-name="Rectángulo 2871" width="1.517" height="41.067" fill="#fff"/>
        </g>
        <g id="Grupo_25832" data-name="Grupo 25832" transform="translate(2.485 22.404)">
          <rect id="Rectángulo_2872" data-name="Rectángulo 2872" width="16.926" height="1.517" fill="#fff"/>
        </g>
      </g>
      <g id="Grupo_25858" data-name="Grupo 25858" transform="translate(112.985 87.988)">
        <g id="Grupo_25839" data-name="Grupo 25839" transform="translate(143.199)">
          <g id="Grupo_25838" data-name="Grupo 25838" transform="translate(0 1.39)">
            <g id="Grupo_25834" data-name="Grupo 25834" transform="translate(7.134)">
              <rect id="Rectángulo_2873" data-name="Rectángulo 2873" width="26.091" height="51.804" fill="#fff"/>
              <rect id="Rectángulo_2874" data-name="Rectángulo 2874" width="20.169" height="46.074" transform="translate(2.961 2.865)" fill="url(#linear-gradient-5)"/>
              <rect id="Rectángulo_2875" data-name="Rectángulo 2875" width="20.169" height="23.911" transform="translate(2.961 2.865)" fill="#fff" opacity="0.49"/>
            </g>
            <g id="Grupo_25835" data-name="Grupo 25835" transform="translate(8.845 26.136)">
              <rect id="Rectángulo_2876" data-name="Rectángulo 2876" width="22.669" height="1.517" fill="#fff"/>
            </g>
            <g id="Grupo_25836" data-name="Grupo 25836" transform="translate(19.42 2.865)">
              <rect id="Rectángulo_2877" data-name="Rectángulo 2877" width="1.517" height="48.06" fill="#fff"/>
            </g>
            <g id="Grupo_25837" data-name="Grupo 25837" transform="translate(0 50.925)">
              <rect id="Rectángulo_2878" data-name="Rectángulo 2878" width="40.844" height="3.546" transform="translate(40.844 5.655) rotate(180)" fill="#fff" style="mix-blend-mode: multiply;isolation: isolate"/>
              <rect id="Rectángulo_2879" data-name="Rectángulo 2879" width="40.844" height="3.546" transform="translate(40.844 3.546) rotate(180)" fill="#fff"/>
            </g>
          </g>
          <rect id="Rectángulo_2880" data-name="Rectángulo 2880" width="26.983" height="4.692" transform="translate(6.688 1.909)" fill="#fff" style="mix-blend-mode: multiply;isolation: isolate"/>
          <rect id="Rectángulo_2881" data-name="Rectángulo 2881" width="32.14" height="4.692" transform="translate(4.109)" fill="url(#linear-gradient-27)"/>
        </g>
        <g id="Grupo_25845" data-name="Grupo 25845" transform="translate(95.466)">
          <g id="Grupo_25844" data-name="Grupo 25844" transform="translate(0 1.39)">
            <g id="Grupo_25840" data-name="Grupo 25840" transform="translate(7.134)">
              <rect id="Rectángulo_2882" data-name="Rectángulo 2882" width="26.091" height="51.804" fill="#fff"/>
              <rect id="Rectángulo_2883" data-name="Rectángulo 2883" width="20.169" height="46.074" transform="translate(2.961 2.865)" fill="url(#linear-gradient-5)"/>
              <rect id="Rectángulo_2884" data-name="Rectángulo 2884" width="20.169" height="23.911" transform="translate(2.961 2.865)" fill="#fff" opacity="0.49"/>
            </g>
            <g id="Grupo_25841" data-name="Grupo 25841" transform="translate(8.845 26.136)">
              <rect id="Rectángulo_2885" data-name="Rectángulo 2885" width="22.669" height="1.517" fill="#fff"/>
            </g>
            <g id="Grupo_25842" data-name="Grupo 25842" transform="translate(19.42 2.865)">
              <rect id="Rectángulo_2886" data-name="Rectángulo 2886" width="1.517" height="48.06" fill="#fff"/>
            </g>
            <g id="Grupo_25843" data-name="Grupo 25843" transform="translate(0 50.925)">
              <rect id="Rectángulo_2887" data-name="Rectángulo 2887" width="40.844" height="3.546" transform="translate(40.844 5.655) rotate(180)" fill="#fff" style="mix-blend-mode: multiply;isolation: isolate"/>
              <rect id="Rectángulo_2888" data-name="Rectángulo 2888" width="40.844" height="3.546" transform="translate(40.844 3.546) rotate(180)" fill="#fff"/>
            </g>
          </g>
          <rect id="Rectángulo_2889" data-name="Rectángulo 2889" width="26.983" height="4.692" transform="translate(6.688 1.909)" fill="#fff" style="mix-blend-mode: multiply;isolation: isolate"/>
          <rect id="Rectángulo_2890" data-name="Rectángulo 2890" width="32.14" height="4.692" transform="translate(4.109)" fill="url(#linear-gradient-27)"/>
        </g>
        <g id="Grupo_25851" data-name="Grupo 25851" transform="translate(47.733)">
          <g id="Grupo_25850" data-name="Grupo 25850" transform="translate(0 1.39)">
            <g id="Grupo_25846" data-name="Grupo 25846" transform="translate(7.134)">
              <rect id="Rectángulo_2891" data-name="Rectángulo 2891" width="26.091" height="51.804" fill="#fff"/>
              <rect id="Rectángulo_2892" data-name="Rectángulo 2892" width="20.169" height="46.074" transform="translate(2.961 2.865)" fill="url(#linear-gradient-5)"/>
              <rect id="Rectángulo_2893" data-name="Rectángulo 2893" width="20.169" height="23.911" transform="translate(2.961 2.865)" fill="#fff" opacity="0.49"/>
            </g>
            <g id="Grupo_25847" data-name="Grupo 25847" transform="translate(8.844 26.136)">
              <rect id="Rectángulo_2894" data-name="Rectángulo 2894" width="22.669" height="1.517" fill="#fff"/>
            </g>
            <g id="Grupo_25848" data-name="Grupo 25848" transform="translate(19.421 2.865)">
              <rect id="Rectángulo_2895" data-name="Rectángulo 2895" width="1.517" height="48.06" fill="#fff"/>
            </g>
            <g id="Grupo_25849" data-name="Grupo 25849" transform="translate(0 50.925)">
              <rect id="Rectángulo_2896" data-name="Rectángulo 2896" width="40.844" height="3.546" transform="translate(40.844 5.655) rotate(180)" fill="#fff" style="mix-blend-mode: multiply;isolation: isolate"/>
              <rect id="Rectángulo_2897" data-name="Rectángulo 2897" width="40.844" height="3.546" transform="translate(40.844 3.546) rotate(180)" fill="#fff"/>
            </g>
          </g>
          <rect id="Rectángulo_2898" data-name="Rectángulo 2898" width="26.983" height="4.692" transform="translate(6.688 1.909)" fill="#fff" style="mix-blend-mode: multiply;isolation: isolate"/>
          <rect id="Rectángulo_2899" data-name="Rectángulo 2899" width="32.14" height="4.692" transform="translate(4.109)" fill="url(#linear-gradient-27)"/>
        </g>
        <g id="Grupo_25857" data-name="Grupo 25857">
          <g id="Grupo_25856" data-name="Grupo 25856" transform="translate(0 1.39)">
            <g id="Grupo_25852" data-name="Grupo 25852" transform="translate(7.134)">
              <rect id="Rectángulo_2900" data-name="Rectángulo 2900" width="26.091" height="51.804" fill="#fff"/>
              <rect id="Rectángulo_2901" data-name="Rectángulo 2901" width="20.169" height="46.074" transform="translate(2.961 2.865)" fill="url(#linear-gradient-5)"/>
              <rect id="Rectángulo_2902" data-name="Rectángulo 2902" width="20.169" height="23.911" transform="translate(2.961 2.865)" fill="#fff" opacity="0.49"/>
            </g>
            <g id="Grupo_25853" data-name="Grupo 25853" transform="translate(8.844 26.136)">
              <rect id="Rectángulo_2903" data-name="Rectángulo 2903" width="22.67" height="1.517" fill="#fff"/>
            </g>
            <g id="Grupo_25854" data-name="Grupo 25854" transform="translate(19.421 2.865)">
              <rect id="Rectángulo_2904" data-name="Rectángulo 2904" width="1.517" height="48.06" fill="#fff"/>
            </g>
            <g id="Grupo_25855" data-name="Grupo 25855" transform="translate(0 50.925)">
              <rect id="Rectángulo_2905" data-name="Rectángulo 2905" width="40.844" height="3.546" transform="translate(40.844 5.655) rotate(180)" fill="#fff" style="mix-blend-mode: multiply;isolation: isolate"/>
              <rect id="Rectángulo_2906" data-name="Rectángulo 2906" width="40.844" height="3.546" transform="translate(40.844 3.546) rotate(180)" fill="#fff"/>
            </g>
          </g>
          <rect id="Rectángulo_2907" data-name="Rectángulo 2907" width="26.983" height="4.692" transform="translate(6.688 1.909)" fill="#fff" style="mix-blend-mode: multiply;isolation: isolate"/>
          <rect id="Rectángulo_2908" data-name="Rectángulo 2908" width="32.14" height="4.692" transform="translate(4.109)" fill="url(#linear-gradient-27)"/>
        </g>
      </g>
      <g id="Grupo_25883" data-name="Grupo 25883" transform="translate(112.985 186.645)">
        <g id="Grupo_25864" data-name="Grupo 25864" transform="translate(143.199)">
          <g id="Grupo_25863" data-name="Grupo 25863" transform="translate(0 1.39)">
            <g id="Grupo_25859" data-name="Grupo 25859" transform="translate(7.134)">
              <rect id="Rectángulo_2909" data-name="Rectángulo 2909" width="26.091" height="51.804" fill="#fff"/>
              <rect id="Rectángulo_2910" data-name="Rectángulo 2910" width="20.169" height="46.074" transform="translate(2.961 2.865)" fill="url(#linear-gradient-5)"/>
              <rect id="Rectángulo_2911" data-name="Rectángulo 2911" width="20.169" height="23.911" transform="translate(2.961 2.865)" fill="#fff" opacity="0.49"/>
            </g>
            <g id="Grupo_25860" data-name="Grupo 25860" transform="translate(8.845 26.137)">
              <rect id="Rectángulo_2912" data-name="Rectángulo 2912" width="22.669" height="1.517" fill="#fff"/>
            </g>
            <g id="Grupo_25861" data-name="Grupo 25861" transform="translate(19.42 2.865)">
              <rect id="Rectángulo_2913" data-name="Rectángulo 2913" width="1.517" height="48.061" fill="#fff"/>
            </g>
            <g id="Grupo_25862" data-name="Grupo 25862" transform="translate(0 50.925)">
              <rect id="Rectángulo_2914" data-name="Rectángulo 2914" width="40.844" height="3.546" transform="translate(40.844 5.655) rotate(180)" fill="#fff" style="mix-blend-mode: multiply;isolation: isolate"/>
              <rect id="Rectángulo_2915" data-name="Rectángulo 2915" width="40.844" height="3.546" transform="translate(40.844 3.546) rotate(180)" fill="#fff"/>
            </g>
          </g>
          <rect id="Rectángulo_2916" data-name="Rectángulo 2916" width="26.983" height="4.692" transform="translate(6.688 1.909)" fill="#fff" style="mix-blend-mode: multiply;isolation: isolate"/>
          <rect id="Rectángulo_2917" data-name="Rectángulo 2917" width="32.14" height="4.692" transform="translate(4.109)" fill="url(#linear-gradient-27)"/>
        </g>
        <g id="Grupo_25870" data-name="Grupo 25870" transform="translate(95.466)">
          <g id="Grupo_25869" data-name="Grupo 25869" transform="translate(0 1.39)">
            <g id="Grupo_25865" data-name="Grupo 25865" transform="translate(7.134)">
              <rect id="Rectángulo_2918" data-name="Rectángulo 2918" width="26.091" height="51.804" fill="#fff"/>
              <rect id="Rectángulo_2919" data-name="Rectángulo 2919" width="20.169" height="46.074" transform="translate(2.961 2.865)" fill="url(#linear-gradient-5)"/>
              <rect id="Rectángulo_2920" data-name="Rectángulo 2920" width="20.169" height="23.911" transform="translate(2.961 2.865)" fill="#fff" opacity="0.49"/>
            </g>
            <g id="Grupo_25866" data-name="Grupo 25866" transform="translate(8.845 26.137)">
              <rect id="Rectángulo_2921" data-name="Rectángulo 2921" width="22.669" height="1.517" fill="#fff"/>
            </g>
            <g id="Grupo_25867" data-name="Grupo 25867" transform="translate(19.42 2.865)">
              <rect id="Rectángulo_2922" data-name="Rectángulo 2922" width="1.517" height="48.061" fill="#fff"/>
            </g>
            <g id="Grupo_25868" data-name="Grupo 25868" transform="translate(0 50.925)">
              <rect id="Rectángulo_2923" data-name="Rectángulo 2923" width="40.844" height="3.546" transform="translate(40.844 5.655) rotate(180)" fill="#fff" style="mix-blend-mode: multiply;isolation: isolate"/>
              <rect id="Rectángulo_2924" data-name="Rectángulo 2924" width="40.844" height="3.546" transform="translate(40.844 3.546) rotate(180)" fill="#fff"/>
            </g>
          </g>
          <rect id="Rectángulo_2925" data-name="Rectángulo 2925" width="26.983" height="4.692" transform="translate(6.688 1.909)" fill="#fff" style="mix-blend-mode: multiply;isolation: isolate"/>
          <rect id="Rectángulo_2926" data-name="Rectángulo 2926" width="32.14" height="4.692" transform="translate(4.109)" fill="url(#linear-gradient-27)"/>
        </g>
        <g id="Grupo_25876" data-name="Grupo 25876" transform="translate(47.733)">
          <g id="Grupo_25875" data-name="Grupo 25875" transform="translate(0 1.39)">
            <g id="Grupo_25871" data-name="Grupo 25871" transform="translate(7.134)">
              <rect id="Rectángulo_2927" data-name="Rectángulo 2927" width="26.091" height="51.804" fill="#fff"/>
              <rect id="Rectángulo_2928" data-name="Rectángulo 2928" width="20.169" height="46.074" transform="translate(2.961 2.865)" fill="url(#linear-gradient-5)"/>
              <rect id="Rectángulo_2929" data-name="Rectángulo 2929" width="20.169" height="23.911" transform="translate(2.961 2.865)" fill="#fff" opacity="0.49"/>
            </g>
            <g id="Grupo_25872" data-name="Grupo 25872" transform="translate(8.844 26.137)">
              <rect id="Rectángulo_2930" data-name="Rectángulo 2930" width="22.669" height="1.517" fill="#fff"/>
            </g>
            <g id="Grupo_25873" data-name="Grupo 25873" transform="translate(19.421 2.865)">
              <rect id="Rectángulo_2931" data-name="Rectángulo 2931" width="1.517" height="48.061" fill="#fff"/>
            </g>
            <g id="Grupo_25874" data-name="Grupo 25874" transform="translate(0 50.925)">
              <rect id="Rectángulo_2932" data-name="Rectángulo 2932" width="40.844" height="3.546" transform="translate(40.844 5.655) rotate(180)" fill="#fff" style="mix-blend-mode: multiply;isolation: isolate"/>
              <rect id="Rectángulo_2933" data-name="Rectángulo 2933" width="40.844" height="3.546" transform="translate(40.844 3.546) rotate(180)" fill="#fff"/>
            </g>
          </g>
          <rect id="Rectángulo_2934" data-name="Rectángulo 2934" width="26.983" height="4.692" transform="translate(6.688 1.909)" fill="#fff" style="mix-blend-mode: multiply;isolation: isolate"/>
          <rect id="Rectángulo_2935" data-name="Rectángulo 2935" width="32.14" height="4.692" transform="translate(4.109)" fill="url(#linear-gradient-39)"/>
        </g>
        <g id="Grupo_25882" data-name="Grupo 25882">
          <g id="Grupo_25881" data-name="Grupo 25881" transform="translate(0 1.39)">
            <g id="Grupo_25877" data-name="Grupo 25877" transform="translate(7.134)">
              <rect id="Rectángulo_2936" data-name="Rectángulo 2936" width="26.091" height="51.804" fill="#fff"/>
              <rect id="Rectángulo_2937" data-name="Rectángulo 2937" width="20.169" height="46.074" transform="translate(2.961 2.865)" fill="url(#linear-gradient-5)"/>
              <rect id="Rectángulo_2938" data-name="Rectángulo 2938" width="20.169" height="23.911" transform="translate(2.961 2.865)" fill="#fff" opacity="0.49"/>
            </g>
            <g id="Grupo_25878" data-name="Grupo 25878" transform="translate(8.844 26.137)">
              <rect id="Rectángulo_2939" data-name="Rectángulo 2939" width="22.67" height="1.517" fill="#fff"/>
            </g>
            <g id="Grupo_25879" data-name="Grupo 25879" transform="translate(19.421 2.865)">
              <rect id="Rectángulo_2940" data-name="Rectángulo 2940" width="1.517" height="48.061" fill="#fff"/>
            </g>
            <g id="Grupo_25880" data-name="Grupo 25880" transform="translate(0 50.925)">
              <rect id="Rectángulo_2941" data-name="Rectángulo 2941" width="40.844" height="3.546" transform="translate(40.844 5.655) rotate(180)" fill="#fff" style="mix-blend-mode: multiply;isolation: isolate"/>
              <rect id="Rectángulo_2942" data-name="Rectángulo 2942" width="40.844" height="3.546" transform="translate(40.844 3.546) rotate(180)" fill="#fff"/>
            </g>
          </g>
          <rect id="Rectángulo_2943" data-name="Rectángulo 2943" width="26.983" height="4.692" transform="translate(6.688 1.909)" fill="#fff" style="mix-blend-mode: multiply;isolation: isolate"/>
          <rect id="Rectángulo_2944" data-name="Rectángulo 2944" width="32.14" height="4.692" transform="translate(4.109)" fill="url(#linear-gradient-27)"/>
        </g>
      </g>
      <rect id="Rectángulo_2945" data-name="Rectángulo 2945" width="206.332" height="16.679" transform="translate(310.208 171.508) rotate(180)" fill="url(#linear-gradient-19)"/>
      <rect id="Rectángulo_2946" data-name="Rectángulo 2946" width="206.332" height="12.02" transform="translate(310.208 166.848) rotate(180)" fill="url(#linear-gradient-43)"/>
      <g id="Grupo_25889" data-name="Grupo 25889" transform="translate(355.85 156.225)">
        <g id="Grupo_25888" data-name="Grupo 25888" transform="translate(0 1.389)">
          <g id="Grupo_25884" data-name="Grupo 25884" transform="translate(7.134)">
            <rect id="Rectángulo_2947" data-name="Rectángulo 2947" width="26.091" height="51.804" fill="#fff"/>
            <rect id="Rectángulo_2948" data-name="Rectángulo 2948" width="20.169" height="46.074" transform="translate(2.961 2.865)" fill="url(#linear-gradient-5)"/>
            <rect id="Rectángulo_2949" data-name="Rectángulo 2949" width="20.169" height="23.911" transform="translate(2.961 2.865)" fill="#fff" opacity="0.49"/>
          </g>
          <g id="Grupo_25885" data-name="Grupo 25885" transform="translate(8.844 26.137)">
            <rect id="Rectángulo_2950" data-name="Rectángulo 2950" width="22.67" height="1.517" fill="#fff"/>
          </g>
          <g id="Grupo_25886" data-name="Grupo 25886" transform="translate(19.421 2.866)">
            <rect id="Rectángulo_2951" data-name="Rectángulo 2951" width="1.517" height="48.059" fill="#fff"/>
          </g>
          <g id="Grupo_25887" data-name="Grupo 25887" transform="translate(0 50.925)">
            <rect id="Rectángulo_2952" data-name="Rectángulo 2952" width="40.844" height="3.546" transform="translate(40.844 5.655) rotate(180)" fill="#fff" style="mix-blend-mode: multiply;isolation: isolate"/>
            <rect id="Rectángulo_2953" data-name="Rectángulo 2953" width="40.844" height="3.546" transform="translate(40.844 3.546) rotate(180)" fill="#fff"/>
          </g>
        </g>
        <rect id="Rectángulo_2954" data-name="Rectángulo 2954" width="26.983" height="4.691" transform="translate(6.688 1.909)" fill="#fff" style="mix-blend-mode: multiply;isolation: isolate"/>
        <rect id="Rectángulo_2955" data-name="Rectángulo 2955" width="32.14" height="4.691" transform="translate(4.109)" fill="url(#linear-gradient-6)"/>
      </g>
      <g id="Grupo_25895" data-name="Grupo 25895" transform="translate(308.117 156.225)">
        <g id="Grupo_25894" data-name="Grupo 25894" transform="translate(0 1.389)">
          <g id="Grupo_25890" data-name="Grupo 25890" transform="translate(7.134)">
            <rect id="Rectángulo_2956" data-name="Rectángulo 2956" width="26.091" height="51.804" fill="#fff"/>
            <rect id="Rectángulo_2957" data-name="Rectángulo 2957" width="20.169" height="46.074" transform="translate(2.961 2.865)" fill="url(#linear-gradient-5)"/>
            <rect id="Rectángulo_2958" data-name="Rectángulo 2958" width="20.169" height="23.911" transform="translate(2.961 2.865)" fill="#fff" opacity="0.49"/>
          </g>
          <g id="Grupo_25891" data-name="Grupo 25891" transform="translate(8.845 26.137)">
            <rect id="Rectángulo_2959" data-name="Rectángulo 2959" width="22.669" height="1.517" fill="#fff"/>
          </g>
          <g id="Grupo_25892" data-name="Grupo 25892" transform="translate(19.42 2.866)">
            <rect id="Rectángulo_2960" data-name="Rectángulo 2960" width="1.517" height="48.059" fill="#fff"/>
          </g>
          <g id="Grupo_25893" data-name="Grupo 25893" transform="translate(0 50.925)">
            <rect id="Rectángulo_2961" data-name="Rectángulo 2961" width="40.844" height="3.546" transform="translate(40.844 5.655) rotate(180)" fill="#fff" style="mix-blend-mode: multiply;isolation: isolate"/>
            <rect id="Rectángulo_2962" data-name="Rectángulo 2962" width="40.844" height="3.546" transform="translate(40.844 3.546) rotate(180)" fill="#fff"/>
          </g>
        </g>
        <rect id="Rectángulo_2963" data-name="Rectángulo 2963" width="26.983" height="4.691" transform="translate(6.688 1.909)" fill="#fff" style="mix-blend-mode: multiply;isolation: isolate"/>
        <rect id="Rectángulo_2964" data-name="Rectángulo 2964" width="32.14" height="4.691" transform="translate(4.109)" fill="url(#linear-gradient-6)"/>
      </g>
      <g id="Grupo_25901" data-name="Grupo 25901" transform="translate(355.85 260.541)">
        <g id="Grupo_25900" data-name="Grupo 25900" transform="translate(0 1.39)">
          <g id="Grupo_25896" data-name="Grupo 25896" transform="translate(7.134)">
            <rect id="Rectángulo_2965" data-name="Rectángulo 2965" width="26.091" height="51.804" fill="#fff"/>
            <rect id="Rectángulo_2966" data-name="Rectángulo 2966" width="20.169" height="46.074" transform="translate(2.961 2.865)" fill="url(#linear-gradient-5)"/>
            <rect id="Rectángulo_2967" data-name="Rectángulo 2967" width="20.169" height="23.911" transform="translate(2.961 2.865)" fill="#fff" opacity="0.49"/>
          </g>
          <g id="Grupo_25897" data-name="Grupo 25897" transform="translate(8.844 26.137)">
            <rect id="Rectángulo_2968" data-name="Rectángulo 2968" width="22.67" height="1.517" fill="#fff"/>
          </g>
          <g id="Grupo_25898" data-name="Grupo 25898" transform="translate(19.421 2.865)">
            <rect id="Rectángulo_2969" data-name="Rectángulo 2969" width="1.517" height="48.061" fill="#fff"/>
          </g>
          <g id="Grupo_25899" data-name="Grupo 25899" transform="translate(0 50.925)">
            <rect id="Rectángulo_2970" data-name="Rectángulo 2970" width="40.844" height="3.546" transform="translate(40.844 5.655) rotate(180)" fill="#fff" style="mix-blend-mode: multiply;isolation: isolate"/>
            <rect id="Rectángulo_2971" data-name="Rectángulo 2971" width="40.844" height="3.546" transform="translate(40.844 3.546) rotate(180)" fill="#fff"/>
          </g>
        </g>
        <rect id="Rectángulo_2972" data-name="Rectángulo 2972" width="26.983" height="4.692" transform="translate(6.688 1.909)" fill="#fff" style="mix-blend-mode: multiply;isolation: isolate"/>
        <rect id="Rectángulo_2973" data-name="Rectángulo 2973" width="32.14" height="4.692" transform="translate(4.109)" fill="url(#linear-gradient-6)"/>
      </g>
      <g id="Grupo_25907" data-name="Grupo 25907" transform="translate(308.117 260.541)">
        <g id="Grupo_25906" data-name="Grupo 25906" transform="translate(0 1.39)">
          <g id="Grupo_25902" data-name="Grupo 25902" transform="translate(7.134)">
            <rect id="Rectángulo_2974" data-name="Rectángulo 2974" width="26.091" height="51.804" fill="#fff"/>
            <rect id="Rectángulo_2975" data-name="Rectángulo 2975" width="20.169" height="46.074" transform="translate(2.961 2.865)" fill="url(#linear-gradient-5)"/>
            <rect id="Rectángulo_2976" data-name="Rectángulo 2976" width="20.169" height="23.911" transform="translate(2.961 2.865)" fill="#fff" opacity="0.49"/>
          </g>
          <g id="Grupo_25903" data-name="Grupo 25903" transform="translate(8.845 26.137)">
            <rect id="Rectángulo_2977" data-name="Rectángulo 2977" width="22.669" height="1.517" fill="#fff"/>
          </g>
          <g id="Grupo_25904" data-name="Grupo 25904" transform="translate(19.42 2.865)">
            <rect id="Rectángulo_2978" data-name="Rectángulo 2978" width="1.517" height="48.061" fill="#fff"/>
          </g>
          <g id="Grupo_25905" data-name="Grupo 25905" transform="translate(0 50.925)">
            <rect id="Rectángulo_2979" data-name="Rectángulo 2979" width="40.844" height="3.546" transform="translate(40.844 5.655) rotate(180)" fill="#fff" style="mix-blend-mode: multiply;isolation: isolate"/>
            <rect id="Rectángulo_2980" data-name="Rectángulo 2980" width="40.844" height="3.546" transform="translate(40.844 3.546) rotate(180)" fill="#fff"/>
          </g>
        </g>
        <rect id="Rectángulo_2981" data-name="Rectángulo 2981" width="26.983" height="4.692" transform="translate(6.688 1.909)" fill="#fff" style="mix-blend-mode: multiply;isolation: isolate"/>
        <rect id="Rectángulo_2982" data-name="Rectángulo 2982" width="32.14" height="4.692" transform="translate(4.109)" fill="url(#linear-gradient-6)"/>
      </g>
      <g id="Grupo_25910" data-name="Grupo 25910" transform="translate(120.293 -60.835)">
        <g id="Grupo_25909" data-name="Grupo 25909" transform="translate(3.049 6.517)">
          <g id="Grupo_25908" data-name="Grupo 25908">
            <path id="Trazado_19390" data-name="Trazado 19390" d="M211.835,56.267l4.785,9.7,10.7,1.555-7.742,7.547L221.4,85.72l-9.57-5.031-9.57,5.031,1.828-10.656-7.742-7.547,10.7-1.555Z" transform="translate(-196.35 -56.267)" fill="#ffee58"/>
            <path id="Trazado_19391" data-name="Trazado 19391" d="M235.667,56.267l4.785,9.7,10.7,1.555-7.742,7.547,1.828,10.656-9.57-5.031L226.1,85.72l1.828-10.656-7.742-7.547,10.7-1.555Z" transform="translate(-185.038 -56.267)" fill="#ffee58"/>
            <path id="Trazado_19392" data-name="Trazado 19392" d="M259.5,56.267l4.785,9.7,10.7,1.555-7.742,7.547,1.828,10.656-9.57-5.031-9.57,5.031,1.828-10.656-7.742-7.547,10.7-1.555Z" transform="translate(-173.726 -56.267)" fill="#ffee58"/>
            <path id="Trazado_19393" data-name="Trazado 19393" d="M306.373,56.267l4.785,9.7,10.7,1.555-7.742,7.547,1.828,10.656-9.57-5.031L296.8,85.72l1.828-10.656-7.742-7.547,10.7-1.555Z" transform="translate(-151.477 -56.267)" fill="#ffee58"/>
            <path id="Trazado_19394" data-name="Trazado 19394" d="M282.936,56.267l4.785,9.7,10.7,1.555-7.742,7.547,1.828,10.656-9.57-5.031-9.57,5.031,1.828-10.656-7.742-7.547,10.7-1.555Z" transform="translate(-162.602 -56.267)" fill="#ffee58"/>
          </g>
        </g>
        <text id="HOTEL" transform="translate(10.457 78.29)" fill="#111e61" font-size="43" font-family="Montserrat-ExtraBold, Montserrat" font-weight="800"><tspan x="0" y="0">HOTEL</tspan></text>
      </g>
    </g>
    <g id="Grupo_25915" data-name="Grupo 25915" transform="translate(1825.662 -532.382)">
      <rect id="Rectángulo_2985" data-name="Rectángulo 2985" width="4.403" height="52.134" transform="translate(14.472 49.59)" fill="url(#linear-gradient-52)"/>
      <path id="Trazado_19395" data-name="Trazado 19395" d="M654.7,399.133c0,22.574-7.716,27.63-17.236,27.63s-17.244-5.056-17.244-27.63c0-1.437.033-2.9.088-4.4.9-22.056,8.232-49.713,17.156-49.713,2.057,0,4.032,1.477,5.857,4.017C649.961,358.247,654.7,381.442,654.7,399.133Z" transform="translate(-620.221 -345.021)" fill="url(#linear-gradient-53)"/>
    </g>
    <g id="Grupo_25916" data-name="Grupo 25916" transform="translate(1379.638 -524.928)">
      <rect id="Rectángulo_2986" data-name="Rectángulo 2986" width="4.08" height="48.313" transform="translate(13.412 45.957)" fill="url(#linear-gradient-52)"/>
      <path id="Trazado_19396" data-name="Trazado 19396" d="M358.137,400.084c0,20.92-7.151,25.6-15.973,25.6s-15.981-4.684-15.981-25.6c0-1.332.032-2.691.082-4.077.833-20.439,7.628-46.071,15.9-46.071,1.907,0,3.738,1.371,5.427,3.724C353.746,362.193,358.137,383.687,358.137,400.084Z" transform="translate(-326.184 -349.935)" fill="url(#linear-gradient-55)"/>
    </g>
  </g>
</svg>
