<svg xmlns="http://www.w3.org/2000/svg" width="101.311" height="113.5" viewBox="0 0 101.311 113.5">
  <g id="Grupo_25461" data-name="Grupo 25461" transform="translate(-377.896 -197.967)">
    <g id="Grupo_25067" data-name="Grupo 25067">
      <path id="Trazado_18093" data-name="Trazado 18093" d="M440.328,223.877s-1.588,2.8-2.045,12.169c0,0-.517,6.258.424,7.371s2.117,2.4,2.961,1.686c0,0-1.664-2.122-1.219-3.208a.875.875,0,0,1,.893.771c.218.846.849-.233.158-1.472s-1.041-1.5-1.006-1.9.723-4.243.965-4.934a49.409,49.409,0,0,0,1.74-5.746,26.323,26.323,0,0,0,.584-3.611Z" fill="#f2b387"/>
    </g>
    <g id="Grupo_25069" data-name="Grupo 25069">
      <g id="Grupo_25068" data-name="Grupo 25068">
        <path id="Trazado_18094" data-name="Trazado 18094" d="M403.533,267.574c-17.392,10.043-17.478,26.323-.2,36.361s45.379,10.043,62.774,0,17.484-26.318.2-36.359S420.924,257.535,403.533,267.574Z" fill="#35a8a8"/>
      </g>
    </g>
    <g id="Grupo_25074" data-name="Grupo 25074">
      <g id="Grupo_25073" data-name="Grupo 25073">
        <g id="Grupo_25072" data-name="Grupo 25072">
          <g id="Grupo_25071" data-name="Grupo 25071">
            <g id="Grupo_25070" data-name="Grupo 25070">
              <path id="Trazado_18095" data-name="Trazado 18095" d="M444.049,292.322a12.575,12.575,0,0,0,3.328-4.91s.754-2.713,1.6-1.336a.628.628,0,0,0-1.01.358s-1.535,4.808-3.959,6.16a.93.93,0,0,0,.748.428Z" fill="#70afe9"/>
            </g>
          </g>
        </g>
      </g>
    </g>
    <g id="Grupo_25079" data-name="Grupo 25079">
      <g id="Grupo_25078" data-name="Grupo 25078">
        <g id="Grupo_25077" data-name="Grupo 25077">
          <g id="Grupo_25076" data-name="Grupo 25076">
            <g id="Grupo_25075" data-name="Grupo 25075">
              <path id="Trazado_18096" data-name="Trazado 18096" d="M449.1,285.578l.252.369S449.449,285.478,449.1,285.578Z" fill="#63a4d6"/>
            </g>
          </g>
        </g>
      </g>
    </g>
    <g id="Grupo_25084" data-name="Grupo 25084">
      <g id="Grupo_25083" data-name="Grupo 25083">
        <g id="Grupo_25082" data-name="Grupo 25082">
          <g id="Grupo_25081" data-name="Grupo 25081">
            <g id="Grupo_25080" data-name="Grupo 25080">
              <path id="Trazado_18097" data-name="Trazado 18097" d="M448.949,292.6l-.6-.257.162-2.674.545-1.147A27.718,27.718,0,0,1,448.949,292.6Z" fill="#63a4d6"/>
            </g>
          </g>
        </g>
      </g>
    </g>
    <g id="Grupo_25089" data-name="Grupo 25089">
      <g id="Grupo_25088" data-name="Grupo 25088">
        <g id="Grupo_25087" data-name="Grupo 25087">
          <g id="Grupo_25086" data-name="Grupo 25086">
            <g id="Grupo_25085" data-name="Grupo 25085">
              <path id="Trazado_18098" data-name="Trazado 18098" d="M447.424,290.81s-.862,2.411-2.717,1.858A2.007,2.007,0,0,0,447.424,290.81Z" fill="#70afe9"/>
            </g>
          </g>
        </g>
      </g>
    </g>
    <g id="Grupo_25094" data-name="Grupo 25094">
      <g id="Grupo_25093" data-name="Grupo 25093">
        <g id="Grupo_25092" data-name="Grupo 25092">
          <g id="Grupo_25091" data-name="Grupo 25091">
            <g id="Grupo_25090" data-name="Grupo 25090">
              <path id="Trazado_18099" data-name="Trazado 18099" d="M449.2,269.477a16,16,0,0,1,.186,9.644,13.972,13.972,0,0,0-.186,7.07s-.582,6.01-4.154,6.959c-1.723.457-.576-1.4.631-3.8a7.86,7.86,0,0,0,.6-2.527h0a55.135,55.135,0,0,0-.6-7.971,63.245,63.245,0,0,1-1.142-10.056Z" fill="#e8a476"/>
            </g>
          </g>
        </g>
      </g>
    </g>
    <g id="Grupo_25099" data-name="Grupo 25099">
      <g id="Grupo_25098" data-name="Grupo 25098">
        <g id="Grupo_25097" data-name="Grupo 25097">
          <g id="Grupo_25096" data-name="Grupo 25096">
            <g id="Grupo_25095" data-name="Grupo 25095">
              <path id="Trazado_18100" data-name="Trazado 18100" d="M445.051,293.15c-.725.192-.94-.027-.858-.523.17-.33.182-.777.366-1.137.113-.226.39-.7.511-.939.194-.379.4-.779.612-1.2a7.86,7.86,0,0,0,.6-2.527,55.135,55.135,0,0,0-.6-7.971,72.178,72.178,0,0,1-1.047-7.67l2.786-.872a17.043,17.043,0,0,1,.291,10.031,19.341,19.341,0,0,0,.523,8.084,14.121,14.121,0,0,1-.523,2.482A4.553,4.553,0,0,1,445.051,293.15Z" fill="#f1b488"/>
            </g>
          </g>
        </g>
      </g>
    </g>
    <g id="Grupo_25104" data-name="Grupo 25104">
      <g id="Grupo_25103" data-name="Grupo 25103">
        <g id="Grupo_25102" data-name="Grupo 25102">
          <g id="Grupo_25101" data-name="Grupo 25101">
            <g id="Grupo_25100" data-name="Grupo 25100">
              <path id="Trazado_18101" data-name="Trazado 18101" d="M449.047,285.572s1.562.813.416,3.758a27.576,27.576,0,0,0-.252,3.086l-.313.191s.127-3.181.036-3.283a7.893,7.893,0,0,0-1.213,3.028s-.161,2.183-4.162,1.8l.078-.134,1.183-1.579a2.335,2.335,0,0,0,1.942-.431c.773-.752,2.271-5.114,2.271-5.114l.143-.818Z" fill="#70afe9"/>
            </g>
          </g>
        </g>
      </g>
    </g>
    <g id="Grupo_25109" data-name="Grupo 25109">
      <g id="Grupo_25108" data-name="Grupo 25108">
        <g id="Grupo_25107" data-name="Grupo 25107">
          <g id="Grupo_25106" data-name="Grupo 25106">
            <g id="Grupo_25105" data-name="Grupo 25105">
              <path id="Trazado_18102" data-name="Trazado 18102" d="M445.027,290.7s-2.634,3.088-1.793,3.369c1.641.545,3.3-.773,4.18-2.218C448.4,290.236,443.223,294.619,445.027,290.7Z" fill="#70afe9"/>
            </g>
          </g>
        </g>
      </g>
    </g>
    <g id="Grupo_25114" data-name="Grupo 25114" opacity="0.5">
      <g id="Grupo_25113" data-name="Grupo 25113">
        <g id="Grupo_25112" data-name="Grupo 25112">
          <g id="Grupo_25111" data-name="Grupo 25111">
            <g id="Grupo_25110" data-name="Grupo 25110">
              <path id="Trazado_18103" data-name="Trazado 18103" d="M445.027,290.7s-2.238,2.815-1.488,3.057c1.461.469,3.617-1.153,3.889-2.071C447.519,291.383,442.775,294.728,445.027,290.7Z" fill="#92ccf7"/>
            </g>
          </g>
        </g>
      </g>
    </g>
    <g id="Grupo_25160" data-name="Grupo 25160">
      <g id="Grupo_25119" data-name="Grupo 25119">
        <g id="Grupo_25118" data-name="Grupo 25118">
          <g id="Grupo_25117" data-name="Grupo 25117">
            <g id="Grupo_25116" data-name="Grupo 25116">
              <g id="Grupo_25115" data-name="Grupo 25115">
                <path id="Trazado_18104" data-name="Trazado 18104" d="M438.769,289.648a12.632,12.632,0,0,0,3.327-4.912s.756-2.713,1.6-1.336a.627.627,0,0,0-1.011.356s-1.534,4.81-3.961,6.162a.929.929,0,0,0,.752.428Z" fill="#70afe9"/>
              </g>
            </g>
          </g>
        </g>
      </g>
      <g id="Grupo_25124" data-name="Grupo 25124">
        <g id="Grupo_25123" data-name="Grupo 25123">
          <g id="Grupo_25122" data-name="Grupo 25122">
            <g id="Grupo_25121" data-name="Grupo 25121">
              <g id="Grupo_25120" data-name="Grupo 25120">
                <path id="Trazado_18105" data-name="Trazado 18105" d="M443.285,283.26l.254.369S443.639,283.158,443.285,283.26Z" fill="#63a4d6"/>
              </g>
            </g>
          </g>
        </g>
      </g>
      <g id="Grupo_25129" data-name="Grupo 25129">
        <g id="Grupo_25128" data-name="Grupo 25128">
          <g id="Grupo_25127" data-name="Grupo 25127">
            <g id="Grupo_25126" data-name="Grupo 25126">
              <g id="Grupo_25125" data-name="Grupo 25125">
                <path id="Trazado_18106" data-name="Trazado 18106" d="M443.668,289.928l-.6-.258.162-2.672.547-1.15A27.97,27.97,0,0,1,443.668,289.928Z" fill="#63a4d6"/>
              </g>
            </g>
          </g>
        </g>
      </g>
      <g id="Grupo_25134" data-name="Grupo 25134">
        <g id="Grupo_25133" data-name="Grupo 25133">
          <g id="Grupo_25132" data-name="Grupo 25132">
            <g id="Grupo_25131" data-name="Grupo 25131">
              <g id="Grupo_25130" data-name="Grupo 25130">
                <path id="Trazado_18107" data-name="Trazado 18107" d="M442.143,288.133s-.86,2.414-2.719,1.859A2.008,2.008,0,0,0,442.143,288.133Z" fill="#70afe9"/>
              </g>
            </g>
          </g>
        </g>
      </g>
      <g id="Grupo_25139" data-name="Grupo 25139">
        <g id="Grupo_25138" data-name="Grupo 25138">
          <g id="Grupo_25137" data-name="Grupo 25137">
            <g id="Grupo_25136" data-name="Grupo 25136">
              <g id="Grupo_25135" data-name="Grupo 25135">
                <path id="Trazado_18108" data-name="Trazado 18108" d="M443.922,266.8a15.966,15.966,0,0,1,.187,9.644,14,14,0,0,0-.187,7.071s-.578,6.011-4.151,6.959c-1.726.457-.578-1.4.631-3.8a7.906,7.906,0,0,0,.6-2.53h0a54.846,54.846,0,0,0-.6-7.968,63.34,63.34,0,0,1-1.141-10.059Z" fill="#e8a476"/>
              </g>
            </g>
          </g>
        </g>
      </g>
      <g id="Grupo_25144" data-name="Grupo 25144">
        <g id="Grupo_25143" data-name="Grupo 25143">
          <g id="Grupo_25142" data-name="Grupo 25142">
            <g id="Grupo_25141" data-name="Grupo 25141">
              <g id="Grupo_25140" data-name="Grupo 25140">
                <path id="Trazado_18109" data-name="Trazado 18109" d="M439.771,290.475c-.728.191-.939-.03-.857-.526.17-.328.182-.773.363-1.136.116-.225.393-.7.512-.94.193-.377.4-.777.613-1.195a7.906,7.906,0,0,0,.6-2.53,54.846,54.846,0,0,0-.6-7.968,72.828,72.828,0,0,1-1.047-7.67l2.447-2.018a17.958,17.958,0,0,1,.807,10.838,23.217,23.217,0,0,0,.453,8.9s-.215.654-.629,2.009A4.549,4.549,0,0,1,439.771,290.475Z" fill="#f1b488"/>
              </g>
            </g>
          </g>
        </g>
      </g>
      <g id="Grupo_25149" data-name="Grupo 25149">
        <g id="Grupo_25148" data-name="Grupo 25148">
          <g id="Grupo_25147" data-name="Grupo 25147">
            <g id="Grupo_25146" data-name="Grupo 25146">
              <g id="Grupo_25145" data-name="Grupo 25145">
                <path id="Trazado_18110" data-name="Trazado 18110" d="M443.768,282.9s1.562.812.414,3.755a27.276,27.276,0,0,0-.25,3.088l-.313.19s.125-3.182.033-3.282a7.919,7.919,0,0,0-1.211,3.028s-.162,2.183-4.164,1.8l.078-.134,1.184-1.578a2.339,2.339,0,0,0,1.943-.432c.774-.754,2.27-5.113,2.27-5.113l.142-.821Z" fill="#70afe9"/>
              </g>
            </g>
          </g>
        </g>
      </g>
      <g id="Grupo_25154" data-name="Grupo 25154">
        <g id="Grupo_25153" data-name="Grupo 25153">
          <g id="Grupo_25152" data-name="Grupo 25152">
            <g id="Grupo_25151" data-name="Grupo 25151">
              <g id="Grupo_25150" data-name="Grupo 25150">
                <path id="Trazado_18111" data-name="Trazado 18111" d="M439.746,288.023s-2.633,3.088-1.793,3.37c1.643.547,3.3-.774,4.18-2.219C443.117,287.563,437.943,291.945,439.746,288.023Z" fill="#70afe9"/>
              </g>
            </g>
          </g>
        </g>
      </g>
      <g id="Grupo_25159" data-name="Grupo 25159" opacity="0.5">
        <g id="Grupo_25158" data-name="Grupo 25158">
          <g id="Grupo_25157" data-name="Grupo 25157">
            <g id="Grupo_25156" data-name="Grupo 25156">
              <g id="Grupo_25155" data-name="Grupo 25155">
                <path id="Trazado_18112" data-name="Trazado 18112" d="M439.746,288.023s-2.238,2.815-1.49,3.057c1.465.467,3.619-1.152,3.89-2.07C442.238,288.7,437.494,292.051,439.746,288.023Z" fill="#92ccf7"/>
              </g>
            </g>
          </g>
        </g>
      </g>
    </g>
    <g id="Grupo_25165" data-name="Grupo 25165">
      <g id="Grupo_25164" data-name="Grupo 25164">
        <g id="Grupo_25163" data-name="Grupo 25163">
          <g id="Grupo_25162" data-name="Grupo 25162">
            <g id="Grupo_25161" data-name="Grupo 25161">
              <path id="Trazado_18113" data-name="Trazado 18113" d="M439.922,236.894s6.252,5.939,11.092,1.983c0,0,4.2,4.04,2.148,12.085-1.115,4.378-.672,26.276.566,33.567,0,0-2.611,2.969-5.236,1.549-5.207-2.818-9.883-4.263-9.883-5.875S436.7,245.8,439.922,236.894Z" fill="#ec0001"/>
            </g>
          </g>
        </g>
      </g>
    </g>
    <g id="Grupo_25168" data-name="Grupo 25168" opacity="0.09">
      <g id="Grupo_25167" data-name="Grupo 25167">
        <g id="Grupo_25166" data-name="Grupo 25166">
          <path id="Trazado_18114" data-name="Trazado 18114" d="M453.162,250.962c2.053-8.045-2.148-12.085-2.148-12.085-1.459,1.191-4.252,1.607-5.786,1.516-1.668,11.65,1.018,42.955,1.018,44.357,0,1.369,6.4,3.137,7.24-.824.158-.18.241-.3.241-.3C452.49,276.338,452.047,255.34,453.162,250.962Z"/>
        </g>
      </g>
    </g>
    <g id="Grupo_25171" data-name="Grupo 25171">
      <g id="Grupo_25170" data-name="Grupo 25170">
        <g id="Grupo_25169" data-name="Grupo 25169">
          <path id="Trazado_18115" data-name="Trazado 18115" d="M440.963,284.459h0l1.34-31.274.549,32.145Z" fill="#f1b488"/>
        </g>
      </g>
    </g>
    <g id="Grupo_25174" data-name="Grupo 25174">
      <g id="Grupo_25173" data-name="Grupo 25173">
        <g id="Grupo_25172" data-name="Grupo 25172">
          <path id="Trazado_18116" data-name="Trazado 18116" d="M475.154,277.44c.594-.137,1.221.5,1.639.857a3.8,3.8,0,0,1,.883,1.457c.117.931-1.922,2.816-2.227,3.658a21.3,21.3,0,0,1-1.8,3.43,5.683,5.683,0,0,1-1.48,1.664,6.427,6.427,0,0,1-4.211.2,1.188,1.188,0,0,1-.688-1.418c.719-1.621,1.586-1.994,1.991-3.146a16.5,16.5,0,0,0,.769-2.4c.092-.433.293-2.418.965-2.262Z" fill="#1e160d"/>
        </g>
      </g>
    </g>
    <g id="Grupo_25177" data-name="Grupo 25177">
      <g id="Grupo_25176" data-name="Grupo 25176">
        <g id="Grupo_25175" data-name="Grupo 25175">
          <path id="Trazado_18117" data-name="Trazado 18117" d="M461.268,250.522c-.055,2.968.992,5.968,1.142,8.927.176,3.51,1.469,7.434.516,10.916-.289,1.053-1.471,2.908-3.289,3.08-1.049.1-2.77-.054-3.3-.609a2.319,2.319,0,0,1-.721-1.082c-.963-3.256-1.725-11.539-2.144-13.684a25.289,25.289,0,0,0-1.67-5.992s-.465-2.774,4.322-3.274C460.127,248.384,461.279,250.1,461.268,250.522Z" fill="#192328"/>
        </g>
      </g>
    </g>
    <g id="Grupo_25180" data-name="Grupo 25180">
      <g id="Grupo_25179" data-name="Grupo 25179">
        <g id="Grupo_25178" data-name="Grupo 25178">
          <path id="Trazado_18118" data-name="Trazado 18118" d="M461.045,265.145c-1.6-.819-7.111,5.742-4.313,7.957,0,0,10.7,5.007,13.69,8.466l.515.549a1.041,1.041,0,0,0,1.075.412,4.548,4.548,0,0,0,1.668-1.011,4.884,4.884,0,0,0,1.578-4.086C474.51,273.924,466.416,267.885,461.045,265.145Z" fill="#192328"/>
        </g>
      </g>
    </g>
    <g id="Grupo_25183" data-name="Grupo 25183">
      <g id="Grupo_25182" data-name="Grupo 25182">
        <g id="Grupo_25181" data-name="Grupo 25181">
          <path id="Trazado_18119" data-name="Trazado 18119" d="M475.258,277.432c-.653-3.057-6.883-8.037-12.028-11.08-.156-2.323-.709-4.694-.82-6.9-.15-2.959-1.2-5.959-1.142-8.927.011-.427-1.141-2.138-5.141-1.718h0a2.358,2.358,0,0,0-.774,1.944,25.3,25.3,0,0,1,1.67,5.99c.42,2.147,1.182,10.43,2.145,13.684a2.366,2.366,0,0,0,.719,1.084,1.3,1.3,0,0,0,.39.26l.006.006s10.7,5.007,13.688,8.466l.414.438A4.367,4.367,0,0,0,475.258,277.432Z" fill="#131b1e"/>
        </g>
      </g>
    </g>
    <g id="Grupo_25186" data-name="Grupo 25186">
      <g id="Grupo_25185" data-name="Grupo 25185">
        <g id="Grupo_25184" data-name="Grupo 25184">
          <path id="Trazado_18120" data-name="Trazado 18120" d="M461.959,288.445c.572.063.957.795,1.238,1.223a1.875,1.875,0,0,1-.037,2.26c-.635.9-2.08,1.037-2.588,1.658a30.1,30.1,0,0,1-4.076,3.15c-.775.524-2.6.907-3.123-.133a2.433,2.433,0,0,1-.2-2.076,26.505,26.505,0,0,1,1.959-2.592,8.2,8.2,0,0,0,1.027-1.394c.207-.338.938-1.955,1.5-1.621Z" fill="#1e160d"/>
        </g>
      </g>
    </g>
    <g id="Grupo_25189" data-name="Grupo 25189">
      <g id="Grupo_25188" data-name="Grupo 25188">
        <g id="Grupo_25187" data-name="Grupo 25187">
          <path id="Trazado_18121" data-name="Trazado 18121" d="M469.057,254.066c-.9,2.487-1.071,5.116-1.776,7.662-.832,3.016-.781,6.721-2.625,9.37a3.939,3.939,0,0,1-3.822,1.586c-.967-.239-2.7-.829-2.787-1.53a8.488,8.488,0,0,1,.023-2.7c.246-1.183,1.313-8.326,1.584-10.638.223-1.889.438-3.051.78-5.123,0,0-.227-2.351,4.14-1.024S469.184,253.711,469.057,254.066Z" fill="#212e33"/>
        </g>
      </g>
    </g>
    <g id="Grupo_25192" data-name="Grupo 25192">
      <g id="Grupo_25191" data-name="Grupo 25191">
        <g id="Grupo_25190" data-name="Grupo 25190">
          <path id="Trazado_18122" data-name="Trazado 18122" d="M465.279,272.834a35.936,35.936,0,0,1,.278-4.869c.078-1.371-7.2-.424-7.573,2.888,0,0,.385,13.028-.851,17.045l-.178.67a1.041,1.041,0,0,0,.193,1.08,4.506,4.506,0,0,0,1.555.938,4.113,4.113,0,0,0,3.873-.494C464.9,287.912,465.715,278.512,465.279,272.834Z" fill="#212e33"/>
        </g>
      </g>
    </g>
    <g id="Grupo_25195" data-name="Grupo 25195">
      <g id="Grupo_25194" data-name="Grupo 25194">
        <g id="Grupo_25193" data-name="Grupo 25193">
          <path id="Trazado_18123" data-name="Trazado 18123" d="M462.576,290.092c2.328-2.18,3.139-11.58,2.7-17.258a16.767,16.767,0,0,1,.123-3.082c1.1-2.471,1.18-5.488,1.879-8.024s.881-5.175,1.776-7.662c.056-.166.031-.412-.454-.761-.287-.1-.589-.192-.925-.293-4.366-1.328-4.141,1.021-4.141,1.021-.338,2.074-.555,3.237-.777,5.125-.272,2.311-1.342,9.455-1.584,10.637a7.944,7.944,0,0,0-.067,2.3c-.006.033-.015.066-.019.1,0,0,.385,13.028-.852,17.045l-.176.672a1.07,1.07,0,0,0,.073.918A3.4,3.4,0,0,0,462.576,290.092Z" fill="#192328"/>
        </g>
      </g>
    </g>
    <path id="Trazado_18124" data-name="Trazado 18124" d="M465.279,272.834a16.767,16.767,0,0,1,.123-3.082c1.1-2.471,1.18-5.488,1.879-8.024s.881-5.175,1.776-7.662c.056-.166.031-.412-.454-.761-.251-.084-.525-.17-.816-.258l-1.17.81s-3.564,14.825-3.344,18.428c.168,2.768-.951,13.4-1.7,18.36a2.607,2.607,0,0,0,1-.553C464.9,287.912,465.715,278.512,465.279,272.834Z" fill="#131b1e"/>
    <path id="Trazado_18125" data-name="Trazado 18125" d="M383.707,230.509s-3.176-1.072-4.635-.583c0,0-.377.863.994.937s-1.554,1.256-2.123,1.9c-.322.367,1.022,3.063,3.6,1.961,2.783-1.188,3.111-1.09,4.352-3.014S383.707,230.509,383.707,230.509Z" fill="#f2b387"/>
    <path id="Trazado_18126" data-name="Trazado 18126" d="M405.467,211.312s-1.235-2.355-3.883.865a93.371,93.371,0,0,1-8.156,8.687c-3.424,3.094-6.362,5.309-6.67,5.6-.465.447-4.014,3.312-4.014,3.312a3.688,3.688,0,0,0,2.256,3.5c1.475.569,9.648-5.9,9.648-5.9l7.178-5.356S411.016,214.933,405.467,211.312Z" fill="#6d0f0f"/>
    <path id="Trazado_18127" data-name="Trazado 18127" d="M394.648,227.385l7.178-5.356.1-.078c-.875-1.479-1.852-3-1.852-3l-16.109,13.7a3.427,3.427,0,0,0,1.037.62C386.475,233.849,394.648,227.385,394.648,227.385Z" fill="#590b0b"/>
    <g id="Grupo_25197" data-name="Grupo 25197">
      <g id="Grupo_25196" data-name="Grupo 25196">
        <path id="Trazado_18128" data-name="Trazado 18128" d="M423.789,270.678c.645-.151,1.322.554,1.771.945a4.186,4.186,0,0,1,.956,1.6c.128,1.027-2.075,3.1-2.409,4.023a23.671,23.671,0,0,1-1.941,3.776,6.157,6.157,0,0,1-1.6,1.828c-.828.505-3.638.757-4.556.22a1.309,1.309,0,0,1-.744-1.558c.779-1.784,1.716-2.2,2.154-3.465a18.545,18.545,0,0,0,.832-2.633c.1-.48.314-2.662,1.043-2.492Z" fill="#1e160d"/>
      </g>
    </g>
    <g id="Grupo_25198" data-name="Grupo 25198">
      <path id="Trazado_18129" data-name="Trazado 18129" d="M416.01,283.07c.918.537,3.728.285,4.556-.22a6.157,6.157,0,0,0,1.6-1.828,23.671,23.671,0,0,0,1.941-3.776c.334-.926,2.537-3,2.409-4.023a4.328,4.328,0,0,0-.9-1.547,32.877,32.877,0,0,0-2.945,6.174,24.768,24.768,0,0,1-2.721,4.384c-2.726,1.254-4.031-.236-4.519-1.076-.057.114-.112.227-.166.354A1.309,1.309,0,0,0,416.01,283.07Z" fill="#110c06"/>
    </g>
    <g id="Grupo_25199" data-name="Grupo 25199">
      <path id="Trazado_18130" data-name="Trazado 18130" d="M418.252,275.414a18.545,18.545,0,0,1-.832,2.633,8.775,8.775,0,0,1-1.449,2.2c.254.859.892,2.166,2.23.828,1.869-1.871,1.914-2.808,2.658-3.552a3.671,3.671,0,0,0,.975-2.717,5.791,5.791,0,0,0-1.057-2.623l-1.482.74C418.566,272.752,418.35,274.934,418.252,275.414Z" fill="#261d14"/>
    </g>
    <g id="Grupo_25201" data-name="Grupo 25201">
      <g id="Grupo_25200" data-name="Grupo 25200">
        <path id="Trazado_18131" data-name="Trazado 18131" d="M409.514,282.783c.619.07,1.037.879,1.339,1.346a2.086,2.086,0,0,1-.041,2.486c-.685.992-2.25,1.141-2.8,1.825a33.1,33.1,0,0,1-4.409,3.466c-.841.574-2.816,1-3.379-.148a2.719,2.719,0,0,1-.218-2.281,29.605,29.605,0,0,1,2.121-2.852,8.922,8.922,0,0,0,1.113-1.533c.223-.373,1.012-2.151,1.623-1.783Z" fill="#1e160d"/>
      </g>
    </g>
    <g id="Grupo_25202" data-name="Grupo 25202">
      <path id="Trazado_18132" data-name="Trazado 18132" d="M403.607,291.906a33.1,33.1,0,0,0,4.409-3.466c.546-.684,2.111-.833,2.8-1.825a2.049,2.049,0,0,0,.338-1.865c-.529,1.728-3.131,2.246-3.765,2.883-.707.707-2.805,2.07-3.793,3.058-.67.672-2.348.963-3.356,1.081C400.809,292.9,402.769,292.478,403.607,291.906Z" fill="#110c06"/>
    </g>
    <g id="Grupo_25203" data-name="Grupo 25203">
      <path id="Trazado_18133" data-name="Trazado 18133" d="M403.244,285.092a8.922,8.922,0,0,1-1.113,1.533,29.605,29.605,0,0,0-2.121,2.852,1.968,1.968,0,0,0-.1,1.355,1.261,1.261,0,0,0,1.391-.453c1.716-1.715,1.4-1.809,2.339-2.746s2.741-1.655,2.741-2.883a7.069,7.069,0,0,0-.258-1.584l-1.26.143C404.256,282.941,403.467,284.719,403.244,285.092Z" fill="#261d14"/>
    </g>
    <g id="Grupo_25204" data-name="Grupo 25204">
      <path id="Trazado_18134" data-name="Trazado 18134" d="M423.9,270.672c-.705-3.365-7.447-8.844-13.011-12.192-.172-2.554-.768-5.164-.889-7.591-.162-3.257-1.3-6.556-1.234-9.821.011-.469-1.235-2.352-5.561-1.891-5.18.551-4.439,2.3-4.439,2.3.992,2.189,1.123,5.6,1.568,7.9.455,2.359,1.281,11.473,2.322,15.053a2.557,2.557,0,0,0,.779,1.189,1.369,1.369,0,0,0,.42.285l.006.008s11.569,5.512,14.807,9.315l.557.6a1.123,1.123,0,0,0,1.166.451,4.927,4.927,0,0,0,1.8-1.109A5.419,5.419,0,0,0,423.9,270.672Z" fill="#192328"/>
    </g>
    <g id="Grupo_25206" data-name="Grupo 25206">
      <g id="Grupo_25205" data-name="Grupo 25205">
        <path id="Trazado_18135" data-name="Trazado 18135" d="M423.9,270.672c-.705-3.365-7.447-8.844-13.011-12.192-.17-2.554-.768-5.162-.889-7.591-.162-3.257-1.3-6.556-1.234-9.821.011-.469-1.235-2.352-5.561-1.891h0a2.617,2.617,0,0,0-.838,2.139,28.162,28.162,0,0,1,1.805,6.591c.457,2.357,1.283,11.474,2.322,15.05a2.549,2.549,0,0,0,.777,1.191,1.36,1.36,0,0,0,.422.287l.008.006s11.566,5.512,14.807,9.317l.449.482A4.876,4.876,0,0,0,423.9,270.672Z" fill="#131b1e"/>
      </g>
    </g>
    <g id="Grupo_25207" data-name="Grupo 25207">
      <path id="Trazado_18136" data-name="Trazado 18136" d="M398.291,241.332a41.174,41.174,0,0,1,2.045,8.039c.455,2.359,1.281,11.473,2.322,15.053a2.557,2.557,0,0,0,.779,1.189,1.369,1.369,0,0,0,.42.285l.006.008s11.569,5.512,14.807,9.315l.557.6a1.123,1.123,0,0,0,1.166.451,5.091,5.091,0,0,0,1.441-.789c-4.592-3.546-14.713-11.283-16.619-12.054-1.983-.8-4.463-16.805-5.379-23.18Z" fill="#28383d"/>
    </g>
    <g id="Grupo_25208" data-name="Grupo 25208">
      <path id="Trazado_18137" data-name="Trazado 18137" d="M412.346,242.325c-4.725-1.46-4.483,1.126-4.483,1.126-.367,2.279-.6,3.558-.84,5.635-.3,2.543-1.451,10.4-1.714,11.7a8.816,8.816,0,0,0-.073,2.529c-.006.039-.015.075-.021.112,0,0,.418,14.334-.922,18.752l-.191.736a1.161,1.161,0,0,0,.208,1.189,4.91,4.91,0,0,0,1.684,1.03,4.386,4.386,0,0,0,4.188-.543c2.521-2.4,3.4-12.737,2.927-18.983a18.561,18.561,0,0,1,.131-3.394c1.19-2.717,1.276-6.037,2.033-8.824s.952-5.694,1.92-8.427C417.33,244.574,417.072,243.785,412.346,242.325Z" fill="#212e33"/>
    </g>
    <g id="Grupo_25210" data-name="Grupo 25210">
      <g id="Grupo_25209" data-name="Grupo 25209">
        <path id="Trazado_18138" data-name="Trazado 18138" d="M410.182,284.6c2.521-2.4,3.4-12.737,2.927-18.983a18.36,18.36,0,0,1,.133-3.392c1.188-2.717,1.277-6.039,2.031-8.826s.952-5.694,1.92-8.427c.063-.185.034-.457-.49-.841-.31-.1-.637-.211-1-.323-4.721-1.459-4.476,1.126-4.476,1.126-.37,2.28-.6,3.558-.842,5.636-.295,2.541-1.453,10.4-1.715,11.7a8.974,8.974,0,0,0-.072,2.535c-.006.037-.014.072-.022.109,0,0,.418,14.332-.922,18.752l-.191.738a1.2,1.2,0,0,0,.08,1.01A3.613,3.613,0,0,0,410.182,284.6Z" fill="#192328"/>
      </g>
    </g>
    <g id="Grupo_25211" data-name="Grupo 25211">
      <path id="Trazado_18139" data-name="Trazado 18139" d="M405.309,260.791a8.816,8.816,0,0,0-.073,2.529c-.006.039-.015.075-.021.112,0,0,.418,14.334-.922,18.752l-.191.736a1.161,1.161,0,0,0,.208,1.189,5.211,5.211,0,0,0,1.208.831,72.727,72.727,0,0,0,1.777-11.483c-1.988-16.25,3.326-28.03,3.326-28.03h-3.078c-.2,1.224-.358,2.262-.52,3.659C406.728,251.629,405.572,259.49,405.309,260.791Z" fill="#28383d"/>
    </g>
    <path id="Trazado_18140" data-name="Trazado 18140" d="M417.215,245.487s-1.149,2.511-7.039,1.253c-6.151-1.313-11.744-3.163-12.076-4.862s1.289-8.38,1.125-14.1-.5-16.735,4.47-17.065c0,0,9.51-1.251,14.209,6.045,0,0,1.408,2.114-1.01,7.356-2.791,6.05-4.363,10.429-1.21,17.012C416.184,242.171,417.816,244.035,417.215,245.487Z" fill="#751516"/>
    <path id="Trazado_18141" data-name="Trazado 18141" d="M398.1,241.878c-.332-1.7,1.289-8.38,1.125-14.1s-.5-16.735,4.47-17.065a17.5,17.5,0,0,1,4.155.089c-1.385.763-6.3,4.071,1.316,9.272l-.33,20.173-5.666,4.634C400.3,243.923,398.3,242.876,398.1,241.878Z" fill="#640e0c"/>
    <g id="Grupo_25212" data-name="Grupo 25212">
      <path id="Trazado_18142" data-name="Trazado 18142" d="M403.309,244.934l5.652-4.624.33-20.3-.059-.039c-2.588-1.63-3.99-3.387-4.164-5.215a4.728,4.728,0,0,1,1.35-3.583l-.17-.18a4.9,4.9,0,0,0-1.428,3.787c.182,1.894,1.6,3.7,4.221,5.365l-.328,20.046-5.654,4.657Z" fill="#fff009"/>
    </g>
    <g id="Grupo_25215" data-name="Grupo 25215">
      <g id="Grupo_25214" data-name="Grupo 25214">
        <g id="Grupo_25213" data-name="Grupo 25213">
          <path id="Trazado_18143" data-name="Trazado 18143" d="M406.648,215.267l-3.343,1.107s-.395-4.533,4.109-4.533Z" fill="#e9f8fd"/>
        </g>
      </g>
    </g>
    <g id="Grupo_25236" data-name="Grupo 25236">
      <g id="Grupo_25218" data-name="Grupo 25218">
        <g id="Grupo_25217" data-name="Grupo 25217">
          <g id="Grupo_25216" data-name="Grupo 25216">
            <path id="Trazado_18144" data-name="Trazado 18144" d="M405.443,211.72s1.1,2.293.946,3.4c0,0,3.254,2.041,6.115-3.01,0,0-1.383-1.166.385-5.714Z" fill="#e8a476"/>
          </g>
        </g>
      </g>
      <g id="Grupo_25221" data-name="Grupo 25221">
        <g id="Grupo_25220" data-name="Grupo 25220">
          <g id="Grupo_25219" data-name="Grupo 25219">
            <path id="Trazado_18145" data-name="Trazado 18145" d="M406.332,212.623s4.076-1.277,6.045-.658c0,0-.824-.839-.1-3.567a6.686,6.686,0,0,0,1.871-5.779,4.257,4.257,0,0,0-3.689-3.726S415.191,206.617,406.332,212.623Z" fill="#db9669"/>
          </g>
        </g>
      </g>
      <g id="Grupo_25224" data-name="Grupo 25224">
        <g id="Grupo_25223" data-name="Grupo 25223">
          <g id="Grupo_25222" data-name="Grupo 25222">
            <path id="Trazado_18146" data-name="Trazado 18146" d="M403.543,203.737c-.012.522.609.64-.322,2.714-.575,1.281-.36,1.312.058,3.6.235,1.3.823,4.047,4.918,2.006,0,0,4.024-2.849,5.231-5.338s1.152-4.984-.852-7.05C412.576,199.668,403.7,196.139,403.543,203.737Z" fill="#f1b287"/>
          </g>
        </g>
      </g>
      <g id="Grupo_25225" data-name="Grupo 25225">
        <path id="Trazado_18147" data-name="Trazado 18147" d="M403.627,202.718a9.667,9.667,0,0,0,3.426,1.762s1.9,0,1.9.7a6.635,6.635,0,0,1-.922,2.746,8.71,8.71,0,0,0-1.527,2.748c0,.363-.6,1.989-1.592,1.989,0,0,2.5,1.027,6.158-3,0,0,2.979-2.942,2.979-3.536s-3.692-2.667-4.713-3.1-5.27-2.068-5.27-2.068S403.664,202.4,403.627,202.718Z" fill="#e8a476" fill-rule="evenodd"/>
      </g>
      <g id="Grupo_25228" data-name="Grupo 25228">
        <g id="Grupo_25227" data-name="Grupo 25227">
          <g id="Grupo_25226" data-name="Grupo 25226">
            <path id="Trazado_18148" data-name="Trazado 18148" d="M403.84,201.189c-.1,1.415,3.072,2.312,5.176,2.749.791.164,1.33.83.56,3.042s.551,2.539.651,2.143c.445-1.805,2.423-3.179,1.873-.267,0,0,4.441-4.064,3.1-7.348-.883-2.15-3.515-4.513-8.742-3.036C405.547,198.73,403.959,199.592,403.84,201.189Z" fill="#3f210a"/>
          </g>
        </g>
      </g>
      <g id="Grupo_25231" data-name="Grupo 25231">
        <g id="Grupo_25230" data-name="Grupo 25230">
          <g id="Grupo_25229" data-name="Grupo 25229">
            <path id="Trazado_18149" data-name="Trazado 18149" d="M409.576,206.98c-.769,2.329.611,2.329.611,2.329.438-2.126,2.5-2.89,1.913-.453,0,0,4.441-4.064,3.1-7.348a5.491,5.491,0,0,0-2.359-2.672c2.6,4.809-2.1,4.424-3.309,5.276C410,204.447,410.139,205.287,409.576,206.98Z" fill="#3f210a"/>
          </g>
        </g>
      </g>
      <g id="Grupo_25232" data-name="Grupo 25232">
        <path id="Trazado_18150" data-name="Trazado 18150" d="M409.891,205.818s.976-.78.976.219a1.653,1.653,0,0,0,.809-1.381s.715.108.715,1.1c0,0,.9-.751.65-1.623a2.878,2.878,0,0,1,.768,1.684s1.039-1.323.808-2.179c0,0,.389.063.389,1.2a3.672,3.672,0,0,0-.182-4.069s-.031,2.594-5.3,3.346A2.549,2.549,0,0,1,409.891,205.818Z" fill="#4f2b0c"/>
      </g>
      <g id="Grupo_25233" data-name="Grupo 25233">
        <path id="Trazado_18151" data-name="Trazado 18151" d="M411.676,207.345s1.949.028,2.556-1.054a16.534,16.534,0,0,1-2.132,2.565S412.6,207.345,411.676,207.345Z" fill="#361d07"/>
      </g>
      <g id="Grupo_25234" data-name="Grupo 25234">
        <path id="Trazado_18152" data-name="Trazado 18152" d="M414.824,200.766s-.152,2.776-5.3,3.346c0,0-4.326-.119-5.633-2.531a1.463,1.463,0,0,1,.215-1.339s-.009,1.151.721,1.475c0,0-.277-.679,0-.951a2.63,2.63,0,0,0,1.312,1.412.815.815,0,0,1,.188-.913,3.251,3.251,0,0,0,2.219,1.9,1.592,1.592,0,0,1-.522-.989s1.408,1.247,2.518.956c0,0-.9-.431-.9-.956,0,0,1.82.782,2.894,0a1.4,1.4,0,0,1-1.08-.461S414.275,202.009,414.824,200.766Z" fill="#301808"/>
      </g>
      <g id="Grupo_25235" data-name="Grupo 25235">
        <path id="Trazado_18153" data-name="Trazado 18153" d="M414.047,199.78s-3.078-3.416-8.6-.869c0,0,2.307-.307,3.094-.307s-.631.453-1.365.622,2.152-.122,3.129-.122,2.7.327,1.49.51S413.84,199.574,414.047,199.78Z" fill="#4c260c"/>
      </g>
    </g>
    <g id="Grupo_25239" data-name="Grupo 25239">
      <g id="Grupo_25238" data-name="Grupo 25238">
        <g id="Grupo_25237" data-name="Grupo 25237">
          <path id="Trazado_18154" data-name="Trazado 18154" d="M406.389,215.119l.781,3.05a6.38,6.38,0,0,0,5.494-2.829s1.227-1.9-.141-3.355A7.349,7.349,0,0,1,406.389,215.119Z" fill="#e9f8fd"/>
        </g>
      </g>
    </g>
    <path id="Trazado_18155" data-name="Trazado 18155" d="M416.894,224.119c-2.791,6.05-4.363,10.429-1.21,17.012.5,1.04,2.132,2.9,1.531,4.356,0,0-.949,2.039-5.471,1.509a41.407,41.407,0,0,0-.394-7.89c-.586-4.583.22-10.454,1.046-17.659.438-3.819,1.825-6.368,4.123-6.458a12.527,12.527,0,0,1,1.385,1.774S419.312,218.877,416.894,224.119Z" fill="#640e0c"/>
    <path id="Trazado_18156" data-name="Trazado 18156" d="M406.783,221.447a.467.467,0,1,0,.467-.436A.45.45,0,0,0,406.783,221.447Z" fill="#fff009"/>
    <path id="Trazado_18157" data-name="Trazado 18157" d="M406.783,224.923a.467.467,0,1,0,.467-.433A.452.452,0,0,0,406.783,224.923Z" fill="#fff009"/>
    <path id="Trazado_18158" data-name="Trazado 18158" d="M406.783,228.4a.467.467,0,1,0,.467-.435A.45.45,0,0,0,406.783,228.4Z" fill="#fff009"/>
    <path id="Trazado_18159" data-name="Trazado 18159" d="M406.783,231.883a.467.467,0,1,0,.467-.436A.452.452,0,0,0,406.783,231.883Z" fill="#fff009"/>
    <g id="Grupo_25240" data-name="Grupo 25240">
      <path id="Trazado_18160" data-name="Trazado 18160" d="M417.828,242.142s-1.051,5.918-2.322,8.154c2.471-8.613,2.355-21.244,2.355-21.244l1.612-.446A58.45,58.45,0,0,1,417.828,242.142Z" fill="#e8a476"/>
    </g>
    <path id="Trazado_18161" data-name="Trazado 18161" d="M399.225,227.783c-.161-5.414-.461-15.58,3.732-16.92a7.053,7.053,0,0,0-.982,2.174c-.52,1.99.812,8.037,1.863,10.437s-.887,11.018-1.481,13.918c-.435,2.119-2.748,4.12-3.966,5.047a1.25,1.25,0,0,1-.291-.561C397.768,240.179,399.389,233.5,399.225,227.783Z" fill="#590b0b"/>
    <g id="Grupo_25241" data-name="Grupo 25241">
      <path id="Trazado_18162" data-name="Trazado 18162" d="M419.508,226.958s1.072,4.075-1.489,16.086c0,0-1.441,8.093-3.005,9.186s-3.485,2.333-4.311,1.141c0,0,2.816-2.127,2.615-3.651a1.144,1.144,0,0,0-1.386.676c-.559,1-.995-.578.293-1.914s1.822-1.555,1.912-2.076.506-5.61.431-6.566a64.314,64.314,0,0,1-.279-7.854,35.173,35.173,0,0,1,.471-4.765Z" fill="#f2b387"/>
    </g>
    <g id="Grupo_25242" data-name="Grupo 25242">
      <path id="Trazado_18163" data-name="Trazado 18163" d="M415.5,216.13s8.873-4.43,2.5,32.159c0,0-1.453.293-4.551-1.655a52.766,52.766,0,0,0,.656-14.2C413.2,224.076,412.893,216.558,415.5,216.13Z" fill="#6d0f0f"/>
    </g>
    <path id="Trazado_18164" data-name="Trazado 18164" d="M418,248.289a3.614,3.614,0,0,1-1.5-.2c3.6-11.086.963-27.847.2-32.093C418.891,216.377,422.842,220.509,418,248.289Z" fill="#640e0c"/>
    <path id="Trazado_18165" data-name="Trazado 18165" d="M414.109,232.432c-.541-4.987-.871-9.674-.492-12.735.3-1.069.567-1.994.76-2.7a2.744,2.744,0,0,1,.248-.347c.051,2.565,1.021,8.717,1.881,14.389.937,6.16-1.215,14.629-1.684,16.371a15.606,15.606,0,0,1-1.369-.774A52.766,52.766,0,0,0,414.109,232.432Z" fill="#751516"/>
    <g id="Grupo_25247" data-name="Grupo 25247">
      <g id="Grupo_25246" data-name="Grupo 25246">
        <g id="Grupo_25245" data-name="Grupo 25245">
          <g id="Grupo_25244" data-name="Grupo 25244">
            <g id="Grupo_25243" data-name="Grupo 25243">
              <path id="Trazado_18166" data-name="Trazado 18166" d="M438.963,224.869s-.834,2.508,1.355,6.189c0,0,.143,4.838-.611,6.469-.022-.01,7.912,6.046,11.8,1.776a6.594,6.594,0,0,1-.215-6.276,8.8,8.8,0,0,0,.98-2.574Z" fill="#ec0001"/>
            </g>
          </g>
        </g>
      </g>
    </g>
    <g id="Grupo_25252" data-name="Grupo 25252">
      <g id="Grupo_25251" data-name="Grupo 25251">
        <g id="Grupo_25250" data-name="Grupo 25250">
          <g id="Grupo_25249" data-name="Grupo 25249">
            <g id="Grupo_25248" data-name="Grupo 25248">
              <path id="Trazado_18167" data-name="Trazado 18167" d="M439,227.855a20.915,20.915,0,0,1,1.092,8.6l1.951-.385s.914-3.86.914-4.361S439,227.855,439,227.855Z" fill="#ec0001"/>
            </g>
          </g>
        </g>
      </g>
    </g>
    <g id="Grupo_25257" data-name="Grupo 25257">
      <g id="Grupo_25256" data-name="Grupo 25256">
        <g id="Grupo_25255" data-name="Grupo 25255">
          <g id="Grupo_25254" data-name="Grupo 25254">
            <g id="Grupo_25253" data-name="Grupo 25253">
              <path id="Trazado_18168" data-name="Trazado 18168" d="M444.846,231.385s2.195,1.786,7.607-.733c0,0,2.445-3.58,1.471-7.22,0,0-5.321-6.487-12.049-7.127,0,0-.723.508-.723,2.255,0,0-.443,2.877-1.111,3.545-1.492,1.492-2.189,4.711-.313,5.75Z" fill="#ec0001"/>
            </g>
          </g>
        </g>
      </g>
    </g>
    <g id="Grupo_25261" data-name="Grupo 25261">
      <g id="Grupo_25260" data-name="Grupo 25260">
        <g id="Grupo_25259" data-name="Grupo 25259">
          <g id="Grupo_25258" data-name="Grupo 25258">
            <path id="Trazado_18169" data-name="Trazado 18169" d="M455.3,225.054s-1.151-6.272-12.713-8.724a6.557,6.557,0,0,0-1.44,3.5,5.631,5.631,0,0,1-1.015,3.729,5.3,5.3,0,0,0-.881,1.429l13.013,5.462c0,.306-2.478,1.748-2.593,2.277.131-.055-.131.061,0,0C449.676,232.73,456.277,228.694,455.3,225.054Z" fill="#ec0001"/>
          </g>
        </g>
      </g>
    </g>
    <g id="Grupo_25266" data-name="Grupo 25266" opacity="0.1">
      <g id="Grupo_25265" data-name="Grupo 25265">
        <g id="Grupo_25264" data-name="Grupo 25264">
          <g id="Grupo_25263" data-name="Grupo 25263">
            <g id="Grupo_25262" data-name="Grupo 25262">
              <path id="Trazado_18170" data-name="Trazado 18170" d="M453.748,222.773s-2.91-1.7-3.729,3.237c-.552,3.362.116,3.959-1.158,5.251-.289.291-2.59,1.85-6.6-1.035,0,0-3.557-2.522-3.448-3.865a9.508,9.508,0,0,0,.653,3.043c.111.329-.133-.375,0,0,.158.437-.178-.948,0,0,0,0,2.6,2.769,4.974,2.942,5.239.384,3.594,2.978,8.928,11.181,0,0-1.064-3.428-1.861-4.224,0,0-2.07-3.637.949-8.651,0,0,5.885-4.377,1.295-7.879Z"/>
            </g>
          </g>
        </g>
      </g>
    </g>
    <g id="Grupo_25271" data-name="Grupo 25271">
      <g id="Grupo_25270" data-name="Grupo 25270">
        <g id="Grupo_25269" data-name="Grupo 25269">
          <g id="Grupo_25268" data-name="Grupo 25268">
            <g id="Grupo_25267" data-name="Grupo 25267">
              <path id="Trazado_18171" data-name="Trazado 18171" d="M442.715,225.9s-.2-3.4.656-4.954c.477-.863,1.672-2.332,1.455-4.057,0,0,3.213.1,4.234-.9v4.383S448.244,223.822,442.715,225.9Z" fill="#e8a476"/>
            </g>
          </g>
        </g>
      </g>
    </g>
    <g id="Grupo_25276" data-name="Grupo 25276">
      <g id="Grupo_25275" data-name="Grupo 25275">
        <g id="Grupo_25274" data-name="Grupo 25274">
          <g id="Grupo_25273" data-name="Grupo 25273">
            <g id="Grupo_25272" data-name="Grupo 25272">
              <path id="Trazado_18172" data-name="Trazado 18172" d="M450.307,218.824a2.747,2.747,0,0,1-.276-.362c-1.213,2.2-4.8,4.271-4.8,4.271Z" fill="#f7fcfc"/>
            </g>
          </g>
        </g>
      </g>
    </g>
    <g id="Grupo_25281" data-name="Grupo 25281">
      <g id="Grupo_25280" data-name="Grupo 25280">
        <g id="Grupo_25279" data-name="Grupo 25279">
          <g id="Grupo_25278" data-name="Grupo 25278">
            <g id="Grupo_25277" data-name="Grupo 25277">
              <path id="Trazado_18173" data-name="Trazado 18173" d="M441.978,210.982s-1.484,6.139,2.2,8.98l.883-2.531s-1.467-6.156-1-7.674C444.053,209.757,442.846,208.076,441.978,210.982Z" fill="#3f2212"/>
            </g>
          </g>
        </g>
      </g>
    </g>
    <g id="Grupo_25286" data-name="Grupo 25286">
      <g id="Grupo_25285" data-name="Grupo 25285">
        <g id="Grupo_25284" data-name="Grupo 25284">
          <g id="Grupo_25283" data-name="Grupo 25283">
            <g id="Grupo_25282" data-name="Grupo 25282">
              <path id="Trazado_18174" data-name="Trazado 18174" d="M443.863,209.5s-.459.3-.459,2.185c0,0-.455.369-.66,2.4,0,0,.193,3.195,1.467,3.195,0,0,4.49.445,5.508-1.182,0,0,1.834-2.7,1.834-4.367a4.692,4.692,0,0,0-1.375-3.812C449.184,207.08,445.252,206.2,443.863,209.5Z" fill="#f2b387"/>
            </g>
          </g>
        </g>
      </g>
    </g>
    <g id="Grupo_25291" data-name="Grupo 25291">
      <g id="Grupo_25290" data-name="Grupo 25290">
        <g id="Grupo_25289" data-name="Grupo 25289">
          <g id="Grupo_25288" data-name="Grupo 25288">
            <g id="Grupo_25287" data-name="Grupo 25287">
              <path id="Trazado_18175" data-name="Trazado 18175" d="M448.254,208.873s-3.754.021-5.176,1.414l-.83.513s-.373-3.19,3.725-5.351c0,0,3.8-1.055,5.808.914a20.332,20.332,0,0,0-1.929,1A20.111,20.111,0,0,0,448.254,208.873Z" fill="#3f2212"/>
            </g>
          </g>
        </g>
      </g>
    </g>
    <g id="Grupo_25294" data-name="Grupo 25294">
      <g id="Grupo_25293" data-name="Grupo 25293">
        <g id="Grupo_25292" data-name="Grupo 25292">
          <path id="Trazado_18176" data-name="Trazado 18176" d="M445.035,217.332s1.945,2.3,1.432,3.57a14.735,14.735,0,0,0,1.8-3.889A14.032,14.032,0,0,1,445.035,217.332Z" fill="#db9669" fill-rule="evenodd"/>
        </g>
      </g>
    </g>
    <g id="Grupo_25297" data-name="Grupo 25297">
      <g id="Grupo_25296" data-name="Grupo 25296">
        <g id="Grupo_25295" data-name="Grupo 25295">
          <path id="Trazado_18177" data-name="Trazado 18177" d="M446.58,209a4.52,4.52,0,0,0,1.037,2.26c.483.443-.51,1.155-.8,1.446s-.8.845-.24,1.4c.832.833.424,1.876-1.541,3.222a18.676,18.676,0,0,0,3.236-.319s1.209-2.394-.027-8.14C448.244,208.873,447.535,208.924,446.58,209Z" fill="#e8a476" fill-rule="evenodd"/>
        </g>
      </g>
    </g>
    <g id="Grupo_25300" data-name="Grupo 25300">
      <g id="Grupo_25299" data-name="Grupo 25299">
        <g id="Grupo_25298" data-name="Grupo 25298">
          <path id="Trazado_18178" data-name="Trazado 18178" d="M451.092,205.838a5.879,5.879,0,0,0-7.721,1.481,6.061,6.061,0,0,0-1.117,2.913s1.328-2.676,2.279-3.086a3.4,3.4,0,0,0-.832,1.778s1.815-2.268,2.781-2.268a6.367,6.367,0,0,0-.945,1.711s2.252-1.721,2.707-1.545c0,0-1.1.671-1.1,1.545a4.12,4.12,0,0,1,1.825-1.221A5.923,5.923,0,0,1,451.092,205.838Z" fill="#301808" fill-rule="evenodd"/>
        </g>
      </g>
    </g>
    <g id="Grupo_25305" data-name="Grupo 25305">
      <g id="Grupo_25304" data-name="Grupo 25304">
        <g id="Grupo_25303" data-name="Grupo 25303">
          <g id="Grupo_25302" data-name="Grupo 25302">
            <g id="Grupo_25301" data-name="Grupo 25301">
              <path id="Trazado_18179" data-name="Trazado 18179" d="M451.084,205.833c.264.208.633.42.855.637,4.256,4.11,1.561,9.751.268,12.145-2.4,4.436-8.506,5.652-8.506,5.652,7.852-7.688,4.443-15.693,4.443-15.693Z" fill="#3f210a"/>
            </g>
          </g>
        </g>
      </g>
    </g>
    <g id="Grupo_25308" data-name="Grupo 25308">
      <g id="Grupo_25307" data-name="Grupo 25307">
        <g id="Grupo_25306" data-name="Grupo 25306">
          <path id="Trazado_18180" data-name="Trazado 18180" d="M448.244,208.873s.973,4.775.3,7.113c0,0,1.133-2.795.834-4.194a5.122,5.122,0,0,1,.357,2.827,10.736,10.736,0,0,0,.516-3.242,3.871,3.871,0,0,1,.752,2.4c0,1.52.426-2.112,0-3.271a4.191,4.191,0,0,1,1.267,2.6,5.314,5.314,0,0,0-.718-3.268,4.018,4.018,0,0,1,1.418,3.377,7.849,7.849,0,0,0-.588-4.287s2.666,2.984,1.359,6.126c0,0,2.237-5.91-2.648-9.212C451.092,205.838,448.244,206.724,448.244,208.873Z" fill="#4f2b0c" fill-rule="evenodd"/>
        </g>
      </g>
    </g>
    <g id="Grupo_25311" data-name="Grupo 25311">
      <g id="Grupo_25310" data-name="Grupo 25310">
        <g id="Grupo_25309" data-name="Grupo 25309">
          <path id="Trazado_18181" data-name="Trazado 18181" d="M450.867,225.516c-2.242,4.5-5.555,13.046-3.965,13.837.6.3,3.471-.611,4.141-2.082,1.572-3.441,4.168-6.785,5.57-9.6,2.239-4.507,2.91-6.721,1.321-7.512S453.109,221.011,450.867,225.516Z" fill="#192328"/>
        </g>
      </g>
    </g>
    <g id="Grupo_25322" data-name="Grupo 25322">
      <g id="Grupo_25316" data-name="Grupo 25316">
        <g id="Grupo_25315" data-name="Grupo 25315">
          <g id="Grupo_25314" data-name="Grupo 25314">
            <g id="Grupo_25313" data-name="Grupo 25313">
              <g id="Grupo_25312" data-name="Grupo 25312">
                <path id="Trazado_18182" data-name="Trazado 18182" d="M460.379,221.892c-.561,1.375-3.358-.5-3.02.5a11.15,11.15,0,0,1,.414,4.582,90.9,90.9,0,0,0,.317,9.242,2.118,2.118,0,0,1-.112.658l-.433,1.526c-.358,1.031-1.881,1.391-2.965,1.128l-.031-.009a2.619,2.619,0,0,1-1.811-1.892s-.6-.292-.486-2.188c.185-3.028.353-6.663.588-8.875C453.92,216.314,460.379,221.892,460.379,221.892Z" fill="#192328" fill-rule="evenodd"/>
              </g>
            </g>
          </g>
        </g>
      </g>
      <g id="Grupo_25321" data-name="Grupo 25321">
        <g id="Grupo_25320" data-name="Grupo 25320">
          <g id="Grupo_25319" data-name="Grupo 25319">
            <g id="Grupo_25318" data-name="Grupo 25318">
              <g id="Grupo_25317" data-name="Grupo 25317">
                <path id="Trazado_18183" data-name="Trazado 18183" d="M457.656,235.331a2.672,2.672,0,0,1,.344,1.778,17.139,17.139,0,0,1-.59,2.982l-1.967,8c-.052.191-.228,1.148-.431,1.22a2.637,2.637,0,0,1-2.991-1.4s-.6-8.569.364-11.6C453.215,233.7,457.193,234.262,457.656,235.331Z" fill="#192328" fill-rule="evenodd"/>
              </g>
            </g>
          </g>
        </g>
      </g>
    </g>
    <g id="Grupo_25327" data-name="Grupo 25327">
      <g id="Grupo_25326" data-name="Grupo 25326">
        <g id="Grupo_25325" data-name="Grupo 25325">
          <g id="Grupo_25324" data-name="Grupo 25324">
            <g id="Grupo_25323" data-name="Grupo 25323">
              <path id="Trazado_18184" data-name="Trazado 18184" d="M458.225,220.49s-5.231-2.3-4.881,14.746c0,0,.115,10.176-.694,12.6-.841,2.518-.357,1.728.129,1.013.434-.637.926,3.085,9.043,4.286,2.6.383,3.186,3.309,6.408,2.4a2.762,2.762,0,0,0,.936-1.67c0-1.765-2.955-8.957-2.174-13.986.715-4.582,3.543-9.864,2.785-12.756A20.589,20.589,0,0,0,458.225,220.49Z" fill="#cde9f5"/>
            </g>
          </g>
        </g>
      </g>
    </g>
    <g id="Grupo_25332" data-name="Grupo 25332">
      <g id="Grupo_25331" data-name="Grupo 25331">
        <g id="Grupo_25330" data-name="Grupo 25330">
          <g id="Grupo_25329" data-name="Grupo 25329">
            <g id="Grupo_25328" data-name="Grupo 25328">
              <path id="Trazado_18185" data-name="Trazado 18185" d="M461.613,221.412s-6.224.518-7.029,12.3c-.69,10.075-.744,18.509-.744,20.122a9.21,9.21,0,0,1-2.074-1.227c-.571-.568,2.119-7.8,1.429-18.231C453.2,234.378,450.578,214.5,461.613,221.412Z" fill="#1d282d"/>
            </g>
          </g>
        </g>
      </g>
    </g>
    <g id="Grupo_25337" data-name="Grupo 25337">
      <g id="Grupo_25336" data-name="Grupo 25336">
        <g id="Grupo_25335" data-name="Grupo 25335">
          <g id="Grupo_25334" data-name="Grupo 25334">
            <g id="Grupo_25333" data-name="Grupo 25333">
              <path id="Trazado_18186" data-name="Trazado 18186" d="M460.631,219.619s-5.766-1.973-6.791,9.915l.873,1.065-1.254.508s.316,7.641.469,15.781a179.277,179.277,0,0,1,2.566-19.5S457.141,221.789,460.631,219.619Z" fill="#212e33"/>
            </g>
          </g>
        </g>
      </g>
    </g>
    <g id="Grupo_25342" data-name="Grupo 25342">
      <g id="Grupo_25341" data-name="Grupo 25341">
        <g id="Grupo_25340" data-name="Grupo 25340">
          <g id="Grupo_25339" data-name="Grupo 25339">
            <g id="Grupo_25338" data-name="Grupo 25338">
              <path id="Trazado_18187" data-name="Trazado 18187" d="M463.459,221.822s-.246-.053.027.127c1.25.822,1.106,4.32-1.724,8.361,0,0-5.748,15.992-1.289,27.237,0,0,5.6,1.492,8.91-2.938.709-.947-1.871-5.707-2.11-10.658s.911-7.581,3.424-14.91c0,0,.332-3.115-3.974-5.4C464.043,222.226,463.459,221.822,463.459,221.822Z" fill="#1d282d"/>
            </g>
          </g>
        </g>
      </g>
    </g>
    <g id="Grupo_25347" data-name="Grupo 25347">
      <g id="Grupo_25346" data-name="Grupo 25346">
        <g id="Grupo_25345" data-name="Grupo 25345">
          <g id="Grupo_25344" data-name="Grupo 25344">
            <g id="Grupo_25343" data-name="Grupo 25343">
              <path id="Trazado_18188" data-name="Trazado 18188" d="M461.762,230.31s-5.748,15.992-1.289,27.237l.17.037a7.721,7.721,0,0,0,4.757-3c.709-.945-.445-5.68-.683-10.631s2.476-11.044,4.99-18.373a24.646,24.646,0,0,0-11.3-5.959C458.848,221.058,469.9,220.671,461.762,230.31Z" fill="#1d282d"/>
            </g>
          </g>
        </g>
      </g>
    </g>
    <g id="Grupo_25352" data-name="Grupo 25352">
      <g id="Grupo_25351" data-name="Grupo 25351">
        <g id="Grupo_25350" data-name="Grupo 25350">
          <g id="Grupo_25349" data-name="Grupo 25349">
            <g id="Grupo_25348" data-name="Grupo 25348">
              <path id="Trazado_18189" data-name="Trazado 18189" d="M466.742,222.671c.885.653,3.522,2.44,3.863,3.482.539,1.66-2.753,3.434-7.918,12.181-2.466,4.178-1.9,11.458,2.217,19.2a8.472,8.472,0,0,1-4.426.051s-4.507-12.247,0-22c4.979-10.772,1.694-14.411,1.694-15.394C462.172,220.188,466.018,222.136,466.742,222.671Z" fill="#192328"/>
            </g>
          </g>
        </g>
      </g>
    </g>
    <g id="Grupo_25358" data-name="Grupo 25358" opacity="0.1">
      <g id="Grupo_25357" data-name="Grupo 25357">
        <g id="Grupo_25356" data-name="Grupo 25356">
          <g id="Grupo_25355" data-name="Grupo 25355">
            <g id="Grupo_25354" data-name="Grupo 25354">
              <g id="Grupo_25353" data-name="Grupo 25353">
                <path id="Trazado_18190" data-name="Trazado 18190" d="M459.322,224.166l.565,2.6s3.826.246,4.705-2.367l-.483.437-4.787-.665Z"/>
              </g>
            </g>
          </g>
        </g>
      </g>
    </g>
    <g id="Grupo_25363" data-name="Grupo 25363">
      <g id="Grupo_25362" data-name="Grupo 25362">
        <g id="Grupo_25361" data-name="Grupo 25361">
          <g id="Grupo_25360" data-name="Grupo 25360">
            <g id="Grupo_25359" data-name="Grupo 25359">
              <path id="Trazado_18191" data-name="Trazado 18191" d="M459.887,223.652l-2.842.943s-.334-3.847,3.49-3.847Z" fill="#e9f8fd"/>
            </g>
          </g>
        </g>
      </g>
    </g>
    <g id="Grupo_25368" data-name="Grupo 25368">
      <g id="Grupo_25367" data-name="Grupo 25367">
        <g id="Grupo_25366" data-name="Grupo 25366">
          <g id="Grupo_25365" data-name="Grupo 25365">
            <g id="Grupo_25364" data-name="Grupo 25364">
              <path id="Trazado_18192" data-name="Trazado 18192" d="M457.367,224.488l.633,2.633,2.176-1.145-.482-2.32Z" fill="#051d2d"/>
            </g>
          </g>
        </g>
      </g>
    </g>
    <g id="Grupo_25373" data-name="Grupo 25373">
      <g id="Grupo_25372" data-name="Grupo 25372">
        <g id="Grupo_25371" data-name="Grupo 25371">
          <g id="Grupo_25370" data-name="Grupo 25370">
            <g id="Grupo_25369" data-name="Grupo 25369">
              <path id="Trazado_18193" data-name="Trazado 18193" d="M458.143,226.161s-2.715,1.747-2.2,18.651C455.947,244.812,460.264,227.178,458.143,226.161Z" fill="#051d2d"/>
            </g>
          </g>
        </g>
      </g>
    </g>
    <g id="Grupo_25379" data-name="Grupo 25379" opacity="0.1">
      <g id="Grupo_25378" data-name="Grupo 25378">
        <g id="Grupo_25377" data-name="Grupo 25377">
          <g id="Grupo_25376" data-name="Grupo 25376">
            <g id="Grupo_25375" data-name="Grupo 25375">
              <g id="Grupo_25374" data-name="Grupo 25374">
                <path id="Trazado_18194" data-name="Trazado 18194" d="M463.158,226.464s-4.471,14.573-4.074,25.5C459.084,251.967,454.584,233.714,463.158,226.464Z"/>
              </g>
            </g>
          </g>
        </g>
      </g>
    </g>
    <g id="Grupo_25384" data-name="Grupo 25384">
      <g id="Grupo_25383" data-name="Grupo 25383">
        <g id="Grupo_25382" data-name="Grupo 25382">
          <g id="Grupo_25381" data-name="Grupo 25381">
            <g id="Grupo_25380" data-name="Grupo 25380">
              <path id="Trazado_18195" data-name="Trazado 18195" d="M463.25,221.279h0c4.492,1.391,2.672,2.835-.967,13.151h-1.219l.7,1.531s-3,7.6-2.955,13.132c0,0-1.245-10.492,2.334-19.079C461.141,230.014,464.664,224.775,463.25,221.279Z" fill="#212e33"/>
            </g>
          </g>
        </g>
      </g>
    </g>
    <g id="Grupo_25389" data-name="Grupo 25389">
      <g id="Grupo_25388" data-name="Grupo 25388">
        <g id="Grupo_25387" data-name="Grupo 25387">
          <g id="Grupo_25386" data-name="Grupo 25386">
            <g id="Grupo_25385" data-name="Grupo 25385">
              <path id="Trazado_18196" data-name="Trazado 18196" d="M458.453,220.558a8.164,8.164,0,0,1,.844,3.07s2.912,1.843,5.469-2.72c0,0-1.235-1.053.345-5.165Z" fill="#e8a476"/>
            </g>
          </g>
        </g>
      </g>
    </g>
    <g id="Grupo_25394" data-name="Grupo 25394">
      <g id="Grupo_25393" data-name="Grupo 25393">
        <g id="Grupo_25392" data-name="Grupo 25392">
          <g id="Grupo_25391" data-name="Grupo 25391">
            <g id="Grupo_25390" data-name="Grupo 25390">
              <path id="Trazado_18197" data-name="Trazado 18197" d="M459.693,223.656l.4,2.623a5.424,5.424,0,0,0,4.662-2.4,2.431,2.431,0,0,0-.119-2.85S463.43,223.539,459.693,223.656Z" fill="#e9f8fd"/>
            </g>
          </g>
        </g>
      </g>
    </g>
    <g id="Grupo_25399" data-name="Grupo 25399">
      <g id="Grupo_25398" data-name="Grupo 25398">
        <g id="Grupo_25397" data-name="Grupo 25397">
          <g id="Grupo_25396" data-name="Grupo 25396">
            <g id="Grupo_25395" data-name="Grupo 25395">
              <path id="Trazado_18198" data-name="Trazado 18198" d="M459.248,221.371s3.645-1.153,5.4-.594c0,0-.736-.76-.084-3.225a6.081,6.081,0,0,0,1.67-5.221,3.836,3.836,0,0,0-3.3-3.369S467.168,215.943,459.248,221.371Z" fill="#db9669"/>
            </g>
          </g>
        </g>
      </g>
    </g>
    <g id="Grupo_25404" data-name="Grupo 25404">
      <g id="Grupo_25403" data-name="Grupo 25403">
        <g id="Grupo_25402" data-name="Grupo 25402">
          <g id="Grupo_25401" data-name="Grupo 25401">
            <g id="Grupo_25400" data-name="Grupo 25400">
              <path id="Trazado_18199" data-name="Trazado 18199" d="M456.754,213.341c-.01.471.547.577-.289,2.452-.514,1.16-.319,1.188.054,3.254.211,1.171.737,3.658,4.395,1.812,0,0,3.6-2.574,4.678-4.822s1.031-4.506-.764-6.373C464.828,209.664,456.891,206.474,456.754,213.341Z" fill="#f1b287"/>
            </g>
          </g>
        </g>
      </g>
    </g>
    <g id="Grupo_25407" data-name="Grupo 25407">
      <g id="Grupo_25406" data-name="Grupo 25406">
        <g id="Grupo_25405" data-name="Grupo 25405">
          <path id="Trazado_18200" data-name="Trazado 18200" d="M456.826,212.419a8.637,8.637,0,0,0,3.067,1.593s1.7,0,1.7.633a6.051,6.051,0,0,1-.824,2.483,7.894,7.894,0,0,0-1.366,2.484c0,.329-.535,1.8-1.422,1.8,0,0,2.233.929,5.5-2.706,0,0,2.664-2.66,2.664-3.195s-3.3-2.411-4.212-2.8-4.713-1.867-4.713-1.867S456.863,212.128,456.826,212.419Z" fill="#e8a476" fill-rule="evenodd"/>
        </g>
      </g>
    </g>
    <g id="Grupo_25412" data-name="Grupo 25412">
      <g id="Grupo_25411" data-name="Grupo 25411">
        <g id="Grupo_25410" data-name="Grupo 25410">
          <g id="Grupo_25409" data-name="Grupo 25409">
            <g id="Grupo_25408" data-name="Grupo 25408">
              <path id="Trazado_18201" data-name="Trazado 18201" d="M457.019,211.039c-.091,1.276,2.747,2.088,4.629,2.483.707.149,1.19.75.5,2.749s.493,2.3.58,1.937c.4-1.631,2.168-2.874,1.678-.24,0,0,3.969-3.674,2.768-6.641-.787-1.944-3.143-4.079-7.815-2.744A3.078,3.078,0,0,0,457.019,211.039Z" fill="#3f210a"/>
            </g>
          </g>
        </g>
      </g>
    </g>
    <g id="Grupo_25417" data-name="Grupo 25417">
      <g id="Grupo_25416" data-name="Grupo 25416">
        <g id="Grupo_25415" data-name="Grupo 25415">
          <g id="Grupo_25414" data-name="Grupo 25414">
            <g id="Grupo_25413" data-name="Grupo 25413">
              <path id="Trazado_18202" data-name="Trazado 18202" d="M462.148,216.271c-.689,2.107.545,2.107.545,2.107.4-1.922,2.239-2.613,1.713-.41,0,0,3.969-3.674,2.768-6.641a4.937,4.937,0,0,0-2.108-2.415c2.321,4.344-1.873,4-2.959,4.767C462.525,213.982,462.648,214.742,462.148,216.271Z" fill="#3f210a"/>
            </g>
          </g>
        </g>
      </g>
    </g>
    <g id="Grupo_25420" data-name="Grupo 25420">
      <g id="Grupo_25419" data-name="Grupo 25419">
        <g id="Grupo_25418" data-name="Grupo 25418">
          <path id="Trazado_18203" data-name="Trazado 18203" d="M462.43,215.222s.877-.707.877.2a1.5,1.5,0,0,0,.72-1.248s.639.1.639,1a1.623,1.623,0,0,0,.58-1.466,2.607,2.607,0,0,1,.688,1.521s.925-1.2.722-1.97c0,0,.346.058.346,1.082a3.35,3.35,0,0,0-.164-3.678s-.024,2.346-4.731,3.023A2.318,2.318,0,0,1,462.43,215.222Z" fill="#4f2b0c"/>
        </g>
      </g>
    </g>
    <g id="Grupo_25423" data-name="Grupo 25423">
      <g id="Grupo_25422" data-name="Grupo 25422">
        <g id="Grupo_25421" data-name="Grupo 25421">
          <path id="Trazado_18204" data-name="Trazado 18204" d="M464.027,216.6s1.741.026,2.285-.952a14.945,14.945,0,0,1-1.906,2.319S464.852,216.6,464.027,216.6Z" fill="#361d07"/>
        </g>
      </g>
    </g>
    <g id="Grupo_25426" data-name="Grupo 25426">
      <g id="Grupo_25425" data-name="Grupo 25425">
        <g id="Grupo_25424" data-name="Grupo 25424">
          <path id="Trazado_18205" data-name="Trazado 18205" d="M466.838,210.656s-.133,2.509-4.731,3.023c0,0-3.869-.107-5.037-2.287a1.324,1.324,0,0,1,.194-1.209s-.008,1.04.64,1.331c0,0-.244-.612,0-.858a2.384,2.384,0,0,0,1.176,1.275.741.741,0,0,1,.168-.824,2.926,2.926,0,0,0,1.984,1.72,1.449,1.449,0,0,1-.466-.9s1.259,1.127,2.248.865c0,0-.8-.39-.8-.865,0,0,1.625.709,2.586,0a1.235,1.235,0,0,1-.965-.417S466.352,211.779,466.838,210.656Z" fill="#301808"/>
        </g>
      </g>
    </g>
    <g id="Grupo_25429" data-name="Grupo 25429">
      <g id="Grupo_25428" data-name="Grupo 25428">
        <g id="Grupo_25427" data-name="Grupo 25427">
          <path id="Trazado_18206" data-name="Trazado 18206" d="M466.146,209.763s-2.753-3.086-7.693-.783c0,0,2.061-.279,2.766-.279s-.563.41-1.219.562a22.765,22.765,0,0,0,2.8-.107c.873,0,2.416.294,1.332.458S465.963,209.58,466.146,209.763Z" fill="#4c260c"/>
        </g>
      </g>
    </g>
    <g id="Grupo_25440" data-name="Grupo 25440">
      <g id="Grupo_25434" data-name="Grupo 25434">
        <g id="Grupo_25433" data-name="Grupo 25433">
          <g id="Grupo_25432" data-name="Grupo 25432">
            <g id="Grupo_25431" data-name="Grupo 25431">
              <g id="Grupo_25430" data-name="Grupo 25430">
                <path id="Trazado_18207" data-name="Trazado 18207" d="M467.477,251.258c-1.92.189-3.323,2.873-3.653,3.131-.607.47-2.408.214-3.236-.438a1.393,1.393,0,0,1-.615-1l1.25.09h0c.556.158.861-.74,1.191-1.08s.309-.7-.129-.576c-.41.117-.769.461-1.068.459-.28,0-.553-.539.076-1.018.91-.6.891-1,2.367-1.019.484,0,.75.109,1.748-.772Z" fill="#f1b287" fill-rule="evenodd"/>
              </g>
            </g>
          </g>
        </g>
      </g>
      <g id="Grupo_25439" data-name="Grupo 25439">
        <g id="Grupo_25438" data-name="Grupo 25438">
          <g id="Grupo_25437" data-name="Grupo 25437">
            <g id="Grupo_25436" data-name="Grupo 25436">
              <g id="Grupo_25435" data-name="Grupo 25435">
                <path id="Trazado_18208" data-name="Trazado 18208" d="M467.477,251.258c-1.864.182-3.293,2.914-3.653,3.131-.711.427-1.658.236-2.832-.188.586-.058,1.526.467,2.553-.767a23.857,23.857,0,0,1,3.394-2.755c-.414-.365-1.531-1.648-1.531-1.648.242-.1-.348.224,0,0Z" fill="#e8a476" fill-rule="evenodd"/>
              </g>
            </g>
          </g>
        </g>
      </g>
    </g>
    <path id="Trazado_18209" data-name="Trazado 18209" d="M475.824,241.683a6.624,6.624,0,0,0-.26-1.662c-.009-.047,0-.1-.017-.143,0,0-2.369-6.319-3.006-9.211a12.356,12.356,0,0,0-1.734-4.5c-.612-.91-1.125-1.844-2.692-1.72-1.367.109-3.207,2.187-1.965,5.851.752,2.222,2.475,6.567,3.739,9.5.146.341.265.65.375.942-2.7,2.883-6.662,8.056-6.662,8.056-.256,1,1.24,3.7,2.375,3.938.207.045.876-.715,1.025-.855l6.012-6.08a18.744,18.744,0,0,0,2.121-2.345C475.65,242.724,475.867,242.681,475.824,241.683Z" fill="#192328" fill-rule="evenodd"/>
    <g id="Grupo_25443" data-name="Grupo 25443">
      <g id="Grupo_25442" data-name="Grupo 25442">
        <g id="Grupo_25441" data-name="Grupo 25441">
          <path id="Trazado_18210" data-name="Trazado 18210" d="M459.693,223.656l-2.326.832.442,1.976s-2.809-.053-1.862,18.348c0,0,.36-14.227,2.053-17.691C458,227.121,457.9,224.548,459.693,223.656Z" fill="#041721"/>
        </g>
      </g>
    </g>
    <g id="Grupo_25446" data-name="Grupo 25446">
      <g id="Grupo_25445" data-name="Grupo 25445">
        <g id="Grupo_25444" data-name="Grupo 25444">
          <path id="Trazado_18211" data-name="Trazado 18211" d="M457.287,243.1c.3-.5.555-.466,1-.472a6.742,6.742,0,0,1,2.357.022c.2.076.629.168.737.406.14.3-.19.565-.176.862.018.376.254.287.094.753-.049.151-.159.207-.18.372s.146.345.105.514-.168.233-.248.336c-.056.071-.173.044-.234.132-.045.07,0,.172-.023.232a1.965,1.965,0,0,1-.58.707c-.59.532-1.637.709-2-.13.034-.045.02.038-.209-.018a1.434,1.434,0,0,1-.734-.541c-.2-.242-.9-1.625-.412-1.868A6.523,6.523,0,0,1,457.287,243.1Z" fill="#f1b287"/>
        </g>
      </g>
    </g>
    <g id="Grupo_25449" data-name="Grupo 25449">
      <g id="Grupo_25448" data-name="Grupo 25448">
        <g id="Grupo_25447" data-name="Grupo 25447">
          <path id="Trazado_18212" data-name="Trazado 18212" d="M448,241.582c3.35,2.726,8.771,5.3,9.709,3.832.353-.553,1.5-1.722.584-2.79-1.443-1.68-4.832-2.37-8.207-6.089-.66-.727-1.615,2.363-2.709,1C446.547,236.507,445.631,239.655,448,241.582Z" fill="#192328"/>
        </g>
      </g>
    </g>
    <path id="Trazado_18213" data-name="Trazado 18213" d="M465.977,252.738c.207.045.876-.715,1.025-.855l6.012-6.08a18.744,18.744,0,0,0,2.121-2.345c.515-.734.732-.777.689-1.775a6.624,6.624,0,0,0-.26-1.662c-.009-.047,0-.1-.017-.143,0,0-2.369-6.319-3.006-9.211a12.356,12.356,0,0,0-1.734-4.5c-.612-.91-1.125-1.844-2.692-1.72a1.555,1.555,0,0,0-.263.045c1.412,3.236,6.412,14.914,5.765,16.64-.6,1.612-6.89,7.606-9.355,9.913C464.746,251.877,465.406,252.617,465.977,252.738Z" fill="#131b1e"/>
    <path id="Trazado_18214" data-name="Trazado 18214" d="M458.291,242.624c-1.443-1.68-4.832-2.37-8.207-6.089-.27-.3-.592.048-.951.463a2.352,2.352,0,0,0,.072.872c.588,1.919,6.762,4.913,9.352,6.1A1.334,1.334,0,0,0,458.291,242.624Z" fill="#131b1e"/>
    <g id="Grupo_25460" data-name="Grupo 25460">
      <g id="Grupo_25454" data-name="Grupo 25454">
        <g id="Grupo_25453" data-name="Grupo 25453">
          <g id="Grupo_25452" data-name="Grupo 25452">
            <g id="Grupo_25451" data-name="Grupo 25451">
              <g id="Grupo_25450" data-name="Grupo 25450">
                <path id="Trazado_18215" data-name="Trazado 18215" d="M452.047,238.023c-1.44-1.035-2.975.044-3.391-.025-.756-.126-1.787-1.625-1.867-2.677a1.384,1.384,0,0,1,.32-1.132l.782.978h0c.259.519,1.125.134,1.6.147s.725-.247.336-.484c-.361-.221-.859-.254-1.06-.476-.188-.206.023-.771.8-.632,1.055.262,1.342-.023,2.352,1.053l.332.352.017,1.523Z" fill="#f1b287" fill-rule="evenodd"/>
              </g>
            </g>
          </g>
        </g>
      </g>
      <g id="Grupo_25459" data-name="Grupo 25459">
        <g id="Grupo_25458" data-name="Grupo 25458">
          <g id="Grupo_25457" data-name="Grupo 25457">
            <g id="Grupo_25456" data-name="Grupo 25456">
              <g id="Grupo_25455" data-name="Grupo 25455">
                <path id="Trazado_18216" data-name="Trazado 18216" d="M452.047,238.023c-1.541-.205-2.987.094-3.391-.025-.793-.231-1.3-1.061-1.779-2.211.441.394.689,1.437,2.295,1.359a9.738,9.738,0,0,1,2.963.056l-.008.29-.012-.24Z" fill="#e8a476" fill-rule="evenodd"/>
              </g>
            </g>
          </g>
        </g>
      </g>
    </g>
  </g>
</svg>
