<svg xmlns="http://www.w3.org/2000/svg" width="154" height="150" viewBox="0 0 154 150">
  <g id="Grupo_25819" data-name="Grupo 25819" transform="translate(-521 -2807)">
    <text id="Evaluación_del_servicio_y_acciones_correctivas" data-name="Evaluación del
servicio y acciones
correctivas" transform="translate(598 2912)" fill="#111e61" font-size="18" font-family="Roboto-Medium, Roboto" font-weight="500"><tspan x="-57.986" y="0">Evaluación del</tspan><tspan x="-76.658" y="20">servicio y acciones</tspan><tspan x="-44.895" y="40">correctivas</tspan></text>
    <g id="clasificacion" transform="translate(558 2801.5)">
      <path id="Trazado_19322" data-name="Trazado 19322" d="M88.833,44.417A38.917,38.917,0,1,1,49.917,5.5,38.917,38.917,0,0,1,88.833,44.417Z" transform="translate(-9.253)" fill="#fdbf43"/>
      <path id="Trazado_19323" data-name="Trazado 19323" d="M11.072,235.5h77.69q.071,1.182.072,2.383a38.767,38.767,0,0,1-9.582,25.574H20.582A38.767,38.767,0,0,1,11,237.883q0-1.2.072-2.383Z" transform="translate(-9.253 -193.466)" fill="#f4aa39"/>
      <path id="Trazado_19324" data-name="Trazado 19324" d="M299.083,121.758A16.758,16.758,0,0,1,315.841,105h6.579a.794.794,0,0,1,.794.794v15.964a.794.794,0,0,1-.794.794H299.877A.794.794,0,0,1,299.083,121.758Z" transform="translate(-251.576 -83.695)" fill="#05a2f9"/>
      <path id="Trazado_19325" data-name="Trazado 19325" d="M340.5,121.758A16.758,16.758,0,0,1,357.258,105a.794.794,0,0,1,.794.794v15.964a.794.794,0,0,1-.794.794H341.294A.794.794,0,0,1,340.5,121.758Z" transform="translate(-286.414 -83.695)" fill="#63bcfa"/>
      <path id="Trazado_19326" data-name="Trazado 19326" d="M71,261.709V236.294a.794.794,0,0,1,.794-.794h3.177a.794.794,0,0,1,.794.794v25.415a.794.794,0,0,1-.794.794H71.794A.794.794,0,0,1,71,261.709Z" transform="translate(-59.722 -193.466)" fill="#b63b35"/>
      <path id="Trazado_19327" data-name="Trazado 19327" d="M51,277.413v-3.971a7.942,7.942,0,0,1,7.942-7.942h54.8a.794.794,0,0,1,.794.794v11.119a.794.794,0,0,1-.794.794H51.794A.794.794,0,0,1,51,277.413Z" transform="translate(-42.899 -218.701)" fill="#dd5c56"/>
      <path id="Trazado_19328" data-name="Trazado 19328" d="M41,213.767V203.442a7.942,7.942,0,0,1,7.942-7.942h3.812a.794.794,0,0,1,.794.794v17.473a.794.794,0,0,1-.794.794H41.794A.794.794,0,0,1,41,213.767Z" transform="translate(-34.487 -159.82)" fill="#1f3595"/>
      <path id="Trazado_19329" data-name="Trazado 19329" d="M77.354,195.5h30.021a3.177,3.177,0,0,1,3.177,3.177v12.707a3.177,3.177,0,0,1-3.177,3.177H71V201.854A6.354,6.354,0,0,1,77.354,195.5Z" transform="translate(-59.722 -159.82)" fill="#314dc8"/>
      <path id="Trazado_19330" data-name="Trazado 19330" d="M300,195.5h17.473v15.884a3.177,3.177,0,0,1-3.177,3.177H300Z" transform="translate(-252.347 -159.82)" fill="#bbe0fb"/>
      <path id="Trazado_19331" data-name="Trazado 19331" d="M348.573,214.561H340.75V195.5h11v15.884A3.177,3.177,0,0,1,348.573,214.561Z" transform="translate(-286.624 -159.82)" fill="#fff5f5"/>
      <path id="Trazado_19332" data-name="Trazado 19332" d="M103.39,396.247c6.793,0,8.928,7.456,2.816,10.419A38.949,38.949,0,0,1,57.764,394.5H72.415a7.642,7.642,0,0,0,4.863,1.747Z" transform="translate(-48.589 -327.21)" fill="#003278"/>
      <path id="Trazado_19333" data-name="Trazado 19333" d="M167.953,404.031h-8.422A9.531,9.531,0,0,1,150,394.5h7.942l1.8,1.747,17.741-.159S173.216,404.031,167.953,404.031Z" transform="translate(-126.173 -327.21)" fill="#fd2aa7"/>
      <path id="Trazado_19334" data-name="Trazado 19334" d="M220.65,404.031H209.531A9.531,9.531,0,0,1,200,394.5h30.18A9.531,9.531,0,0,1,220.65,404.031Z" transform="translate(-168.231 -327.21)" fill="#fd4fb6"/>
      <path id="Trazado_19335" data-name="Trazado 19335" d="M445.765,58.794v44.055a38.986,38.986,0,0,1-4.011,5.945A.794.794,0,0,1,441,108V58.794a.794.794,0,0,1,.794-.794h3.177a.794.794,0,0,1,.794.794Z" transform="translate(-370.95 -44.161)" fill="#b63b35"/>
      <path id="Trazado_19336" data-name="Trazado 19336" d="M412.707,229.265a4.765,4.765,0,0,1-4.765,4.765h-3.177a4.765,4.765,0,0,1,0-9.531h3.177A4.765,4.765,0,0,1,412.707,229.265Z" transform="translate(-336.463 -184.213)" fill="#bbe0fb"/>
      <path id="Trazado_19337" data-name="Trazado 19337" d="M433.971,234.314a4.766,4.766,0,1,1,3.971-4.7A4.767,4.767,0,0,1,433.971,234.314Z" transform="translate(-361.697 -184.562)" fill="#fff5f5"/>
      <path id="Trazado_19338" data-name="Trazado 19338" d="M404.5,166.11l2.269,9.531a.794.794,0,0,1-.773.978H392.122a.794.794,0,0,1-.773-.978l2.269-9.531a.794.794,0,0,1,.773-.61h9.335A.794.794,0,0,1,404.5,166.11Z" transform="translate(-329.168 -134.585)" fill="#d80d80"/>
      <path id="Trazado_19339" data-name="Trazado 19339" d="M420.117,176.619c0-.012.005-.025.008-.037l2.639-11.082h5.179a.794.794,0,0,1,.773.61l2.269,9.531a.794.794,0,0,1-.773.978Z" transform="translate(-353.384 -134.585)" fill="#fd2aa7"/>
      <path id="Trazado_19340" data-name="Trazado 19340" d="M360,284.5h22.025A38.957,38.957,0,0,1,360,314.346Z" transform="translate(-302.816 -234.683)" fill="#99302b"/>
      <path id="Trazado_19341" data-name="Trazado 19341" d="M390,284.5h17.26A38.92,38.92,0,0,1,390,311.685Z" transform="translate(-328.051 -234.683)" fill="#d73131"/>
      <path id="Trazado_19342" data-name="Trazado 19342" d="M365.09,279.265h-14.3a.794.794,0,0,1-.794-.794v-3.177a.794.794,0,0,1,.794-.794h14.3a.794.794,0,0,1,.794.794v3.177A.794.794,0,0,1,365.09,279.265Z" transform="translate(-294.405 -226.271)" fill="#dd5c56"/>
      <path id="Trazado_19343" data-name="Trazado 19343" d="M398.272,279.265H380.794a.794.794,0,0,1-.794-.794v-3.177a.794.794,0,0,1,.794-.794h18.241A38.805,38.805,0,0,1,398.272,279.265Z" transform="translate(-319.64 -226.271)" fill="#ed6161"/>
      <path id="Trazado_19344" data-name="Trazado 19344" d="M363.5,331.413v3.177a2.374,2.374,0,0,1-.078.6q-.824.876-1.7,1.7a2.38,2.38,0,0,1-.6.078h-9.531v-1.588h9.531a.8.8,0,0,0,.794-.794v-3.177a.8.8,0,0,0-.794-.794h-7.545a1.191,1.191,0,0,1,0,2.383h-2.383a1.191,1.191,0,0,1,0-2.383h.4v-1.588h9.531A2.385,2.385,0,0,1,363.5,331.413ZM361.119,319.5h-9.531v1.588h9.531a.8.8,0,0,1,.794.794v3.177a.8.8,0,0,1-.794.794h-9.531v1.588h9.531a2.385,2.385,0,0,0,2.383-2.383v-3.177A2.385,2.385,0,0,0,361.119,319.5Zm-9.928,4.368h2.383a1.191,1.191,0,0,0,0-2.383h-2.383a1.191,1.191,0,0,0,0,2.383Z" transform="translate(-294.405 -264.123)" fill="#99302b"/>
      <path id="Trazado_19345" data-name="Trazado 19345" d="M50.83,7.883V20.59a2.383,2.383,0,0,1-2.383,2.383H2.383A2.383,2.383,0,0,1,0,20.59V7.883A2.383,2.383,0,0,1,2.383,5.5H48.447A2.383,2.383,0,0,1,50.83,7.883Z" fill="#c92c2c"/>
      <path id="Trazado_19346" data-name="Trazado 19346" d="M79.241,7.883V20.59a2.383,2.383,0,0,1-2.383,2.383H55.922l-4.611,6.945a.794.794,0,0,1-1.323,0l-4.611-6.945H32.383A2.383,2.383,0,0,1,30,20.59V7.883A2.383,2.383,0,0,1,32.383,5.5H76.859a2.383,2.383,0,0,1,2.383,2.383Z" transform="translate(-25.235 0)" fill="#f52c2c"/>
      <path id="Trazado_19347" data-name="Trazado 19347" d="M274.515,35.372l1.036,2.1a.342.342,0,0,0,.258.187l2.317.337a.342.342,0,0,1,.19.584l-1.676,1.634a.342.342,0,0,0-.1.3l.4,2.307a.342.342,0,0,1-.5.361L274.367,42.1a.342.342,0,0,0-.319,0l-2.072,1.089a.342.342,0,0,1-.5-.361l.4-2.307a.342.342,0,0,0-.1-.3L270.1,38.58a.342.342,0,0,1,.19-.584l2.317-.337a.342.342,0,0,0,.258-.187l1.036-2.1A.343.343,0,0,1,274.515,35.372Z" transform="translate(-227.11 -24.967)" fill="#a62b2b"/>
      <path id="Trazado_19348" data-name="Trazado 19348" d="M25.3,38.579l-1.676,1.634a.342.342,0,0,0-.1.3l.4,2.307a.342.342,0,0,1-.5.361l-2.072-1.09a.342.342,0,0,0-.319,0l-2.072,1.09a.342.342,0,0,1-.5-.361l.4-2.307a.342.342,0,0,0-.1-.3l-1.676-1.634a.342.342,0,0,1,.19-.584l2.317-.337a.342.342,0,0,0,.258-.187l1.036-2.1a.342.342,0,0,1,.614,0l1.036,2.1a.342.342,0,0,0,.258.187l2.317.337a.342.342,0,0,1,.19.584Zm9.858-.584-2.317-.337a.342.342,0,0,1-.258-.187l-1.036-2.1a.342.342,0,0,0-.614,0l-1.036,2.1a.342.342,0,0,1-.258.187l-2.317.337a.342.342,0,0,0-.19.584l1.676,1.634a.342.342,0,0,1,.1.3l-.4,2.308a.342.342,0,0,0,.5.361l2.072-1.09a.342.342,0,0,1,.319,0l2.072,1.09a.342.342,0,0,0,.5-.361l-.4-2.307a.342.342,0,0,1,.1-.3l1.676-1.634A.343.343,0,0,0,35.155,37.995Zm10.048,0-2.317-.337a.342.342,0,0,1-.258-.187l-1.036-2.1a.342.342,0,0,0-.614,0l-1.036,2.1a.342.342,0,0,1-.258.187l-2.317.337a.342.342,0,0,0-.19.584l1.676,1.634a.342.342,0,0,1,.1.3l-.4,2.307a.342.342,0,0,0,.5.361l2.072-1.09a.342.342,0,0,1,.319,0l2.072,1.09a.342.342,0,0,0,.5-.361l-.4-2.307a.342.342,0,0,1,.1-.3l1.676-1.634A.342.342,0,0,0,45.2,37.995Zm10.237.584a.342.342,0,0,0-.19-.584l-2.317-.337a.342.342,0,0,1-.258-.187l-1.036-2.1a.342.342,0,0,0-.614,0l-1.036,2.1a.342.342,0,0,1-.258.187l-2.317.337a.342.342,0,0,0-.19.584L48.9,40.213a.342.342,0,0,1,.1.3l-.4,2.307a.342.342,0,0,0,.5.361l2.072-1.09a.342.342,0,0,1,.319,0l2.072,1.09a.342.342,0,0,0,.5-.361l-.4-2.307a.342.342,0,0,1,.1-.3Z" transform="translate(-14.282 -24.966)" fill="#fdf061"/>
    </g>
  </g>
</svg>
