<svg xmlns="http://www.w3.org/2000/svg" width="90" height="127.667" viewBox="0 0 90 127.667">
  <g id="Grupo_25811" data-name="Grupo 25811" transform="translate(-197 -2629.333)">
    <text id="Servicio_de_reservas" data-name="Servicio de
reservas" transform="translate(242 2732)" fill="#111e61" font-size="18" font-family="Roboto-Medium, Roboto" font-weight="500"><tspan x="-44.539" y="0">Servicio de</tspan><tspan x="-34.611" y="20">reservas</tspan></text>
    <g id="hotel_2_" data-name="hotel (2)" transform="translate(202 2623.833)">
      <path id="Trazado_19099" data-name="Trazado 19099" d="M78.593,44.233A38.668,38.668,0,0,1,9.773,68.375V48.149A8.278,8.278,0,0,0,1.5,39.87a38.669,38.669,0,0,1,77.1,4.363Z" transform="translate(-1.259 0)" fill="#f19b0b"/>
      <path id="Trazado_19100" data-name="Trazado 19100" d="M168.066,44.167q0,.462-.011.921A31.038,31.038,0,1,1,128.479,5.511q.459-.011.921-.011a38.667,38.667,0,0,1,38.667,38.667Z" transform="translate(-90.733 0)" fill="#f5c02c"/>
      <path id="Trazado_19101" data-name="Trazado 19101" d="M126.591,119.355,124.9,134.583h1.411v21.975H97.551V133.144h11.918a7.4,7.4,0,0,0,7.15-5.5l3.457-12.979a1.937,1.937,0,0,1,2.37-1.373,5.628,5.628,0,0,1,4.145,6.059Z" transform="translate(-82.155 -90.728)" fill="#a95947"/>
      <path id="Trazado_19102" data-name="Trazado 19102" d="M121.289,229.231a1.183,1.183,0,0,1,1.184-1.184,9.875,9.875,0,0,0,9.864-9.864,1.184,1.184,0,0,1,2.367,0,12.245,12.245,0,0,1-12.231,12.231A1.183,1.183,0,0,1,121.289,229.231Zm-15.031,14.719h27.263V238.7H106.258Z" transform="translate(-89.488 -178.12)" fill="#7d402d"/>
      <path id="Trazado_19103" data-name="Trazado 19103" d="M16.77,225.821v23.415a2.545,2.545,0,0,1-2.545,2.545H8.514A38.505,38.505,0,0,1,0,227.573a39.061,39.061,0,0,1,.236-4.3H14.225A2.545,2.545,0,0,1,16.77,225.821Z" transform="translate(0 -183.406)" fill="#01bff9"/>
      <path id="Trazado_19104" data-name="Trazado 19104" d="M36.631,358.057V360.6a2.545,2.545,0,0,1-2.545,2.545H28.375a38.687,38.687,0,0,1-4.792-7.635h10.5a2.545,2.545,0,0,1,2.545,2.545Z" transform="translate(-19.861 -294.772)" fill="#05a2f9"/>
      <path id="Trazado_19105" data-name="Trazado 19105" d="M74.006,238.809V209.087a1.937,1.937,0,0,1,1.937-1.937H79.7a1.937,1.937,0,0,1,1.937,1.937v29.722a1.937,1.937,0,0,1-1.937,1.937H75.943A1.937,1.937,0,0,1,74.006,238.809Z" transform="translate(-62.326 -169.825)" fill="#91cefb"/>
      <path id="Trazado_19106" data-name="Trazado 19106" d="M74.006,231.173V209.087a1.937,1.937,0,0,1,1.937-1.937H79.7a1.937,1.937,0,0,1,1.937,1.937v22.087A1.937,1.937,0,0,1,79.7,233.11H75.943A1.937,1.937,0,0,1,74.006,231.173Z" transform="translate(-62.326 -169.825)" fill="#c7eefd"/>
      <path id="Trazado_19107" data-name="Trazado 19107" d="M290.433,39.025v1.937h.387a1.549,1.549,0,0,1,1.549,1.549v2.711a1.549,1.549,0,0,1-1.549,1.549h-.387V85.507a2.905,2.905,0,0,1-2.905,2.905H258.477a2.905,2.905,0,0,1-2.905-2.905v-58.1a2.905,2.905,0,0,1,2.905-2.905h29.051a2.905,2.905,0,0,1,2.905,2.905v5.81h.387a1.549,1.549,0,0,1,1.549,1.549v2.711a1.549,1.549,0,0,1-1.549,1.549h-.387Z" transform="translate(-215.237 -16.001)" fill="#00429a"/>
      <path id="Trazado_19108" data-name="Trazado 19108" d="M264.287,88.412h-5.81a2.905,2.905,0,0,1-2.905-2.905v-58.1a2.905,2.905,0,0,1,2.905-2.905h5.81a2.905,2.905,0,0,0-2.905,2.905v58.1A2.905,2.905,0,0,0,264.287,88.412Zm12.589-61.975h-7.747a.968.968,0,1,0,0,1.937h7.747a.968.968,0,1,0,0-1.937Zm-1.937,58.1A1.937,1.937,0,1,1,273,82.6,1.937,1.937,0,0,1,274.939,84.538Z" transform="translate(-215.237 -16.001)" fill="#003278"/>
      <path id="Trazado_19109" data-name="Trazado 19109" d="M307.228,62.282v46.481a.968.968,0,0,1-.968.968H281.082a.968.968,0,0,1-.968-.968V62.282a.968.968,0,0,1,.968-.968H306.26A.968.968,0,0,1,307.228,62.282Z" transform="translate(-235.905 -47.005)" fill="#fdf7bd"/>
      <path id="Trazado_19110" data-name="Trazado 19110" d="M316.916,110.3V90.924h15.5V110.3Z" transform="translate(-266.899 -71.942)" fill="#f52c2c"/>
      <path id="Trazado_19111" data-name="Trazado 19111" d="M316.916,110.3V90.924h2.527V110.3Z" transform="translate(-266.899 -71.942)" fill="#c92c2c"/>
      <path id="Trazado_19112" data-name="Trazado 19112" d="M329.381,119.009h-.213a1.578,1.578,0,0,1-1.578-1.578v-3.582a1.578,1.578,0,0,1,1.578-1.578h.213a1.578,1.578,0,0,1,1.578,1.578v3.582A1.578,1.578,0,0,1,329.381,119.009Zm10.843-1.578v-3.582a1.578,1.578,0,0,0-1.578-1.578h-.213a1.578,1.578,0,0,0-1.578,1.578v3.582a1.578,1.578,0,0,0,1.578,1.578h.213A1.578,1.578,0,0,0,340.224,117.431Zm-4.632,0v-3.582a1.578,1.578,0,0,0-1.578-1.578H333.8a1.578,1.578,0,0,0-1.578,1.578v3.582a1.578,1.578,0,0,0,1.578,1.578h.213A1.578,1.578,0,0,0,335.592,117.431Z" transform="translate(-275.889 -89.92)" fill="#f5dc90"/>
      <path id="Trazado_19113" data-name="Trazado 19113" d="M332.927,118.4a.789.789,0,0,1,.789-.789h.106a.789.789,0,0,1,.789.789.053.053,0,0,1-.053.053H332.98A.053.053,0,0,1,332.927,118.4Zm0,.949v2.527a.789.789,0,0,0,.789.789h.106a.789.789,0,0,0,.789-.789v-2.527a.053.053,0,0,0-.053-.053H332.98A.053.053,0,0,0,332.927,119.346Zm10.949-.949a.789.789,0,0,0-.789-.789h-.106a.789.789,0,0,0-.789.789.053.053,0,0,0,.053.053h1.578A.053.053,0,0,0,343.876,118.4Zm-1.684.949v2.527a.789.789,0,0,0,.789.789h.106a.789.789,0,0,0,.789-.789v-2.527a.053.053,0,0,0-.053-.053h-1.578A.053.053,0,0,0,342.192,119.346Zm-2.948-.949a.789.789,0,0,0-.789-.789h-.106a.789.789,0,0,0-.789.789.053.053,0,0,0,.053.053h1.578A.053.053,0,0,0,339.244,118.4Zm-1.684.949v2.527a.789.789,0,0,0,.789.789h.106a.789.789,0,0,0,.789-.789v-2.527a.053.053,0,0,0-.053-.053h-1.578A.053.053,0,0,0,337.559,119.346Z" transform="translate(-280.383 -94.415)" fill="#172a7d"/>
      <path id="Trazado_19114" data-name="Trazado 19114" d="M338.622,173.923v3.79h-5.9v-3.79a2.948,2.948,0,1,1,5.9,0Zm-9.686-2.948a2.948,2.948,0,0,0-2.948,2.948v3.79h5.9v-3.79A2.948,2.948,0,0,0,328.936,170.975Z" transform="translate(-274.539 -139.359)" fill="#fd9898"/>
      <path id="Trazado_19115" data-name="Trazado 19115" d="M342.274,178.418v3.79h-4.211v-3.79a2.106,2.106,0,1,1,4.211,0Zm-8.844-2.106a2.106,2.106,0,0,0-2.106,2.106v3.79h4.211v-3.79A2.106,2.106,0,0,0,333.431,176.312Z" transform="translate(-279.034 -143.854)" fill="#99302b"/>
      <path id="Trazado_19116" data-name="Trazado 19116" d="M326.877,87.027H310.768a.789.789,0,0,1-.789-.789v-.949a.789.789,0,0,1,.789-.789h16.109a.789.789,0,0,1,.789.789v.949A.789.789,0,0,1,326.877,87.027Zm.789,8.647v-.949a.789.789,0,0,0-.789-.789H310.768a.789.789,0,0,0-.789.789v.949a.789.789,0,0,0,.789.789h16.109A.789.789,0,0,0,327.666,95.674Zm0,9.265v-.106a.789.789,0,0,0-.789-.789H310.768a.789.789,0,0,0-.789.789v.106a.789.789,0,0,0,.789.789h16.109A.789.789,0,0,0,327.666,104.939Z" transform="translate(-261.057 -66.532)" fill="#ed6161"/>
      <path id="Trazado_19117" data-name="Trazado 19117" d="M341.709,87.027h-13.33a.789.789,0,0,1-.789-.789v-.949a.789.789,0,0,1,.789-.789h13.33a.789.789,0,0,1,.789.789v.949A.789.789,0,0,1,341.709,87.027Zm.789,8.647v-.949a.789.789,0,0,0-.789-.789h-13.33a.789.789,0,0,0-.789.789v.949a.789.789,0,0,0,.789.789h13.33A.789.789,0,0,0,342.5,95.674Zm0,9.265v-.106a.789.789,0,0,0-.789-.789h-13.33a.789.789,0,0,0-.789.789v.106a.789.789,0,0,0,.789.789h13.33A.789.789,0,0,0,342.5,104.939Z" transform="translate(-275.889 -66.532)" fill="#fd7a7a"/>
      <path id="Trazado_19118" data-name="Trazado 19118" d="M357.7,152.155h-2.633a.789.789,0,0,1-.789-.789v-.949a.789.789,0,0,1,.789-.789H357.7a.789.789,0,0,1,.789.789v.949A.789.789,0,0,1,357.7,152.155Z" transform="translate(-298.36 -121.381)" fill="#fff5f5"/>
      <path id="Trazado_19119" data-name="Trazado 19119" d="M440.752,204.626a2.255,2.255,0,0,1,1.319,2.052v2.66a2.255,2.255,0,0,1-1.319,2.052,2.255,2.255,0,0,1,1.319,2.052v2.66a2.255,2.255,0,0,1-1.319,2.052,2.255,2.255,0,0,1,1.319,2.052v2.66a2.255,2.255,0,0,1-2.255,2.255h-5.1a3.652,3.652,0,0,1-3.682-3.412,3.586,3.586,0,0,1,2.428-3.569,3.567,3.567,0,0,1,0-6.764,3.567,3.567,0,0,1,0-6.764,3.57,3.57,0,0,1,1.153-6.954h5.2a2.255,2.255,0,0,1,2.255,2.255v2.66a2.255,2.255,0,0,1-1.319,2.052Z" transform="translate(-363.002 -161.832)" fill="#a95947"/>
      <path id="Trazado_19120" data-name="Trazado 19120" d="M311.126,235.286l-.632.616a.128.128,0,0,0-.037.114l.149.869a.129.129,0,0,1-.187.136l-.781-.411a.129.129,0,0,0-.12,0l-.781.411a.129.129,0,0,1-.187-.136l.149-.869a.129.129,0,0,0-.037-.114l-.632-.616a.129.129,0,0,1,.072-.22l.873-.127a.129.129,0,0,0,.1-.071l.39-.791a.129.129,0,0,1,.231,0l.39.791a.129.129,0,0,0,.1.071l.873.127A.129.129,0,0,1,311.126,235.286Zm3.714-.22-.873-.127a.129.129,0,0,1-.1-.071l-.39-.791a.129.129,0,0,0-.231,0l-.39.791a.129.129,0,0,1-.1.071l-.873.127a.129.129,0,0,0-.071.22l.632.616a.129.129,0,0,1,.037.114l-.149.869a.129.129,0,0,0,.187.136l.781-.411a.129.129,0,0,1,.12,0l.781.411a.129.129,0,0,0,.187-.136l-.149-.869a.129.129,0,0,1,.037-.114l.632-.616A.129.129,0,0,0,314.84,235.066Zm3.785,0-.873-.127a.129.129,0,0,1-.1-.071l-.39-.791a.129.129,0,0,0-.231,0l-.39.791a.129.129,0,0,1-.1.071l-.873.127a.129.129,0,0,0-.072.22l.632.616a.128.128,0,0,1,.037.114l-.149.869a.129.129,0,0,0,.187.136l.781-.411a.129.129,0,0,1,.12,0l.781.411a.129.129,0,0,0,.187-.136l-.149-.869a.129.129,0,0,1,.037-.114l.632-.616A.129.129,0,0,0,318.625,235.066Zm3.857.22a.129.129,0,0,0-.072-.22l-.873-.127a.129.129,0,0,1-.1-.071l-.39-.791a.129.129,0,0,0-.231,0l-.39.791a.129.129,0,0,1-.1.071l-.873.127a.129.129,0,0,0-.072.22l.632.616a.129.129,0,0,1,.037.114l-.149.869a.129.129,0,0,0,.187.136l.781-.411a.129.129,0,0,1,.12,0l.781.411a.129.129,0,0,0,.187-.136l-.149-.869a.129.129,0,0,1,.037-.114Z" transform="translate(-259.384 -192.442)" fill="#fcb30b"/>
      <path id="Trazado_19121" data-name="Trazado 19121" d="M335.449,234.078l.39.791a.129.129,0,0,0,.1.071l.873.127a.129.129,0,0,1,.072.22l-.632.616a.129.129,0,0,0-.037.114l.149.869a.129.129,0,0,1-.187.136l-.781-.411a.129.129,0,0,0-.12,0l-.781.411a.129.129,0,0,1-.187-.136l.149-.869a.129.129,0,0,0-.037-.114l-.632-.616a.129.129,0,0,1,.072-.22l.873-.127a.129.129,0,0,0,.1-.071l.39-.791a.129.129,0,0,1,.231,0Zm-14.065,7.9h12.758a.789.789,0,0,0,.789-.789V240.4a.789.789,0,0,0-.789-.789H321.384a.789.789,0,0,0-.789.789v.789A.789.789,0,0,0,321.384,241.975Zm2.9,3.946h6.949a.789.789,0,0,0,.789-.789v-.789a.789.789,0,0,0-.789-.789h-6.949a.789.789,0,0,0-.789.789v.789A.789.789,0,0,0,324.289,245.921Z" transform="translate(-269.998 -192.442)" fill="#f3d373"/>
      <path id="Trazado_19122" data-name="Trazado 19122" d="M340.6,326.078a1.578,1.578,0,0,1,1.578-1.578h4.867a1.578,1.578,0,1,1,0,3.156h-4.867A1.578,1.578,0,0,1,340.6,326.078Z" transform="translate(-286.841 -268.654)" fill="#f52c2c"/>
      <path id="Trazado_19123" data-name="Trazado 19123" d="M442.016,229.212a2.258,2.258,0,0,1,.055.5v2.66a2.255,2.255,0,0,1-2.255,2.255h-5.1a3.652,3.652,0,0,1-3.682-3.412,3.573,3.573,0,0,1,.5-2.013,3.73,3.73,0,0,0,3.179,1.769h5.1A2.256,2.256,0,0,0,442.016,229.212Zm-2.2-18.465h-5.1a3.729,3.729,0,0,1-3.2-1.8,3.559,3.559,0,0,0,1.946,5.173,3.58,3.58,0,0,1,1.153-.189h5.2a2.248,2.248,0,0,1,.936.2,2.255,2.255,0,0,0,1.319-2.052v-2.66a2.266,2.266,0,0,0-.048-.462A2.255,2.255,0,0,1,439.816,210.747Zm2.207,11.736a2.256,2.256,0,0,1-2.207,1.792h-5.1a3.729,3.729,0,0,1-3.2-1.8,3.559,3.559,0,0,0,1.946,5.173,3.581,3.581,0,0,1,1.153-.19h5.2a2.248,2.248,0,0,1,.936.2,2.255,2.255,0,0,0,1.319-2.052v-2.66a2.254,2.254,0,0,0-.047-.462Zm-2.207-5.073h-5.1a3.731,3.731,0,0,1-3.169-1.754,3.559,3.559,0,0,0,1.915,5.224,3.581,3.581,0,0,1,1.153-.19h5.2a2.248,2.248,0,0,1,.936.2,2.255,2.255,0,0,0,1.319-2.052v-2.66a2.261,2.261,0,0,0-.059-.513A2.256,2.256,0,0,1,439.816,217.41Z" transform="translate(-363.002 -171.335)" fill="#954d3b"/>
      <path id="Trazado_19124" data-name="Trazado 19124" d="M450.952,212.317v2.525a1.127,1.127,0,0,1-1.127,1.127h-1.4a2.255,2.255,0,0,1-2.255-2.255v-.27a2.255,2.255,0,0,1,2.255-2.255h1.4A1.127,1.127,0,0,1,450.952,212.317Zm-1.127,5.637h-1.4a2.255,2.255,0,0,0-2.255,2.255v.27a2.255,2.255,0,0,0,2.255,2.255h1.4a1.127,1.127,0,0,0,1.127-1.127v-2.525A1.127,1.127,0,0,0,449.824,217.954Zm0-13.528h-1.4a2.255,2.255,0,0,0-2.255,2.255v.27a2.255,2.255,0,0,0,2.255,2.255h1.4a1.127,1.127,0,0,0,1.127-1.127v-2.525A1.127,1.127,0,0,0,449.824,204.425Zm0-6.764h-1.4a2.255,2.255,0,0,0-2.255,2.255v.27a2.255,2.255,0,0,0,2.255,2.255h1.4a1.127,1.127,0,0,0,1.127-1.127v-2.525A1.127,1.127,0,0,0,449.824,197.661Z" transform="translate(-375.756 -161.833)" fill="#e1a595"/>
      <path id="Trazado_19125" data-name="Trazado 19125" d="M240.263,135.276l1.119,2.047a.212.212,0,0,0,.084.084l2.047,1.119a.211.211,0,0,1,0,.371l-2.047,1.119a.212.212,0,0,0-.084.084l-1.119,2.047a.211.211,0,0,1-.371,0l-1.119-2.047a.212.212,0,0,0-.084-.084l-2.047-1.119a.212.212,0,0,1,0-.371l2.047-1.119a.211.211,0,0,0,.084-.084l1.119-2.047A.211.211,0,0,1,240.263,135.276Z" transform="translate(-199.201 -109.201)" fill="#fff5f5"/>
      <path id="Trazado_19126" data-name="Trazado 19126" d="M157.377,174.611l1.131,2.068a.213.213,0,0,0,.085.085l2.068,1.131a.214.214,0,0,1,0,.375l-2.068,1.131a.213.213,0,0,0-.085.085l-1.131,2.068a.214.214,0,0,1-.375,0l-1.131-2.068a.213.213,0,0,0-.085-.085l-2.068-1.131a.214.214,0,0,1,0-.375l2.068-1.131a.213.213,0,0,0,.085-.085L157,174.611A.214.214,0,0,1,157.377,174.611Z" transform="translate(-129.365 -142.328)" fill="#fdf7bd"/>
      <path id="Trazado_19127" data-name="Trazado 19127" d="M151.94,69.195l.882,1.612a.166.166,0,0,0,.066.066l1.612.882a.166.166,0,0,1,0,.292l-1.612.882a.166.166,0,0,0-.066.066l-.882,1.612a.166.166,0,0,1-.292,0l-.882-1.612a.166.166,0,0,0-.066-.066l-1.612-.882a.166.166,0,0,1,0-.292l1.612-.882a.166.166,0,0,0,.066-.066l.882-1.612A.166.166,0,0,1,151.94,69.195Z" transform="translate(-125.485 -53.569)" fill="#fdf385"/>
    </g>
  </g>
</svg>
