<svg xmlns="http://www.w3.org/2000/svg" width="108" height="112" viewBox="0 0 108 112">
  <g id="Grupo_25806" data-name="Grupo 25806" transform="translate(-364 -2465)">
    <text id="Habitaciones" transform="translate(418 2572)" fill="#111e61" font-size="18" font-family="Roboto-Medium, Roboto" font-weight="500"><tspan x="-53.104" y="0">Habitaciones</tspan></text>
    <g id="cama" transform="translate(374.5 2465)">
      <path id="Trazado_19233" data-name="Trazado 19233" d="M58.479,83.082a37.882,37.882,0,0,1-30.6,0,13.8,13.8,0,0,0-13.8-13.8H11.648a37.638,37.638,0,1,1,63.014.051H72.228A13.748,13.748,0,0,0,58.479,83.082Z" transform="translate(0 -9.309)" fill="#99302b"/>
      <path id="Trazado_19234" data-name="Trazado 19234" d="M134.141,81.5H82.5V40h51.641ZM131.579,98.4H82.5v2.2a37.711,37.711,0,0,0,10.544,7.019h30.6a37.407,37.407,0,0,0,7.934-4.769V98.4Z" transform="translate(-65.166 -33.852)" fill="#ce9047"/>
      <path id="Trazado_19235" data-name="Trazado 19235" d="M80.111.768V46.876a.769.769,0,0,1-.768.768H76.268a.769.769,0,0,1-.768-.768V.768A.769.769,0,0,1,76.268,0h3.074A.769.769,0,0,1,80.111.768ZM128.524,0H125.45a.769.769,0,0,0-.768.768V46.876a.769.769,0,0,0,.768.768h3.074a.769.769,0,0,0,.768-.768V.768A.769.769,0,0,0,128.524,0Z" transform="translate(-59.241)" fill="#f4aa39"/>
      <path id="Trazado_19236" data-name="Trazado 19236" d="M93.727,86.906h-19.9a3.074,3.074,0,0,1-3.074-3.074V73.074A3.074,3.074,0,0,1,73.824,70h19.9A3.074,3.074,0,0,1,96.8,73.074V83.832A3.074,3.074,0,0,1,93.727,86.906ZM126,83.832V73.074A3.074,3.074,0,0,0,122.929,70h-19.9a3.074,3.074,0,0,0-3.074,3.074V83.832a3.074,3.074,0,0,0,3.074,3.074h19.9A3.074,3.074,0,0,0,126,83.832Z" transform="translate(-55.222 -59.242)" fill="#ffe899"/>
      <path id="Trazado_19237" data-name="Trazado 19237" d="M122.5,86.906H107.824a3.074,3.074,0,0,1-3.074-3.074V73.074A3.074,3.074,0,0,1,107.824,70H122.5a3.074,3.074,0,0,1,3.074,3.074V83.832A3.074,3.074,0,0,1,122.5,86.906Zm32.275-3.074V73.074A3.074,3.074,0,0,0,151.7,70H137.025a3.074,3.074,0,0,0-3.074,3.074V83.832a3.074,3.074,0,0,0,3.074,3.074H151.7A3.074,3.074,0,0,0,154.777,83.832Z" transform="translate(-83.996 -59.242)" fill="#fdf7bd"/>
      <path id="Trazado_19238" data-name="Trazado 19238" d="M66.863,166.148V201.5H51.011a1.225,1.225,0,0,1-.875-.364,37.824,37.824,0,0,1-4.636-5.751V166.148A6.148,6.148,0,0,1,51.648,160h9.068A6.148,6.148,0,0,1,66.863,166.148Z" transform="translate(-33.852 -135.409)" fill="#003278"/>
      <path id="Trazado_19239" data-name="Trazado 19239" d="M141.52,195.433a37.171,37.171,0,0,1-4.606,5.717,1.169,1.169,0,0,1-.835.347H84.5V166.148A6.148,6.148,0,0,1,90.648,160h44.725a6.148,6.148,0,0,1,6.148,6.148Z" transform="translate(-66.858 -135.409)" fill="#2740af"/>
      <path id="Trazado_19240" data-name="Trazado 19240" d="M103.514,162.3H42.037a1.537,1.537,0,0,1-1.537-1.537v-4.611A6.148,6.148,0,0,1,46.648,150H98.9a6.148,6.148,0,0,1,6.148,6.148v4.611A1.537,1.537,0,0,1,103.514,162.3Z" transform="translate(-29.621 -126.946)" fill="#81bdfd"/>
      <path id="Trazado_19241" data-name="Trazado 19241" d="M132.288,162.3H76.037a1.537,1.537,0,0,1-1.537-1.537v-4.611A6.148,6.148,0,0,1,80.648,150h47.03a6.148,6.148,0,0,1,6.148,6.148v4.611A1.537,1.537,0,0,1,132.288,162.3Z" transform="translate(-58.395 -126.946)" fill="#acd1fd"/>
      <path id="Trazado_19242" data-name="Trazado 19242" d="M107.746,307q.385,0,.768.029v2.314q-.383-.037-.768-.038a8.119,8.119,0,0,0-4.841,1.614l-1.23.922a10.374,10.374,0,0,1-12.449,0L88,310.919a8.069,8.069,0,0,0-9.683,0l-1.23.922a10.374,10.374,0,0,1-12.449,0l-1.23-.922a8.069,8.069,0,0,0-9.683,0l-1.23.922a10.439,10.439,0,0,1-6.225,2.075q-.385,0-.768-.029v-2.314q.383.037.768.038A8.119,8.119,0,0,0,51.111,310l1.23-.922a10.374,10.374,0,0,1,12.449,0l1.23.922a8.069,8.069,0,0,0,9.683,0l1.23-.922a10.374,10.374,0,0,1,12.45,0L90.61,310a8.069,8.069,0,0,0,9.683,0l1.23-.922A10.439,10.439,0,0,1,107.746,307Z" transform="translate(-33.853 -259.816)" fill="#0280e3"/>
      <path id="Trazado_19243" data-name="Trazado 19243" d="M107.746,362.305a8.119,8.119,0,0,0-4.841,1.614l-1.23.922a10.374,10.374,0,0,1-12.449,0L88,363.919a8.069,8.069,0,0,0-9.683,0l-1.23.922a10.374,10.374,0,0,1-12.449,0l-1.23-.922a8.069,8.069,0,0,0-9.683,0l-1.23.922a10.447,10.447,0,0,1-5.4,2.042q-.834-1.089-1.588-2.239v-.07q.383.037.768.038A8.119,8.119,0,0,0,51.111,363l1.23-.922a10.374,10.374,0,0,1,12.449,0l1.23.922a8.069,8.069,0,0,0,9.683,0l1.23-.922a10.374,10.374,0,0,1,12.45,0L90.61,363a8.069,8.069,0,0,0,9.683,0l1.23-.922A10.439,10.439,0,0,1,107.746,360q.385,0,.768.029v2.314q-.383-.037-.768-.038Z" transform="translate(-33.853 -304.671)" fill="#003278"/>
      <path id="Trazado_19244" data-name="Trazado 19244" d="M108.515,252.529v2.314q-.383-.037-.768-.038a8.119,8.119,0,0,0-4.841,1.614l-1.23.922a10.374,10.374,0,0,1-12.449,0L88,256.419a8.069,8.069,0,0,0-9.683,0l-1.23.922a10.374,10.374,0,0,1-12.449,0l-1.23-.922a8.069,8.069,0,0,0-9.683,0l-1.23.922a10.439,10.439,0,0,1-6.225,2.075q-.385,0-.768-.029v-2.314q.383.037.768.038a8.119,8.119,0,0,0,4.841-1.614l1.23-.922a10.374,10.374,0,0,1,12.449,0l1.23.922a8.069,8.069,0,0,0,9.683,0l1.23-.922a10.374,10.374,0,0,1,12.45,0l1.229.922a8.069,8.069,0,0,0,9.683,0l1.23-.922a10.439,10.439,0,0,1,6.225-2.075Q108.131,252.5,108.515,252.529Zm-6.993,10.422-1.23.922a8.069,8.069,0,0,1-9.683,0l-1.229-.922a10.375,10.375,0,0,0-12.45,0l-1.23.922a8.069,8.069,0,0,1-9.683,0l-1.23-.922a10.374,10.374,0,0,0-12.449,0l-.845.634v2.794a10.259,10.259,0,0,0,1-.661l1.23-.922a8.069,8.069,0,0,1,9.683,0l1.23.922a10.374,10.374,0,0,0,12.449,0l1.23-.922a8.069,8.069,0,0,1,9.683,0l1.229.922a10.374,10.374,0,0,0,12.449,0l1.23-.922a8.119,8.119,0,0,1,4.841-1.614q.385,0,.768.038v-2.314q-.383-.029-.768-.029A10.439,10.439,0,0,0,101.522,262.951Z" transform="translate(-33.853 -213.693)" fill="#05a2f9"/>
      <path id="Trazado_19245" data-name="Trazado 19245" d="M140.752,252.5q.385,0,.768.029v2.314q-.383-.037-.768-.038a8.119,8.119,0,0,0-4.841,1.614l-1.23.922a10.374,10.374,0,0,1-12.449,0L121,256.419a8.069,8.069,0,0,0-9.683,0l-1.23.922a10.374,10.374,0,0,1-12.449,0l-1.23-.922a8.069,8.069,0,0,0-9.683,0l-1.23.922a10.2,10.2,0,0,1-1,.661v-2.794l.845-.634a10.374,10.374,0,0,1,12.449,0l1.23.922a8.069,8.069,0,0,0,9.683,0l1.23-.922a10.374,10.374,0,0,1,12.45,0l1.229.922a8.069,8.069,0,0,0,9.683,0l1.23-.922A10.439,10.439,0,0,1,140.752,252.5Z" transform="translate(-66.859 -213.693)" fill="#01cffa"/>
      <path id="Trazado_19246" data-name="Trazado 19246" d="M140.915,433.074H96.037a1.537,1.537,0,0,1,0-3.074h44.878a1.537,1.537,0,1,1,0,3.074Z" transform="translate(-75.321 -363.912)" fill="#0266eb"/>
      <path id="Trazado_19247" data-name="Trazado 19247" d="M129.292,360.768v9.647a37.811,37.811,0,0,1-4.611,4V360.768a.769.769,0,0,1,.768-.768h3.074A.769.769,0,0,1,129.292,360.768ZM79.342,360H76.268a.769.769,0,0,0-.768.768v9.6a37.861,37.861,0,0,0,4.611,4v-13.6A.769.769,0,0,0,79.342,360Z" transform="translate(-59.241 -304.671)" fill="#f4aa39"/>
    </g>
  </g>
</svg>
