<svg xmlns="http://www.w3.org/2000/svg" xmlns:xlink="http://www.w3.org/1999/xlink" width="73.86" height="116.497" viewBox="0 0 73.86 116.497">
  <defs>
    <linearGradient id="linear-gradient" x1="0.519" y1="0.529" x2="0.488" y2="0.463" gradientUnits="objectBoundingBox">
      <stop offset="0.09" stop-color="#9f9f9f"/>
      <stop offset="0.487" stop-color="#c9c9c9"/>
      <stop offset="0.705" stop-color="#e8e8e8"/>
      <stop offset="0.843" stop-color="#ededed"/>
      <stop offset="0.939" stop-color="#ebebeb"/>
      <stop offset="0.973" stop-color="#e4e4e4"/>
      <stop offset="0.984" stop-color="#e0e0e0"/>
      <stop offset="0.991" stop-color="#eaeaea"/>
    </linearGradient>
  </defs>
  <g id="Grupo_25794" data-name="Grupo 25794" transform="translate(-916 -3758.503)">
    <g id="Grupo_25552" data-name="Grupo 25552" transform="translate(892.712 3428.934)">
      <path id="Trazado_18293" data-name="Trazado 18293" d="M106.721,456.459s-2.164.685-3.895,1.452a9.7,9.7,0,0,0-3.408,3.286,17.2,17.2,0,0,1-3.321,2.4H67.988l-2-18.934H89.843l17.528,10.874Z" transform="translate(-12.256 -33.037)" fill="#c7c7c7"/>
      <ellipse id="Elipse_205" data-name="Elipse 205" cx="7.437" cy="12.881" rx="7.437" ry="12.881" transform="translate(54.734 444.603) rotate(-89.689)" fill="#c7c7c7"/>
      <g id="Grupo_25547" data-name="Grupo 25547" transform="translate(77.029 329.569)">
        <path id="Trazado_18294" data-name="Trazado 18294" d="M98.665,331.215v81.238l18.086,10.524V341.742Z" transform="translate(-98.665 -330.041)" fill="#989696"/>
        <path id="Trazado_18295" data-name="Trazado 18295" d="M124.033,345.508V426.74l2.033-1.177V344.331Z" transform="translate(-105.947 -333.806)" fill="#cccbcb"/>
        <path id="Trazado_18296" data-name="Trazado 18296" d="M116.752,341.271,98.665,330.745l2.033-1.177,18.087,10.525Z" transform="translate(-98.665 -329.569)" fill="#f9f9f9"/>
      </g>
      <g id="Grupo_25548" data-name="Grupo 25548" transform="translate(52.062 344.289)">
        <path id="Trazado_18297" data-name="Trazado 18297" d="M104.614,350.274h0L63.883,377.3l1.057,1.592,40.731-27.029h0a.481.481,0,0,0,.168-.45,1.5,1.5,0,0,0-.745-1.127A.47.47,0,0,0,104.614,350.274Z" transform="translate(-63.714 -350.216)" fill="url(#linear-gradient)"/>
        <path id="Trazado_18298" data-name="Trazado 18298" d="M64.295,388.2a1.494,1.494,0,0,1,.745,1.127c.027.431-.263.626-.647.435a1.491,1.491,0,0,1-.745-1.127C63.62,388.2,63.91,388.008,64.295,388.2Z" transform="translate(-63.646 -361.097)" fill="#a7a4a6"/>
      </g>
      <path id="Trazado_18299" data-name="Trazado 18299" d="M117.634,352.173v77.332a19.236,19.236,0,0,0-2.058-.13,12.305,12.305,0,0,0-2.053.13,1.47,1.47,0,0,0-1.062.619c-.552.788-.533,2.2-1.8,3.75a7.306,7.306,0,0,1-4.419,2.469s-.071-2.16,0-3.707,1.984-51.035,1.939-52.744-3.417-20.274-3.417-20.274h.838a4.747,4.747,0,0,0,2.982-1.067,4.914,4.914,0,0,0,.712-.7,3.535,3.535,0,0,1,1.906-1.307,4.319,4.319,0,0,1,1.134-.037,4.835,4.835,0,0,0,1.765-.033C116.477,355.719,117.634,352.173,117.634,352.173Z" transform="translate(-23.385 -6.488)" fill="#ff3400"/>
      <path id="Trazado_18300" data-name="Trazado 18300" d="M110.241,381.835c0,8.064-2.378,56.352-3.049,56.46-.528.085,2.729-33.382,2.378-50.165-.428-20.507-4.078-24.619-3.864-24.877C106.209,362.652,110.241,373.767,110.241,381.835Z" transform="translate(-23.655 -9.662)" fill="#d41500"/>
      <g id="Grupo_25550" data-name="Grupo 25550" transform="translate(54.117 361.479)">
        <path id="Trazado_18301" data-name="Trazado 18301" d="M77.873,396.008c.06-.62-.769-1.641-1.06-2.137q-.465-.791-.959-1.565a4.538,4.538,0,0,0-.47-.723c-.195-.2-.473-.282-.658-.515-.1-.12-.166-.258-.252-.386-.511-.766-1.321-.478-2.076-.193-.615.232-1.387.648-1.5,1.368-.258,1.629-.319,3.273-.669,4.892-.589,2.731-.335,9.484-.335,9.484s6.477-4.758,6.818-5.489A34.282,34.282,0,0,0,77.873,396.008Z" transform="translate(-67.479 -378.88)" fill="#4a2727"/>
        <path id="Trazado_18302" data-name="Trazado 18302" d="M102.849,378.922c-.01.258-.483.662-.692.981s-.68,1.278-.68,1.278a6.764,6.764,0,0,1-.613.73,10.572,10.572,0,0,1-1.941,1.254c-.082-.008-.241-.051-.942,1.022a59.658,59.658,0,0,1-4.9,5.18,56.181,56.181,0,0,1-7.576,5.6c-3.074,1.717-3.4,1.712-4.609,1.026a2.163,2.163,0,0,1-.459-.34,1.6,1.6,0,0,1-.087-2.187,13.362,13.362,0,0,1,2.736-1.939c.832-.492,1.648-.933,2.127-1.154a39.221,39.221,0,0,0,4.624-3c.285-.27.71-.734,1.745-1.76.046-.044.091-.089.142-.134,1.092-1.008,3.28-2.276,4.462-3.227a4.737,4.737,0,0,0,1.394-1.5c.058-.036.155-1.6.169-1.751a3.289,3.289,0,0,1,.274-.884c.112-.165.474-.674.515-.7s.581-.526.581-.526l.273-1.007.65-1.379s.316-.322.555-.11-.19.838-.19.838l-.367,1.419,1.144-.461.669-.181.181-.048a.593.593,0,0,1,.126.514c-.091.25-.786.561-.786.561a2.6,2.6,0,0,1-.411.315,2.27,2.27,0,0,1-.7-.026s-.306.214-.32.363.089,2.3.089,2.3l.474.317a.572.572,0,0,0,.321-.1c.1-.1.666-.984.666-.984a4.424,4.424,0,0,1,.6-.47.965.965,0,0,1,.574-.021C102.774,378.767,102.853,378.826,102.849,378.922Z" transform="translate(-70.384 -374.326)" fill="#fcc7aa"/>
        <path id="Trazado_18303" data-name="Trazado 18303" d="M106.506,377.926l-.438,1.3-.224,1.568-.025.174-.12-.446.126-1.306Z" transform="translate(-77.772 -375.359)" fill="#fad3be" style="mix-blend-mode: multiply;isolation: isolate"/>
        <path id="Trazado_18304" data-name="Trazado 18304" d="M110.2,377.139c-.091.25-.786.561-.786.561a2.6,2.6,0,0,1-.411.315,2.271,2.271,0,0,1-.7-.026s-.306.214-.32.363a1.6,1.6,0,0,1,.061-.634,3.662,3.662,0,0,1,1.078-.493c.254-.085.5.048.685-.191a.434.434,0,0,0,.089-.361l.181-.048A.593.593,0,0,1,110.2,377.139Z" transform="translate(-78.425 -374.986)" fill="#fad3be" style="mix-blend-mode: multiply;isolation: isolate"/>
        <path id="Trazado_18305" data-name="Trazado 18305" d="M84.729,396.013a1.254,1.254,0,0,1-.386.006c.832-.492,1.648-.933,2.127-1.154a39.216,39.216,0,0,0,4.624-3c.285-.27.71-.734,1.745-1.76.046-.044.091-.089.142-.134a2.534,2.534,0,0,0-.338,1.432l-.686-.011a26.342,26.342,0,0,1-2.789,2.368C88.48,394.12,85.267,395.882,84.729,396.013Z" transform="translate(-71.642 -378.815)" fill="#fad3be" style="mix-blend-mode: multiply;isolation: isolate"/>
        <path id="Trazado_18306" data-name="Trazado 18306" d="M103.04,380.7c-.01.258-.483.662-.692.981s-.68,1.278-.68,1.278a6.761,6.761,0,0,1-.613.73,10.574,10.574,0,0,1-1.941,1.254c-.082-.008-.241-.051-.942,1.022a59.659,59.659,0,0,1-4.9,5.18,56.18,56.18,0,0,1-7.576,5.6c-3.074,1.717-3.4,1.712-4.609,1.026a2.164,2.164,0,0,1-.459-.34,4.035,4.035,0,0,0,2.416-.135s2.4-1.4,3.4-1.809a14.352,14.352,0,0,0,2.682-1.716c.624-.448,3.468-2.709,3.548-2.776a1.039,1.039,0,0,0-.155-.848c-.2-.326.626.277.92.252a35.848,35.848,0,0,0,3.883-3.648c.45-.537,1.241-2.163,1.526-2.3s.386.128.783-.142a7.382,7.382,0,0,0,1.587-1.151c.469-.535.951-1.793,1.441-2.361a1.622,1.622,0,0,0,.2-.287C102.966,380.542,103.045,380.6,103.04,380.7Z" transform="translate(-70.576 -376.101)" fill="#fad3be" style="mix-blend-mode: multiply;isolation: isolate"/>
        <path id="Trazado_18307" data-name="Trazado 18307" d="M92.949,479.03s-.717-1.03-1.506-1.105a17.394,17.394,0,0,1-2.775-1.188,51.637,51.637,0,0,0-5.516.058l-.194.82a2.832,2.832,0,0,0-.078.808c.043.312.147.359.147.359a30.266,30.266,0,0,1,3.135.175,22.467,22.467,0,0,0,3.369,1.321,10.8,10.8,0,0,0,2.747.065,2,2,0,0,0,.836-.771Z" transform="translate(-71.22 -403.701)" fill="#524b45"/>
        <path id="Trazado_18308" data-name="Trazado 18308" d="M83.556,478.737l-.59.543-.045.465a5.29,5.29,0,0,0,1.629.519,7.982,7.982,0,0,0,1.451-.2s2.255.66,2.342.7,1.026.258,1.818.5a4.747,4.747,0,0,0,1.9.02s.885-.349.9-.511l.071-.736Z" transform="translate(-71.234 -404.296)" fill="#524b45"/>
        <path id="Trazado_18309" data-name="Trazado 18309" d="M73.654,477.905s-.192.477-.318.841a5.109,5.109,0,0,0-.015,1.389,16.214,16.214,0,0,0,2.011,1.589c.755.435.979,1.688,3.084,2.217s3.2-.326,3.217-.488a1.741,1.741,0,0,0-.076-1.094,6.054,6.054,0,0,0-1.4-1.784c-.754-.634-2.128-2.006-2.128-2.006Z" transform="translate(-68.466 -404.057)" fill="#524b45"/>
        <path id="Trazado_18310" data-name="Trazado 18310" d="M73.47,480.454l-.159.24-.016.867a3.749,3.749,0,0,1,.6.248,11.148,11.148,0,0,1,.9.657A17.962,17.962,0,0,0,77,484.4a4.564,4.564,0,0,0,2.558.708,2.866,2.866,0,0,0,2.142-.7.969.969,0,0,0-.033-1.011C81.379,482.977,73.47,480.454,73.47,480.454Z" transform="translate(-68.471 -404.788)" fill="#524b45"/>
        <path id="Trazado_18311" data-name="Trazado 18311" d="M77.917,471.181a1.534,1.534,0,0,1-.76,1.122c-.381.217-1.125.038-2.423-.414a2.735,2.735,0,0,1-1.271-.89,1.732,1.732,0,0,1-.381-.756c.01-.108.292-1.167.32-1.454s-2-7.04-1.639-9.325a29.039,29.039,0,0,1,1.2-4.593c.915-2.9,1.782-4.413,2.554-5.093,1.926-1.69,3.264,1.775,3.264,1.775s-.615,2.991-1.213,6.087c-.042.213-.082.427-.124.638a.05.05,0,0,1,0,.017c-.406,2.115-.783,4.185-.93,5.287a16.051,16.051,0,0,0,.279,5.387C76.824,469.374,77.962,470.714,77.917,471.181Z" transform="translate(-68.019 -395.85)" fill="#fcc7aa"/>
        <path id="Trazado_18312" data-name="Trazado 18312" d="M88.259,469.783s-.135.278-1.059.841c-.771.471-3.735.1-4.723-.148-.2-.047-.315-.089-.323-.121-.056-.187.568-1.758.43-2.206s-1.979-6.921-2.44-8.166a10.75,10.75,0,0,1,.239-3.52c.4-2.4,1.025-5.093,1.025-5.093l3.846,4.464s0,.1.012.286c.027.687.1,2.527.179,4.508.114,2.787.247,5.856.292,6.376C85.823,467.992,88.259,469.783,88.259,469.783Z" transform="translate(-70.415 -396.441)" fill="#fcc7aa"/>
        <path id="Trazado_18313" data-name="Trazado 18313" d="M78.206,452.973l-.632,4.832,0,.023c-.011.077-.048.33-.124.638a.05.05,0,0,1,0,.017c-.165.686-.515,1.628-1.144,1.479a7.509,7.509,0,0,1-2.777-1.817,2.6,2.6,0,0,0-.811-.6,10.76,10.76,0,0,0-.166,5.673,51.571,51.571,0,0,1,1.468,6.476c-.016.755.185,1.192-.027,1.139s-.478-.3-.52.352v0a1.732,1.732,0,0,1-.381-.756c.01-.108.292-1.167.32-1.454s-2-7.041-1.639-9.325a29.039,29.039,0,0,1,1.2-4.593c.915-2.9,1.782-4.413,2.554-5.093C76.577,451.075,78.206,452.973,78.206,452.973Z" transform="translate(-68.019 -396.037)" fill="#fad3be" style="mix-blend-mode: multiply;isolation: isolate"/>
        <path id="Trazado_18314" data-name="Trazado 18314" d="M83.12,469.873a9.516,9.516,0,0,1-.61,2.115,1.765,1.765,0,0,0-.034.257c-.2-.047-.315-.089-.323-.121-.056-.187.568-1.758.43-2.206S80.6,463,80.144,461.753a10.75,10.75,0,0,1,.239-3.52c1.907-.412,4.1-.7,4.171-.7a7.017,7.017,0,0,1,.712.354c.027.687.1,2.527.179,4.508a30.842,30.842,0,0,0-3.181.868c-.349.238-.734.555-.734.555A58.139,58.139,0,0,1,83.12,469.873Z" transform="translate(-70.415 -398.21)" fill="#fad3be" style="mix-blend-mode: multiply;isolation: isolate"/>
        <path id="Trazado_18315" data-name="Trazado 18315" d="M88.582,442.132s-.034.359-1.221,1.041a9.149,9.149,0,0,1-3.476.717s-1.813.767-2.753,1.111a6.072,6.072,0,0,1-1.05.272,7.946,7.946,0,0,1-.978.113l-.006.012c-.053.076-.385.452-1.87.277a2.1,2.1,0,0,1-1.154-.433,1.052,1.052,0,0,1-.391-.838s-.172-.023-.463-.083a12.925,12.925,0,0,1-1.588-.44,1.589,1.589,0,0,1-.724-.5,2.636,2.636,0,0,1-.46-1.5,22.2,22.2,0,0,1-.019-3.19c.107-1.112-.967-10.274-.694-13.11s1.3-4.475,1.884-6.412.354-1.777-.728-4.092-1.934-8.518-1.526-8.988,4.574-4.994,4.574-4.994a10.728,10.728,0,0,1,1.345-.379,5.422,5.422,0,0,1,2.644-.033c1.507.506,1.911,1.958,2.771,3.567s1.971,3.99,1.971,3.99a11.079,11.079,0,0,1,.078,4.464,13.647,13.647,0,0,0,.53,4.654.966.966,0,0,0,.417.546c.342.216.794,3.049,1.409,7.2S88.582,442.132,88.582,442.132Z" transform="translate(-67.887 -381.848)" fill="#659fd1"/>
        <path id="Trazado_18316" data-name="Trazado 18316" d="M79.609,387.507a1.825,1.825,0,0,1,2.127.205,5.385,5.385,0,0,1,1.611,2.084,4.19,4.19,0,0,0,.5,1.38c.214.22,1.188,1.02,1.136,1.179a5.981,5.981,0,0,1-.823.826l.275.905a4.383,4.383,0,0,0-.1.506,11.091,11.091,0,0,1-.149,1.544c-.089.173-.643.282-1.407.317a12.025,12.025,0,0,1-3.542-.63c-.5-.284-.781-1.126-1.074-1.843a6.076,6.076,0,0,1-.9-2.731C77.262,389.962,79.609,387.507,79.609,387.507Z" transform="translate(-69.611 -378.035)" fill="#fcc7aa"/>
        <path id="Trazado_18317" data-name="Trazado 18317" d="M77.872,447.056s.238,6.942.12,8.163l-.325,3.377a1.052,1.052,0,0,1-.391-.838s-.172-.023-.463-.083c0,0,.363-3.007.6-5.81S77.872,447.056,77.872,447.056Z" transform="translate(-69.481 -395.202)" fill="#d1d1d1" style="mix-blend-mode: multiply;isolation: isolate"/>
        <path id="Trazado_18318" data-name="Trazado 18318" d="M82.522,453.882c-.024.526.25,2.824.4,4.434a7.942,7.942,0,0,1-.978.113s-.851-8.091-.793-8.7.071-3.76.071-3.76S82.56,453.125,82.522,453.882Z" transform="translate(-70.724 -394.89)" fill="#d1d1d1" style="mix-blend-mode: multiply;isolation: isolate"/>
        <path id="Trazado_18319" data-name="Trazado 18319" d="M86.635,426.3a1.118,1.118,0,0,1-.866.351s-2.375-.555-3.075-.8-1.291-1.646-1.9-1.668-3.333.006-4.137.073-3.062-.186-3.521.059.59,7.448.451,9.245.292,6.7.011,7.756c-.127.483-.414,1.352-.687,2.153a2.636,2.636,0,0,1-.46-1.5,22.2,22.2,0,0,1-.019-3.191c.107-1.112-.967-10.274-.694-13.11s1.3-4.475,1.884-6.412.354-1.777-.728-4.092-1.934-8.518-1.526-8.988,4.574-4.994,4.574-4.994a10.725,10.725,0,0,1,1.345-.379c.072.761-.522,1.917-.727,1.852a6.458,6.458,0,0,0-1.84.62s-2.54,2.41-2.835,3.373,3.215,2.56,3.245,2.573a30.97,30.97,0,0,1-.267,3.392,10.4,10.4,0,0,0,.038,2.091c.282,1.712,2.4,2.271,3.813,1.744a3.03,3.03,0,0,1,.289-.1.911.911,0,0,1,.294-.024,4.685,4.685,0,0,0-1.26.91,4.452,4.452,0,0,1-.786.916c-.367.235-.7.34-.892.793a13.7,13.7,0,0,1-.725,2.166c.944.173,7.117,1.176,7.927,1.41a17.962,17.962,0,0,1,2.959,1.781S87,425.9,86.635,426.3Z" transform="translate(-67.887 -381.922)" fill="#d1d1d1" style="mix-blend-mode: multiply;isolation: isolate"/>
        <path id="Trazado_18320" data-name="Trazado 18320" d="M99.473,433.324a.573.573,0,0,0-.036-.565,8.083,8.083,0,0,0-2.7-1.827c-1.781-.888-6.954-2.808-6.954-2.808a2.408,2.408,0,0,1-1.075-1.3,1.913,1.913,0,0,1,.031-1.736c.225-.359.22-.4.578-.406a1.568,1.568,0,0,1,.732.071c.088.076.071.251.194.385s.227.185.323.168.13-.5-.048-.766-.23-.376-.794-.552a1.523,1.523,0,0,0-1.422.135,1.888,1.888,0,0,0-.509,1.337c0,.747.252,1.566.019,1.757a36.117,36.117,0,0,1-4.773,2.984,23.987,23.987,0,0,0-3.927,2.213,1.17,1.17,0,0,0-.361.563s.47.317.421.476.043.33-.193.344-.527.4-.363.581a9.288,9.288,0,0,0,2.118.2l17.815-.078s.883-.133,1.1-.492S99.473,433.324,99.473,433.324Zm-1.24.08c-.046.285-.769.65-.769.65s-16.125.024-16.362.038a1.672,1.672,0,0,1-1.005-.659,1.3,1.3,0,0,1,.337-1.236c.39-.289,7.734-3.368,7.734-3.368a95.123,95.123,0,0,1,9.37,3.148C98.611,432.479,98.279,433.118,98.233,433.4Z" transform="translate(-69.983 -388.551)" fill="#bb1a13"/>
        <g id="Grupo_25549" data-name="Grupo 25549" transform="translate(10.338 35.334)">
          <path id="Trazado_18321" data-name="Trazado 18321" d="M81.074,462.133a3.064,3.064,0,0,0,.284.544.9.9,0,0,0,.241.25,1.028,1.028,0,0,1,.647.99,1.881,1.881,0,0,0,.222.692,1.969,1.969,0,0,0,.888.93,1.228,1.228,0,0,0,.435.018,1.36,1.36,0,0,0,.739-.316,1.113,1.113,0,0,1,.7-.269v.009c0,.144.024,2.051.02,2.178a1.028,1.028,0,0,0,.533.836c.488.342,1.754.224,3.144-.24.22-.074.424-.145.612-.211h0a15.65,15.65,0,0,1,2.738-.851c.093-.016.189-.031.289-.044a40.337,40.337,0,0,0,4.481-.5q.718-.168,1.231-.329c.924-.285,1.373-.546,1.41-.764.054-.294-.54-8.021-.958-10.239s-1-7.514-1.487-9.1a2.828,2.828,0,0,0-.21-.513c-.02-.037-.039-.073-.061-.108s-.038-.066-.058-.1a1.718,1.718,0,0,0-.135-.191l-.053-.066c-.018-.022-.038-.042-.056-.062s-.037-.04-.055-.06c-.037-.039-.076-.073-.113-.108l-.056-.049c-.058-.048-.114-.092-.169-.133s-.112-.076-.167-.111l-.054-.032c-.016-.011-.036-.021-.052-.031l-.051-.029c-.05-.03-.1-.056-.145-.081l-.036-.019c-.04-.021-.077-.041-.111-.061a.7.7,0,0,1-.2-.148.159.159,0,0,1-.024-.034.2.2,0,0,1-.019-.046c-.067-.337.291-1.344.41-2.622.07-.789,1.092-1.955,1.864-4.021a13.991,13.991,0,0,0,.847-5.014c-.535-.625-4.081-2.085-4.254-2.2-.107-.07-1.159-.31-2.046-.513h0c-.53-.121-1-.229-1.176-.28a22.844,22.844,0,0,0-3.727.4c-.356.056-.586.095-.586.095l-2.809.81a6.272,6.272,0,0,0-1.567,2.959,19.281,19.281,0,0,0-.637,3.825,6.261,6.261,0,0,0,.738,2.987,42.179,42.179,0,0,1,.67,4.452c0,.048-.43.684-.872,1.591v0a11.028,11.028,0,0,0-.612,1.505c-.512,1.632-.554,5.63-.612,7.021S81.074,462.133,81.074,462.133Z" transform="translate(-81.029 -425.371)" fill="#ffb200"/>
          <path id="Trazado_18322" data-name="Trazado 18322" d="M96,429.894c.021.043-.178.3-.528.642l-.021.021a9.39,9.39,0,0,1-.834.72c-.107.078-.214.164-.328.242a5.574,5.574,0,0,1-2.1.97c-1.861.321-2.189-.549-2.281-.635a2.642,2.642,0,0,1-.157-.72c-.007-.043-.014-.093-.021-.135a4.873,4.873,0,0,1-.05-1.134.841.841,0,0,1,.064-.242.656.656,0,0,1,.036-.057l.007-.007a.493.493,0,0,1,.029-.071.42.42,0,0,1,.1-.014c.185-.036.4-.064.627-.1.585-.086,1.262-.178,1.832-.242.214-.021.406-.043.577-.057a2.116,2.116,0,0,1,.592.007c.178.05.649.157,1.176.278v.007C94.914,429.6,95.933,429.758,96,429.894Z" transform="translate(-83.506 -425.37)" fill="#c45f00"/>
          <path id="Trazado_18323" data-name="Trazado 18323" d="M103.184,461.5c.064.587.127,1.164.233,1.693.126.63.17,3.464.208,5.111.925-.286,1.372-.548,1.41-.764.053-.294-.542-8.02-.958-10.24s-1-7.514-1.489-9.1-1.76-1.639-1.827-1.976.291-1.344.409-2.622c.071-.789,1.093-1.956,1.864-4.022a3.31,3.31,0,0,1-1.829-1.85c-.25,1.01-.488,2.031-.638,3.06-.162,1.107-.647,2.071-.784,3.2a4.266,4.266,0,0,0-.1,1.366,3.7,3.7,0,0,1,.174,1.2l.411.563a3.682,3.682,0,0,1,.92,1.979,36.351,36.351,0,0,0,.829,5.517c.232.814.272,1.6.467,2.415.187.781.453,1.533.605,2.322C103.226,460.058,103.1,460.775,103.184,461.5Z" transform="translate(-86.374 -427.858)" fill="#ed8200"/>
          <path id="Trazado_18324" data-name="Trazado 18324" d="M93.361,466.8c.227,1.136.731,7.791-.393,9.477a15.472,15.472,0,0,1,2.738-.851c.093-.016.189-.032.289-.045-.382-2.757-1.273-8.623-1.351-9.45-.1-1.075-.678-6.439-.678-6.439S93.133,465.663,93.361,466.8Z" transform="translate(-84.456 -434.106)" fill="#ed8200"/>
          <path id="Trazado_18325" data-name="Trazado 18325" d="M85,472.609a6.809,6.809,0,0,1-.1,1.263,1.349,1.349,0,0,0,.739-.316,1.105,1.105,0,0,1,.7-.268l-.359-11.169.771-4.087c-.071.2-1.19,3.354-1.353,3.939C85.236,462.573,84.956,472.093,85,472.609Z" transform="translate(-82.141 -433.686)" fill="#ed8200"/>
          <path id="Trazado_18326" data-name="Trazado 18326" d="M81.732,473.193a1.028,1.028,0,0,1,.647.99l.366-9.356c-.036.212-1.031,6.047-1.254,8.115A.926.926,0,0,0,81.732,473.193Z" transform="translate(-81.162 -435.637)" fill="#ed8200"/>
          <path id="Trazado_18327" data-name="Trazado 18327" d="M104.167,434.181c-.007.143-.014.3-.036.485a.481.481,0,0,1-.014.1c-.014.228-.05.485-.093.749-.064.421-.15.863-.25,1.3-.036.157-.071.307-.114.456-.086.321-.171.613-.271.877q-.107.278-.214.492c-.021.036-.05.078-.071.114a1.5,1.5,0,0,1-1.79.706s-.014-.235-.029-.6c-.007-.171-.007-.371-.007-.585,0-.307.007-.649.029-1,.007-.15.021-.307.036-.456a4.816,4.816,0,0,1,.385-1.583c.135-.271.257-.485.364-.663a2.864,2.864,0,0,1,.356-.471,1.5,1.5,0,0,1,.228-.207,2.479,2.479,0,0,1,.471-.257c.064-.029.135-.057.207-.086,0,0,.513-.221.749.143A1.12,1.12,0,0,1,104.167,434.181Z" transform="translate(-86.842 -426.641)" fill="#c45f00"/>
          <path id="Trazado_18328" data-name="Trazado 18328" d="M102.657,433.321a.564.564,0,0,0-.036-.563,5.967,5.967,0,0,0-1.79-1.333c-.271-.157-.57-.321-.913-.492-.036-.014-.071-.036-.107-.05a2.479,2.479,0,0,0-.471.257,1.5,1.5,0,0,0-.228.207c.77.292,1.362.52,1.611.635.021.007.036.021.057.029a1.01,1.01,0,0,1,.635,1.4c-.043.285-.77.649-.77.649h-.207c-.385,0-1.269,0-2.431.007-.014.15-.029.307-.036.456l2.353-.007,1.4-.007s.884-.135,1.1-.492S102.657,433.321,102.657,433.321Zm-10.288-5.675a2.306,2.306,0,0,1-.478-.82,1.9,1.9,0,0,1,.029-1.74c.228-.357.221-.4.577-.406a1.554,1.554,0,0,1,.734.071c.086.078.071.25.193.385s.228.185.321.171.128-.506-.05-.77-.228-.371-.791-.549a1.5,1.5,0,0,0-1.419.135,1.9,1.9,0,0,0-.513,1.333c0,.749.257,1.569.021,1.761-.086.071-.506.371-1.084.77l-.128.086-.007.007a.66.66,0,0,0-.036.057.842.842,0,0,0-.064.242,4.873,4.873,0,0,0,.05,1.134c.955-.4,1.626-.684,1.626-.684a24.592,24.592,0,0,1,3.265.962,9.39,9.39,0,0,0,.834-.72c-1.376-.535-2.488-.948-2.488-.948A2.353,2.353,0,0,1,92.369,427.646Z" transform="translate(-83.506 -423.885)" fill="#bb1a13"/>
        </g>
        <path id="Trazado_18329" data-name="Trazado 18329" d="M74.595,411a26.345,26.345,0,0,1-1.706,5.438,20.032,20.032,0,0,0-1.559,4.16l-.019.018c-.209.206-2.05,2-2.533,2.019a5.976,5.976,0,0,0-1.319.719c-.314.17-.578.245-.68.019a.36.36,0,0,1-.022-.063,12.79,12.79,0,0,1-.181-3.387c.113-.786,1.854-5.328,1.959-6.4s.737-3.916,1.742-4.543a2.194,2.194,0,0,1,.25-.135l0,0a3.285,3.285,0,0,1,3.509.329A1.933,1.933,0,0,1,74.595,411Z" transform="translate(-66.529 -384.131)" fill="#fcc7aa"/>
        <path id="Trazado_18330" data-name="Trazado 18330" d="M87.851,430.842a.934.934,0,0,1,.15.475c-.011.114-.141.158-.275.174a1.458,1.458,0,0,1-.284,0,.809.809,0,0,1-.081.071,1.164,1.164,0,0,1-.347.193.56.56,0,0,1-.225.028c-.125-.012-.558-.119-1.05-.247l-.006,0c-.78-.2-1.71-.463-1.807-.489-.12-.031-1.2-.173-1.958-.276l0,0c-.242-.032-.453-.061-.587-.083-.561-.087-.93-.689-1.757-.769s-2.969.006-5.409-.086-7.3-.774-7.34-1.465a.78.78,0,0,1,0-.122,1.231,1.231,0,0,1,.22-.522,6.941,6.941,0,0,1,2.262-1.837,2.709,2.709,0,0,1,2.051-.4,10.859,10.859,0,0,1,1.094.338c1.077.354,2.055.624,2.055.624s5.518.56,6.487.653a22.139,22.139,0,0,1,3.292.506,23.172,23.172,0,0,1,3.78,2.512.6.6,0,0,1-.217.515,1.006,1.006,0,0,1-.115.1s.029.042.064.106Z" transform="translate(-66.627 -388.991)" fill="#fcc7aa"/>
        <path id="Trazado_18331" data-name="Trazado 18331" d="M80.344,424.949a7.961,7.961,0,0,0,1.523,1.1c-.242-.032-.453-.061-.587-.083-.561-.087-.93-.689-1.757-.769s-2.969.006-5.409-.086-7.3-.774-7.34-1.465a.779.779,0,0,1,0-.122.359.359,0,0,1-.022-.063,12.79,12.79,0,0,1-.181-3.387c.113-.786,1.854-5.328,1.959-6.4s.737-3.916,1.742-4.543a2.2,2.2,0,0,1,.25-.135,4.1,4.1,0,0,0-1.255,2.672c-.257,1.906-2.16,8.11-2.421,9.343A3.115,3.115,0,0,0,67,423a1.2,1.2,0,0,0,.461.5,1.037,1.037,0,0,0,.4.134,20.739,20.739,0,0,0,6.55.922C78.682,424.535,79.963,424.659,80.344,424.949Z" transform="translate(-66.529 -384.275)" fill="#fad3be" style="mix-blend-mode: multiply;isolation: isolate"/>
        <path id="Trazado_18332" data-name="Trazado 18332" d="M92.941,433.685c.153.032.573.145.855.222a.56.56,0,0,1-.225.028c-.125-.012-.558-.119-1.05-.247l-.006,0-2.016-.74.26-.014S92.7,433.634,92.941,433.685Z" transform="translate(-73.409 -391.148)" fill="#fad3be" style="mix-blend-mode: multiply;isolation: isolate"/>
        <path id="Trazado_18333" data-name="Trazado 18333" d="M94.546,433.229a.609.609,0,0,0,.168.086,1.459,1.459,0,0,1-.284,0,.81.81,0,0,1-.081.071,1.771,1.771,0,0,0-.738-.461c-.445-.145-2.179-1.034-2.392-1.145l1.637.679S94.424,433.139,94.546,433.229Z" transform="translate(-73.616 -390.816)" fill="#fad3be" style="mix-blend-mode: multiply;isolation: isolate"/>
        <path id="Trazado_18334" data-name="Trazado 18334" d="M94.962,432.206s.029.042.064.106l-1.586-.93-1.566-.831,1.338.509s1.362.8,1.865,1.042A1.008,1.008,0,0,1,94.962,432.206Z" transform="translate(-73.804 -390.464)" fill="#fad3be" style="mix-blend-mode: multiply;isolation: isolate"/>
        <path id="Trazado_18335" data-name="Trazado 18335" d="M82.41,395.138a23.655,23.655,0,0,0-1.288,2.847,23.068,23.068,0,0,0-.579,3.568c-.03.305-2.567-.627-3.368-.958s-1.226-.41-1.366-.758-.6-5.148-.277-6.257,1.352-3.43,3.869-1.992A6.165,6.165,0,0,1,82.41,395.138Z" transform="translate(-69.08 -379.149)" fill="#fcc7aa"/>
        <path id="Trazado_18336" data-name="Trazado 18336" d="M78.543,395.549s-.3-.536-.672-.554-.53-.142-.615.185a10.186,10.186,0,0,1-.2,1.185.927.927,0,0,0-.048.5,5.718,5.718,0,0,0,1.519.369C78.853,397.227,78.543,395.549,78.543,395.549Z" transform="translate(-69.531 -380.248)" fill="#ffd6bf"/>
        <path id="Trazado_18337" data-name="Trazado 18337" d="M79.741,387.255a3.463,3.463,0,0,0-.692,1,19.648,19.648,0,0,0-1.305,2.646,11.058,11.058,0,0,0-.158,1.633,4.973,4.973,0,0,1-.429,1.263,5,5,0,0,0-.247-1.382,2.247,2.247,0,0,0-1.037-.011c-.307.053-.56,1.741-.56,1.741s.456,1.3.645,1.767a4.36,4.36,0,0,1,.319,1.949c-.117.46-.406,1.211-.406,1.211a6.66,6.66,0,0,0-2.321.251c-.542.325-2.453-7.612-2.453-7.612a17.771,17.771,0,0,1,1.132-4.112,3.312,3.312,0,0,1,2.211-1.889,7.023,7.023,0,0,1,1.652-.077s.421-.376,1.938.042a3.4,3.4,0,0,1,2.045,1.338l-.026.269Z" transform="translate(-67.84 -377.528)" fill="#4a2727"/>
        <path id="Trazado_18338" data-name="Trazado 18338" d="M87.144,393.362s-.285.421-.624.416-.222-.8-.222-.8l-.78-1.352.056-.579.559,1.1Z" transform="translate(-71.979 -379.127)" fill="#ffd6bf"/>
        <path id="Trazado_18339" data-name="Trazado 18339" d="M84.028,389.686l-1.185-1.568a1.159,1.159,0,0,0-.591.4,29.655,29.655,0,0,0-1.36,2.927,7.583,7.583,0,0,0,.138,2.146,3.352,3.352,0,0,0,1.908.646,1.73,1.73,0,0,0,1.01-1.045,1.822,1.822,0,0,0-.181-.656,5.372,5.372,0,0,1-1.349-.007c-.433-.11-.656-.335-.635-.985s.789-1.283,1.079-1.472A5.57,5.57,0,0,1,84.028,389.686Z" transform="translate(-70.642 -378.285)" fill="#ffd6bf"/>
      </g>
      <g id="Grupo_25551" data-name="Grupo 25551" transform="translate(36.349 353.13)">
        <path id="Trazado_18340" data-name="Trazado 18340" d="M41.607,364.262V445.5l18.086,10.524V374.79Z" transform="translate(-41.607 -363.089)" fill="#989696"/>
        <path id="Trazado_18341" data-name="Trazado 18341" d="M66.976,378.556v81.232l2.033-1.177V377.379Z" transform="translate(-48.889 -366.854)" fill="#cccbcb"/>
        <path id="Trazado_18342" data-name="Trazado 18342" d="M59.694,374.318,41.607,363.793l2.033-1.177,18.087,10.525Z" transform="translate(-41.607 -362.616)" fill="#f9f9f9"/>
      </g>
      <path id="Trazado_18343" data-name="Trazado 18343" d="M116.263,383.5c0,8.064-.249,48.176-.92,48.284-.528.085.134-26.365-.217-43.148-.428-20.507-4.23-28.247-4.016-28.5C111.613,359.532,116.263,375.434,116.263,383.5Z" transform="translate(-25.206 -8.768)" fill="#d41500"/>
      <path id="Trazado_18344" data-name="Trazado 18344" d="M54.436,488.729H34.9l-11.609-4.7,13.061-5.827Z" transform="translate(0 -42.664)" fill="#c7c7c7"/>
    </g>
  </g>
</svg>
