<svg xmlns="http://www.w3.org/2000/svg" width="78.729" height="132" viewBox="0 0 78.729 132">
  <g id="Grupo_25810" data-name="Grupo 25810" transform="translate(-1083 -2465)">
    <text id="Servicio_al_cliente" data-name="Servicio
al cliente" transform="translate(1123 2572)" fill="#111e61" font-size="18" font-family="Roboto-Medium, Roboto" font-weight="500"><tspan x="-32.388" y="0">Servicio</tspan><tspan x="-36.374" y="20">al cliente</tspan></text>
    <g id="servicio" transform="translate(1083 2459.5)">
      <path id="Trazado_19047" data-name="Trazado 19047" d="M77,44A38.5,38.5,0,0,1,15.5,74.877V61.638A15.438,15.438,0,0,0,.062,46.2Q0,45.108,0,44a38.5,38.5,0,1,1,77,0Z" transform="translate(0)" fill="#003278"/>
      <path id="Trazado_19048" data-name="Trazado 19048" d="M211.014,44.871a38.36,38.36,0,0,1-3.468,15.991A31.433,31.433,0,1,1,176.074,6.533,38.5,38.5,0,0,1,211.014,44.871Z" transform="translate(-134.014 -0.871)" fill="#2740af"/>
      <path id="Trazado_19049" data-name="Trazado 19049" d="M226.093,57.87l.878,1.605a.165.165,0,0,0,.066.066l1.605.878a.166.166,0,0,1,0,.291l-1.605.878a.165.165,0,0,0-.066.066l-.878,1.605a.166.166,0,0,1-.291,0l-.878-1.605a.165.165,0,0,0-.066-.066l-1.605-.878a.166.166,0,0,1,0-.291l1.605-.878a.165.165,0,0,0,.066-.066l.878-1.605A.166.166,0,0,1,226.093,57.87Z" transform="translate(-188.098 -44.068)" fill="#0266eb"/>
      <path id="Trazado_19050" data-name="Trazado 19050" d="M240.137,308.528v.754a1.666,1.666,0,0,1-.857,1.456l-8.872,4.929a9.993,9.993,0,0,1-4.853,1.258H191.5V298.6h35.81a2.5,2.5,0,0,1,2.5,2.619,2.545,2.545,0,0,1-2.566,2.378H208.712a1.666,1.666,0,1,0,0,3.331h19.867a9.993,9.993,0,0,0,2.424-.3l5.079-1.27a3.263,3.263,0,0,1,4.054,3.165Z" transform="translate(-161.408 -247.044)" fill="#eac0b5"/>
      <path id="Trazado_19051" data-name="Trazado 19051" d="M240.137,347.987v.754a1.665,1.665,0,0,1-.857,1.456l-8.872,4.929a9.993,9.993,0,0,1-4.853,1.258H191.5v-5h34.053a9.993,9.993,0,0,0,4.853-1.258l8.479-4.71a3.258,3.258,0,0,1,1.25,2.568Z" transform="translate(-161.408 -286.503)" fill="#e1a595"/>
      <path id="Trazado_19052" data-name="Trazado 19052" d="M405.246,301.934h-.974a.786.786,0,0,1-.786-.786v-1.76a.786.786,0,0,1,.786-.786h.974a1.571,1.571,0,0,1,1.571,1.571v.188A1.571,1.571,0,0,1,405.246,301.934Z" transform="translate(-340.081 -247.044)" fill="#faf1ee"/>
      <path id="Trazado_19053" data-name="Trazado 19053" d="M132.852,278.976v21.479a1.571,1.571,0,0,1-1.571,1.571H117.306V277.4H131.28A1.571,1.571,0,0,1,132.852,278.976Z" transform="translate(-98.872 -229.177)" fill="#acd1fd"/>
      <path id="Trazado_19054" data-name="Trazado 19054" d="M132.852,278.976v14.817a1.571,1.571,0,0,1-1.571,1.571H117.306V277.405H131.28A1.571,1.571,0,0,1,132.852,278.976Z" transform="translate(-98.872 -229.177)" fill="#fff5f5"/>
      <path id="Trazado_19055" data-name="Trazado 19055" d="M184.233,385.064a1.666,1.666,0,1,1-1.666-1.666A1.665,1.665,0,0,1,184.233,385.064Z" transform="translate(-152.475 -318.514)" fill="#8694dd"/>
      <path id="Trazado_19056" data-name="Trazado 19056" d="M66.581,363.865v9.994a1.665,1.665,0,0,1-1.666,1.666H56.18c-.9-.675-.49-2.863-1.331-3.613s-2.942-.066-3.716-.89q-1.028-1.093-1.97-2.264A4.03,4.03,0,0,1,52.3,362.2H64.915A1.665,1.665,0,0,1,66.581,363.865Z" transform="translate(-40.68 -300.647)" fill="#c92c2c"/>
      <path id="Trazado_19057" data-name="Trazado 19057" d="M26.233,266.166v18.684a1.665,1.665,0,0,1-1.666,1.666H8.9A38.32,38.32,0,0,1,.394,264.5H24.568a1.666,1.666,0,0,1,1.666,1.666Z" transform="translate(-0.332 -218.3)" fill="#f52c2c"/>
      <path id="Trazado_19058" data-name="Trazado 19058" d="M66.518,264.5H73.18v28.677H71.565a38.719,38.719,0,0,1-5.047-4.5Z" transform="translate(-56.065 -218.3)" fill="#f19b0b"/>
      <path id="Trazado_19059" data-name="Trazado 19059" d="M73.18,286.515H66.518V264.5H73.18Z" transform="translate(-56.065 -218.3)" fill="#fdbf43"/>
      <path id="Trazado_19060" data-name="Trazado 19060" d="M247.4,44.748l4.668,9.459a1.542,1.542,0,0,0,1.161.844l10.438,1.517a1.542,1.542,0,0,1,.855,2.631l-7.553,7.362a1.542,1.542,0,0,0-.443,1.365l1.783,10.4a1.542,1.542,0,0,1-2.238,1.626l-9.336-4.908a1.542,1.542,0,0,0-1.435,0l-9.336,4.908a1.542,1.542,0,0,1-2.238-1.626l1.783-10.4a1.542,1.542,0,0,0-.444-1.365L227.512,59.2a1.542,1.542,0,0,1,.855-2.631L238.8,55.05a1.542,1.542,0,0,0,1.161-.844l4.668-9.459a1.542,1.542,0,0,1,2.766,0Z" transform="translate(-191.366 -32.356)" fill="#f5c02c"/>
      <path id="Trazado_19061" data-name="Trazado 19061" d="M324.209,59.2l-7.553,7.362a1.542,1.542,0,0,0-.444,1.365l1.34,7.815a29.361,29.361,0,0,1-19.693-20.6l.632-.092a1.542,1.542,0,0,0,1.161-.844l4.668-9.459a1.542,1.542,0,0,1,2.766,0l4.668,9.459a1.542,1.542,0,0,0,1.161.844l10.438,1.517a1.542,1.542,0,0,1,.855,2.631Z" transform="translate(-251.053 -32.355)" fill="#fdf061"/>
      <path id="Trazado_19062" data-name="Trazado 19062" d="M297.78,74.61l1.115,2.038a.211.211,0,0,0,.084.084l2.038,1.115a.211.211,0,0,1,0,.369l-2.038,1.115a.211.211,0,0,0-.084.084l-1.115,2.038a.211.211,0,0,1-.369,0L296.3,79.414a.211.211,0,0,0-.084-.084l-2.038-1.115a.211.211,0,0,1,0-.369l2.038-1.115a.211.211,0,0,0,.084-.084l1.115-2.038A.211.211,0,0,1,297.78,74.61Z" transform="translate(-247.854 -58.157)" fill="#fff5f5"/>
      <path id="Trazado_19063" data-name="Trazado 19063" d="M214.233,201.569l.878,1.605a.165.165,0,0,0,.066.066l1.605.878a.166.166,0,0,1,0,.291l-1.605.878a.165.165,0,0,0-.066.066l-.878,1.605a.166.166,0,0,1-.291,0l-.878-1.605a.165.165,0,0,0-.066-.066l-1.605-.878a.166.166,0,0,1,0-.291L213,203.24a.165.165,0,0,0,.066-.066l.878-1.605A.166.166,0,0,1,214.233,201.569Z" transform="translate(-178.102 -165.186)" fill="#f1ca50"/>
      <path id="Trazado_19064" data-name="Trazado 19064" d="M313.372,96.941l-12.094,15a1.5,1.5,0,0,1-2.335,0l-6.652-8.248a1.5,1.5,0,0,1,2.335-1.883l5.484,6.8,10.927-13.549a1.5,1.5,0,0,1,2.335,1.883Z" transform="translate(-246.08 -75.014)" fill="#c98001"/>
      <path id="Trazado_19065" data-name="Trazado 19065" d="M373.971,96.988l-7.448,9.235a1.5,1.5,0,1,1-2.335-1.883l7.416-9.2a1.534,1.534,0,0,1,2.061-.326A1.5,1.5,0,0,1,373.971,96.988Z" transform="translate(-306.678 -75.061)" fill="#f19b0b"/>
    </g>
  </g>
</svg>
