<svg xmlns="http://www.w3.org/2000/svg" width="126" height="132.333" viewBox="0 0 126 132.333">
  <g id="Grupo_25808" data-name="Grupo 25808" transform="translate(-715 -2464.667)">
    <text id="Restaurantes_y_comedores" data-name="Restaurantes y 
comedores" transform="translate(778 2572)" fill="#111e61" font-size="18" font-family="Roboto-Medium, Roboto" font-weight="500"><tspan x="-62.191" y="0">Restaurantes y </tspan><tspan x="-45.338" y="20">comedores</tspan></text>
    <g id="desayuno" transform="translate(739 2464.667)">
      <path id="Trazado_19004" data-name="Trazado 19004" d="M10.565,75.037a37.818,37.818,0,1,1,54.506,0Z" transform="translate(0 -9.302)" fill="#4f66cf"/>
      <path id="Trazado_19005" data-name="Trazado 19005" d="M47.49,94.631H41.315a2.315,2.315,0,0,1,0-4.631H47.49a2.315,2.315,0,0,1,0,4.631Zm38.589,18.523h-5.4a1.544,1.544,0,1,1,0-3.087h2.315a2.315,2.315,0,0,0,0-4.631H71.415a1.544,1.544,0,1,1,0-3.087h.772a2.315,2.315,0,1,0,0-4.631H44.4a2.315,2.315,0,0,0,0,4.631H65.241a1.544,1.544,0,1,1,0,3.087H58.295a2.315,2.315,0,0,0,0,4.631H74.5a1.544,1.544,0,1,1,0,3.087H72.187a2.315,2.315,0,1,0,0,4.631H86.079a2.315,2.315,0,1,0,0-4.631Z" transform="translate(-32.98 -76.108)" fill="#8694dd"/>
      <path id="Trazado_19006" data-name="Trazado 19006" d="M222.959,260.033a6.947,6.947,0,0,1-13.14,3.147,6.951,6.951,0,0,1-7.861-1.207,6.947,6.947,0,1,1-1.217-8.509,6.948,6.948,0,0,1,12.205.336,6.949,6.949,0,0,1,10.014,6.234Z" transform="translate(-159.826 -211.41)" fill="#fff5f5"/>
      <path id="Trazado_19007" data-name="Trazado 19007" d="M195.946,273.892a6.946,6.946,0,1,1,4.787-11.979,6.969,6.969,0,0,0-.157,1.473,20.11,20.11,0,0,0,1.478,6.31C202.345,270.524,198.513,273.892,195.946,273.892Z" transform="translate(-159.826 -219.867)" fill="#f7e6b0"/>
      <path id="Trazado_19008" data-name="Trazado 19008" d="M165.241,320.067h-9.261A16.979,16.979,0,0,1,139,303.087v-1.544A1.544,1.544,0,0,1,140.544,300h40.133a1.544,1.544,0,0,1,1.544,1.544v1.544A16.979,16.979,0,0,1,165.241,320.067Z" transform="translate(-117.544 -253.693)" fill="#c92c2c"/>
      <path id="Trazado_19009" data-name="Trazado 19009" d="M260.544,300h21.61a1.544,1.544,0,0,1,1.544,1.544v1.544a16.987,16.987,0,0,1-12.349,16.34A16.987,16.987,0,0,1,259,303.087v-1.544A1.544,1.544,0,0,1,260.544,300Z" transform="translate(-219.021 -253.693)" fill="#f52c2c"/>
      <path id="Trazado_19010" data-name="Trazado 19010" d="M353.356,314.9a3.169,3.169,0,0,1,4.09,0c1.655,1.78-.915,6.533-2.7,8.876-.423.555-2.989,3.843-4.4,3.241a1.435,1.435,0,0,1-.695-.926c-.556-1.939,2.689-3.064,3.473-6.329C353.714,317.306,352.349,315.974,353.356,314.9Z" transform="translate(-295.626 -265.661)" fill="#fd4343"/>
      <path id="Trazado_19011" data-name="Trazado 19011" d="M259.805,257.718a1.544,1.544,0,1,1-1.544-1.544A1.544,1.544,0,0,1,259.805,257.718ZM251.315,250a2.315,2.315,0,1,0,2.315,2.315A2.315,2.315,0,0,0,251.315,250Zm13.12,1.544a1.544,1.544,0,1,0,1.544,1.544A1.544,1.544,0,0,0,264.436,251.544Z" transform="translate(-210.565 -211.41)" fill="#003278"/>
      <path id="Trazado_19012" data-name="Trazado 19012" d="M77.4,191.544v.7a37.267,37.267,0,0,1-.507,6.126L73.873,216.5a1.534,1.534,0,0,0-.021.254v7.2a1.544,1.544,0,0,1-1.544,1.544H54.094a1.544,1.544,0,0,1-1.544-1.544v-7.2a1.552,1.552,0,0,0-.021-.254l-3.022-18.133A37.267,37.267,0,0,1,49,192.241v-.7A1.544,1.544,0,0,1,50.544,190H75.858A1.544,1.544,0,0,1,77.4,191.544Z" transform="translate(-41.436 -160.672)" fill="#01cffa"/>
      <path id="Trazado_19013" data-name="Trazado 19013" d="M105.308,191.544v.7a37.264,37.264,0,0,1-.507,6.126L101.779,216.5a1.553,1.553,0,0,0-.021.254,3.654,3.654,0,0,1-3.654,3.654H88.8a3.654,3.654,0,0,1-3.629-3.23L82,190h21.764A1.544,1.544,0,0,1,105.308,191.544Z" transform="translate(-69.343 -160.672)" fill="#98e5fb"/>
      <path id="Trazado_19014" data-name="Trazado 19014" d="M94.84,220a.772.772,0,0,1,.764.88l-3.319,23.449a3.481,3.481,0,0,1-3.446,2.993H82.116a3.48,3.48,0,0,1-3.446-2.993L75.351,220.88a.772.772,0,0,1,.764-.88Z" transform="translate(-63.713 -186.041)" fill="#07b128"/>
      <path id="Trazado_19015" data-name="Trazado 19015" d="M152.233,240c1.272.132,1.947,3.676,1.507,7.916s-1.827,7.57-3.1,7.438-1.947-3.676-1.507-7.916S150.961,239.872,152.233,240Z" transform="translate(-126 -202.954)" fill="#49cb5c"/>
      <path id="Trazado_19016" data-name="Trazado 19016" d="M156.2,355.436c-.46,2.974-3.062,2.589-6.27,2.094a26.109,26.109,0,0,1-2.75-.522,19.142,19.142,0,0,1-6.045.572,19.142,19.142,0,0,1-6.045-.572,26.069,26.069,0,0,1-2.75.522c-3.207.5-5.81.88-6.27-2.094a5.675,5.675,0,0,1,4.974-6.283,6.227,6.227,0,0,1,2.7.171,8.833,8.833,0,0,1,14.775,0,6.229,6.229,0,0,1,2.7-.171,5.675,5.675,0,0,1,4.974,6.283Z" transform="translate(-106.562 -292.029)" fill="#f19b0b"/>
      <path id="Trazado_19017" data-name="Trazado 19017" d="M150.769,358.613l-.093.054c-.776.2-1.667.339-2.61.485l-.682.1a12.829,12.829,0,0,1-2.1-2.318c-1.615-2.315-.124-4.305,2.149-6.229a6.179,6.179,0,0,1,2.04.238,7.4,7.4,0,0,0-1.1,3.881A3.567,3.567,0,0,0,150.769,358.613Zm16.178-3.35c-.394,2.545,1.452,3.22,4,3.672a2.733,2.733,0,0,0,.975-1.876,5.441,5.441,0,0,0-2.6-5.4A5.252,5.252,0,0,0,166.947,355.263Zm-1.6-.434a7.99,7.99,0,0,0-6.174-7.576A7.991,7.991,0,0,0,153,354.829c0,3.6,2.611,4.238,6.174,4.35C162.74,359.067,165.351,358.432,165.351,354.829Z" transform="translate(-122.285 -293.652)" fill="#f4aa39"/>
      <path id="Trazado_19018" data-name="Trazado 19018" d="M72.521,72.489h53.247a37.818,37.818,0,0,1-53.247,0Zm65.928-37.45c-2.093-19.5-19.222-31.489-38.257-26.788a39.241,39.241,0,0,0-16.728,8.979l52.268,36.6A39.237,39.237,0,0,0,138.449,35.04Z" transform="translate(-61.327 -6.115)" fill="#fdbf43"/>
      <path id="Trazado_19019" data-name="Trazado 19019" d="M82.783,66.374a37.708,37.708,0,0,0,21.493,10.614,38.165,38.165,0,0,1-5.131.345A37.7,37.7,0,0,1,72.521,66.374ZM128.866,9.047a4.631,4.631,0,1,0-6.025-4.341,31.348,31.348,0,0,0-22.649-2.57,39.241,39.241,0,0,0-16.728,8.979l8.58,5.864A39,39,0,0,1,107.6,9.008c9.806-2.421,17.781-1.2,24.78,3.985A29.447,29.447,0,0,0,128.866,9.047Z" transform="translate(-61.327 0)" fill="#f4aa39"/>
      <path id="Trazado_19020" data-name="Trazado 19020" d="M403.605,10.871c.222,1.259-.279,2.4-1.118,2.548s-1.7-.753-1.922-2.012.279-2.4,1.118-2.548,1.7.753,1.922,2.012Zm-4.593,18.986c4.122,9.486,4.177,13.025,5.089,12.932,1.8-.183,4.771-14.225-2.117-20.761-2.3-2.181-5.883-3.706-6.886-2.74S396.118,23.194,399.012,29.857Z" transform="translate(-333.895 -7.478)" fill="#fdcb6b"/>
      <path id="Trazado_19021" data-name="Trazado 19021" d="M55.528,68.155a.308.308,0,0,1-.429.076l-8.787-6.153a2.315,2.315,0,1,1,2.656-3.793L57.7,64.4a.371.371,0,0,1,.091.516Zm-13.455,48.4a2.316,2.316,0,0,1,.07-4.086c.316-.162.025-.254.025-.254H31.315a2.315,2.315,0,1,0,0,4.631H42.053s.354-.106.021-.291Z" transform="translate(-24.524 -48.934)" fill="#fbc56d"/>
      <path id="Trazado_19022" data-name="Trazado 19022" d="M156.337,131.623l-41.979-29.394a2.315,2.315,0,0,1,2.656-3.793l41.979,29.394a2.315,2.315,0,0,1-2.656,3.793Zm-1.46,16.866a2.315,2.315,0,0,0-2.315-2.315H101.315a2.315,2.315,0,1,0,0,4.631h51.247A2.315,2.315,0,0,0,154.878,148.489Z" transform="translate(-83.719 -82.887)" fill="#ffdf8e"/>
    </g>
  </g>
</svg>
