<svg xmlns="http://www.w3.org/2000/svg" width="75.636" height="134.333" viewBox="0 0 75.636 134.333">
  <g id="Grupo_25805" data-name="Grupo 25805" transform="translate(-204 -2464.667)">
    <text id="Espacios_públicos" data-name="Espacios
públicos" transform="translate(242 2570)" fill="#111e61" font-size="18" font-family="Roboto-Medium, Roboto" font-weight="500"><tspan x="-36.448" y="0">Espacios</tspan><tspan x="-34.211" y="24">públicos</tspan></text>
    <g id="playa" transform="translate(198.5 2464.667)">
      <path id="Trazado_18985" data-name="Trazado 18985" d="M5.51,49.719q-.021-.878,0-1.766a37.823,37.823,0,0,1,74.447-8.538q.021.081.041.166a9.294,9.294,0,0,1-9.075,11.4H6.792a1.285,1.285,0,0,1-1.282-1.26Z" transform="translate(0 -9.303)" fill="#81bdfd"/>
      <path id="Trazado_18986" data-name="Trazado 18986" d="M70.979,91.689a2.358,2.358,0,0,1-2.378,2.2H67.123a2.315,2.315,0,0,0-2.315,2.315,2.315,2.315,0,0,1-2.315,2.315H47.056A2.315,2.315,0,0,1,44.744,96.1a2.358,2.358,0,0,1,2.378-2.2H48.6a2.315,2.315,0,0,0,2.315-2.315,2.315,2.315,0,0,1,2.315-2.315H68.666a2.315,2.315,0,0,1,2.313,2.427Zm-2.313-7.058h10.46A38.02,38.02,0,0,0,75.063,80h-6.4a2.315,2.315,0,0,0,0,4.631ZM23.9,93.892H13.332a37.535,37.535,0,0,0-1.4,4.631H23.9a2.315,2.315,0,0,0,0-4.631Z" transform="translate(-5.437 -67.651)" fill="#acd1fd"/>
      <path id="Trazado_18987" data-name="Trazado 18987" d="M69.577,223.624H8.4A37.682,37.682,0,0,1,5.52,209.6a25.132,25.132,0,0,0,6.737-3.264,45.537,45.537,0,0,1,6.792-3.808c3.86-1.881,5.14-2.045,6.174-1.955,3.3.288,5.475,3.281,6.174,4.116,7.578,9.053,37.381-1.678,47.028,8.027a10.189,10.189,0,0,1,1.022,1.2c0,.034,0,.067,0,.1a9.852,9.852,0,0,1-9.868,9.6Z" transform="translate(-0.017 -169.598)" fill="#8694dd"/>
      <path id="Trazado_18988" data-name="Trazado 18988" d="M291.513,183.422A19.295,19.295,0,1,1,278.372,150c7.031,0,12.81,2.1,16.183,7.718a58.3,58.3,0,0,1,1.016,8.644A37.659,37.659,0,0,1,291.513,183.422Z" transform="translate(-214.436 -126.846)" fill="#fdf385"/>
      <path id="Trazado_18989" data-name="Trazado 18989" d="M282.263,188.2a19.295,19.295,0,1,1,0-37.8,19.3,19.3,0,0,0,0,37.8Z" transform="translate(-214.436 -126.846)" fill="#fdf061"/>
      <path id="Trazado_18990" data-name="Trazado 18990" d="M23.462,346.626A37.661,37.661,0,0,1,20.279,340H91.352a37.739,37.739,0,0,1-5.373,9.848,13.22,13.22,0,0,1-10.547,5.2H38.526A17.605,17.605,0,0,1,23.462,346.626Z" transform="translate(-12.498 -287.518)" fill="#314dc8"/>
      <path id="Trazado_18991" data-name="Trazado 18991" d="M181.587,136.307H178.5V90h3.087Z" transform="translate(-146.296 -76.108)" fill="#99302b"/>
      <path id="Trazado_18992" data-name="Trazado 18992" d="M79.116,21.61H34.044A1.544,1.544,0,0,1,32.5,20.067,20.067,20.067,0,0,1,52.567,0h8.027A20.067,20.067,0,0,1,80.66,20.067,1.544,1.544,0,0,1,79.116,21.61Z" transform="translate(-22.833)" fill="#f52c2c"/>
      <path id="Trazado_18993" data-name="Trazado 18993" d="M38.52,21.61H34.044A1.544,1.544,0,0,1,32.5,20.067,20.067,20.067,0,0,1,52.567,0h3.32A20.07,20.07,0,0,0,38.52,19.886Z" transform="translate(-22.833)" fill="#c92c2c"/>
      <path id="Trazado_18994" data-name="Trazado 18994" d="M114.112,0c7.671,2.464,13.382,11.17,13.578,21.61H100.534C100.731,11.17,106.441,2.464,114.112,0Z" transform="translate(-80.365)" fill="#f5c02c"/>
      <path id="Trazado_18995" data-name="Trazado 18995" d="M158.134,22.261h-21.6c.149-9.045,3.454-16.955,8.376-21.491C152.4,3.385,157.94,11.983,158.134,22.261Z" transform="translate(-110.808 -0.651)" fill="#fded32"/>
      <path id="Trazado_18996" data-name="Trazado 18996" d="M77.792,381.153a77.694,77.694,0,0,0,13,1.2A37.823,37.823,0,0,1,43,381.3a37.942,37.942,0,0,1-3.848-5.4c4.62-1.295,9.934-.682,17.188.155C66.585,377.242,67.713,379.371,77.792,381.153Z" transform="translate(-28.454 -317.249)" fill="#f5c02c"/>
      <path id="Trazado_18997" data-name="Trazado 18997" d="M72.581,390.014a38.166,38.166,0,0,1-5.044.334A37.668,37.668,0,0,1,43,381.3a37.94,37.94,0,0,1-3.848-5.4c3.433-.962,7.248-.871,11.958-.417l-.019,0a1.305,1.305,0,0,0-.866,2q.46.7.95,1.38a1.157,1.157,0,1,1,.952,1.263q.469.6.96,1.172A37.663,37.663,0,0,0,72.581,390.014ZM58.5,380.15a1.158,1.158,0,1,0-1.158-1.158A1.158,1.158,0,0,0,58.5,380.15Zm12.349,3.087a1.158,1.158,0,1,0-1.158-1.158A1.158,1.158,0,0,0,70.846,383.237Zm-10.033-.772a1.158,1.158,0,1,0-1.158-1.158A1.158,1.158,0,0,0,60.812,382.466Z" transform="translate(-28.454 -317.25)" fill="#f19b0b"/>
      <path id="Trazado_18998" data-name="Trazado 18998" d="M109.479,161.209,96.9,177.295a2.307,2.307,0,0,1-1.463.861v4.26a2.315,2.315,0,0,1-2.315,2.315H71.513a2.315,2.315,0,0,1-2.315-2.315,2.315,2.315,0,0,1-2.315,2.315H46.815a2.315,2.315,0,0,1-2.315-2.315v-6.174a2.315,2.315,0,0,1,2.315-2.315H66.882a2.315,2.315,0,0,1,2.315,2.315,2.315,2.315,0,0,1,2.315-2.315H89.257a2.315,2.315,0,0,1,.283-2.387l12.578-16.086a2.315,2.315,0,0,1,3.25-.4l3.713,2.9A2.315,2.315,0,0,1,109.479,161.209Z" transform="translate(-32.98 -130.706)" fill="#f02399"/>
      <path id="Trazado_18999" data-name="Trazado 18999" d="M92.251,180.871H76.815a2.315,2.315,0,0,1-2.315-2.315v-6.174a2.315,2.315,0,0,1,2.315-2.315H92.251a2.315,2.315,0,0,1,2.315,2.315v6.174A2.315,2.315,0,0,1,92.251,180.871Zm26.769-7.038-3.713-2.9a2.3,2.3,0,0,1-.681-.863H101.513a2.315,2.315,0,0,0-2.315,2.315v6.174a2.315,2.315,0,0,0,2.315,2.315h16.979a2.315,2.315,0,0,0,2.315-2.315V174.3a2.31,2.31,0,0,1-1.787-.463Zm16.1-20.4-3.842-2.943a2.315,2.315,0,0,0-3.25.4l-10.445,13.377a2.315,2.315,0,0,0,.4,3.25l3.713,2.9a2.315,2.315,0,0,0,3.25-.4l10.574-13.337A2.316,2.316,0,0,0,135.116,153.434Z" transform="translate(-58.35 -126.846)" fill="#fd4fb6"/>
      <path id="Trazado_19000" data-name="Trazado 19000" d="M103.83,263.892v3.087a1.544,1.544,0,0,1-1.544,1.544H91.955l1.105,9.948a.772.772,0,0,1-.767.857H89.144a.772.772,0,0,1-.753-.6l-2.267-10.2H49.25l-2.267,10.2a.772.772,0,0,1-.753.6,3.591,3.591,0,0,1-3.569-3.987l.757-6.818H36.044a1.544,1.544,0,0,1-1.544-1.544v-3.087a1.544,1.544,0,0,1,1.544-1.544H98.08l-3.5-10.787a1.19,1.19,0,0,1,.695-1.493,1.158,1.158,0,0,1,1.492.732l3.751,11.548h1.772a1.544,1.544,0,0,1,1.544,1.544Z" transform="translate(-24.524 -211.41)" fill="#99302b"/>
      <path id="Trazado_19001" data-name="Trazado 19001" d="M123.417,181.4,108.428,200.57H121.42a1.544,1.544,0,0,1,1.544,1.544V205.2a1.544,1.544,0,0,1-1.544,1.544H58.67a1.544,1.544,0,0,1-1.544-1.544v-3.087a1.544,1.544,0,0,1,1.544-1.544h42.408l17.778-22.736a2.315,2.315,0,0,1,3.25-.4l.913.714a2.316,2.316,0,0,1,.4,3.25Z" transform="translate(-43.657 -149.632)" fill="#c92c2c"/>
      <path id="Trazado_19002" data-name="Trazado 19002" d="M173.4,400.262a37.844,37.844,0,0,1-48.215,11.185,3.481,3.481,0,0,1,2.258-6.546l.262.052c3.035.592,6.048.881,8.946,1.183A39.194,39.194,0,0,0,147,405.93c6.361-.992,6.472-2.628,13.583-4.168A62.9,62.9,0,0,1,173.4,400.262Z" transform="translate(-99.515 -338.476)" fill="#f3d373"/>
      <path id="Trazado_19003" data-name="Trazado 19003" d="M90.421,415.5a37.884,37.884,0,0,1-37.652-14.812c2.646.62,6.757,2.656,15.549,4.37,3.035.592,5.894,1.138,8.792,1.441q-1.263-.045-2.406-.116a3.156,3.156,0,0,0-3.312,2.315,1.158,1.158,0,1,1,.168,2.3h-.035a3.146,3.146,0,0,0,1.7,1.61,37.589,37.589,0,0,0,17.2,2.89Zm-13.845-5.657a1.158,1.158,0,1,0,1.158-1.158A1.158,1.158,0,0,0,76.576,409.846Zm18.137-2.7A1.158,1.158,0,1,0,95.87,408.3,1.158,1.158,0,0,0,94.713,407.145Zm4.631-1.544a1.158,1.158,0,1,0,1.158,1.158A1.158,1.158,0,0,0,99.344,405.6Zm-15.436,8.49a1.158,1.158,0,1,0-1.158-1.158A1.158,1.158,0,0,0,83.908,414.091Z" transform="translate(-39.973 -338.841)" fill="#f1ca50"/>
    </g>
  </g>
</svg>
