<svg xmlns="http://www.w3.org/2000/svg" width="142" height="132" viewBox="0 0 142 132">
  <g id="Grupo_25809" data-name="Grupo 25809" transform="translate(-883 -2465)">
    <text id="_Servicios_complementarios" data-name=" Servicios
complementarios" transform="translate(954 2572)" fill="#111e61" font-size="18" font-family="Roboto-Medium, Roboto" font-weight="500"><tspan x="-39.274" y="0" xml:space="preserve"> Servicios</tspan><tspan x="-70.62" y="20">complementarios</tspan></text>
    <g id="taxi" transform="translate(910.5 2465)">
      <path id="Trazado_19066" data-name="Trazado 19066" d="M29.555,32.363a37.67,37.67,0,0,1,67.915,0Z" transform="translate(-20.358 -9.309)" fill="#81bdfd"/>
      <path id="Trazado_19067" data-name="Trazado 19067" d="M7.828,128.577A37.759,37.759,0,0,1,9.98,97.685h53a.769.769,0,0,0,.768-.768V90.768A.769.769,0,0,1,64.518,90h6.331a37.633,37.633,0,0,1,7.617,38.577Z" transform="translate(0 -76.168)" fill="#6c7fd7"/>
      <path id="Trazado_19068" data-name="Trazado 19068" d="M23.186,341.911A37.56,37.56,0,0,1,16.874,330H88.687a37.46,37.46,0,0,1-3.658,8.076,7.925,7.925,0,0,1-6.779,3.835Z" transform="translate(-9.626 -279.281)" fill="#fd2aa7"/>
      <path id="Trazado_19069" data-name="Trazado 19069" d="M69.514,413.138A37.764,37.764,0,0,1,52.264,400h17.25Z" transform="translate(-39.577 -338.523)" fill="#d80d80"/>
      <path id="Trazado_19070" data-name="Trazado 19070" d="M170.27,1.127l2.241,8.095H154.589l2.241-8.095A1.537,1.537,0,0,1,158.311,0h10.478a1.537,1.537,0,0,1,1.481,1.127Z" transform="translate(-126.175 0)" fill="#fdf061"/>
      <path id="Trazado_19071" data-name="Trazado 19071" d="M193.875,1.127l2.241,8.095H182.481l2.241-8.095A1.537,1.537,0,0,1,186.2,0h6.191A1.537,1.537,0,0,1,193.875,1.127Z" transform="translate(-149.78)" fill="#fdf385"/>
      <path id="Trazado_19072" data-name="Trazado 19072" d="M103.5,56.358l5.454,16.7H58.393l5.454-16.7A9.221,9.221,0,0,1,72.613,50H94.738A9.221,9.221,0,0,1,103.5,56.358Z" transform="translate(-44.764 -42.315)" fill="#fde803"/>
      <path id="Trazado_19073" data-name="Trazado 19073" d="M69.3,56.358l-5.454,16.7H58.393l5.454-16.7A9.221,9.221,0,0,1,72.613,50H73.6a7.559,7.559,0,0,0-3.145,3.074C70.047,54.006,69.709,55.116,69.3,56.358Z" transform="translate(-44.764 -42.315)" fill="#f5c02c"/>
      <path id="Trazado_19074" data-name="Trazado 19074" d="M88.624,86.906a.769.769,0,0,1-.731-1.007L91.7,74.239A6.134,6.134,0,0,1,97.547,70h22.126a6.134,6.134,0,0,1,5.844,4.239l3.809,11.66a.769.769,0,0,1-.73,1.007Z" transform="translate(-69.698 -59.241)" fill="#4f66cf"/>
      <path id="Trazado_19075" data-name="Trazado 19075" d="M146.427,70l-7.6,16.906h-10.11L136.317,70Zm7.827,0H149.8l-7.6,16.906h6.74l7.432-16.533A6.16,6.16,0,0,0,154.255,70Z" transform="translate(-104.28 -59.241)" fill="#8694dd"/>
      <path id="Trazado_19076" data-name="Trazado 19076" d="M259.188,136.148A6.148,6.148,0,1,1,253.041,130,6.148,6.148,0,0,1,259.188,136.148Zm-6.148-3.842a3.842,3.842,0,1,0,3.842,3.842A3.842,3.842,0,0,0,253.041,132.305Z" transform="translate(-204.293 -110.02)" fill="#314dc8"/>
      <path id="Trazado_19077" data-name="Trazado 19077" d="M248.95,137.873h-1.864a6.154,6.154,0,0,1,5.3-7.651l-1.246,2.771a3.848,3.848,0,0,0-1.862,4.143Z" transform="translate(-204.292 -110.208)" fill="#6c7fd7"/>
      <path id="Trazado_19078" data-name="Trazado 19078" d="M165.947,274.611H144.43a1.537,1.537,0,0,1-1.537-1.537v-1.537A1.537,1.537,0,0,1,144.43,270h21.517a1.537,1.537,0,0,1,1.537,1.537v1.537A1.537,1.537,0,0,1,165.947,274.611Z" transform="translate(-116.277 -228.503)" fill="#f19b0b"/>
      <path id="Trazado_19079" data-name="Trazado 19079" d="M87.885,213.074V229.98a3.074,3.074,0,0,1-3.074,3.074H82.967a3.074,3.074,0,0,1-3.074-3.074V213.074A3.074,3.074,0,0,1,82.967,210h1.844A3.074,3.074,0,0,1,87.885,213.074Z" transform="translate(-62.959 -177.724)" fill="#003278"/>
      <path id="Trazado_19080" data-name="Trazado 19080" d="M87.885,243.074v7.838a3.074,3.074,0,0,1-3.074,3.074H82.967a3.074,3.074,0,0,1-3.074-3.074v-7.838A3.074,3.074,0,0,1,82.967,240h1.844A3.074,3.074,0,0,1,87.885,243.074Z" transform="translate(-62.959 -203.114)" fill="#00429a"/>
      <path id="Trazado_19081" data-name="Trazado 19081" d="M32.893,171.874a8.122,8.122,0,0,1,5.232-7.58A67.239,67.239,0,0,1,62.095,160a67.24,67.24,0,0,1,23.97,4.294A8.107,8.107,0,0,1,83.19,179.98H41A8.106,8.106,0,0,1,32.893,171.874Z" transform="translate(-23.183 -135.409)" fill="#fde803"/>
      <path id="Trazado_19082" data-name="Trazado 19082" d="M107.769,224.611H63.2a2.305,2.305,0,1,1,0-4.611h44.571a2.305,2.305,0,1,1,0,4.611Z" transform="translate(-46.879 -186.188)" fill="#fd2aa7"/>
      <path id="Trazado_19083" data-name="Trazado 19083" d="M93.809,224.611H89.2a2.305,2.305,0,0,1,0-4.611h4.611a2.305,2.305,0,1,1,0,4.611Z" transform="translate(-68.883 -186.188)" fill="#fd73c4"/>
      <path id="Trazado_19084" data-name="Trazado 19084" d="M91.3,214.189A8.106,8.106,0,0,1,83.19,222.3H41a8.1,8.1,0,0,1-7.5-11.176,8.109,8.109,0,0,0,7.5,5.028h4.573l1.316-4.028A3.074,3.074,0,0,1,49.81,210H74.379a3.074,3.074,0,0,1,2.922,2.119l1.316,4.028H83.19a8.109,8.109,0,0,0,7.5-5.028A8.074,8.074,0,0,1,91.3,214.189Z" transform="translate(-23.183 -177.724)" fill="#fbc56d"/>
      <path id="Trazado_19085" data-name="Trazado 19085" d="M180.568,243.074H163.661a.769.769,0,0,1-.768-.768v-1.537a.769.769,0,0,1,.768-.768h16.906a.769.769,0,0,1,.768.768v1.537A.769.769,0,0,1,180.568,243.074Z" transform="translate(-133.203 -203.114)" fill="#fff5f5"/>
      <path id="Trazado_19086" data-name="Trazado 19086" d="M173.965,160.768a.769.769,0,0,1-.768.768H153.018a.768.768,0,0,1,0-1.537H173.2A.768.768,0,0,1,173.965,160.768Z" transform="translate(-124.196 -135.409)" fill="#f19b0b"/>
      <path id="Trazado_19087" data-name="Trazado 19087" d="M271.581,179.409v1.921h.384a1.537,1.537,0,0,1,1.537,1.537v2.69a1.537,1.537,0,0,1-1.537,1.537h-.384V198a37.763,37.763,0,0,1-3.842,5.4c-6.907,8.1-30.739,12.739-30.739,12.5V167.882A2.882,2.882,0,0,1,239.882,165H268.7a2.882,2.882,0,0,1,2.882,2.882v5.763h.384a1.537,1.537,0,0,1,1.537,1.537v2.69a1.537,1.537,0,0,1-1.537,1.537Z" transform="translate(-195.92 -139.641)" fill="#00429a"/>
      <path id="Trazado_19088" data-name="Trazado 19088" d="M229.3,165h5.763a2.882,2.882,0,0,0-2.882,2.882v31.642a26.411,26.411,0,0,1-5.763,0V184.212h-.384a1.537,1.537,0,0,1-1.537-1.537v-8.453a1.537,1.537,0,0,1,1.537-1.537h.384v-4.8A2.882,2.882,0,0,1,229.3,165Zm18.251,1.921h-7.685a.961.961,0,1,0,0,1.921h7.685a.961.961,0,1,0,0-1.921Z" transform="translate(-185.341 -139.641)" fill="#003278"/>
      <path id="Trazado_19089" data-name="Trazado 19089" d="M262,248.337V203.461a.961.961,0,0,1,.961-.961h24.975a.961.961,0,0,1,.961.961v31.682A37.572,37.572,0,0,1,262,248.337Z" transform="translate(-217.078 -171.377)" fill="#98e5fb"/>
      <path id="Trazado_19090" data-name="Trazado 19090" d="M326.234,203.461v25.486a9.986,9.986,0,0,1-5.708,9.009l-.192.091a9.966,9.966,0,0,1-14.215-9.009V202.5h19.155A.961.961,0,0,1,326.234,203.461Z" transform="translate(-254.415 -171.377)" fill="#c7eefd"/>
      <path id="Trazado_19091" data-name="Trazado 19091" d="M178.2,13v1.691a.307.307,0,0,1-.307.307H176.2a.307.307,0,0,1-.307-.307V13a.307.307,0,0,1,.307-.307h1.691A.307.307,0,0,1,178.2,13Zm4.3-.307h-1.691A.307.307,0,0,0,180.5,13v1.691a.307.307,0,0,0,.307.307H182.5a.307.307,0,0,0,.307-.307V13A.308.308,0,0,0,182.5,12.69Zm-2-2.382A.307.307,0,0,0,180.2,10h-1.691a.307.307,0,0,0-.307.307V12a.307.307,0,0,0,.307.307H180.2A.307.307,0,0,0,180.5,12Zm6.455,2.382h-1.691a.307.307,0,0,0-.307.307v1.691a.307.307,0,0,0,.307.307h1.691a.307.307,0,0,0,.307-.307V13A.308.308,0,0,0,186.959,12.69Zm-2-2.382a.307.307,0,0,0-.307-.307h-1.691a.307.307,0,0,0-.307.307V12a.307.307,0,0,0,.307.307h1.691a.307.307,0,0,0,.307-.307Z" transform="translate(-144.205 -8.463)" fill="#3f4a4a"/>
      <path id="Trazado_19092" data-name="Trazado 19092" d="M307.749,287.485a5.77,5.77,0,0,1-5.763,5.763h-6.148a1.153,1.153,0,0,1,0-2.305h6.148a3.458,3.458,0,1,0,0-6.916h-9.222a5.763,5.763,0,0,1,0-11.527h9.222a1.153,1.153,0,0,1,0,2.305h-9.222a3.458,3.458,0,0,0,0,6.916h9.222A5.77,5.77,0,0,1,307.749,287.485Z" transform="translate(-238.235 -230.619)" fill="#49b4fa"/>
      <path id="Trazado_19093" data-name="Trazado 19093" d="M330.619,236.9l-3.594-5.656a4.381,4.381,0,1,1,7.4,0l-3.593,5.656A.124.124,0,0,1,330.619,236.9Zm-5.63,22.664,3.594-5.656a4.381,4.381,0,1,0-7.4,0l3.594,5.656A.124.124,0,0,0,324.99,259.568Z" transform="translate(-266.59 -190.01)" fill="#f52c2c"/>
      <path id="Trazado_19094" data-name="Trazado 19094" d="M340.348,233.707a3.218,3.218,0,1,1-3.218-3.218A3.218,3.218,0,0,1,340.348,233.707Zm-9.057,19.446a3.218,3.218,0,1,0,3.218,3.218A3.218,3.218,0,0,0,331.292,253.153Z" transform="translate(-272.997 -195.064)" fill="#a62b2b"/>
      <path id="Trazado_19095" data-name="Trazado 19095" d="M348.006,244.286a1.3,1.3,0,1,1-1.3-1.3A1.3,1.3,0,0,1,348.006,244.286Zm-7.135,21.368a1.3,1.3,0,1,0,1.3,1.3A1.3,1.3,0,0,0,340.871,265.653Z" transform="translate(-282.729 -205.643)" fill="#fd4343"/>
      <path id="Trazado_19096" data-name="Trazado 19096" d="M198.1,323h-7.377a3.231,3.231,0,0,0-3.228,3.228v11.066a3.231,3.231,0,0,0,3.228,3.228H198.1a3.231,3.231,0,0,0,3.228-3.228V326.228A3.231,3.231,0,0,0,198.1,323Zm.461,14.293a.462.462,0,0,1-.461.461h-7.377a.462.462,0,0,1-.461-.461V326.228a.462.462,0,0,1,.461-.461H198.1a.462.462,0,0,1,.461.461Z" transform="translate(-154.028 -273.357)" fill="#c98001"/>
      <path id="Trazado_19097" data-name="Trazado 19097" d="M162.8,322.951v-2.213a.738.738,0,0,1,.738-.738h5.9a.738.738,0,0,1,.738.738v2.213a.738.738,0,0,1-.738.738h-5.9A.738.738,0,0,1,162.8,322.951Zm12.91,4.426H157.266a2.766,2.766,0,0,0-2.766,2.766v14.674a37.843,37.843,0,0,0,23.976,1.863V330.144A2.767,2.767,0,0,0,175.71,327.377Z" transform="translate(-126.1 -270.818)" fill="#f5c02c"/>
      <path id="Trazado_19098" data-name="Trazado 19098" d="M176.189,393.844v13.991A37.375,37.375,0,0,1,172.5,406.8v-12.96a1.844,1.844,0,1,1,3.689,0ZM189.1,392a1.844,1.844,0,0,0-1.844,1.844v14.808q1.871-.136,3.689-.451V393.844A1.844,1.844,0,0,0,189.1,392Zm-7.377,0a1.844,1.844,0,0,0-1.844,1.844v14.629q1.819.222,3.689.268v-14.9A1.844,1.844,0,0,0,181.722,392Z" transform="translate(-141.333 -331.752)" fill="#c98001"/>
    </g>
  </g>
</svg>
