<svg xmlns="http://www.w3.org/2000/svg" xmlns:xlink="http://www.w3.org/1999/xlink" width="180.01" height="137.127" viewBox="0 0 180.01 137.127">
  <defs>
    <linearGradient id="linear-gradient" x1="0.182" y1="-0.023" x2="0.978" y2="1.273" gradientUnits="objectBoundingBox">
      <stop offset="0" stop-color="#bddcfd"/>
      <stop offset="1" stop-color="#5f98ed"/>
    </linearGradient>
  </defs>
  <g id="Grupo_4904" data-name="Grupo 4904" transform="translate(-157.802 -265.969)">
    <g id="Grupo_4892" data-name="Grupo 4892" transform="translate(157.802 265.969)">
      <g id="Grupo_4891" data-name="Grupo 4891" transform="translate(0)">
        <g id="Grupo_4889" data-name="Grupo 4889">
          <path id="Trazado_1373" data-name="Trazado 1373" d="M309.085,304.749l-41.425-6.021L249.134,261.19a6.725,6.725,0,0,0-12.058,0l-18.525,37.538-41.426,6.021a6.723,6.723,0,0,0-3.727,11.467l29.976,29.22L196.3,386.7a6.722,6.722,0,0,0,9.755,7.086L243.1,374.3l37.053,19.477a6.722,6.722,0,0,0,9.755-7.086l-7.074-41.259,29.976-29.22A6.723,6.723,0,0,0,309.085,304.749Z" transform="translate(-171.359 -257.443)" fill="#fc9e17"/>
          <path id="Trazado_1374" data-name="Trazado 1374" d="M215.354,321.861c.138-3.953.2-8.459-2.048-11.821a15.113,15.113,0,0,0-4.134-3.876c-1.13-.768-2.3-1.489-3.446-2.233q-1.919-1.244-3.942-2.325a43.161,43.161,0,0,0-8.171-3.393c-.963-.278-1.9-.634-2.87-.886s-1.941-.447-2.921-.623c-4.427-.791-8.924-1.134-13.33-2.051-.22-.046-.442-.093-.667-.143L201.8,321.774l-7.074,41.259a6.7,6.7,0,0,0,4.381,7.477c.493-.865.986-1.732,1.47-2.6,5.19-9.331,9.784-19.056,12.4-29.45A79.4,79.4,0,0,0,215.354,321.861Z" transform="translate(-169.785 -233.781)" fill="#f27e0a"/>
          <path id="Trazado_1375" data-name="Trazado 1375" d="M228.457,300.719a13.6,13.6,0,0,0,2.584,4.986,8.577,8.577,0,0,0,4.566,2.236c4.111.914,8.461.544,12.629.315,5.2-.283,10.422-.151,15.63-.175q10.84-.054,21.681-.251a6.6,6.6,0,0,0-4.745-3.1l-41.425-6.021L220.85,261.169a6.616,6.616,0,0,0-5.184-3.693C217.062,268.43,227.179,296.846,228.457,300.719Z" transform="translate(-143.075 -257.422)" fill="#ffce00"/>
        </g>
        <text id="_4" data-name="4" transform="translate(70.319 102.333)" fill="#fffcde" font-size="73" font-family="Roboto-Black, Roboto" font-weight="800"><tspan x="-21.137" y="0">4</tspan></text>
      </g>
    </g>
    <g id="Grupo_4900" data-name="Grupo 4900" transform="translate(257.198 265.968)">
      <g id="Grupo_4893" data-name="Grupo 4893">
        <path id="Trazado_1377" data-name="Trazado 1377" d="M335.024,245.246l-.019,24.886a4.3,4.3,0,0,1-4.249,3.642H261.621a4.311,4.311,0,0,1-4.3-4.082v-.043l.017-24.438a3.5,3.5,0,0,1,3.5-3.492l70.693.028A3.5,3.5,0,0,1,335.024,245.246Z" transform="translate(-257.322 -237.733)" fill="#231f20" opacity="0.1"/>
        <path id="Trazado_1378" data-name="Trazado 1378" d="M337.314,242.111,337.3,267a4.3,4.3,0,0,1-4.249,3.642H263.911a4.311,4.311,0,0,1-4.3-4.081v-.042l.017-24.439a3.5,3.5,0,0,1,3.5-3.492l70.693.028A3.5,3.5,0,0,1,337.314,242.111Z" transform="translate(-256.7 -238.584)" fill="url(#linear-gradient)"/>
      </g>
      <g id="Grupo_4896" data-name="Grupo 4896" transform="translate(8.351 8.108)">
        <g id="Grupo_4894" data-name="Grupo 4894" transform="translate(0.001 6.74)">
          <path id="Trazado_1379" data-name="Trazado 1379" d="M299.763,252.76H289.754a1.249,1.249,0,0,1-1.249-1.245h0a1.248,1.248,0,0,1,1.249-1.252h9.938a1.3,1.3,0,0,1,1.313,1.12A1.248,1.248,0,0,1,299.763,252.76Z" transform="translate(-257.208 -250.262)" fill="#fff" opacity="0.6"/>
          <path id="Trazado_1380" data-name="Trazado 1380" d="M292.615,252.759H265.143a1.253,1.253,0,0,1-1.252-1.249h0a1.244,1.244,0,0,1,1.244-1.247h27.481a1.248,1.248,0,0,1,1.249,1.243h0A1.248,1.248,0,0,1,292.615,252.759Z" transform="translate(-263.891 -250.262)" fill="#fff" opacity="0.6"/>
        </g>
        <path id="Trazado_1381" data-name="Trazado 1381" d="M292.615,247.459H265.143a1.253,1.253,0,0,1-1.252-1.249h0a1.244,1.244,0,0,1,1.244-1.249h27.481a1.249,1.249,0,0,1,1.249,1.245h0A1.249,1.249,0,0,1,292.615,247.459Z" transform="translate(-263.89 -244.961)" fill="#fff" opacity="0.6"/>
        <g id="Grupo_4895" data-name="Grupo 4895" transform="translate(0 13.479)">
          <path id="Trazado_1382" data-name="Trazado 1382" d="M302.456,258.062h-22.6a1.249,1.249,0,0,1,0-2.5h22.6a1.253,1.253,0,0,1,1.252,1.249h0A1.244,1.244,0,0,1,302.456,258.062Z" transform="translate(-259.895 -255.562)" fill="#fff" opacity="0.6"/>
          <path id="Trazado_1383" data-name="Trazado 1383" d="M265.139,255.562h14.887a1.249,1.249,0,1,1,0,2.5H265.144a1.253,1.253,0,0,1-1.254-1.249h0A1.249,1.249,0,0,1,265.139,255.562Z" transform="translate(-263.89 -255.562)" fill="#fff" opacity="0.6"/>
        </g>
      </g>
      <g id="Grupo_4899" data-name="Grupo 4899" transform="translate(57.403 6.795)">
        <path id="Trazado_1384" data-name="Trazado 1384" d="M311.258,243.929a8.932,8.932,0,1,0,9.073,8.789A8.932,8.932,0,0,0,311.258,243.929Z" transform="translate(-302.468 -243.928)" fill="#fc9e17"/>
        <g id="Grupo_4897" data-name="Grupo 4897" transform="translate(2.722 8.158)">
          <path id="Trazado_1385" data-name="Trazado 1385" d="M307.869,251.974a1.63,1.63,0,1,1-1.63-1.63A1.63,1.63,0,0,1,307.869,251.974Z" transform="translate(-304.609 -250.344)" fill="#ea8e15" opacity="0.4"/>
          <path id="Trazado_1386" data-name="Trazado 1386" d="M315.024,251.974a1.63,1.63,0,1,1-1.63-1.63A1.63,1.63,0,0,1,315.024,251.974Z" transform="translate(-302.666 -250.344)" fill="#ea8e15" opacity="0.4"/>
        </g>
        <path id="Trazado_1387" data-name="Trazado 1387" d="M310.76,256.556a5.387,5.387,0,0,0,5.261-5.5.325.325,0,0,0-.65.014,4.732,4.732,0,1,1-9.461.21.325.325,0,0,0-.65.014A5.387,5.387,0,0,0,310.76,256.556Z" transform="translate(-301.71 -242.079)" fill="#f27e0a"/>
        <g id="Grupo_4898" data-name="Grupo 4898" transform="translate(4.004 4.596)">
          <path id="Trazado_1388" data-name="Trazado 1388" d="M307.847,247.938a1.29,1.29,0,0,0-.912-.4,1.362,1.362,0,0,0-.924.367,1.294,1.294,0,0,0-.394.913l.017.149.191.17h.106l.149-.017.169-.191v-.1a.668.668,0,0,1,.667-.656h.01a.669.669,0,0,1,.656.676l.017.149.189.17h.111a.316.316,0,0,0,.315-.312A1.287,1.287,0,0,0,307.847,247.938Z" transform="translate(-305.617 -247.543)" fill="#f27e0a"/>
          <path id="Trazado_1389" data-name="Trazado 1389" d="M313.555,247.938a1.287,1.287,0,0,0-.912-.4,1.359,1.359,0,0,0-.923.367,1.289,1.289,0,0,0-.394.913l.017.149.189.17h.105l.15-.017.168-.191,0-.1a.666.666,0,0,1,.666-.656h.01a.667.667,0,0,1,.656.676l.017.149.191.17h.109a.317.317,0,0,0,.317-.312A1.289,1.289,0,0,0,313.555,247.938Z" transform="translate(-304.067 -247.543)" fill="#f27e0a"/>
        </g>
      </g>
    </g>
  </g>
</svg>
