<svg xmlns="http://www.w3.org/2000/svg" width="228" height="228" viewBox="0 0 228 228">
  <g id="Grupo_55630" data-name="Grupo 55630" transform="translate(-992 -1901)">
    <rect id="Rectángulo_5483" data-name="Rectángulo 5483" width="228" height="228" rx="11" transform="translate(992 1901)" fill="#ffefd8"/>
    <g id="fluir" transform="translate(967.884 1916.146)">
      <path id="Trazado_101340" data-name="Trazado 101340" d="M219.34,223H168.71A11.632,11.632,0,0,0,157,234.526v25.124h74.05V234.526A11.632,11.632,0,0,0,219.34,223Z" transform="translate(-60.103 -136.483)" fill="#ff9800"/>
      <path id="Trazado_101341" data-name="Trazado 101341" d="M231,182v8.351a10.023,10.023,0,0,0,5.127,8.736l4.189,2.36h.067l4.189-2.36a10.023,10.023,0,0,0,5.127-8.736V182Z" transform="translate(-106.428 -110.817)" fill="#efc597"/>
      <g id="_Path_" data-name=" Path " transform="translate(63.096 47.106)">
        <path id="Trazado_101342" data-name="Trazado 101342" d="M403.469,396.07V409.4H378.43V396.07Z" transform="translate(-261.817 -291.933)" fill="#f3ce7d"/>
        <path id="Trazado_101343" data-name="Trazado 101343" d="M222.53,465.36h25.038v13.329H222.53Z" transform="translate(-164.222 -335.31)" fill="#5fcda4"/>
        <path id="Trazado_101344" data-name="Trazado 101344" d="M378.43,465.36h25.039v13.329H378.43Z" transform="translate(-261.817 -335.31)" fill="#f3ce7d"/>
        <path id="Trazado_101345" data-name="Trazado 101345" d="M247.569,396.07V409.4H222.53V396.07h25.039Z" transform="translate(-164.222 -291.933)" fill="#5fcda4"/>
        <path id="Trazado_101346" data-name="Trazado 101346" d="M66.62,465.36H91.659v13.329H66.62Z" transform="translate(-66.62 -335.31)" fill="#5fa8ed"/>
        <path id="Trazado_101347" data-name="Trazado 101347" d="M91.658,396.07V409.4H66.62V396.07Z" transform="translate(-66.62 -291.933)" fill="#5fa8ed"/>
        <path id="Trazado_101348" data-name="Trazado 101348" d="M321.042,117.662c-.016-.014-.028-.027-.042-.041v.033Z" transform="translate(-225.865 -117.621)" fill="#6d7486"/>
      </g>
      <path id="Trazado_101349" data-name="Trazado 101349" d="M252.51,239.855,247.87,232h-.748l-4.707,7.874,2.351,1.942h0l5.406-.055Z" transform="translate(-113.574 -142.118)" fill="#bc6275"/>
      <path id="Trazado_101350" data-name="Trazado 101350" d="M248.808,256.248l3.153,23.632H240.24l3.156-23.595,0,0a3.793,3.793,0,0,1,5.408-.052Z" transform="translate(-112.212 -156.597)" fill="#ea7288"/>
      <path id="Trazado_101351" data-name="Trazado 101351" d="M233.26,20.934l-11.823-8.516a7.521,7.521,0,0,0-7.856-.572l-9.487,4.918a2.422,2.422,0,0,0-3.067-.886l-5.912,2.734A10.546,10.546,0,0,0,189,28.141V51.392l49.11-.748a2.029,2.029,0,0,1,.256.232V31.013a12.345,12.345,0,0,0-5.107-10.079Z" transform="translate(-80.135 -3.77)" fill="#fff1db"/>
      <path id="Trazado_101352" data-name="Trazado 101352" d="M309.676,97.871a5.927,5.927,0,0,0-.655-.561l-.016.026v7.712h.067l2.177-.183v-3.115A5.442,5.442,0,0,0,309.676,97.871Z" transform="translate(-155.26 -57.8)" fill="#4a5160"/>
      <path id="Trazado_101353" data-name="Trazado 101353" d="M193.956,114.489v6.145h-.082a3.9,3.9,0,0,1-4.2-6.571,3.3,3.3,0,0,1,4.2.426Z" transform="translate(-79.507 -67.936)" fill="#efc597"/>
      <path id="Trazado_101354" data-name="Trazado 101354" d="M310.351,113.5a3.161,3.161,0,0,1,1.956.557,3.987,3.987,0,0,1,.348.273,3.9,3.9,0,0,1-4.544,6.3h-.041v-6.145h.041A3.377,3.377,0,0,1,310.351,113.5Z" transform="translate(-154.674 -67.935)" fill="#efc597"/>
      <path id="Trazado_101355" data-name="Trazado 101355" d="M239.5,69.154a3.216,3.216,0,0,1-3.211-3.239V62.351A40.258,40.258,0,0,1,216.553,54h-2.94A15.749,15.749,0,0,0,203,68.885V85.5a19.821,19.821,0,1,0,39.643,0V70.224l.046-.026a5.391,5.391,0,0,0-3.193-1.043Z" transform="translate(-88.899 -30.687)" fill="#ffd8b7"/>
      <path id="Trazado_101356" data-name="Trazado 101356" d="M268.9,209.986a12.433,12.433,0,0,1-1.376,7.139,12.68,12.68,0,0,1-1.455,2.165l-1.978,2.36a1.695,1.695,0,0,1-2.723-.165l-.176-.273-5.1-7.869,4.177-2.319a9.948,9.948,0,0,0,5.116-8.7l1.193,1.642a12.436,12.436,0,0,1,2.319,6.014Z" transform="translate(-122.134 -123.544)" fill="#a1c0ff"/>
      <path id="Trazado_101357" data-name="Trazado 101357" d="M221.553,209.986a12.436,12.436,0,0,1,2.319-6.014l1.193-1.642a9.948,9.948,0,0,0,5.116,8.695l4.178,2.319-5.116,7.9-.157.239a1.695,1.695,0,0,1-2.723.165l-1.978-2.36a12.677,12.677,0,0,1-1.455-2.165,12.433,12.433,0,0,1-1.376-7.139Z" transform="translate(-100.469 -123.544)" fill="#a1c0ff"/>
      <path id="Trazado_101358" data-name="Trazado 101358" d="M224.78,103.06A19.839,19.839,0,0,1,214.22,85.5V68.885a15.664,15.664,0,0,1,5.967-12.324A39.184,39.184,0,0,1,216.553,54h-2.94A15.749,15.749,0,0,0,203,68.885V85.5a19.811,19.811,0,0,0,25.434,19.036A19.731,19.731,0,0,1,224.78,103.06Z" transform="translate(-88.899 -30.687)" fill="#e2bfa6"/>
      <g id="Grupo_55603" data-name="Grupo 55603" transform="translate(60.991 4.98)">
        <path id="Trazado_101359" data-name="Trazado 101359" d="M267.5,108.618a2.244,2.244,0,0,0,2.244-2.244,1.18,1.18,0,1,1,2.36,0,2.244,2.244,0,1,0,4.488,0,5.668,5.668,0,1,0-11.336,0A2.244,2.244,0,0,0,267.5,108.618Z" transform="translate(-188.865 -64.905)" fill="#363636"/>
        <path id="Trazado_101360" data-name="Trazado 101360" d="M225.522,108.618a2.244,2.244,0,0,0,2.244-2.244,5.668,5.668,0,1,0-11.336,0,2.244,2.244,0,0,0,4.488,0,1.18,1.18,0,1,1,2.36,0A2.244,2.244,0,0,0,225.522,108.618Z" transform="translate(-158.297 -64.905)" fill="#363636"/>
        <path id="Trazado_101361" data-name="Trazado 101361" d="M249.984,147.988a2.244,2.244,0,0,0-3.173-3.174,5.834,5.834,0,0,1-8.243,0,2.244,2.244,0,1,0-3.173,3.174,10.317,10.317,0,0,0,14.59,0Z" transform="translate(-169.758 -92.106)" fill="#363636"/>
        <path id="Trazado_101362" data-name="Trazado 101362" d="M175.244,246A2.244,2.244,0,0,0,173,248.244v.748a2.244,2.244,0,0,0,4.488,0v-.748A2.244,2.244,0,0,0,175.244,246Z" transform="translate(-131.11 -155.861)" fill="#363636"/>
        <path id="Trazado_101363" data-name="Trazado 101363" d="M175.244,268A2.244,2.244,0,0,0,173,270.244v10.1a2.244,2.244,0,1,0,4.488,0v-10.1A2.244,2.244,0,0,0,175.244,268Z" transform="translate(-131.11 -169.634)" fill="#363636"/>
        <path id="Trazado_101364" data-name="Trazado 101364" d="M204.749,148.973H194.508V143.4a9.036,9.036,0,0,0-8.915-9.013H136.166v-8.976h34.669a2.363,2.363,0,0,0,2.356-2.356V114.94a2.244,2.244,0,1,0-4.488,0v5.984h-27l-2.711-20.33.008-.007a3.916,3.916,0,0,0,1.416.364q.12.007.238.007a3.956,3.956,0,0,0,3.022-1.41l1.979-2.362a14.594,14.594,0,0,0,2.867-5.411,14.8,14.8,0,0,0,.526-3.015h10.195a9.494,9.494,0,0,1,9.466,9.466v1.006a2.244,2.244,0,0,0,4.488,0V98.041a13.769,13.769,0,0,0-13.769-13.769H148.665a14.66,14.66,0,0,0-2.4-5.169l-.752-1.047V73.629A22.452,22.452,0,0,0,156.01,55.471a6.059,6.059,0,0,0,5.8-7,5.528,5.528,0,0,0-1.332-2.945V27.242a14.623,14.623,0,0,0-6.04-11.9L142.612,6.826a9.719,9.719,0,0,0-10.2-.742L124.3,10.291a4.679,4.679,0,0,0-4.352-.218l-5.915,2.736a12.836,12.836,0,0,0-7.41,11.56V46.244a6.463,6.463,0,0,0-.732,2.222,6.155,6.155,0,0,0,5.934,7.007,22.46,22.46,0,0,0,10.505,18.156v4.427l-.752,1.047a14.664,14.664,0,0,0-2.4,5.169H108.607A14,14,0,0,0,94.653,98.227v25.057a2.126,2.126,0,0,0,2.127,2.128h34.9v8.976H82.251a9.036,9.036,0,0,0-8.915,9.013v5.572H63.095a2.149,2.149,0,0,0-2.1,2.271v13.329a2.22,2.22,0,0,0,2.1,2.351H73.336v7.854H63.095a2.245,2.245,0,0,0-2.1,2.378v13.33a2.126,2.126,0,0,0,2.1,2.244H88.133a2.389,2.389,0,0,0,2.407-2.244v-13.33a2.506,2.506,0,0,0-2.407-2.378H77.824v-7.854H88.133a2.481,2.481,0,0,0,2.407-2.351V151.244a2.412,2.412,0,0,0-2.407-2.271H77.824V143.4a4.544,4.544,0,0,1,4.427-4.525h49.427v10.1H121.4a2.124,2.124,0,0,0-2.067,2.271v13.329a2.195,2.195,0,0,0,2.067,2.351h10.275v7.854H121.4a2.22,2.22,0,0,0-2.067,2.378v13.33a2.1,2.1,0,0,0,2.067,2.244h25.038a2.1,2.1,0,0,0,2.066-2.244v-13.33a2.218,2.218,0,0,0-2.066-2.378H136.166v-7.854h10.276a2.194,2.194,0,0,0,2.066-2.351V151.244a2.122,2.122,0,0,0-2.066-2.271H136.166v-10.1h49.427a4.544,4.544,0,0,1,4.427,4.525v5.572H179.711a2.412,2.412,0,0,0-2.407,2.271v13.329a2.481,2.481,0,0,0,2.407,2.351H190.02v7.854H179.711a2.506,2.506,0,0,0-2.407,2.378v13.33a2.389,2.389,0,0,0,2.407,2.244h25.038a2.126,2.126,0,0,0,2.1-2.244v-13.33a2.245,2.245,0,0,0-2.1-2.378H194.508v-7.854h10.241a2.221,2.221,0,0,0,2.1-2.351V151.244A2.149,2.149,0,0,0,204.749,148.973Zm-118.7,30.293v8.976H65.482v-8.976Zm0-25.805v8.976H65.482V153.46ZM144.2,90.547a10.127,10.127,0,0,1-1.991,3.758l-1.5,1.792-3.564-5.5,2.079-1.155a12.182,12.182,0,0,0,4.841-4.932A10.139,10.139,0,0,1,144.2,90.547Zm-10.272-3.295-3.136-1.734a7.718,7.718,0,0,1-3.976-6.732V75.739a22.146,22.146,0,0,0,14.212,0v3.048a7.715,7.715,0,0,1-3.972,6.732Zm1.735,9.312a6.026,6.026,0,0,0-3.482,0l1.741-2.688ZM130.7,90.6l-3.564,5.5-1.5-1.793a10.215,10.215,0,0,1-1.855-9.8,12.186,12.186,0,0,0,4.841,4.933Zm26.016-42.624a1.655,1.655,0,0,1,.7,1.14,1.672,1.672,0,0,1-1.008,1.755c-.143.057-.42.088-.42.107V47.825a.889.889,0,0,1,.729.147ZM130.479,16.955h6.652a2.244,2.244,0,1,0,0-4.488h-6.652a8.084,8.084,0,0,0-.932.112l4.947-2.509a5.28,5.28,0,0,1,5.535.4l11.789,8.514a10.128,10.128,0,0,1,4.17,8.257V38.586a7.034,7.034,0,0,0-5.457-2.364.92.92,0,0,1-.9-.994v-1.1c.748.052,1.652.034,2.513.034h.8a2.244,2.244,0,1,0,0-4.488h-.8a36.267,36.267,0,0,1-25.081-10.012A3.553,3.553,0,0,1,130.479,16.955ZM111.857,50.98c0-.016-.3-.051-.462-.112a1.646,1.646,0,0,1-.309-2.894.926.926,0,0,1,.771-.139Zm0-7.655c-.374-.008-.374-.007-.748.009V24.369a8.335,8.335,0,0,1,4.819-7.493l5.9-2.736a.2.2,0,0,1,.245.068,2.251,2.251,0,0,0,2.546.931,7.966,7.966,0,0,0-2.147,5.444,2.254,2.254,0,0,0,.267,1.031A18.077,18.077,0,0,0,111.857,38.2Zm4.488,11.493V38.2a13.364,13.364,0,0,1,8.763-12.641h1.754A41.2,41.2,0,0,0,145.142,33.6v1.624a5.453,5.453,0,0,0,5.44,5.482,3.326,3.326,0,0,1,.918.145V54.818a17.577,17.577,0,0,1-35.155,0Zm9.736,66.105H99.141V98.041a9.281,9.281,0,0,1,9.281-9.281H118.8a14.8,14.8,0,0,0,.526,3.015,14.594,14.594,0,0,0,2.867,5.411l1.979,2.363a3.958,3.958,0,0,0,3.022,1.409q.119,0,.238-.007a3.927,3.927,0,0,0,1.353-.332l.006.005Zm17.939,58.342v8.976h-20.2v-8.976Zm0-25.805v8.976h-20.2V153.46Zm-13.412-32.537,2.674-20a1.486,1.486,0,0,1,1.218-.028l2.671,20.029Zm71.754,58.342v8.976H181.793v-8.976Zm0-16.829H181.793V153.46h20.569Z" transform="translate(-60.991 -4.98)" fill="#363636"/>
      </g>
    </g>
  </g>
</svg>
