<svg xmlns="http://www.w3.org/2000/svg" width="82" height="110" viewBox="0 0 82 110">
  <g id="Grupo_25817" data-name="Grupo 25817" transform="translate(-201 -2807)">
    <text id="Seguridad" transform="translate(242 2912)" fill="#111e61" font-size="18" font-family="Roboto-Medium, Roboto" font-weight="500"><tspan x="-40.856" y="0">Seguridad</tspan></text>
    <g id="caja-fuerte" transform="translate(198.5 2807)">
      <path id="Trazado_19359" data-name="Trazado 19359" d="M34.648,31.041a38.076,38.076,0,0,1,67.068,0Z" transform="translate(-24.62 -9.291)" fill="#fdbf43"/>
      <path id="Trazado_19360" data-name="Trazado 19360" d="M6.611,141.848A38.153,38.153,0,0,1,12.994,110H74.131a38.153,38.153,0,0,1,6.383,31.848Z" transform="translate(0 -92.911)" fill="#f4aa39"/>
      <path id="Trazado_19361" data-name="Trazado 19361" d="M166.6,300a38.05,38.05,0,0,1-14.137,23.254h-7.179a6.826,6.826,0,0,0-6.826,6.826h0a38.164,38.164,0,0,1-30.605-5.366,2.342,2.342,0,0,1-1.022-1.942V300Z" transform="translate(-85.591 -253.393)" fill="#ce9047"/>
      <path id="Trazado_19362" data-name="Trazado 19362" d="M10.028,140H66.875v48.111a37.92,37.92,0,0,1-14.005,6.826l-1.53-5.223H22.476A38.088,38.088,0,0,1,10.028,140Z" transform="translate(0 -118.25)" fill="#2740af"/>
      <path id="Trazado_19363" data-name="Trazado 19363" d="M73.288,163.665v40.393a1.165,1.165,0,0,1-1.165,1.165H28.845q-1.227-1.114-2.355-2.33H70.958V164.83H18.346q.4-1.183.874-2.33h52.9A1.165,1.165,0,0,1,73.288,163.665Z" transform="translate(-10.85 -137.255)" fill="#003278"/>
      <path id="Trazado_19364" data-name="Trazado 19364" d="M66.446,221.554v20.2a1.554,1.554,0,0,1-1.554,1.554H26.054q-.074,0-.146-.007-.766-1.455-1.407-2.982V221.554A1.554,1.554,0,0,1,26.054,220H64.893A1.554,1.554,0,0,1,66.446,221.554Z" transform="translate(-16.048 -185.822)" fill="#4f66cf"/>
      <path id="Trazado_19365" data-name="Trazado 19365" d="M79.455,257.089H45.277a.777.777,0,0,1-.777-.777V240.777a.777.777,0,0,1,.777-.777H79.455a.777.777,0,0,1,.777.777v15.536A.777.777,0,0,1,79.455,257.089Z" transform="translate(-32.941 -202.715)" fill="#0191f8"/>
      <path id="Trazado_19366" data-name="Trazado 19366" d="M100.571,257.089H70.277a.777.777,0,0,1-.777-.777V240.777a.777.777,0,0,1,.777-.777h30.294a.777.777,0,0,1,.777.777v15.536A.777.777,0,0,1,100.571,257.089Z" transform="translate(-54.057 -202.715)" fill="#01bff9"/>
      <path id="Trazado_19367" data-name="Trazado 19367" d="M195.375,265.437A5.437,5.437,0,1,1,189.937,260,5.437,5.437,0,0,1,195.375,265.437Z" transform="translate(-151.191 -219.607)" fill="#003278"/>
      <path id="Trazado_19368" data-name="Trazado 19368" d="M202.268,273.884A3.884,3.884,0,1,1,198.384,270,3.884,3.884,0,0,1,202.268,273.884Z" transform="translate(-159.638 -228.054)" fill="#2740af"/>
      <path id="Trazado_19369" data-name="Trazado 19369" d="M203.455,273.919l-5.036,5.036a3.9,3.9,0,0,1-2.2-2.2l5.036-5.036A3.9,3.9,0,0,1,203.455,273.919Z" transform="translate(-161.092 -229.508)" fill="#4f66cf"/>
      <path id="Trazado_19370" data-name="Trazado 19370" d="M362.826,0A5.832,5.832,0,0,0,357,5.826V18.254a1.165,1.165,0,0,0,1.165,1.165h9.321a1.165,1.165,0,0,0,1.165-1.165V5.826A5.832,5.832,0,0,0,362.826,0Zm3.5,17.089H359.33V5.826a3.5,3.5,0,1,1,6.991,0Z" transform="translate(-296.892)" fill="#003278"/>
      <path id="Trazado_19371" data-name="Trazado 19371" d="M336.25,104.857H317.607a3.107,3.107,0,0,1-3.107-3.107V83.107A3.107,3.107,0,0,1,317.607,80H336.25a3.107,3.107,0,0,1,3.107,3.107V101.75A3.107,3.107,0,0,1,336.25,104.857Z" transform="translate(-260.995 -67.572)" fill="#c92c2c"/>
      <path id="Trazado_19372" data-name="Trazado 19372" d="M353.143,104.857H337.607a3.107,3.107,0,0,1-3.107-3.107V83.107A3.107,3.107,0,0,1,337.607,80h15.536a3.107,3.107,0,0,1,3.107,3.107V101.75A3.107,3.107,0,0,1,353.143,104.857Z" transform="translate(-277.888 -67.572)" fill="#f52c2c"/>
      <path id="Trazado_19373" data-name="Trazado 19373" d="M59.161,255.777v1.554a.777.777,0,0,1-.777.777H55.277a.777.777,0,0,1-.777-.777v-1.554a.777.777,0,0,1,.777-.777h3.107A.777.777,0,0,1,59.161,255.777ZM64.6,255H61.491a.777.777,0,0,0-.777.777v1.554a.777.777,0,0,0,.777.777H64.6a.777.777,0,0,0,.777-.777v-1.554A.777.777,0,0,0,64.6,255Zm6.214,0H67.705a.777.777,0,0,0-.777.777v1.554a.777.777,0,0,0,.777.777h3.107a.777.777,0,0,0,.777-.777v-1.554A.777.777,0,0,0,70.812,255Zm-12.428,4.661H55.277a.777.777,0,0,0-.777.777v1.554a.777.777,0,0,0,.777.777h3.107a.777.777,0,0,0,.777-.777v-1.554A.777.777,0,0,0,58.384,259.661Zm6.214,0H61.491a.777.777,0,0,0-.777.777v1.554a.777.777,0,0,0,.777.777H64.6a.777.777,0,0,0,.777-.777v-1.554A.777.777,0,0,0,64.6,259.661Zm6.214,0H67.705a.777.777,0,0,0-.777.777v1.554a.777.777,0,0,0,.777.777h3.107a.777.777,0,0,0,.777-.777v-1.554A.777.777,0,0,0,70.812,259.661Zm-12.428,4.661H55.277a.777.777,0,0,0-.777.777v1.554a.777.777,0,0,0,.777.777h3.107a.777.777,0,0,0,.777-.777V265.1A.777.777,0,0,0,58.384,264.321Zm6.214,0H61.491a.777.777,0,0,0-.777.777v1.554a.777.777,0,0,0,.777.777H64.6a.777.777,0,0,0,.777-.777V265.1A.777.777,0,0,0,64.6,264.321Zm6.214,0H67.705a.777.777,0,0,0-.777.777v1.554a.777.777,0,0,0,.777.777h3.107a.777.777,0,0,0,.777-.777V265.1A.777.777,0,0,0,70.812,264.321Z" transform="translate(-41.388 -215.384)" fill="#e3f0fb"/>
      <path id="Trazado_19374" data-name="Trazado 19374" d="M62.21,255.777v1.554a.777.777,0,0,0,.777.777h-1.5a.777.777,0,0,1-.777-.777v-1.554a.777.777,0,0,1,.777-.777h1.5A.777.777,0,0,0,62.21,255.777Zm.777,3.884h-1.5a.777.777,0,0,0-.777.777v1.554a.777.777,0,0,0,.777.777h1.5a.777.777,0,0,1-.777-.777v-1.554A.777.777,0,0,1,62.986,259.661Zm6.214,0h-1.5a.777.777,0,0,0-.777.777v1.554a.777.777,0,0,0,.777.777h1.5a.777.777,0,0,1-.777-.777v-1.554A.777.777,0,0,1,69.2,259.661Zm-.777-2.33v-1.554A.777.777,0,0,1,69.2,255h-1.5a.777.777,0,0,0-.777.777v1.554a.777.777,0,0,0,.777.777h1.5A.777.777,0,0,1,68.424,257.33Zm-11.652,6.991h-1.5a.777.777,0,0,0-.777.777v1.554a.777.777,0,0,0,.777.777h1.5a.777.777,0,0,1-.777-.777V265.1A.777.777,0,0,1,56.772,264.321Zm12.428,0h-1.5a.777.777,0,0,0-.777.777v1.554a.777.777,0,0,0,.777.777h1.5a.777.777,0,0,1-.777-.777V265.1A.777.777,0,0,1,69.2,264.321Zm-6.214,0h-1.5a.777.777,0,0,0-.777.777v1.554a.777.777,0,0,0,.777.777h1.5a.777.777,0,0,1-.777-.777V265.1A.777.777,0,0,1,62.986,264.321ZM56.772,255h-1.5a.777.777,0,0,0-.777.777v1.554a.777.777,0,0,0,.777.777h1.5A.777.777,0,0,1,56,257.33v-1.554A.777.777,0,0,1,56.772,255Zm0,4.661h-1.5a.777.777,0,0,0-.777.777v1.554a.777.777,0,0,0,.777.777h1.5a.777.777,0,0,1-.777-.777v-1.554A.777.777,0,0,1,56.772,259.661Z" transform="translate(-41.388 -215.384)" fill="#bbe0fb"/>
      <path id="Trazado_19375" data-name="Trazado 19375" d="M356.984,117.672a13.462,13.462,0,0,0,5.866,2.762.78.78,0,0,1,.633.763v2.76a6.991,6.991,0,0,1-13.982,0V121.2a.78.78,0,0,1,.633-.763A13.461,13.461,0,0,0,356,117.672.778.778,0,0,1,356.984,117.672Z" transform="translate(-290.558 -99.243)" fill="#f5c02c"/>
      <path id="Trazado_19376" data-name="Trazado 19376" d="M376.672,121.2v2.76a6.966,6.966,0,0,1-.62,2.883,8.553,8.553,0,0,1-10.936-6.894,13.494,13.494,0,0,0,4.073-2.274.778.778,0,0,1,.984,0,13.464,13.464,0,0,0,5.866,2.762.78.78,0,0,1,.633.763Z" transform="translate(-303.748 -99.242)" fill="#fde803"/>
      <path id="Trazado_19377" data-name="Trazado 19377" d="M386.054,147a1.554,1.554,0,0,1-1.554-1.554v-3.107a1.554,1.554,0,1,1,3.107,0v3.107A1.554,1.554,0,0,1,386.054,147Z" transform="translate(-320.12 -118.915)" fill="#c98001"/>
    </g>
  </g>
</svg>
