<svg xmlns="http://www.w3.org/2000/svg" width="82" height="135" viewBox="0 0 82 135">
  <g id="Grupo_25798" data-name="Grupo 25798" transform="translate(-201 -2196)">
    <g id="Grupo_25792" data-name="Grupo 25792">
      <text id="Planta_del_edificio" data-name="Planta del
edificio" transform="translate(242 2302)" fill="#111e61" font-size="18" font-family="Roboto-Medium, Roboto" font-weight="500"><tspan x="-40.236" y="0">Planta del</tspan><tspan x="-29.58" y="24">edificio</tspan></text>
      <g id="hotel_1_" data-name="hotel (1)" transform="translate(203 2196)">
        <path id="Trazado_18878" data-name="Trazado 18878" d="M75.635,48.818A37.818,37.818,0,1,1,37.818,11,37.818,37.818,0,0,1,75.635,48.818Z" transform="translate(0 -9.302)" fill="#f02399"/>
        <path id="Trazado_18879" data-name="Trazado 18879" d="M38.477,60.11a2.238,2.238,0,0,1,2.238-2.238h15.59a2.238,2.238,0,1,1,0,4.476H40.716A2.238,2.238,0,0,1,38.477,60.11Zm13.043-5.634H64.008A37.983,37.983,0,0,0,58.34,50H51.521a2.238,2.238,0,0,0,0,4.476ZM75.632,79.932A37.851,37.851,0,0,0,27.752,93.22H1.8a37.653,37.653,0,0,0,4.5,9.415,4.112,4.112,0,0,0,3.43,1.84H56.36A18.914,18.914,0,0,0,74.915,89.389a37.989,37.989,0,0,0,.762-7.592Q75.678,80.86,75.632,79.932ZM16.867,84.808a2.238,2.238,0,0,0-2.238-2.238H.05A38.113,38.113,0,0,0,.4,87.046H14.629a2.238,2.238,0,0,0,2.238-2.238Z" transform="translate(-0.042 -42.282)" fill="#fd73c4"/>
        <path id="Trazado_18880" data-name="Trazado 18880" d="M286.628,298.973H269.88a11.075,11.075,0,0,1-.88-4.309c0-8.1,8.984-14.664,20.066-14.664a24.608,24.608,0,0,1,13.322,3.7,37.55,37.55,0,0,1-1.37,5.04A15.241,15.241,0,0,1,286.628,298.973Z" transform="translate(-227.478 -236.78)" fill="#fc9302"/>
        <path id="Trazado_18881" data-name="Trazado 18881" d="M334.945,322.271a37.826,37.826,0,0,1-9.168,14.676q-.663.031-1.341.032c-8.525,0-15.436-3.8-15.436-8.49s6.911-8.49,15.436-8.49A23.515,23.515,0,0,1,334.945,322.271Z" transform="translate(-261.303 -270.605)" fill="#fded32"/>
        <path id="Trazado_18882" data-name="Trazado 18882" d="M371.748,337.942c-5.413-1.319-9.188-4.3-9.188-7.766,0-3.9,4.784-7.188,11.3-8.182a21.1,21.1,0,0,1,6.375,1.963A37.808,37.808,0,0,1,371.748,337.942Z" transform="translate(-306.596 -272.293)" fill="#fdf385"/>
        <path id="Trazado_18883" data-name="Trazado 18883" d="M103.189,390a37.827,37.827,0,0,1-63.33,0Z" transform="translate(-33.706 -329.801)" fill="#08a8f0"/>
        <path id="Trazado_18884" data-name="Trazado 18884" d="M255.241,393.087h-24.7a1.544,1.544,0,0,1,0-3.087h24.7a1.544,1.544,0,0,1,0,3.087Zm-6.1,3.222a1.544,1.544,0,0,0,0,3.087h5.25a38.037,38.037,0,0,0,3.563-3.087Z" transform="translate(-193.652 -329.801)" fill="#63bcfa"/>
        <path id="Trazado_18885" data-name="Trazado 18885" d="M107.9,50.805v58.5c-3.693,1.2-27.974-.913-34.267-5.591A38.043,38.043,0,0,1,69,99.65V50.805a1.544,1.544,0,0,1,1.544-1.544h6.174V46.174a1.544,1.544,0,0,1,1.544-1.544h.154V40h1.852v4.631H96.63V40h1.852v4.631h.154a1.544,1.544,0,0,1,1.544,1.544v3.087h6.174A1.544,1.544,0,0,1,107.9,50.805Z" transform="translate(-58.349 -33.826)" fill="#003278"/>
        <path id="Trazado_18886" data-name="Trazado 18886" d="M342.483,173.483l-3.542-2.947v35.01q-1.488,1.134-3.087,2.121v-37.76l-2.612,4.15a4.506,4.506,0,0,1-.2-5.485q.071-.112.146-.22H329a4.435,4.435,0,0,1,4.179-3.076l-3.3-2.074a4.505,4.505,0,0,1,5.485-.2,5.193,5.193,0,0,1,2.046,2.363,5.01,5.01,0,0,1,1.885-3.419,4.505,4.505,0,0,1,5.467-.481l-4.853,3.965a5.5,5.5,0,0,1,1.347-.166,4.506,4.506,0,0,1,4.538,3.087h-4.658A4.462,4.462,0,0,1,342.483,173.483Z" transform="translate(-278.216 -135.937)" fill="#003278"/>
        <path id="Trazado_18887" data-name="Trazado 18887" d="M405.683,268.732l-3.542-2.947v9.288a37.9,37.9,0,0,1-3.087,4.5V265.156l-2.612,4.15a4.506,4.506,0,0,1-.2-5.485q.071-.112.146-.22H392.2a4.435,4.435,0,0,1,4.179-3.076l-3.3-2.074a4.506,4.506,0,0,1,5.485-.2,5.193,5.193,0,0,1,2.046,2.363,5.01,5.01,0,0,1,1.885-3.419,4.506,4.506,0,0,1,5.467-.481l-4.853,3.965a5.5,5.5,0,0,1,1.347-.166,4.506,4.506,0,0,1,4.538,3.087h-4.658A4.462,4.462,0,0,1,405.683,268.732Z" transform="translate(-331.661 -216.484)" fill="#2740af"/>
        <path id="Trazado_18888" data-name="Trazado 18888" d="M133.267,76.174v58.5A37.893,37.893,0,0,1,99,129.083V78.49a1.544,1.544,0,0,1,1.544-1.544h20.4a1.19,1.19,0,0,0,1.206-1.122A1.158,1.158,0,0,0,121,74.631H108.261a1.544,1.544,0,0,1-1.544-1.544V71.544A1.544,1.544,0,0,1,108.261,70h15.744a1.544,1.544,0,0,1,1.544,1.544v3.087h6.174A1.544,1.544,0,0,1,133.267,76.174Z" transform="translate(-83.719 -59.195)" fill="#00429a"/>
        <path id="Trazado_18889" data-name="Trazado 18889" d="M145.241,141.544v53.571q-1.523.276-3.087.429v-54a1.544,1.544,0,0,1,3.087,0ZM135.979,140a1.544,1.544,0,0,0-1.544,1.544v53.969q1.526.161,3.087.2V141.544A1.544,1.544,0,0,0,135.979,140Zm-7.718,0a1.544,1.544,0,0,0-1.544,1.544v52.325q1.517.494,3.087.862V141.544A1.544,1.544,0,0,0,128.261,140Zm-7.718,0A1.544,1.544,0,0,0,119,141.544v48.8q1.5.9,3.087,1.665V141.544A1.544,1.544,0,0,0,120.544,140Z" transform="translate(-100.631 -118.39)" fill="#003278"/>
        <path id="Trazado_18890" data-name="Trazado 18890" d="M113.554,7.718h-3.782A.772.772,0,0,1,109,6.946V.772A.772.772,0,0,1,109.772,0h3.782a.772.772,0,0,1,.772.772V6.946A.772.772,0,0,1,113.554,7.718Z" transform="translate(-92.175)" fill="#f5c02c"/>
        <path id="Trazado_18891" data-name="Trazado 18891" d="M159.065,18.636l1.147,2.1a.216.216,0,0,0,.086.086l2.1,1.147a.217.217,0,0,1,0,.38l-2.1,1.147a.216.216,0,0,0-.086.086l-1.147,2.1a.217.217,0,0,1-.38,0l-1.147-2.1a.216.216,0,0,0-.086-.086l-2.1-1.147a.217.217,0,0,1,0-.38l2.1-1.147a.216.216,0,0,0,.086-.086l1.147-2.1A.217.217,0,0,1,159.065,18.636ZM151.691,7.718H129.772A.772.772,0,0,1,129,6.946V.772A.772.772,0,0,1,129.772,0h21.919a.772.772,0,0,1,.772.772V3.106a1.1,1.1,0,0,0,0,1.505V6.946A.772.772,0,0,1,151.691,7.718Z" transform="translate(-109.088)" fill="#fded32"/>
        <path id="Trazado_18892" data-name="Trazado 18892" d="M126.527,13.124l-1.263.691a.13.13,0,0,0-.052.052l-.691,1.263a.131.131,0,0,1-.229,0l-.691-1.263a.13.13,0,0,0-.052-.052l-1.263-.691a.13.13,0,0,1,0-.229l1.263-.691a.13.13,0,0,0,.052-.052l.691-1.263a.131.131,0,0,1,.229,0l.691,1.263a.13.13,0,0,0,.052.052l1.263.691A.13.13,0,0,1,126.527,13.124Zm10.313-.92a.131.131,0,0,1-.052-.052l-.691-1.263a.131.131,0,0,0-.229,0l-.691,1.263a.13.13,0,0,1-.052.052l-1.263.691a.13.13,0,0,0,0,.229l1.263.691a.129.129,0,0,1,.052.052l.691,1.263a.131.131,0,0,0,.229,0l.691-1.263a.13.13,0,0,1,.052-.052l.1-.053V12.256Zm-21.89.691-1.263-.691a.131.131,0,0,1-.052-.052l-.691-1.263a.131.131,0,0,0-.229,0l-.691,1.263a.13.13,0,0,1-.052.052l-1.263.691a.13.13,0,0,0,0,.229l1.263.691a.129.129,0,0,1,.052.052l.691,1.263a.131.131,0,0,0,.229,0l.691-1.263a.13.13,0,0,1,.052-.052l1.263-.691A.13.13,0,0,0,114.95,12.895Zm5.788,0-1.263-.691a.131.131,0,0,1-.052-.052l-.691-1.263a.131.131,0,0,0-.229,0l-.691,1.263a.13.13,0,0,1-.052.052l-1.263.691a.13.13,0,0,0,0,.229l1.263.691a.129.129,0,0,1,.052.052l.691,1.263a.131.131,0,0,0,.229,0l.691-1.263a.13.13,0,0,1,.052-.052l1.263-.691A.13.13,0,0,0,120.739,12.895Z" transform="translate(-93.562 -9.15)" fill="#d98800"/>
        <path id="Trazado_18893" data-name="Trazado 18893" d="M224.927,46.735l.9,1.652a.169.169,0,0,0,.068.068l1.652.9a.171.171,0,0,1,0,.3l-1.652.9a.169.169,0,0,0-.068.068l-.9,1.652a.171.171,0,0,1-.3,0l-.9-1.652a.171.171,0,0,0-.068-.068l-1.652-.9a.171.171,0,0,1,0-.3l1.652-.9a.17.17,0,0,0,.068-.068l.9-1.652a.171.171,0,0,1,.3,0Zm-.748-35.847-.691,1.263a.131.131,0,0,1-.052.052l-1.263.691a.131.131,0,0,0,0,.229l1.263.691a.131.131,0,0,1,.052.052l.691,1.263a.131.131,0,0,0,.229,0l.691-1.263a.131.131,0,0,1,.052-.052l1.263-.691a.131.131,0,0,0,0-.229L225.15,12.2a.131.131,0,0,1-.052-.052l-.691-1.263A.131.131,0,0,0,224.178,10.888Z" transform="translate(-187.66 -9.15)" fill="#fff5f5"/>
        <path id="Trazado_18894" data-name="Trazado 18894" d="M52.824,163.027l1.147,2.1a.216.216,0,0,0,.086.086l2.1,1.147a.217.217,0,0,1,0,.38l-2.1,1.147a.216.216,0,0,0-.086.086l-1.147,2.1a.217.217,0,0,1-.38,0l-1.147-2.1a.216.216,0,0,0-.086-.086l-2.1-1.147a.217.217,0,0,1,0-.38l2.1-1.147a.216.216,0,0,0,.086-.086l1.147-2.1A.217.217,0,0,1,52.824,163.027Z" transform="translate(-41.436 -137.767)" fill="#fdade0"/>
        <path id="Trazado_18895" data-name="Trazado 18895" d="M304.926,423l.9,1.652a.171.171,0,0,0,.068.068l1.652.9a.171.171,0,0,1,0,.3l-1.652.9a.17.17,0,0,0-.068.068l-.9,1.652a.171.171,0,0,1-.3,0l-.9-1.652a.17.17,0,0,0-.068-.068l-1.652-.9a.171.171,0,0,1,0-.3l1.652-.9a.17.17,0,0,0,.068-.068l.9-1.652A.171.171,0,0,1,304.926,423Z" transform="translate(-255.311 -357.635)" fill="#98e5fb"/>
        <path id="Trazado_18896" data-name="Trazado 18896" d="M124.927,403l.9,1.652a.17.17,0,0,0,.068.068l1.652.9a.171.171,0,0,1,0,.3l-1.652.9a.169.169,0,0,0-.068.068l-.9,1.652a.171.171,0,0,1-.3,0l-.9-1.652a.171.171,0,0,0-.068-.068l-1.652-.9a.171.171,0,0,1,0-.3l1.652-.9a.169.169,0,0,0,.068-.068l.9-1.652A.171.171,0,0,1,124.927,403Z" transform="translate(-103.096 -340.722)" fill="#0266eb"/>
        <path id="Trazado_18897" data-name="Trazado 18897" d="M174.927,293l.9,1.652a.171.171,0,0,0,.068.068l1.652.9a.171.171,0,0,1,0,.3l-1.652.9a.169.169,0,0,0-.068.068l-.9,1.652a.171.171,0,0,1-.3,0l-.9-1.652a.171.171,0,0,0-.068-.068l-1.652-.9a.171.171,0,0,1,0-.3l1.652-.9a.169.169,0,0,0,.068-.068l.9-1.652A.171.171,0,0,1,174.927,293Z" transform="translate(-145.378 -247.701)" fill="#314dc8"/>
      </g>
    </g>
  </g>
</svg>
