<svg xmlns="http://www.w3.org/2000/svg" width="146" height="129" viewBox="0 0 146 129">
  <g id="Grupo_25815" data-name="Grupo 25815" transform="translate(-881 -2628)">
    <text id="Cancelación_de_cuenta_y_salida" data-name="Cancelación
de cuenta y salida" transform="translate(954 2732)" fill="#111e61" font-size="18" font-family="Roboto-Medium, Roboto" font-weight="500"><tspan x="-49.597" y="0">Cancelación</tspan><tspan x="-72.483" y="20">de cuenta y salida</tspan></text>
    <g id="pago" transform="translate(915 2628)">
      <path id="Trazado_19267" data-name="Trazado 19267" d="M76.94,49.47A38.489,38.489,0,0,1,22.863,84.642a17,17,0,0,0-17-17H4.554A38.473,38.473,0,1,1,76.94,49.47Z" transform="translate(0 -9.273)" fill="#003278"/>
      <path id="Trazado_19268" data-name="Trazado 19268" d="M93.544,69.089H75.67A16.67,16.67,0,0,1,59,52.418V1.57A1.57,1.57,0,0,1,60.57,0H93.544a1.57,1.57,0,0,1,1.57,1.57V67.518A1.57,1.57,0,0,1,93.544,69.089Z" transform="translate(-49.736)" fill="#fbc56d"/>
      <path id="Trazado_19269" data-name="Trazado 19269" d="M129.51,69.089H118.335a16.67,16.67,0,0,1-16.67-16.67V1.57A1.57,1.57,0,0,1,103.235,0H129.51a1.57,1.57,0,0,1,1.57,1.57V67.518A1.57,1.57,0,0,1,129.51,69.089Z" transform="translate(-85.702)" fill="#ffdf8e"/>
      <path id="Trazado_19270" data-name="Trazado 19270" d="M179.519,84.048,162.79,67.32a1.57,1.57,0,0,1,0-2.221L196.1,31.79a1.57,1.57,0,0,1,2.221,0l16.728,16.728a1.57,1.57,0,0,1,0,2.221L181.739,84.048a1.57,1.57,0,0,1-2.221,0Z" transform="translate(-136.841 -26.411)" fill="#8fdc91"/>
      <path id="Trazado_19271" data-name="Trazado 19271" d="M194.779,99.308,180.893,85.422a1.57,1.57,0,0,1,0-2.221L214.2,49.892a1.57,1.57,0,0,1,2.221,0l13.886,13.886a1.57,1.57,0,0,1,0,2.221L197,99.308A1.57,1.57,0,0,1,194.779,99.308Z" transform="translate(-152.102 -41.67)" fill="#ade4ad"/>
      <path id="Trazado_19272" data-name="Trazado 19272" d="M206.575,104.139,193.251,90.815a.785.785,0,0,1,0-1.11l28.868-28.868a.785.785,0,0,1,1.11,0l13.324,13.324a.785.785,0,0,1,0,1.11l-28.868,28.868A.785.785,0,0,1,206.575,104.139Z" transform="translate(-162.713 -51.091)" fill="#73d37a"/>
      <path id="Trazado_19273" data-name="Trazado 19273" d="M286.777,60.838l3.721,3.722-.164.165a6.048,6.048,0,0,1-8.553,0l3.886-3.886A.785.785,0,0,1,286.777,60.838ZM300.1,74.161l-3.722-3.722-.165.164a6.048,6.048,0,0,0,0,8.553l3.886-3.886A.785.785,0,0,0,300.1,74.161Zm-26.2,4c-4.906,4.906-6.894,10.871-4.441,13.324s8.418.464,13.324-4.441,6.894-10.871,4.441-13.324S278.8,73.253,273.9,78.159Z" transform="translate(-226.261 -51.091)" fill="#6eb368"/>
      <path id="Trazado_19274" data-name="Trazado 19274" d="M300.862,171.906a1.57,1.57,0,0,1,2.221,0l2.887,2.887a1.57,1.57,0,0,1-2.221,2.221l-2.887-2.887A1.57,1.57,0,0,1,300.862,171.906Zm5.662,1.221a2.355,2.355,0,1,0,3.331-3.331l-1.777-1.777a2.355,2.355,0,1,0-3.331,3.331Z" transform="translate(-253.233 -141.056)" fill="#509c49"/>
      <path id="Trazado_19275" data-name="Trazado 19275" d="M65.114,51.57v64.378a1.57,1.57,0,0,1-1.57,1.57H47.31a38.625,38.625,0,0,1-18.31-17V51.57A1.57,1.57,0,0,1,30.57,50H63.544A1.57,1.57,0,0,1,65.114,51.57Z" transform="translate(-24.446 -42.149)" fill="#f52c2c"/>
      <path id="Trazado_19276" data-name="Trazado 19276" d="M110.052,315.5v.785a.785.785,0,0,1-.785.785h-7.851a.785.785,0,0,1-.785-.785V315.5a.785.785,0,0,1,.785-.785h7.851A.785.785,0,0,1,110.052,315.5Zm2.355-5.5H98.275a.785.785,0,0,0-.785.785v.785a.785.785,0,0,0,.785.785h14.132a.785.785,0,0,0,.785-.785v-.785A.785.785,0,0,0,112.407,310Z" transform="translate(-82.182 -261.324)" fill="#a62b2b"/>
      <path id="Trazado_19277" data-name="Trazado 19277" d="M35.281,50v59.108A38.592,38.592,0,0,1,29,100.517V51.57A1.57,1.57,0,0,1,30.57,50Z" transform="translate(-24.446 -42.149)" fill="#c92c2c"/>
      <path id="Trazado_19278" data-name="Trazado 19278" d="M96.34,92.948l2.376,4.815a.785.785,0,0,0,.591.429l5.314.772a.785.785,0,0,1,.435,1.339l-3.845,3.748a.786.786,0,0,0-.226.695l.908,5.292a.785.785,0,0,1-1.139.828L96,108.368a.785.785,0,0,0-.731,0l-4.753,2.5a.785.785,0,0,1-1.139-.828l.908-5.292a.785.785,0,0,0-.226-.695L86.215,100.3a.785.785,0,0,1,.435-1.339l5.314-.772a.785.785,0,0,0,.591-.429l2.376-4.815A.785.785,0,0,1,96.34,92.948Z" transform="translate(-72.477 -77.984)" fill="#f5c02c"/>
      <path id="Trazado_19279" data-name="Trazado 19279" d="M135.471,100.305l-3.845,3.748a.786.786,0,0,0-.226.695l.682,3.979a14.947,14.947,0,0,1-10.025-10.486l.322-.047a.786.786,0,0,0,.591-.429l2.376-4.815a.785.785,0,0,1,1.408,0l2.376,4.815a.785.785,0,0,0,.591.429l5.314.772a.785.785,0,0,1,.435,1.339Z" transform="translate(-102.892 -77.986)" fill="#fdf061"/>
      <path id="Trazado_19280" data-name="Trazado 19280" d="M199.04,266.693H161.355A2.355,2.355,0,0,1,159,264.338V242.355A2.355,2.355,0,0,1,161.355,240H199.04a2.355,2.355,0,0,1,2.355,2.355v21.983A2.355,2.355,0,0,1,199.04,266.693Z" transform="translate(-134.034 -202.315)" fill="#6c7fd7"/>
      <path id="Trazado_19281" data-name="Trazado 19281" d="M166.851,266.693h-5.5A2.355,2.355,0,0,1,159,264.338V242.355A2.355,2.355,0,0,1,161.355,240h5.5Z" transform="translate(-134.034 -202.315)" fill="#4f66cf"/>
      <path id="Trazado_19282" data-name="Trazado 19282" d="M239.04,306.693H201.355A2.355,2.355,0,0,1,199,304.338V282.355A2.355,2.355,0,0,1,201.355,280H239.04a2.355,2.355,0,0,1,2.355,2.355v21.983A2.355,2.355,0,0,1,239.04,306.693Z" transform="translate(-167.753 -236.035)" fill="#bbe0fb"/>
      <path id="Trazado_19283" data-name="Trazado 19283" d="M264.329,306.693H231.355A2.355,2.355,0,0,1,229,304.338V282.355A2.355,2.355,0,0,1,231.355,280h32.974a2.355,2.355,0,0,1,2.355,2.355v21.983A2.355,2.355,0,0,1,264.329,306.693Z" transform="translate(-193.043 -236.035)" fill="#e3f0fb"/>
      <path id="Trazado_19284" data-name="Trazado 19284" d="M228.421,390.5v.785a.785.785,0,0,1-.785.785h-7.851a.785.785,0,0,1-.785-.785V390.5a.785.785,0,0,1,.785-.785h7.851A.785.785,0,0,1,228.421,390.5Zm5.5-5.5H219.785a.785.785,0,0,0-.785.785v.785a.785.785,0,0,0,.785.785h14.132a.785.785,0,0,0,.785-.785v-.785A.785.785,0,0,0,233.917,385Z" transform="translate(-184.613 -324.547)" fill="#acd1fd"/>
      <path id="Trazado_19285" data-name="Trazado 19285" d="M241.4,326.281H199V320h42.4Z" transform="translate(-167.753 -269.754)" fill="#6c7fd7"/>
      <path id="Trazado_19286" data-name="Trazado 19286" d="M266.685,326.281H229V320h37.685Z" transform="translate(-193.043 -269.754)" fill="#8694dd"/>
      <path id="Trazado_19287" data-name="Trazado 19287" d="M394.1,404.711h-4.318a.785.785,0,0,1-.785-.785v-3.14a.785.785,0,0,1,.785-.785H394.1a.785.785,0,0,1,.785.785v3.14A.785.785,0,0,1,394.1,404.711Z" transform="translate(-327.919 -337.192)" fill="#f52c2c"/>
      <path id="Trazado_19288" data-name="Trazado 19288" d="M422.925,404.711H419V400h3.925a.785.785,0,0,1,.785.785v3.14A.785.785,0,0,1,422.925,404.711Z" transform="translate(-353.209 -337.192)" fill="#fdbf43"/>
    </g>
  </g>
</svg>
