<svg xmlns="http://www.w3.org/2000/svg" width="84" height="149" viewBox="0 0 84 149">
  <g id="Grupo_25814" data-name="Grupo 25814" transform="translate(-736 -2628)">
    <text id="Servicio_al_cliente_en_recepción" data-name="Servicio al
cliente en
recepción" transform="translate(778 2732)" fill="#111e61" font-size="18" font-family="Roboto-Medium, Roboto" font-weight="500"><tspan x="-41.796" y="0">Servicio al</tspan><tspan x="-39.041" y="20">cliente en</tspan><tspan x="-39.74" y="40">recepción</tspan></text>
    <g id="recepcionista_2_" data-name="recepcionista (2)" transform="translate(734.5 2628)">
      <path id="Trazado_19289" data-name="Trazado 19289" d="M81.462,49.008a37.817,37.817,0,0,1-8.1,23.415,2.551,2.551,0,0,1-2.008.967H20.767a12.153,12.153,0,0,1-10.693-6.324A37.985,37.985,0,0,1,72.805,24.842a.825.825,0,0,1,.186.545q-.01.451-.011.9a37.812,37.812,0,0,0,4.574,18.086A12.013,12.013,0,0,0,81.1,48.4,1.431,1.431,0,0,1,81.462,49.008Z" transform="translate(0 -9.295)" fill="#003278"/>
      <path id="Trazado_19290" data-name="Trazado 19290" d="M367.718,120.359a38.4,38.4,0,0,1,.19,3.851A13.952,13.952,0,1,1,358.452,100q.393,0,.781.022a38.131,38.131,0,0,1,2.321,3.125,2.012,2.012,0,0,1,.275,1.613,13.975,13.975,0,0,0,5.443,14.835,1.072,1.072,0,0,1,.446.766Z" transform="translate(-286.447 -84.498)" fill="#c92c2c"/>
      <path id="Trazado_19291" data-name="Trazado 19291" d="M381.988,134.728a11.331,11.331,0,1,1-6.257-17.446A37.764,37.764,0,0,1,381.988,134.728Z" transform="translate(-300.706 -98.757)" fill="#6c7fd7"/>
      <path id="Trazado_19292" data-name="Trazado 19292" d="M403.852,134.728a11.354,11.354,0,0,1-12.319,4.407,16.071,16.071,0,0,1,0-21.847,11.415,11.415,0,0,1,6.062-.006A37.764,37.764,0,0,1,403.852,134.728Z" transform="translate(-322.57 -98.757)" fill="#a1ade5"/>
      <path id="Trazado_19293" data-name="Trazado 19293" d="M431.94,143.612a1.163,1.163,0,0,1-1.644,0l-3.275-3.275c-.432-.432-.244-1.969-.244-2.2v-6.976a1.163,1.163,0,1,1,2.325,0v6.976c0,.277.115,1.106.115,1.106l2.722,2.722A1.163,1.163,0,0,1,431.94,143.612Z" transform="translate(-355.935 -109.847)" fill="#172a7d"/>
      <path id="Trazado_19294" data-name="Trazado 19294" d="M424.151,177.325A2.325,2.325,0,1,1,421.825,175,2.325,2.325,0,0,1,424.151,177.325Z" transform="translate(-349.82 -147.871)" fill="#fd5757"/>
      <path id="Trazado_19295" data-name="Trazado 19295" d="M150.188,257.017H130.513l-.112-3.766L140.338,250l9.966,3.256Z" transform="translate(-105.538 -211.244)" fill="#8694dd"/>
      <path id="Trazado_19296" data-name="Trazado 19296" d="M42.125,308.837a2.989,2.989,0,0,1-2.207-.978,38.08,38.08,0,0,1-5.417-7.647v-2.269a10.852,10.852,0,0,1,10.852-10.852h27.9a10.852,10.852,0,0,1,10.852,10.852v10.894Z" transform="translate(-24.505 -242.585)" fill="#bbe0fb"/>
      <path id="Trazado_19297" data-name="Trazado 19297" d="M65.227,307.816q-.369-.406-.727-.822v-9.05a10.852,10.852,0,0,1,10.852-10.852H98.605a10.852,10.852,0,0,1,10.852,10.852v10.894H67.525A3.11,3.11,0,0,1,65.227,307.816Z" transform="translate(-49.854 -242.586)" fill="#e3f0fb"/>
      <path id="Trazado_19298" data-name="Trazado 19298" d="M107.566,32.555a6.2,6.2,0,0,1-6.2,6.2H74.7A6.2,6.2,0,0,1,71.579,27.2,17.987,17.987,0,0,1,87.025,0h2.016a17.987,17.987,0,0,1,15.446,27.2,6.2,6.2,0,0,1,3.079,5.359Z" transform="translate(-53.234)" fill="#f19b0b"/>
      <path id="Trazado_19299" data-name="Trazado 19299" d="M148.017,35.748a6.2,6.2,0,0,1-6.2,6.2H123.782a6.2,6.2,0,0,1-4.3-10.666,17.991,17.991,0,0,1,8.2-26.81,11.455,11.455,0,0,1,2.141-.622,15.873,15.873,0,0,1,5.118.537c1.06.23,2.182.5,2.21.514a17.993,17.993,0,0,1,7.788,25.488,6.2,6.2,0,0,1,3.079,5.359Z" transform="translate(-93.685 -3.193)" fill="#f5c02c"/>
      <path id="Trazado_19300" data-name="Trazado 19300" d="M63.376,146.392a3.876,3.876,0,0,1-3.876-3.876v-1.55a3.876,3.876,0,0,1,7.751,0v1.55A3.876,3.876,0,0,1,63.376,146.392Z" transform="translate(-45.629 -115.839)" fill="#efcfc8"/>
      <path id="Trazado_19301" data-name="Trazado 19301" d="M61.825,30.345v3.1a3.87,3.87,0,0,0,1.55,3.1A3.876,3.876,0,0,1,59.5,32.67V31.12a3.876,3.876,0,0,1,3.875-3.876A3.87,3.87,0,0,0,61.825,30.345Zm35.655-3.1v-3.1a17.053,17.053,0,1,0-34.105,0v6.2a17.06,17.06,0,0,0,12.4,16.411v5.293a4.651,4.651,0,1,0,9.3,0V46.755a17.094,17.094,0,0,0,11.3-10.368,3.879,3.879,0,0,0,4.977-3.717V31.12a3.876,3.876,0,0,0-3.876-3.876Z" transform="translate(-45.629 -5.992)" fill="#eac0b5"/>
      <path id="Trazado_19302" data-name="Trazado 19302" d="M143.954,25v6.2a17.06,17.06,0,0,1-12.59,16.463,8.189,8.189,0,0,1-4.274,0A17.06,17.06,0,0,1,114.5,31.2V25a17.056,17.056,0,0,1,14.727-16.9A17.056,17.056,0,0,1,143.954,25Z" transform="translate(-92.102 -6.849)" fill="#efcfc8"/>
      <path id="Trazado_19303" data-name="Trazado 19303" d="M164.791,153a1.163,1.163,0,0,1,1.644-1.644.852.852,0,0,0,1.207,0A1.163,1.163,0,1,1,169.286,153a3.177,3.177,0,0,1-4.5,0Zm6.946,4.279a1.163,1.163,0,0,0-1.644,0,4.323,4.323,0,0,1-6.107,0,1.163,1.163,0,0,0-1.644,1.644,6.651,6.651,0,0,0,9.4,0A1.163,1.163,0,0,0,171.736,157.283Z" transform="translate(-132.239 -127.608)" fill="#e1a595"/>
      <path id="Trazado_19304" data-name="Trazado 19304" d="M136.651,111.916a2.325,2.325,0,1,1-2.325-2.325A2.325,2.325,0,0,1,136.651,111.916Zm12.4-2.325a2.325,2.325,0,1,0,2.325,2.325A2.325,2.325,0,0,0,149.053,109.591Z" transform="translate(-106.89 -92.602)" fill="#533022"/>
      <path id="Trazado_19305" data-name="Trazado 19305" d="M150.663,109.591a1.163,1.163,0,1,1-1.163,1.163A1.163,1.163,0,0,1,150.663,109.591Zm13.565,1.163a1.163,1.163,0,1,0,1.163-1.163A1.163,1.163,0,0,0,164.227,110.754Z" transform="translate(-121.677 -92.602)" fill="#fff5f5"/>
      <path id="Trazado_19306" data-name="Trazado 19306" d="M88.9,13.4a1.44,1.44,0,0,1-1.266.858q-.276.008-.553.008a17.989,17.989,0,0,1-5.03-.713A18,18,0,0,1,106,1.216a.818.818,0,0,1-.309,1.578q-.191,0-.383,0A17.986,17.986,0,0,0,88.9,13.4Z" transform="translate(-64.685)" fill="#f19b0b"/>
      <path id="Trazado_19307" data-name="Trazado 19307" d="M146.77,19.541a17.989,17.989,0,0,1-5.03.713,17.921,17.921,0,0,1-12.4-4.961,17.92,17.92,0,0,1-11.955,4.955A17.059,17.059,0,0,1,133.989,7.091a17.234,17.234,0,0,1,1.805.095A18.022,18.022,0,0,1,146.77,19.541Z" transform="translate(-94.539 -5.992)" fill="#f5c02c"/>
      <path id="Trazado_19308" data-name="Trazado 19308" d="M125.5,312.346H99.034a4.534,4.534,0,0,1-4.534-4.534V287.2a10.944,10.944,0,0,1,1.55-.11h9.3l4.651,5.1,4.651-5.1h9.3a10.944,10.944,0,0,1,1.55.11Z" transform="translate(-75.203 -242.585)" fill="#fd2aa7"/>
      <path id="Trazado_19309" data-name="Trazado 19309" d="M111.165,330.876H108.84v-19.1L110,313.048l1.163-1.275Zm12.789-10.527a1.55,1.55,0,0,0-1.55,1.55v17.138q1.583-.547,3.1-1.227V321.9A1.55,1.55,0,0,0,123.954,320.349Zm-27.9,0a1.55,1.55,0,0,0-1.55,1.55v10.516a38.126,38.126,0,0,0,3.1,2.309V321.9A1.55,1.55,0,0,0,96.05,320.349Z" transform="translate(-75.203 -263.441)" fill="#d80d80"/>
      <path id="Trazado_19310" data-name="Trazado 19310" d="M126.853,272.327l4.651,6.2-2.056,1.285a.775.775,0,0,1-.841-.012l-8.316-5.544a.775.775,0,0,1-.263-.992l.959-1.917a.775.775,0,0,1,.9-.4Z" transform="translate(-96.704 -228.92)" fill="#bbe0fb"/>
      <path id="Trazado_19311" data-name="Trazado 19311" d="M204.116,270.947a.775.775,0,0,1,.9.4l.959,1.917a.775.775,0,0,1-.263.992L197.4,279.8a.775.775,0,0,1-.841.012l-2.056-1.285,4.651-6.2Z" transform="translate(-159.701 -228.92)" fill="#fff5f5"/>
      <path id="Trazado_19312" data-name="Trazado 19312" d="M232.251,340.775v1.55a.775.775,0,0,1-.775.775h-6.2a.775.775,0,0,1-.775-.775v-1.55a.775.775,0,0,1,.775-.775h6.2A.775.775,0,0,1,232.251,340.775Z" transform="translate(-185.05 -287.292)" fill="#f5c02c"/>
      <path id="Trazado_19313" data-name="Trazado 19313" d="M237.988,340l-1.938,3.1H234.5l1.938-3.1Zm.388,0-1.938,3.1h.775l1.938-3.1Z" transform="translate(-193.5 -287.292)" fill="#fdf061"/>
      <path id="Trazado_19314" data-name="Trazado 19314" d="M356.473,320.037v2.109a1.931,1.931,0,0,1-1.931,1.931h-8.732a1.931,1.931,0,0,1-1.931-1.931v-2.109a1.931,1.931,0,0,1,1.931-1.931h8.732A1.931,1.931,0,0,1,356.473,320.037Zm-6.537-3.56h.48a1.931,1.931,0,0,0,1.931-1.931v-2.109a1.931,1.931,0,0,0-1.931-1.931h-.48A1.931,1.931,0,0,0,348,312.437v2.109A1.931,1.931,0,0,0,349.935,316.477Z" transform="translate(-285.921 -262.37)" fill="#c98001"/>
      <path id="Trazado_19315" data-name="Trazado 19315" d="M347.051,315v.48a1.931,1.931,0,0,1-1.931,1.931H332.153a1.931,1.931,0,0,1-1.931-1.931V315a1.931,1.931,0,0,1,1.931-1.931H345.12A1.931,1.931,0,0,1,347.051,315Zm-11.032-12.829h5.235a.966.966,0,0,0,.966-.966v-.24a.966.966,0,0,0-.966-.966h-5.235a.966.966,0,0,0-.966.966v.24A.966.966,0,0,0,336.019,302.171Zm4.755,1.086H336.5a6.277,6.277,0,0,0-6.277,6.277v1.735a.966.966,0,0,0,.966.966h14.9a.966.966,0,0,0,.966-.966v-1.735A6.277,6.277,0,0,0,340.774,303.257Z" transform="translate(-274.382 -253.493)" fill="#d98800"/>
      <path id="Trazado_19316" data-name="Trazado 19316" d="M365.719,317.413h-9.187a1.931,1.931,0,0,1-1.931-1.931V315a1.931,1.931,0,0,1,1.931-1.931h9.187A1.931,1.931,0,0,1,367.651,315v.48A1.931,1.931,0,0,1,365.719,317.413Zm-2.9-16.207v-.24a.966.966,0,0,0-.966-.966h-2.424a.966.966,0,0,0-.966.966v.24a.966.966,0,0,0,.966.966h2.424A.966.966,0,0,0,362.819,301.206Zm4.832,10.063v-1.735a6.277,6.277,0,0,0-6.277-6.277h-.5a6.277,6.277,0,0,0-6.277,6.277v1.735a.966.966,0,0,0,.966.966h11.118A.966.966,0,0,0,367.651,311.268Z" transform="translate(-294.982 -253.493)" fill="#f4aa39"/>
      <path id="Trazado_19317" data-name="Trazado 19317" d="M396.841,344.06h-2.414v-4.345h2.414Zm.278-7.526a2.975,2.975,0,0,0,.247-2.288,3.642,3.642,0,0,0-1.938-2.4c-.164-.071-1.629-.7-2.4.046a1.532,1.532,0,0,0-.355,1.561c.428,1.1,2.149.652,2.937,1.917.513.823.236,1.738.64,1.839.362.091.808-.59.866-.68Z" transform="translate(-327.083 -280.138)" fill="#fdcb6b"/>
      <path id="Trazado_19318" data-name="Trazado 19318" d="M343,401q-.881,1.131-1.844,2.192a4.424,4.424,0,0,1-3.275,1.455H328.01a1.55,1.55,0,0,1-1.55-1.55h-.409a1.55,1.55,0,0,1-1.547-1.653A1.585,1.585,0,0,1,326.1,400h15.449A1.551,1.551,0,0,1,343,401Z" transform="translate(-269.548 -337.991)" fill="#c92c2c"/>
      <path id="Trazado_19319" data-name="Trazado 19319" d="M329.306,403.1H326.05a1.55,1.55,0,1,1,0-3.1h3.255a1.55,1.55,0,1,0,0,3.1Z" transform="translate(-269.548 -337.991)" fill="#99302b"/>
      <path id="Trazado_19320" data-name="Trazado 19320" d="M78.021,430H131.5a37.981,37.981,0,0,1-53.476,0Z" transform="translate(-61.279 -363.34)" fill="#4f66cf"/>
      <path id="Trazado_19321" data-name="Trazado 19321" d="M124.917,420a38.208,38.208,0,0,1-5.018,4.651H73.5A38.2,38.2,0,0,1,68.484,420Z" transform="translate(-53.22 -354.89)" fill="#8694dd"/>
    </g>
  </g>
</svg>
