<svg xmlns="http://www.w3.org/2000/svg" width="146" height="111" viewBox="0 0 146 111">
  <g id="Grupo_25799" data-name="Grupo 25799" transform="translate(-345 -2196)">
    <g id="Grupo_25793" data-name="Grupo 25793">
      <text id="Espacios_públicos" data-name="Espacios públicos" transform="translate(418 2302)" fill="#111e61" font-size="18" font-family="Roboto-Medium, Roboto" font-weight="500"><tspan x="-72.901" y="0">Espacios públicos</tspan></text>
      <g id="piscina" transform="translate(379 2196)">
        <path id="Trazado_18898" data-name="Trazado 18898" d="M77.109,76.525a37.827,37.827,0,0,1-61.836-16.4,3.758,3.758,0,0,1-.152-1.536,38.213,38.213,0,0,0,.233-4.218,37.907,37.907,0,0,0-1.124-9.191,7.179,7.179,0,0,1-.1-2.985,37.72,37.72,0,0,1,62.915-21.03A37.75,37.75,0,0,0,65.607,42.2a7.176,7.176,0,0,0,.1,2.985,37.9,37.9,0,0,1,1.124,9.191,38.211,38.211,0,0,1-.233,4.218,3.752,3.752,0,0,0,.152,1.536A37.832,37.832,0,0,0,77.109,76.525Z" transform="translate(-11.855 -9.302)" fill="#f4aa39"/>
        <path id="Trazado_18899" data-name="Trazado 18899" d="M102.315,70H148.7a37.819,37.819,0,0,1,0,57.421h-46.38A2.315,2.315,0,0,1,100,125.106V72.315A2.315,2.315,0,0,1,102.315,70Z" transform="translate(-84.564 -59.195)" fill="#fff5f5"/>
        <path id="Trazado_18900" data-name="Trazado 18900" d="M147.851,80.805V83.12H100V80.805h9.262V70h2.315V80.805h6.946V70h2.315V80.805h10.805V70h2.315V80.805h10.033V70h2.315V80.805Zm-38.589,46.616h2.315V116.616h-2.315Zm23.154,0h2.315V116.616h-2.315Zm-11.577,0h2.315V116.616h-2.315ZM100,113.992h47.851v-2.315H100Z" transform="translate(-84.564 -59.195)" fill="#bbe0fb"/>
        <path id="Trazado_18901" data-name="Trazado 18901" d="M142.315,111h46.076a37.83,37.83,0,0,1,0,44.764H142.315A2.315,2.315,0,0,1,140,153.448V113.315A2.315,2.315,0,0,1,142.315,111Z" transform="translate(-118.39 -93.866)" fill="#0377ee"/>
        <path id="Trazado_18902" data-name="Trazado 18902" d="M188.634,15.436v3.087h10.805a1.158,1.158,0,0,1,0,2.315H188.634v5.4h-2.315V5.69a3.346,3.346,0,0,0-3.166-3.371,3.3,3.3,0,0,0-3.42,3.29v5.2h-2.315V5.714A5.677,5.677,0,0,1,182.89,0a5.614,5.614,0,0,1,5.743,5.607v7.512h10.805a1.158,1.158,0,0,1,0,2.315Z" transform="translate(-150.031 -0.001)" fill="#003278"/>
        <path id="Trazado_18903" data-name="Trazado 18903" d="M271.217,5.608v16H268.9v-.772h-6.586a1.158,1.158,0,1,1,0-2.315H268.9V15.436h-6.586a1.158,1.158,0,1,1,0-2.315H268.9V5.608a3.293,3.293,0,0,0-6.586,0v5.2H260v-5.2a5.608,5.608,0,0,1,11.217,0Z" transform="translate(-219.867)" fill="#00429a"/>
        <path id="Trazado_18904" data-name="Trazado 18904" d="M140.772,132.315q-.387,0-.772.038v-2.324q.385-.029.772-.029a10.484,10.484,0,0,1,6.251,2.084l1.235.926a8.1,8.1,0,0,0,9.725,0l1.234-.926a10.42,10.42,0,0,1,12.5,0l1.235.926a8.1,8.1,0,0,0,9.725,0l1.235-.926A10.484,10.484,0,0,1,190.166,130l.18,0q.723,1.2,1.357,2.463a8.044,8.044,0,0,0-1.537-.149,8.154,8.154,0,0,0-4.862,1.621l-1.235.926a10.419,10.419,0,0,1-12.5,0l-1.235-.926a8.1,8.1,0,0,0-9.725,0l-1.235.926a10.419,10.419,0,0,1-12.5,0l-1.235-.926a8.154,8.154,0,0,0-4.862-1.621Zm43.143,31.412-1.235.926a8.1,8.1,0,0,1-9.725,0l-1.235-.926a10.419,10.419,0,0,0-12.5,0l-1.235.926a8.1,8.1,0,0,1-9.725,0l-1.235-.926a10.484,10.484,0,0,0-6.251-2.084q-.387,0-.772.029V164q.384-.037.772-.038a8.155,8.155,0,0,1,4.862,1.621l1.235.926a10.419,10.419,0,0,0,12.5,0l1.235-.926a8.1,8.1,0,0,1,9.725,0l1.235.926a10.419,10.419,0,0,0,12.5,0l1.235-.926a8.085,8.085,0,0,1,7.367-1.221q.456-1.062.848-2.157a10.4,10.4,0,0,0-9.6,1.526Zm-38.281-22.073,1.235.926a10.419,10.419,0,0,0,12.5,0l1.235-.926a8.1,8.1,0,0,1,9.725,0l1.235.926a10.419,10.419,0,0,0,12.5,0l1.235-.926a8.1,8.1,0,0,1,9.595-.1q-.33-1.555-.786-3.061a10.4,10.4,0,0,0-10.2,1.3l-1.235.926a8.1,8.1,0,0,1-9.725,0l-1.235-.926a10.419,10.419,0,0,0-12.5,0l-1.234.926a8.1,8.1,0,0,1-9.725,0l-1.235-.926a10.484,10.484,0,0,0-6.251-2.084q-.387,0-.772.029v2.324q.384-.037.772-.038A8.154,8.154,0,0,1,145.634,141.654Zm50.011,5.339a10.417,10.417,0,0,0-11.73.527l-1.235.926a8.1,8.1,0,0,1-9.725,0l-1.235-.926a10.419,10.419,0,0,0-12.5,0l-1.235.926a8.1,8.1,0,0,1-9.725,0l-1.235-.926a10.484,10.484,0,0,0-6.251-2.084q-.387,0-.772.029v2.324q.384-.037.772-.038a8.154,8.154,0,0,1,4.862,1.621l1.235.926a10.419,10.419,0,0,0,12.5,0l1.235-.926a8.1,8.1,0,0,1,9.725,0l1.235.926a10.419,10.419,0,0,0,12.5,0l1.235-.926a8.1,8.1,0,0,1,9.725,0l.692.519q0-.221,0-.442Q195.723,148.212,195.645,146.993Zm-11.73,8.244-1.235.926a8.1,8.1,0,0,1-9.725,0l-1.235-.926a10.419,10.419,0,0,0-12.5,0l-1.235.926a8.1,8.1,0,0,1-9.725,0l-1.235-.926a10.484,10.484,0,0,0-6.251-2.084q-.387,0-.772.029v2.324q.384-.037.772-.038a8.155,8.155,0,0,1,4.862,1.621l1.235.926a10.419,10.419,0,0,0,12.5,0l1.235-.926a8.1,8.1,0,0,1,9.725,0l1.235.926a10.419,10.419,0,0,0,12.5,0l1.235-.926a8.1,8.1,0,0,1,9.657-.05q.25-1.229.42-2.485a10.414,10.414,0,0,0-11.466.683Z" transform="translate(-118.39 -109.933)" fill="#0191f8"/>
        <path id="Trazado_18905" data-name="Trazado 18905" d="M22.777,252.014a1.544,1.544,0,0,1-1.507,1.878H12.756A37.8,37.8,0,0,1,11,242.47q0-1.245.079-2.47h9.028Z" transform="translate(-9.302 -202.954)" fill="#99302b"/>
        <path id="Trazado_18906" data-name="Trazado 18906" d="M35.5,220.805H1.544A1.544,1.544,0,0,1,0,219.261v-7.718A1.544,1.544,0,0,1,1.544,210H35.5a1.544,1.544,0,0,1,1.544,1.544v7.718A1.544,1.544,0,0,1,35.5,220.805Z" transform="translate(0 -177.585)" fill="#003278"/>
        <path id="Trazado_18907" data-name="Trazado 18907" d="M35.5,217.718H1.544A1.544,1.544,0,0,1,0,216.174v-4.631A1.544,1.544,0,0,1,1.544,210H35.5a1.544,1.544,0,0,1,1.544,1.544v4.631A1.544,1.544,0,0,1,35.5,217.718Z" transform="translate(0 -177.585)" fill="#2740af"/>
        <path id="Trazado_18908" data-name="Trazado 18908" d="M343.018,283.125l7.652,12.044a9.838,9.838,0,1,1-16.608,0l7.652-12.044A.772.772,0,0,1,343.018,283.125Z" transform="translate(-281.2 -239.119)" fill="#acd1fd"/>
        <path id="Trazado_18909" data-name="Trazado 18909" d="M348.506,350.9a9.84,9.84,0,0,1-14.444-12.966l2.919-4.595A15.456,15.456,0,0,0,348.506,350.9Z" transform="translate(-281.199 -281.89)" fill="#81bdfd"/>
        <path id="Trazado_18910" data-name="Trazado 18910" d="M400.162,324.9c1.617,3.2,2.077,6.216,1.027,6.747s-3.211-1.628-4.828-4.823-2.077-6.216-1.027-6.747S398.546,321.709,400.162,324.9Z" transform="translate(-333.835 -270.605)" fill="#c7eefd"/>
      </g>
    </g>
  </g>
</svg>
