<svg xmlns="http://www.w3.org/2000/svg" width="143.826" height="114.248" viewBox="0 0 143.826 114.248">
  <g id="Grupo_22847" data-name="Grupo 22847" transform="translate(-206.174 -119.714)">
    <path id="Trazado_4109" data-name="Trazado 4109" d="M236.439,173.42l3.541,2.115-30.265,17.372-3.541-2.115Z" transform="translate(0 20.641)" fill="#becddb" opacity="0.8"/>
    <path id="Trazado_4110" data-name="Trazado 4110" d="M292.177,142.088l-40.23,23.27,40.23,23.227,40.231-23.227Z" transform="translate(17.592 8.599)" fill="#becddb" opacity="0.8"/>
    <g id="Grupo_22836" data-name="Grupo 22836" transform="translate(206.197 119.714)">
      <path id="Trazado_4111" data-name="Trazado 4111" d="M230.941,181.858l30.244-17.494v-3.895l-30.244-17.482Z" transform="translate(-196.678 -110.769)" fill="#5b544f"/>
      <path id="Trazado_4112" data-name="Trazado 4112" d="M230.941,175.972l30.244,17.482V158.429l-30.244,17.494Z" transform="translate(-196.678 -104.834)" fill="#aaa39f"/>
      <path id="Trazado_4113" data-name="Trazado 4113" d="M283.95,143.842,256.4,159.75v50.636l16.094-9.292,24.136-13.935V136.523Z" transform="translate(-186.895 -113.253)" fill="#776f69"/>
      <path id="Trazado_4114" data-name="Trazado 4114" d="M260.181,157.746l27.726-16.008-41.36,8.136Z" transform="translate(-190.681 -111.249)" fill="#aaa39f"/>
      <path id="Trazado_4115" data-name="Trazado 4115" d="M267.565,119.714l-40.23,23.27,10.6,6.119.871.5,15.127,8.734,41.36-8.136,12.5-7.219Z" transform="translate(-198.065 -119.714)" fill="#bcb6b3"/>
      <g id="Grupo_22818" data-name="Grupo 22818" transform="translate(54.73 50.235)">
        <path id="Trazado_4116" data-name="Trazado 4116" d="M253.548,160.8l-2.095-1.337-2.5.626,3.584.9A3.746,3.746,0,0,1,253.548,160.8Z" transform="translate(-244.485 -154.673)" fill="#edc006"/>
        <g id="Grupo_22815" data-name="Grupo 22815" transform="translate(0 4.739)">
          <path id="Trazado_4117" data-name="Trazado 4117" d="M250.2,160.1l-2.7-.676-1.775,6.5.025.012a.93.93,0,0,0,.446,1.017l1.65.943.569.327,2.251-8.007Z" transform="translate(-245.726 -159.425)" fill="#eab306"/>
          <path id="Trazado_4118" data-name="Trazado 4118" d="M257.174,161.659l-1.052-.6a3.684,3.684,0,0,0-2.079-.465,3.746,3.746,0,0,0-1.008.188L249.92,160l-2.251,8.007,9.5,5.435Z" transform="translate(-244.979 -159.205)" fill="#e3960e"/>
        </g>
        <g id="Grupo_22816" data-name="Grupo 22816" transform="translate(1.78)">
          <path id="Trazado_4119" data-name="Trazado 4119" d="M257.426,156.72l-.485-.278a3.329,3.329,0,0,0-3.331.012l-6.2,3.61a.82.82,0,0,0-.249,1.188l10.261-2.013Z" transform="translate(-247.012 -156.002)" fill="#fdd110"/>
          <path id="Trazado_4120" data-name="Trazado 4120" d="M257.384,158.341l-10.261,2.013a.789.789,0,0,0,.255.256l8.067,4.613,1.939-.382Z" transform="translate(-246.969 -155.103)" fill="#fff859"/>
        </g>
        <g id="Grupo_22817" data-name="Grupo 22817" transform="translate(6.658 4.29)">
          <path id="Trazado_4121" data-name="Trazado 4121" d="M253.256,160.724a.762.762,0,0,1-.4.454,1.752,1.752,0,0,1-1.783-.154c-.774-.447-.581-.858-.21-1.073a1.935,1.935,0,0,1,.628-.221l.508.293-.244.165-.233-.134a.167.167,0,0,0-.152-.026.9.9,0,0,0-.215.1c-.346.2-.228.444.216.7a1.22,1.22,0,0,0,1.2.176.453.453,0,0,0,.2-.2l-.444-.257h0l-.208.111-.255-.147.642-.371.24.137-.054.039c-.048.035-.048.058.024.1Z" transform="translate(-250.536 -158.859)" fill="#e3960e"/>
          <path id="Trazado_4122" data-name="Trazado 4122" d="M254.049,160.47a1.772,1.772,0,0,1-1.777-.162c-.764-.442-.616-.836-.256-1.045a1.755,1.755,0,0,1,1.764.176C254.465,159.833,254.5,160.209,254.049,160.47Zm-.284-.186c.327-.19.062-.45-.3-.656a1.266,1.266,0,0,0-1.161-.179c-.329.191-.083.458.273.663A1.235,1.235,0,0,0,253.766,160.285Z" transform="translate(-250.08 -159.101)" fill="#e3960e"/>
        </g>
        <path id="Trazado_4123" data-name="Trazado 4123" d="M255.662,157.533l-5.642,3.257-.536-.284,5.642-3.257Z" transform="translate(-244.282 -155.523)" fill="#e3960e"/>
      </g>
      <g id="Grupo_22824" data-name="Grupo 22824" transform="translate(38.796 58.29)">
        <path id="Trazado_4124" data-name="Trazado 4124" d="M242.038,166.618l-2.094-1.339-2.5.627,3.584.9A3.753,3.753,0,0,1,242.038,166.618Z" transform="translate(-232.975 -160.491)" fill="#edc006"/>
        <g id="Grupo_22819" data-name="Grupo 22819" transform="translate(0 4.738)">
          <path id="Trazado_4125" data-name="Trazado 4125" d="M238.687,165.92l-2.7-.677-1.775,6.5.025.012a.928.928,0,0,0,.446,1.016l1.65.944.569.325,2.251-8.006Z" transform="translate(-234.216 -165.243)" fill="#eab306"/>
          <path id="Trazado_4126" data-name="Trazado 4126" d="M246.154,167.759l-1.542-.885a3.683,3.683,0,0,0-2.079-.464,3.753,3.753,0,0,0-1.008.187l-3.115-.781-2.251,8.006,14.751,8.436,3.551-12.415Z" transform="translate(-233.469 -165.022)" fill="#e3960e"/>
        </g>
        <g id="Grupo_22820" data-name="Grupo 22820" transform="translate(17.441 9.559)">
          <path id="Trazado_4127" data-name="Trazado 4127" d="M257.5,170.516l-1.73-.434-5.406-1.356-3.551,12.415.478.273,1.763,1.008,2.207-9.892,3.089-.4,2.367,10.273.784-.453Z" transform="translate(-246.815 -168.726)" fill="#eab306"/>
          <path id="Trazado_4128" data-name="Trazado 4128" d="M250.639,171.584l-2.205,9.891.839.48a6.008,6.008,0,0,0,5.993-.015l.346-.2.485-.28-2.367-10.272Z" transform="translate(-246.192 -167.779)" fill="#e3960e"/>
        </g>
        <g id="Grupo_22821" data-name="Grupo 22821" transform="translate(1.78)">
          <path id="Trazado_4129" data-name="Trazado 4129" d="M255.271,167.191l-13.647,2.685,2.589,1.481,13.651-2.678Z" transform="translate(-233.149 -159.756)" fill="#fdd110"/>
          <path id="Trazado_4130" data-name="Trazado 4130" d="M245.432,162.261a3.329,3.329,0,0,0-3.331.011l-6.2,3.612a.818.818,0,0,0-.249,1.186l13.532-2.654Z" transform="translate(-235.502 -161.82)" fill="#fdd110"/>
          <path id="Trazado_4131" data-name="Trazado 4131" d="M258.115,169.355l-12.894,2.536,4.841,2.769a5.362,5.362,0,0,0,5.346-.012l2.706-1.566Z" transform="translate(-231.766 -158.925)" fill="#fdd110"/>
          <path id="Trazado_4132" data-name="Trazado 4132" d="M249.145,163.7l-13.532,2.654a.789.789,0,0,0,.255.256l8.066,4.613,13.647-2.684Z" transform="translate(-235.459 -161.1)" fill="#fff859"/>
          <path id="Trazado_4133" data-name="Trazado 4133" d="M258.778,169.2l-1.633-.936-13.651,2.678,2.391,1.367,12.893-2.536Z" transform="translate(-232.43 -159.343)" fill="#fff859"/>
        </g>
        <g id="Grupo_22822" data-name="Grupo 22822" transform="translate(6.659 2.514)">
          <path id="Trazado_4134" data-name="Trazado 4134" d="M241.746,166.543a.76.76,0,0,1-.4.453,1.748,1.748,0,0,1-1.783-.152c-.772-.447-.581-.858-.21-1.073a1.946,1.946,0,0,1,.629-.222l.508.293-.242.165-.234-.134a.166.166,0,0,0-.152-.026.948.948,0,0,0-.215.1c-.346.2-.228.444.216.7a1.22,1.22,0,0,0,1.2.176.446.446,0,0,0,.2-.2l-.444-.257h0l-.209.109-.253-.145.642-.371.239.137-.054.039c-.048.035-.047.058.024.1Z" transform="translate(-239.026 -162.902)" fill="#e3960e"/>
          <path id="Trazado_4135" data-name="Trazado 4135" d="M242.539,166.289a1.769,1.769,0,0,1-1.776-.162c-.766-.442-.617-.836-.256-1.045a1.755,1.755,0,0,1,1.762.174C242.955,165.652,242.991,166.028,242.539,166.289Zm-.284-.186c.328-.19.062-.45-.3-.656a1.266,1.266,0,0,0-1.161-.179c-.329.19-.083.458.273.663A1.239,1.239,0,0,0,242.255,166.1Z" transform="translate(-238.571 -163.143)" fill="#e3960e"/>
          <path id="Trazado_4136" data-name="Trazado 4136" d="M243.1,165.917l-.241-.14.075-.055c.037-.028.051-.055-.008-.091l-1.388-.8-.158.08-.253-.147.622-.36.242.14-.076.055c-.037.029-.051.057.022.1l1.332.768.428-.246c.054-.032.021-.057-.036-.09l-.209-.12.284-.14.591.341Z" transform="translate(-238.22 -163.342)" fill="#e3960e"/>
          <path id="Trazado_4137" data-name="Trazado 4137" d="M243.864,165.268l.076-.055c.036-.029.05-.057-.01-.091l-1.388-.8-.158.079-.253-.147.707-.408a1.679,1.679,0,0,1,1.728.069c.784.451.688.831.271,1.071l-.732.422Zm.429-.3.263-.152c.289-.167.224-.413-.253-.689a1.119,1.119,0,0,0-1.191-.105l-.23.132Z" transform="translate(-237.833 -163.637)" fill="#e3960e"/>
        </g>
        <g id="Grupo_22823" data-name="Grupo 22823" transform="translate(20.441 10.479)">
          <path id="Trazado_4138" data-name="Trazado 4138" d="M250.566,172.45l-.235-.728c-.06-.174-.078-.253-.248-.352a.478.478,0,0,0-.473-.024.415.415,0,0,0-.13.1c-.03.036,0,.057.053.09l.212.122-.284.14-.478-.275a.916.916,0,0,1,.379-.382,1.021,1.021,0,0,1,1.022.025.717.717,0,0,1,.35.454l.152.568.645-.372.295.17-1.03.594Z" transform="translate(-248.982 -168.764)" fill="#e3960e"/>
          <path id="Trazado_4139" data-name="Trazado 4139" d="M251.86,170.813c.707.408.8.7.406.932s-.9.168-1.592-.234-.752-.714-.382-.928S251.154,170.406,251.86,170.813Zm-.3.18c-.543-.313-.813-.335-.983-.237s-.12.267.444.592c.518.3.789.328.965.227S252.128,171.321,251.559,170.993Z" transform="translate(-248.564 -168.98)" fill="#e3960e"/>
          <path id="Trazado_4140" data-name="Trazado 4140" d="M252.86,170.236c.707.408.8.7.4.932s-.894.168-1.591-.234-.752-.714-.383-.928S252.154,169.829,252.86,170.236Zm-.3.18c-.543-.313-.813-.335-.983-.237s-.122.267.443.592c.518.3.79.328.966.227S253.128,170.744,252.559,170.416Z" transform="translate(-248.18 -169.202)" fill="#e3960e"/>
          <path id="Trazado_4141" data-name="Trazado 4141" d="M254.132,171.158l-.415-.239.22-.155.144.083a.208.208,0,0,0,.168.028.8.8,0,0,0,.213-.089c.237-.137.111-.281-.14-.426l-.165-.094c.032.119-.05.221-.176.293a1.251,1.251,0,0,1-1.2-.111c-.541-.313-.515-.622-.125-.847a2.188,2.188,0,0,1,.587-.21l1.11.64c.1.06.22.125.32.191.408.271.433.491.046.714A1.968,1.968,0,0,1,254.132,171.158Zm-1.005-1.488a.916.916,0,0,0-.244.1c-.213.125-.129.3.173.476a.776.776,0,0,0,.742.119c.145-.084.152-.217-.029-.321Z" transform="translate(-247.682 -169.39)" fill="#e3960e"/>
        </g>
        <path id="Trazado_4142" data-name="Trazado 4142" d="M244.152,163.351l-5.642,3.257-.536-.284,5.642-3.257Z" transform="translate(-232.772 -161.341)" fill="#e3960e"/>
        <path id="Trazado_4143" data-name="Trazado 4143" d="M247.257,165.145l-5.642,3.257-.536-.284,5.642-3.257Z" transform="translate(-231.578 -160.652)" fill="#e3960e"/>
        <path id="Trazado_4144" data-name="Trazado 4144" d="M253.974,168.949l-5.642,3.257-.536-.284,5.642-3.257Z" transform="translate(-228.997 -159.19)" fill="#e3960e"/>
      </g>
      <g id="Grupo_22830" data-name="Grupo 22830" transform="translate(42.965 47.753)">
        <path id="Trazado_4145" data-name="Trazado 4145" d="M245.05,159.006l-2.095-1.339-2.5.627,3.584.9A3.763,3.763,0,0,1,245.05,159.006Z" transform="translate(-235.986 -152.879)" fill="#edc006"/>
        <g id="Grupo_22825" data-name="Grupo 22825" transform="translate(0 4.738)">
          <path id="Trazado_4146" data-name="Trazado 4146" d="M241.7,158.308l-2.7-.677-1.776,6.5.026.012a.927.927,0,0,0,.444,1.016l1.65.944.57.325,2.251-8.006Z" transform="translate(-237.227 -157.631)" fill="#eab306"/>
          <path id="Trazado_4147" data-name="Trazado 4147" d="M249.165,160.147l-1.541-.885a3.686,3.686,0,0,0-2.079-.464,3.763,3.763,0,0,0-1.009.187l-3.113-.781-2.251,8.006,14.75,8.436,3.551-12.415Z" transform="translate(-236.48 -157.41)" fill="#e3960e"/>
        </g>
        <g id="Grupo_22826" data-name="Grupo 22826" transform="translate(17.441 9.559)">
          <path id="Trazado_4148" data-name="Trazado 4148" d="M256.345,161.858l-2.967-.744-3.551,12.415.478.273,1.763,1.008,2.206-9.892,2.071-.266Z" transform="translate(-249.826 -161.114)" fill="#eab306"/>
          <path id="Trazado_4149" data-name="Trazado 4149" d="M255.723,163.67l-2.071.266-2.207,9.891.84.48a6,6,0,0,0,3.437.764Z" transform="translate(-249.204 -160.131)" fill="#e3960e"/>
        </g>
        <g id="Grupo_22827" data-name="Grupo 22827" transform="translate(1.781)">
          <path id="Trazado_4150" data-name="Trazado 4150" d="M258.339,159.612l-.057-.033-13.647,2.685,2.589,1.481,11.114-2.18Z" transform="translate(-236.161 -152.144)" fill="#fdd110"/>
          <path id="Trazado_4151" data-name="Trazado 4151" d="M248.443,154.649a3.329,3.329,0,0,0-3.331.011l-6.195,3.612a.82.82,0,0,0-.251,1.186L252.2,156.8Z" transform="translate(-238.514 -154.208)" fill="#fdd110"/>
          <path id="Trazado_4152" data-name="Trazado 4152" d="M256.957,162.336l-8.724,1.717,4.841,2.767a5.355,5.355,0,0,0,3.883.558Z" transform="translate(-234.778 -151.085)" fill="#fdd110"/>
          <path id="Trazado_4153" data-name="Trazado 4153" d="M252.157,156.084l-13.533,2.654a.808.808,0,0,0,.256.256l8.067,4.613,13.647-2.684Z" transform="translate(-238.471 -153.488)" fill="#fff859"/>
          <path id="Trazado_4154" data-name="Trazado 4154" d="M257.621,161.013l-11.114,2.18,2.39,1.367,8.724-1.716Z" transform="translate(-235.442 -151.593)" fill="#fff859"/>
        </g>
        <g id="Grupo_22828" data-name="Grupo 22828" transform="translate(6.66 2.514)">
          <path id="Trazado_4155" data-name="Trazado 4155" d="M244.757,158.931a.752.752,0,0,1-.4.453,1.751,1.751,0,0,1-1.784-.152c-.772-.447-.58-.858-.209-1.073a1.935,1.935,0,0,1,.629-.221l.508.293-.244.165-.233-.134a.168.168,0,0,0-.152-.026.931.931,0,0,0-.216.1c-.346.2-.228.444.216.7a1.223,1.223,0,0,0,1.2.176.461.461,0,0,0,.2-.2l-.444-.257h0l-.208.109-.255-.145.644-.371.238.137-.053.039c-.048.035-.048.058.024.1Z" transform="translate(-242.038 -155.29)" fill="#e3960e"/>
          <path id="Trazado_4156" data-name="Trazado 4156" d="M245.551,158.677a1.772,1.772,0,0,1-1.777-.162c-.764-.442-.617-.836-.256-1.045a1.757,1.757,0,0,1,1.764.174C245.965,158.04,246,158.416,245.551,158.677Zm-.284-.186c.327-.19.061-.45-.3-.656a1.267,1.267,0,0,0-1.161-.179c-.331.191-.084.458.273.663A1.238,1.238,0,0,0,245.268,158.492Z" transform="translate(-241.582 -155.531)" fill="#e3960e"/>
          <path id="Trazado_4157" data-name="Trazado 4157" d="M246.11,158.305l-.242-.14.076-.055c.037-.028.051-.055-.008-.091l-1.389-.8-.158.08-.255-.147.623-.36.242.14-.076.055c-.037.029-.051.057.021.1l1.332.768.428-.246c.055-.032.021-.057-.035-.09l-.21-.12.285-.14.591.341Z" transform="translate(-241.232 -155.73)" fill="#e3960e"/>
          <path id="Trazado_4158" data-name="Trazado 4158" d="M246.875,157.656l.076-.055c.037-.029.051-.057-.008-.091l-1.388-.8-.158.079-.255-.147.707-.408a1.681,1.681,0,0,1,1.729.069c.782.451.687.831.271,1.071l-.732.424Zm.431-.3.263-.152c.288-.168.224-.413-.253-.689a1.119,1.119,0,0,0-1.191-.105l-.23.132Z" transform="translate(-240.845 -156.025)" fill="#e3960e"/>
        </g>
        <g id="Grupo_22829" data-name="Grupo 22829" transform="translate(20.441 12.735)">
          <path id="Trazado_4159" data-name="Trazado 4159" d="M253.577,164.838l-.234-.728c-.06-.174-.078-.253-.249-.352a.476.476,0,0,0-.472-.024.425.425,0,0,0-.132.1c-.029.036,0,.057.053.09l.212.122-.284.14-.478-.275a.929.929,0,0,1,.381-.382,1.021,1.021,0,0,1,1.022.025.719.719,0,0,1,.349.454l.152.568.647-.372.295.17-1.03.594Z" transform="translate(-251.993 -163.408)" fill="#e3960e"/>
        </g>
        <path id="Trazado_4160" data-name="Trazado 4160" d="M247.163,155.739,241.521,159l-.536-.284,5.642-3.257Z" transform="translate(-235.782 -153.729)" fill="#e3960e"/>
        <path id="Trazado_4161" data-name="Trazado 4161" d="M250.269,157.533l-5.642,3.257-.536-.284,5.642-3.257Z" transform="translate(-234.589 -153.04)" fill="#e3960e"/>
        <path id="Trazado_4162" data-name="Trazado 4162" d="M255.967,161.255l-5.16,2.979.536.284,4.624-2.67Z" transform="translate(-232.007 -151.5)" fill="#e3960e"/>
      </g>
      <path id="Trazado_4163" data-name="Trazado 4163" d="M227.334,136.523v50.636l40.23,23.228V159.751Zm35.237,30.325v35.025l-30.244-17.481V145.471l30.244,17.481Z" transform="translate(-198.065 -113.253)" fill="#918a84"/>
      <g id="Grupo_22831" data-name="Grupo 22831" transform="translate(66.267 46.883)">
        <path id="Trazado_4164" data-name="Trazado 4164" d="M254.06,154.225a1.759,1.759,0,0,0,.736,1.405c.406.235.735-.014.735-.555a1.765,1.765,0,0,0-.735-1.406C254.389,153.434,254.06,153.684,254.06,154.225Z" transform="translate(-254.06 -153.581)" fill="#ffd511"/>
        <path id="Trazado_4165" data-name="Trazado 4165" d="M254.06,160.9a1.762,1.762,0,0,0,.736,1.406c.406.234.735-.015.735-.556a1.762,1.762,0,0,0-.735-1.405C254.389,160.113,254.06,160.362,254.06,160.9Z" transform="translate(-254.06 -151.013)" fill="#ffd511"/>
        <path id="Trazado_4166" data-name="Trazado 4166" d="M254.06,166.039a1.759,1.759,0,0,0,.736,1.405c.406.235.735-.014.735-.555a1.765,1.765,0,0,0-.735-1.406C254.389,165.248,254.06,165.5,254.06,166.039Z" transform="translate(-254.06 -149.04)" fill="#ffd511"/>
        <path id="Trazado_4167" data-name="Trazado 4167" d="M254.06,171.173a1.762,1.762,0,0,0,.736,1.406c.406.234.735-.015.735-.556a1.762,1.762,0,0,0-.735-1.405C254.389,170.382,254.06,170.631,254.06,171.173Z" transform="translate(-254.06 -147.067)" fill="#ffd511"/>
        <path id="Trazado_4168" data-name="Trazado 4168" d="M254.06,176.308a1.759,1.759,0,0,0,.736,1.405c.406.235.735-.014.735-.555a1.765,1.765,0,0,0-.735-1.406C254.389,175.517,254.06,175.767,254.06,176.308Z" transform="translate(-254.06 -145.093)" fill="#ffd511"/>
        <path id="Trazado_4169" data-name="Trazado 4169" d="M254.06,181.443a1.759,1.759,0,0,0,.736,1.405c.406.234.735-.014.735-.557a1.762,1.762,0,0,0-.735-1.405C254.389,180.651,254.06,180.9,254.06,181.443Z" transform="translate(-254.06 -143.12)" fill="#ffd511"/>
        <path id="Trazado_4170" data-name="Trazado 4170" d="M254.06,186.577a1.762,1.762,0,0,0,.736,1.406c.406.234.735-.015.735-.557a1.767,1.767,0,0,0-.735-1.406C254.389,185.786,254.06,186.036,254.06,186.577Z" transform="translate(-254.06 -141.146)" fill="#ffd511"/>
      </g>
      <g id="Grupo_22832" data-name="Grupo 22832" transform="translate(36.951 29.836)">
        <path id="Trazado_4171" data-name="Trazado 4171" d="M232.883,141.911a1.762,1.762,0,0,0,.735,1.405c.407.235.736-.014.736-.556a1.759,1.759,0,0,0-.736-1.405C233.212,141.119,232.883,141.368,232.883,141.911Z" transform="translate(-232.883 -141.266)" fill="#ffd511"/>
        <path id="Trazado_4172" data-name="Trazado 4172" d="M237.082,144.37a1.762,1.762,0,0,0,.735,1.405c.407.235.736-.014.736-.556a1.759,1.759,0,0,0-.736-1.405C237.411,143.579,237.082,143.827,237.082,144.37Z" transform="translate(-231.269 -140.321)" fill="#ffd511"/>
        <path id="Trazado_4173" data-name="Trazado 4173" d="M241.327,146.782a1.762,1.762,0,0,0,.736,1.406c.406.234.735-.015.735-.557a1.762,1.762,0,0,0-.735-1.405C241.656,145.991,241.327,146.24,241.327,146.782Z" transform="translate(-229.638 -139.393)" fill="#ffd511"/>
        <path id="Trazado_4174" data-name="Trazado 4174" d="M245.526,149.241a1.762,1.762,0,0,0,.736,1.406c.406.234.735-.015.735-.557a1.762,1.762,0,0,0-.735-1.405C245.855,148.45,245.526,148.7,245.526,149.241Z" transform="translate(-228.024 -138.448)" fill="#ffd511"/>
        <path id="Trazado_4175" data-name="Trazado 4175" d="M249.861,151.766a1.759,1.759,0,0,0,.736,1.405c.406.235.735-.014.735-.555a1.765,1.765,0,0,0-.735-1.406C250.19,150.975,249.861,151.225,249.861,151.766Z" transform="translate(-226.358 -137.478)" fill="#ffd511"/>
      </g>
      <g id="Grupo_22833" data-name="Grupo 22833" transform="translate(31.83 71.829)">
        <path id="Trazado_4176" data-name="Trazado 4176" d="M232.883,174.294a1.762,1.762,0,0,0,.735,1.405c.407.235.736-.014.736-.557a1.759,1.759,0,0,0-.736-1.405C233.212,173.5,232.883,173.751,232.883,174.294Z" transform="translate(-227.762 -170.813)" fill="#ffd511"/>
        <path id="Trazado_4177" data-name="Trazado 4177" d="M229.184,172.245a1.759,1.759,0,0,0,.736,1.405c.406.235.735-.014.735-.555a1.765,1.765,0,0,0-.735-1.406C229.513,171.454,229.184,171.7,229.184,172.245Z" transform="translate(-229.184 -171.601)" fill="#ffd511"/>
        <path id="Trazado_4178" data-name="Trazado 4178" d="M237.082,176.753a1.762,1.762,0,0,0,.735,1.405c.407.235.736-.014.736-.557a1.759,1.759,0,0,0-.736-1.405C237.411,175.961,237.082,176.21,237.082,176.753Z" transform="translate(-226.149 -169.868)" fill="#ffd511"/>
        <path id="Trazado_4179" data-name="Trazado 4179" d="M241.327,179.165a1.762,1.762,0,0,0,.736,1.406c.406.234.735-.015.735-.556a1.762,1.762,0,0,0-.735-1.405C241.656,178.374,241.327,178.623,241.327,179.165Z" transform="translate(-224.517 -168.941)" fill="#ffd511"/>
        <path id="Trazado_4180" data-name="Trazado 4180" d="M245.526,181.624a1.762,1.762,0,0,0,.736,1.406c.406.234.735-.015.735-.557a1.762,1.762,0,0,0-.735-1.405C245.855,180.833,245.526,181.082,245.526,181.624Z" transform="translate(-222.903 -167.996)" fill="#ffd511"/>
        <path id="Trazado_4181" data-name="Trazado 4181" d="M249.861,184.149a1.759,1.759,0,0,0,.736,1.405c.406.235.735-.014.735-.555a1.765,1.765,0,0,0-.735-1.406C250.19,183.358,249.861,183.608,249.861,184.149Z" transform="translate(-221.237 -167.025)" fill="#ffd511"/>
      </g>
      <g id="Grupo_22834" data-name="Grupo 22834" transform="translate(31.163 26.628)">
        <path id="Trazado_4182" data-name="Trazado 4182" d="M228.7,139.594a1.762,1.762,0,0,0,.735,1.405c.407.234.735-.014.735-.556a1.758,1.758,0,0,0-.735-1.405C229.031,138.8,228.7,139.051,228.7,139.594Z" transform="translate(-228.702 -138.949)" fill="#ffd511"/>
        <path id="Trazado_4183" data-name="Trazado 4183" d="M228.7,144.728a1.767,1.767,0,0,0,.735,1.406c.407.234.735-.015.735-.557a1.761,1.761,0,0,0-.735-1.406C229.031,143.937,228.7,144.187,228.7,144.728Z" transform="translate(-228.702 -136.976)" fill="#ffd511"/>
        <path id="Trazado_4184" data-name="Trazado 4184" d="M228.7,149.863a1.762,1.762,0,0,0,.735,1.405c.407.235.735-.014.735-.557a1.758,1.758,0,0,0-.735-1.405C229.031,149.073,228.7,149.32,228.7,149.863Z" transform="translate(-228.702 -135.002)" fill="#ffd511"/>
        <path id="Trazado_4185" data-name="Trazado 4185" d="M228.7,155a1.765,1.765,0,0,0,.735,1.406c.407.234.735-.015.735-.556a1.758,1.758,0,0,0-.735-1.405C229.031,154.206,228.7,154.455,228.7,155Z" transform="translate(-228.702 -133.029)" fill="#ffd511"/>
        <path id="Trazado_4186" data-name="Trazado 4186" d="M228.7,160.132a1.762,1.762,0,0,0,.735,1.405c.407.235.735-.014.735-.555a1.761,1.761,0,0,0-.735-1.406C229.031,159.341,228.7,159.591,228.7,160.132Z" transform="translate(-228.702 -131.055)" fill="#ffd511"/>
        <path id="Trazado_4187" data-name="Trazado 4187" d="M228.7,165.266a1.765,1.765,0,0,0,.735,1.406c.407.234.735-.015.735-.557a1.758,1.758,0,0,0-.735-1.405C229.031,164.475,228.7,164.724,228.7,165.266Z" transform="translate(-228.702 -129.082)" fill="#ffd511"/>
        <path id="Trazado_4188" data-name="Trazado 4188" d="M228.7,170.4a1.762,1.762,0,0,0,.735,1.405c.407.235.735-.014.735-.555a1.761,1.761,0,0,0-.735-1.406C229.031,169.61,228.7,169.86,228.7,170.4Z" transform="translate(-228.702 -127.108)" fill="#ffd511"/>
      </g>
      <g id="Grupo_22835" data-name="Grupo 22835" transform="translate(0 29.942)">
        <path id="Trazado_4189" data-name="Trazado 4189" d="M238.966,142.863v38.88l-30.213,17.464v-38.88Z" transform="translate(-205.206 -140.758)" fill="#aaa39f"/>
        <path id="Trazado_4190" data-name="Trazado 4190" d="M210.645,193.488V160.973l25.412-14.724V178.73Zm.731-32.094V192.22l23.95-13.911V147.517Z" transform="translate(-204.479 -139.456)" fill="#847c77"/>
        <path id="Trazado_4191" data-name="Trazado 4191" d="M209.738,156.062l-3.547-2.1v38.88l3.547,2.1Z" transform="translate(-206.191 -136.494)" fill="#5b544f"/>
        <path id="Trazado_4192" data-name="Trazado 4192" d="M236.4,141.342l3.547,2.1-30.213,17.464-3.547-2.1Z" transform="translate(-206.191 -141.342)" fill="#847c77"/>
      </g>
    </g>
    <path id="Trazado_4193" data-name="Trazado 4193" d="M244.984,185.167c-4.339,1.5-13.569,6.16-13.569,6.16l24.928,13.961,5.464-3.162s3.133-3.642,4.02-4.888c1.1-1.541.875-2.65-.421-3.375l-14.728-8.4A6.418,6.418,0,0,0,244.984,185.167Z" transform="translate(9.701 24.96)" fill="#becddb" opacity="0.8"/>
    <path id="Trazado_4194" data-name="Trazado 4194" d="M230.186,187.121c-4.339,1.5-13.569,6.16-13.569,6.16l24.928,13.961,5.72-3.378s2.877-3.426,3.764-4.672c1.1-1.541.874-2.65-.422-3.375l-14.727-8.4A6.418,6.418,0,0,0,230.186,187.121Z" transform="translate(4.014 25.711)" fill="#becddb" opacity="0.8"/>
    <g id="Grupo_22841" data-name="Grupo 22841" transform="translate(239.182 206.728)">
      <path id="Trazado_4195" data-name="Trazado 4195" d="M237.841,187.366l-2.095-1.337-2.5.626,3.585.9A3.747,3.747,0,0,1,237.841,187.366Z" transform="translate(-228.777 -181.241)" fill="#edc006"/>
      <path id="Trazado_4196" data-name="Trazado 4196" d="M234.489,186.669l-2.7-.676-1.776,6.5.026.012a.929.929,0,0,0,.444,1.017l1.65.943.57.327,2.251-8.007Z" transform="translate(-230.018 -181.254)" fill="#eab306"/>
      <path id="Trazado_4197" data-name="Trazado 4197" d="M241.956,188.508l-1.541-.883a3.685,3.685,0,0,0-2.079-.465,3.747,3.747,0,0,0-1.008.188l-3.115-.782-2.251,8.007,14.75,8.435,3.552-12.415Z" transform="translate(-229.271 -181.034)" fill="#e3960e"/>
      <path id="Trazado_4198" data-name="Trazado 4198" d="M257.9,199.127l-1.7-7.136-1.647-.413-2.978-.748-5.4-1.355-3.552,12.415.478.273,1.764,1.009,2.207-9.892,3.088-.4,2.367,10.272,4.253-2.46.728-.421A.927.927,0,0,0,257.9,199.127Z" transform="translate(-225.176 -179.916)" fill="#eab306"/>
      <path id="Trazado_4199" data-name="Trazado 4199" d="M246.443,192.333l-2.207,9.892.84.48a6.009,6.009,0,0,0,5.991-.015l.347-.2.483-.281-2.367-10.272Z" transform="translate(-224.554 -178.97)" fill="#e3960e"/>
      <g id="Grupo_22840" data-name="Grupo 22840" transform="translate(1.781)">
        <g id="Grupo_22837" data-name="Grupo 22837">
          <path id="Trazado_4200" data-name="Trazado 4200" d="M251.074,187.941l-13.647,2.685,2.589,1.481,13.651-2.678Z" transform="translate(-228.952 -180.506)" fill="#fdd110"/>
          <path id="Trazado_4201" data-name="Trazado 4201" d="M241.234,183.01a3.327,3.327,0,0,0-3.329.012l-6.2,3.61a.821.821,0,0,0-.251,1.188l13.533-2.655Z" transform="translate(-231.305 -182.57)" fill="#fdd110"/>
          <path id="Trazado_4202" data-name="Trazado 4202" d="M254.66,190l-13.636,2.683,4.841,2.769a5.363,5.363,0,0,0,5.345-.014l5.184-3a.833.833,0,0,0,0-1.444Z" transform="translate(-227.569 -179.715)" fill="#fdd110"/>
          <path id="Trazado_4203" data-name="Trazado 4203" d="M244.948,184.445,231.415,187.1a.808.808,0,0,0,.256.256l8.067,4.613,13.647-2.684Z" transform="translate(-231.262 -181.849)" fill="#fff859"/>
          <path id="Trazado_4204" data-name="Trazado 4204" d="M252.948,189.015,239.3,191.693l2.391,1.367,13.635-2.682Z" transform="translate(-228.233 -180.093)" fill="#fff859"/>
        </g>
        <g id="Grupo_22838" data-name="Grupo 22838" transform="translate(4.879 2.514)">
          <path id="Trazado_4205" data-name="Trazado 4205" d="M237.549,187.293a.764.764,0,0,1-.4.453,1.752,1.752,0,0,1-1.783-.154c-.774-.447-.581-.858-.21-1.072a1.9,1.9,0,0,1,.628-.223l.508.293-.244.165-.233-.134a.167.167,0,0,0-.152-.026.877.877,0,0,0-.215.1c-.346.2-.228.443.216.7a1.219,1.219,0,0,0,1.2.174.446.446,0,0,0,.2-.2l-.444-.258h0l-.208.111-.253-.147.642-.371.24.137-.054.039c-.048.035-.048.058.024.1Z" transform="translate(-234.829 -183.651)" fill="#e3960e"/>
          <path id="Trazado_4206" data-name="Trazado 4206" d="M238.342,187.038a1.772,1.772,0,0,1-1.777-.162c-.764-.442-.617-.836-.256-1.045a1.755,1.755,0,0,1,1.764.176C238.756,186.4,238.794,186.778,238.342,187.038Zm-.284-.186c.327-.188.062-.45-.3-.656a1.267,1.267,0,0,0-1.161-.179c-.329.191-.083.458.273.664A1.238,1.238,0,0,0,238.059,186.853Z" transform="translate(-234.373 -183.893)" fill="#e3960e"/>
          <path id="Trazado_4207" data-name="Trazado 4207" d="M238.9,186.666l-.242-.14.076-.054c.037-.029.051-.057-.008-.091l-1.389-.8-.158.08-.253-.147.622-.359.242.14-.076.054c-.037.029-.051.057.021.1l1.332.77.429-.248c.054-.032.019-.057-.036-.09l-.21-.12.284-.14.593.342Z" transform="translate(-234.022 -184.091)" fill="#e3960e"/>
          <path id="Trazado_4208" data-name="Trazado 4208" d="M239.666,186.017l.076-.055c.037-.028.051-.055-.008-.091l-1.39-.8-.156.08-.253-.147.706-.408a1.678,1.678,0,0,1,1.729.068c.782.453.687.832.271,1.071l-.732.424Zm.431-.3.262-.152c.289-.166.226-.413-.252-.688a1.117,1.117,0,0,0-1.191-.107l-.23.133Z" transform="translate(-233.635 -184.386)" fill="#e3960e"/>
        </g>
        <g id="Grupo_22839" data-name="Grupo 22839" transform="translate(18.66 10.478)">
          <path id="Trazado_4209" data-name="Trazado 4209" d="M246.368,193.2l-.235-.73c-.058-.173-.076-.252-.246-.35a.472.472,0,0,0-.473-.024.445.445,0,0,0-.132.1c-.029.037,0,.058.054.09l.212.123-.285.14-.478-.277a.919.919,0,0,1,.381-.381,1.018,1.018,0,0,1,1.022.024.715.715,0,0,1,.349.454l.154.568.644-.372.3.17-1.03.6Z" transform="translate(-244.784 -189.513)" fill="#e3960e"/>
          <path id="Trazado_4210" data-name="Trazado 4210" d="M247.663,191.562c.707.408.8.706.4.932s-.894.169-1.591-.233-.752-.716-.383-.928S246.957,191.155,247.663,191.562Zm-.3.18c-.544-.313-.813-.334-.983-.235s-.12.266.444.592c.516.3.789.328.965.226S247.931,192.071,247.362,191.742Z" transform="translate(-244.366 -189.729)" fill="#e3960e"/>
          <path id="Trazado_4211" data-name="Trazado 4211" d="M248.663,190.985c.707.408.8.706.4.932s-.894.167-1.591-.234-.752-.714-.383-.926S247.957,190.578,248.663,190.985Zm-.3.18c-.543-.313-.813-.334-.983-.235s-.12.266.444.592c.516.3.789.327.965.226S248.929,191.493,248.36,191.165Z" transform="translate(-243.982 -189.951)" fill="#e3960e"/>
          <path id="Trazado_4212" data-name="Trazado 4212" d="M249.935,191.908l-.415-.241.22-.155.144.083a.2.2,0,0,0,.168.028.745.745,0,0,0,.212-.089c.238-.137.111-.281-.138-.425l-.165-.1c.032.119-.05.221-.177.295a1.252,1.252,0,0,1-1.2-.112c-.54-.311-.514-.622-.125-.847a2.183,2.183,0,0,1,.588-.21l1.109.64c.105.061.22.125.321.191.408.271.432.491.046.716A2.023,2.023,0,0,1,249.935,191.908Zm-1.006-1.49a.978.978,0,0,0-.242.1c-.215.123-.129.3.173.476a.779.779,0,0,0,.742.118c.144-.084.151-.216-.03-.321Z" transform="translate(-243.484 -190.139)" fill="#e3960e"/>
        </g>
        <path id="Trazado_4213" data-name="Trazado 4213" d="M239.955,184.1l-5.642,3.257-.536-.284,5.642-3.257Z" transform="translate(-230.354 -182.091)" fill="#e3960e"/>
        <path id="Trazado_4214" data-name="Trazado 4214" d="M243.06,185.894l-5.642,3.257-.536-.284,5.642-3.257Z" transform="translate(-229.161 -181.401)" fill="#e3960e"/>
        <path id="Trazado_4215" data-name="Trazado 4215" d="M249.777,189.7l-5.642,3.257-.536-.284,5.642-3.257Z" transform="translate(-226.579 -179.939)" fill="#e3960e"/>
      </g>
      <path id="Trazado_4216" data-name="Trazado 4216" d="M231.257,187.413s10.817,6.407,12.469,7.348c.922.526.706,1.728.706,2.951s-.115,3.173-.115,3.173l-14.3-8.937Z" transform="translate(-230.018 -180.709)" fill="#d18409"/>
    </g>
    <g id="Grupo_22845" data-name="Grupo 22845" transform="translate(218.697 209.433)">
      <path id="Trazado_4217" data-name="Trazado 4217" d="M223.043,189.32l-2.094-1.337-2.5.626,3.584.9A3.765,3.765,0,0,1,223.043,189.32Z" transform="translate(-213.979 -183.195)" fill="#edc006"/>
      <path id="Trazado_4218" data-name="Trazado 4218" d="M219.691,188.623l-2.7-.676-1.776,6.5.026.012a.928.928,0,0,0,.444,1.017l1.65.943.57.327,2.251-8.007Z" transform="translate(-215.22 -183.208)" fill="#eab306"/>
      <path id="Trazado_4219" data-name="Trazado 4219" d="M227.158,190.464l-1.542-.885a3.68,3.68,0,0,0-2.078-.465,3.765,3.765,0,0,0-1.009.188l-3.113-.782-2.251,8.007,14.75,8.435,3.551-12.415Z" transform="translate(-214.473 -182.988)" fill="#e3960e"/>
      <path id="Trazado_4220" data-name="Trazado 4220" d="M243.1,201.081l-1.7-7.135-1.647-.414-2.978-.746-5.406-1.357-3.551,12.415.478.273,1.764,1.009,2.207-9.892,3.088-.4,2.367,10.273,4.253-2.461.728-.421A.928.928,0,0,0,243.1,201.081Z" transform="translate(-210.378 -181.87)" fill="#eab306"/>
      <path id="Trazado_4221" data-name="Trazado 4221" d="M231.645,194.287l-2.207,9.892.84.48a6.009,6.009,0,0,0,5.991-.015l.347-.2.483-.28-2.367-10.273Z" transform="translate(-209.755 -180.924)" fill="#e3960e"/>
      <path id="Trazado_4222" data-name="Trazado 4222" d="M236.275,189.895l-13.647,2.685,2.589,1.481,13.651-2.678Z" transform="translate(-212.373 -182.46)" fill="#fdd110"/>
      <path id="Trazado_4223" data-name="Trazado 4223" d="M226.436,184.964a3.329,3.329,0,0,0-3.331.012l-6.2,3.61a.821.821,0,0,0-.249,1.188l13.533-2.655Z" transform="translate(-214.726 -184.524)" fill="#fdd110"/>
      <path id="Trazado_4224" data-name="Trazado 4224" d="M239.862,191.953l-13.636,2.683,4.841,2.769a5.36,5.36,0,0,0,5.345-.014l5.184-3a.833.833,0,0,0,0-1.444Z" transform="translate(-210.99 -181.669)" fill="#fdd110"/>
      <path id="Trazado_4225" data-name="Trazado 4225" d="M230.15,186.4l-13.533,2.655a.808.808,0,0,0,.256.256l8.067,4.613,13.647-2.684Z" transform="translate(-214.683 -183.803)" fill="#fff859"/>
      <path id="Trazado_4226" data-name="Trazado 4226" d="M238.15,190.969,224.5,193.647l2.391,1.367,13.635-2.682Z" transform="translate(-211.654 -182.047)" fill="#fff859"/>
      <g id="Grupo_22844" data-name="Grupo 22844" transform="translate(5.203 1.726)">
        <g id="Grupo_22842" data-name="Grupo 22842" transform="translate(1.457 0.787)">
          <path id="Trazado_4227" data-name="Trazado 4227" d="M222.75,189.247a.756.756,0,0,1-.4.453,1.751,1.751,0,0,1-1.784-.154c-.772-.447-.58-.857-.209-1.072a1.872,1.872,0,0,1,.628-.221l.508.292-.244.165-.233-.134a.168.168,0,0,0-.152-.026.939.939,0,0,0-.216.1c-.345.2-.228.443.217.7a1.219,1.219,0,0,0,1.2.174.454.454,0,0,0,.2-.2l-.444-.257h0l-.208.111-.253-.147.642-.371.238.137-.053.039c-.048.035-.048.058.024.1Z" transform="translate(-220.031 -185.604)" fill="#e3960e"/>
          <path id="Trazado_4228" data-name="Trazado 4228" d="M223.544,188.992a1.765,1.765,0,0,1-1.777-.162c-.764-.442-.617-.836-.256-1.045a1.755,1.755,0,0,1,1.764.176C223.958,188.355,224,188.732,223.544,188.992Zm-.284-.186c.327-.188.061-.449-.3-.656a1.271,1.271,0,0,0-1.161-.179c-.331.191-.084.46.273.664A1.237,1.237,0,0,0,223.261,188.807Z" transform="translate(-219.575 -185.847)" fill="#e3960e"/>
          <path id="Trazado_4229" data-name="Trazado 4229" d="M224.1,188.62l-.242-.138.076-.055c.037-.029.05-.057-.008-.091l-1.39-.8-.156.08-.255-.147.623-.359.242.14-.076.054c-.037.029-.051.057.021.1l1.332.77.428-.248c.055-.03.021-.057-.035-.089l-.21-.122.284-.14.592.342Z" transform="translate(-219.225 -186.045)" fill="#e3960e"/>
          <path id="Trazado_4230" data-name="Trazado 4230" d="M224.868,187.971l.076-.055c.037-.028.05-.055-.008-.091l-1.39-.8-.156.08-.255-.147.707-.408a1.678,1.678,0,0,1,1.729.068c.782.453.687.832.271,1.071l-.732.424Zm.429-.3.263-.152c.289-.166.226-.413-.252-.688a1.12,1.12,0,0,0-1.191-.107l-.23.133Z" transform="translate(-218.838 -186.34)" fill="#e3960e"/>
        </g>
        <g id="Grupo_22843" data-name="Grupo 22843" transform="translate(15.238 8.752)">
          <path id="Trazado_4231" data-name="Trazado 4231" d="M231.57,195.155l-.235-.73c-.058-.173-.076-.252-.248-.35a.469.469,0,0,0-.472-.024.409.409,0,0,0-.132.1c-.029.037,0,.058.053.09l.212.123-.284.14-.478-.277a.928.928,0,0,1,.381-.381,1.018,1.018,0,0,1,1.022.024.719.719,0,0,1,.349.454l.152.568.645-.372.295.17-1.029.6Z" transform="translate(-229.986 -191.467)" fill="#e3960e"/>
          <path id="Trazado_4232" data-name="Trazado 4232" d="M232.865,193.516c.707.41.8.706.4.932s-.894.169-1.591-.233-.752-.716-.383-.928S232.159,193.109,232.865,193.516Zm-.3.181c-.543-.314-.811-.335-.982-.237s-.122.266.444.592c.516.3.789.328.965.226S233.133,194.025,232.562,193.7Z" transform="translate(-229.568 -191.683)" fill="#e3960e"/>
          <path id="Trazado_4233" data-name="Trazado 4233" d="M233.864,192.939c.707.408.8.706.406.932s-.894.169-1.592-.233-.752-.716-.382-.928S233.16,192.532,233.864,192.939Zm-.3.181c-.543-.314-.813-.335-.983-.237s-.12.266.444.592c.516.3.789.328.965.226S234.131,193.448,233.562,193.12Z" transform="translate(-229.184 -191.905)" fill="#e3960e"/>
          <path id="Trazado_4234" data-name="Trazado 4234" d="M235.136,193.862l-.415-.241.221-.155.143.083a.212.212,0,0,0,.169.029.751.751,0,0,0,.212-.09c.237-.137.111-.281-.14-.425l-.163-.1c.03.119-.051.221-.177.295a1.251,1.251,0,0,1-1.2-.112c-.541-.311-.514-.622-.125-.846a2.133,2.133,0,0,1,.588-.212l1.109.64c.1.061.22.125.32.191.408.271.433.491.047.716A1.99,1.99,0,0,1,235.136,193.862Zm-1.005-1.49a.978.978,0,0,0-.242.1c-.215.123-.129.3.173.476a.776.776,0,0,0,.741.118c.145-.083.152-.216-.029-.321Z" transform="translate(-228.686 -192.093)" fill="#e3960e"/>
        </g>
        <path id="Trazado_4235" data-name="Trazado 4235" d="M225.156,186.055l-5.642,3.257-.536-.284,5.642-3.258Z" transform="translate(-218.979 -185.771)" fill="#e3960e"/>
        <path id="Trazado_4236" data-name="Trazado 4236" d="M228.262,187.848l-5.642,3.257-.536-.284,5.642-3.257Z" transform="translate(-217.785 -185.082)" fill="#e3960e"/>
        <path id="Trazado_4237" data-name="Trazado 4237" d="M234.978,191.653l-5.642,3.257-.536-.284,5.642-3.257Z" transform="translate(-215.204 -183.62)" fill="#e3960e"/>
      </g>
    </g>
    <g id="Grupo_22846" data-name="Grupo 22846" transform="translate(207.236 172.132)">
      <path id="Trazado_4238" data-name="Trazado 4238" d="M206.941,158.223a1.761,1.761,0,0,0,.735,1.406c.407.234.735-.015.735-.556a1.758,1.758,0,0,0-.735-1.405C207.269,157.432,206.941,157.681,206.941,158.223Z" transform="translate(-206.941 -157.579)" fill="#ffd511"/>
      <path id="Trazado_4239" data-name="Trazado 4239" d="M206.941,163.326a1.763,1.763,0,0,0,.735,1.406c.407.234.735-.015.735-.556a1.761,1.761,0,0,0-.735-1.406C207.269,162.535,206.941,162.785,206.941,163.326Z" transform="translate(-206.941 -155.618)" fill="#ffd511"/>
      <path id="Trazado_4240" data-name="Trazado 4240" d="M206.941,168.863a1.758,1.758,0,0,0,.735,1.405c.407.235.735-.014.735-.557a1.76,1.76,0,0,0-.735-1.405C207.269,168.073,206.941,168.32,206.941,168.863Z" transform="translate(-206.941 -153.49)" fill="#ffd511"/>
      <path id="Trazado_4241" data-name="Trazado 4241" d="M206.941,173.966a1.76,1.76,0,0,0,.735,1.405c.407.234.735-.014.735-.557a1.758,1.758,0,0,0-.735-1.405C207.269,173.174,206.941,173.423,206.941,173.966Z" transform="translate(-206.941 -151.529)" fill="#ffd511"/>
      <path id="Trazado_4242" data-name="Trazado 4242" d="M206.941,178.852a1.758,1.758,0,0,0,.735,1.405c.407.235.735-.014.735-.555a1.761,1.761,0,0,0-.735-1.406C207.269,178.061,206.941,178.311,206.941,178.852Z" transform="translate(-206.941 -149.651)" fill="#ffd511"/>
    </g>
  </g>
</svg>
