<svg xmlns="http://www.w3.org/2000/svg" width="80" height="131" viewBox="0 0 80 131">
  <g id="Grupo_25803" data-name="Grupo 25803" transform="translate(-914 -2196)">
    <g id="Grupo_25796" data-name="Grupo 25796">
      <text id="Servicios_generales" data-name="Servicios
generales" transform="translate(954 2302)" fill="#111e61" font-size="18" font-family="Roboto-Medium, Roboto" font-weight="500"><tspan x="-37.033" y="0">Servicios</tspan><tspan x="-39.441" y="20">generales</tspan></text>
      <g id="mucama" transform="translate(915 2196)">
        <path id="Trazado_18935" data-name="Trazado 18935" d="M75.635,48.934A37.8,37.8,0,0,1,56.9,81.472a1.482,1.482,0,0,1-1.883-.313,37.846,37.846,0,0,0-45.79-9.511,1.521,1.521,0,0,1-1.908-.459A37.819,37.819,0,1,1,75.635,48.934Z" transform="translate(0 -9.302)" fill="#0cc33c"/>
        <path id="Trazado_18936" data-name="Trazado 18936" d="M166.452,314.381H147.125v-3.628a33.736,33.736,0,0,1,19.12-.061l.207.061Z" transform="translate(-124.415 -261.591)" fill="#acd1fd"/>
        <path id="Trazado_18937" data-name="Trazado 18937" d="M57.239,345.033a2.071,2.071,0,0,1-3.463,1.492A38.04,38.04,0,0,1,49,341.272v-.467A10.805,10.805,0,0,1,59.805,330h7.718a10.805,10.805,0,0,0-10.805,10.805v.467C57.155,341.853,57.269,343.287,57.239,345.033Z" transform="translate(-41.436 -279.062)" fill="#d27d69"/>
        <path id="Trazado_18938" data-name="Trazado 18938" d="M123.765,340.805v10.4q-1.177.692-2.407,1.3a3.86,3.86,0,0,1-1.71.4H92.785a15.872,15.872,0,0,1-8.59-2.491A37.974,37.974,0,0,1,79,346.392v-5.587A10.805,10.805,0,0,1,89.806,330H112.96a10.805,10.805,0,0,1,10.8,10.805Z" transform="translate(-66.807 -279.062)" fill="#e1a595"/>
        <path id="Trazado_18939" data-name="Trazado 18939" d="M98.395,340.805v1.478l-9.917,3.152v8a37.927,37.927,0,0,1-29.56-4.8v-3.2H52.631A38.013,38.013,0,0,1,49,341.272v-.467A10.805,10.805,0,0,1,59.805,330H87.589A10.805,10.805,0,0,1,98.395,340.805Z" transform="translate(-41.436 -279.062)" fill="#2740af"/>
        <path id="Trazado_18940" data-name="Trazado 18940" d="M49,340.805A10.805,10.805,0,0,1,59.805,330h4.631a10.805,10.805,0,0,0-10.805,10.805l-.115.036a7.289,7.289,0,0,1-4.471-.022Zm38.487-3.084a1.579,1.579,0,0,0-1.441,1.593v16.473q.542-.1,1.078-.212a2.528,2.528,0,0,0,2.009-2.47V339.261A1.544,1.544,0,0,0,87.487,337.721Zm-27.682,0a1.544,1.544,0,0,0-1.544,1.544v10.777q1.5,1,3.087,1.858V339.261A1.544,1.544,0,0,0,59.805,337.718Z" transform="translate(-41.436 -279.062)" fill="#003278"/>
        <path id="Trazado_18941" data-name="Trazado 18941" d="M108.964,76.139a18.351,18.351,0,0,1-3.969.432h-1.71a18.286,18.286,0,0,1,0-36.571H105a18.353,18.353,0,0,1,3.969.432,18.29,18.29,0,0,0,0,35.707Z" transform="translate(-71.88 -33.826)" fill="#99302b"/>
        <path id="Trazado_18942" data-name="Trazado 18942" d="M160.489,59.245a18.289,18.289,0,0,1-15.744,18.11,18.288,18.288,0,0,1,0-36.221A18.289,18.289,0,0,1,160.489,59.245Z" transform="translate(-109.088 -34.785)" fill="#c92c2c"/>
        <path id="Trazado_18943" data-name="Trazado 18943" d="M77.859,189.261A3.859,3.859,0,0,1,74,185.4v-1.544a3.859,3.859,0,1,1,7.718,0V185.4A3.859,3.859,0,0,1,77.859,189.261Z" transform="translate(-62.578 -152.216)" fill="#efcfc8"/>
        <path id="Trazado_18944" data-name="Trazado 18944" d="M76.315,73.154v3.087a3.853,3.853,0,0,0,1.543,3.087A3.859,3.859,0,0,1,74,75.469V73.925a3.859,3.859,0,0,1,3.859-3.859A3.853,3.853,0,0,0,76.315,73.154Zm35.5-3.087V66.979a16.979,16.979,0,1,0-33.959,0v6.174a16.987,16.987,0,0,0,12.349,16.34v5.27a4.631,4.631,0,0,0,9.261,0v-5.27A17.02,17.02,0,0,0,110.721,79.17a3.862,3.862,0,0,0,4.956-3.7V73.925A3.859,3.859,0,0,0,111.818,70.067Z" transform="translate(-62.578 -42.282)" fill="#eac0b5"/>
        <path id="Trazado_18945" data-name="Trazado 18945" d="M158.328,67.838v6.174A16.987,16.987,0,0,1,145.792,90.4a8.154,8.154,0,0,1-4.255,0A16.987,16.987,0,0,1,129,74.012V67.838a16.983,16.983,0,0,1,14.664-16.823A16.983,16.983,0,0,1,158.328,67.838Z" transform="translate(-109.088 -43.14)" fill="#efcfc8"/>
        <path id="Trazado_18946" data-name="Trazado 18946" d="M186.194,201.8a6.623,6.623,0,0,1-9.355,0,1.158,1.158,0,0,1,1.637-1.637,4.3,4.3,0,0,0,6.081,0,1.158,1.158,0,0,1,1.637,1.637Zm-4.678-4.97a3.145,3.145,0,0,0,2.238-.928,1.158,1.158,0,1,0-1.637-1.637.849.849,0,0,1-1.2,0,1.158,1.158,0,0,0-1.637,1.637A3.144,3.144,0,0,0,181.517,196.832Z" transform="translate(-149.256 -163.994)" fill="#e1a595"/>
        <path id="Trazado_18947" data-name="Trazado 18947" d="M151.131,154.815a2.315,2.315,0,1,1-2.315-2.315A2.315,2.315,0,0,1,151.131,154.815Zm12.349-2.315a2.315,2.315,0,1,0,2.315,2.315A2.315,2.315,0,0,0,163.479,152.5Z" transform="translate(-123.887 -128.96)" fill="#003278"/>
        <path id="Trazado_18948" data-name="Trazado 18948" d="M166.315,153.658a1.158,1.158,0,1,1-1.158-1.158A1.158,1.158,0,0,1,166.315,153.658Zm13.506-1.158a1.158,1.158,0,1,0,1.158,1.158A1.158,1.158,0,0,0,179.822,152.5Z" transform="translate(-138.685 -128.96)" fill="#fff5f5"/>
        <path id="Trazado_18949" data-name="Trazado 18949" d="M98.955,21.61a18.256,18.256,0,0,1-5.816-.978A18.32,18.32,0,0,1,104.214,7.484a3.6,3.6,0,0,1-1.835-2.853c0-2.558,3.87-4.631,8.644-4.631A15.6,15.6,0,0,1,113.8.244c3.411.62,3.465,6.453,2.316,7.24,2.1.842-6.217,2.275-8.567,4.517a112.307,112.307,0,0,0-8.6,9.608Z" transform="translate(-78.762)" fill="#99302b"/>
        <path id="Trazado_18950" data-name="Trazado 18950" d="M160.927,22.947h-.23a18.252,18.252,0,0,1-14.3-6.89.769.769,0,0,0-1.2,0,18.252,18.252,0,0,1-14.3,6.89h-.1c-.022,0-.226-10.384,9.72-13.481a.772.772,0,0,0,.307-1.288,3.117,3.117,0,0,1-1.046-2.21c0-2.037,2.455-3.766,5.866-4.386,3.411.62,5.866,2.35,5.866,4.386a3.6,3.6,0,0,1-1.835,2.853A18.31,18.31,0,0,1,160.927,22.947Z" transform="translate(-110.602 -1.339)" fill="#c92c2c"/>
        <path id="Trazado_18951" data-name="Trazado 18951" d="M142.4,327.983h-.964A7.435,7.435,0,0,1,134,320.548a2.058,2.058,0,0,1,2.709-1.952l7.529,2.51a3.087,3.087,0,0,1,2.111,2.929A3.949,3.949,0,0,1,142.4,327.983Z" transform="translate(-113.316 -269.327)" fill="#bbe0fb"/>
        <path id="Trazado_18952" data-name="Trazado 18952" d="M204,324.034a3.087,3.087,0,0,1,2.111-2.929l7.529-2.51a2.058,2.058,0,0,1,2.709,1.952,7.435,7.435,0,0,1-7.435,7.435h-.964A3.949,3.949,0,0,1,204,324.034Z" transform="translate(-172.511 -269.327)" fill="#e3f0fb"/>
        <path id="Trazado_18953" data-name="Trazado 18953" d="M98.181,401.544v1.544a1.544,1.544,0,0,1-1.544,1.544H87.376a1.544,1.544,0,0,1-1.544-1.544v-1.544A1.544,1.544,0,0,1,87.376,400h9.261A1.544,1.544,0,0,1,98.181,401.544ZM56.5,400H47.243a1.546,1.546,0,0,0-.321.033,38.024,38.024,0,0,0,3.951,4.6H56.5a1.544,1.544,0,0,0,1.544-1.544v-1.544A1.544,1.544,0,0,0,56.5,400Z" transform="translate(-39.679 -338.257)" fill="#e3f0fb"/>
        <path id="Trazado_18954" data-name="Trazado 18954" d="M92.007,404.631H87.376a1.544,1.544,0,0,1-1.544-1.544v-1.544A1.544,1.544,0,0,1,87.376,400h4.631a1.544,1.544,0,0,0-1.544,1.544v1.544A1.544,1.544,0,0,0,92.007,404.631ZM51.873,400H47.243a1.546,1.546,0,0,0-.321.033,38.024,38.024,0,0,0,3.951,4.6h1a1.544,1.544,0,0,1-1.544-1.544v-1.544A1.544,1.544,0,0,1,51.873,400Z" transform="translate(-39.679 -338.257)" fill="#bbe0fb"/>
        <path id="Trazado_18955" data-name="Trazado 18955" d="M316.067,445.65l-3.625-3.334a1.286,1.286,0,1,1,1.742-1.893l3.625,3.334a1.286,1.286,0,1,1-1.742,1.893Z" transform="translate(-263.862 -372.153)" fill="#d27d69"/>
        <path id="Trazado_18956" data-name="Trazado 18956" d="M319.673,170.212a12.688,12.688,0,0,1-.443,1.5,12.534,12.534,0,0,1-23.556-8.574,12.678,12.678,0,0,1,.625-1.434,10.728,10.728,0,0,1,5.42-14.078,12.534,12.534,0,1,1,22.853,8.318,10.728,10.728,0,0,1-4.9,14.268Z" transform="translate(-249.392 -115.329)" fill="#fd2aa7"/>
        <path id="Trazado_18957" data-name="Trazado 18957" d="M351.26,174.043a11.015,11.015,0,0,1-5.311,5.933,12.548,12.548,0,0,1-13.967,9.628,3.774,3.774,0,0,1-2.245-.655c-3.651-3.321-4.683-9.339-2.89-14.264a12.677,12.677,0,0,1,.625-1.434,10.728,10.728,0,0,1,5.42-14.078,12.55,12.55,0,0,1,14.216-11.123,12.55,12.55,0,0,1,3.74,17.659,11.1,11.1,0,0,1,.413,8.335Z" transform="translate(-275.668 -125.093)" fill="#fd73c4"/>
        <path id="Trazado_18958" data-name="Trazado 18958" d="M326.246,273.955,314.823,305.34q-1.374.509-2.8.913l12.044-33.091a1.158,1.158,0,0,1,2.176.792Z" transform="translate(-263.862 -230.353)" fill="#d80d80"/>
        <path id="Trazado_18959" data-name="Trazado 18959" d="M304.059,456.217h0q-.766.38-1.552.726l-.071-.023.065.026a37.54,37.54,0,0,1-7.389,2.377,1.286,1.286,0,0,1,.966-1.806.183.183,0,0,0,.114-.3,1.287,1.287,0,0,1,.766-2.117.183.183,0,0,0,.114-.3,1.286,1.286,0,0,1-.208-1.365,1.316,1.316,0,0,1,1.658-.674l4.794,1.745A1.287,1.287,0,0,1,304.059,456.217Z" transform="translate(-249.46 -382.802)" fill="#efcfc8"/>
        <path id="Trazado_18960" data-name="Trazado 18960" d="M153.7,442.315H129V440h24.7Z" transform="translate(-109.088 -372.083)" fill="#acd1fd"/>
        <path id="Trazado_18961" data-name="Trazado 18961" d="M129,455h24.7v6.492a38.046,38.046,0,0,1-6.792.608A37.65,37.65,0,0,1,129,457.6Z" transform="translate(-109.088 -384.767)" fill="#e3f0fb"/>
        <path id="Trazado_18962" data-name="Trazado 18962" d="M405.739,160.113l1.147,2.1a.216.216,0,0,0,.086.086l2.1,1.147a.217.217,0,0,1,0,.38l-2.1,1.147a.216.216,0,0,0-.086.086l-1.147,2.1a.217.217,0,0,1-.38,0l-1.147-2.1a.216.216,0,0,0-.086-.086l-2.1-1.147a.217.217,0,0,1,0-.38l2.1-1.147a.216.216,0,0,0,.086-.086l1.147-2.1A.217.217,0,0,1,405.739,160.113Z" transform="translate(-339.876 -135.303)" fill="#fdc5e6"/>
        <path id="Trazado_18963" data-name="Trazado 18963" d="M72.854,106.546l.9,1.652a.169.169,0,0,0,.068.068l1.652.9a.171.171,0,0,1,0,.3l-1.652.9a.17.17,0,0,0-.068.068l-.9,1.652a.171.171,0,0,1-.3,0l-.9-1.652a.169.169,0,0,0-.068-.068l-1.652-.9a.171.171,0,0,1,0-.3l1.652-.9a.171.171,0,0,0,.068-.068l.9-1.652A.171.171,0,0,1,72.854,106.546ZM21.713,124.072l-.9,1.652a.169.169,0,0,1-.068.068l-1.652.9a.171.171,0,0,0,0,.3l1.652.9a.169.169,0,0,1,.068.068l.9,1.652a.171.171,0,0,0,.3,0l.9-1.652a.169.169,0,0,1,.068-.068l1.652-.9a.171.171,0,0,0,0-.3l-1.652-.9a.169.169,0,0,1-.068-.068l-.9-1.652A.171.171,0,0,0,21.713,124.072Z" transform="translate(-16.068 -90.025)" fill="#fff5f5"/>
        <path id="Trazado_18964" data-name="Trazado 18964" d="M66.155,98.7l-2.1,1.147a.217.217,0,0,0-.086.086l-1.147,2.1a.217.217,0,0,1-.38,0l-1.147-2.1a.217.217,0,0,0-.086-.086l-2.1-1.147a.217.217,0,0,1,0-.38l2.1-1.147a.217.217,0,0,0,.086-.086l1.147-2.1a.217.217,0,0,1,.38,0l1.147,2.1a.217.217,0,0,0,.086.086l2.1,1.147a.217.217,0,0,1,0,.38Zm49.868-33.077-1.652-.9a.17.17,0,0,1-.068-.068L113.4,63a.171.171,0,0,0-.3,0l-.9,1.652a.172.172,0,0,1-.068.068l-1.652.9a.171.171,0,0,0,0,.3l1.652.9a.171.171,0,0,1,.068.068l.9,1.652a.171.171,0,0,0,.3,0l.9-1.652a.171.171,0,0,1,.068-.068l1.652-.9A.171.171,0,0,0,116.023,65.626Z" transform="translate(-49.892 -53.203)" fill="#fdf061"/>
      </g>
    </g>
  </g>
</svg>
