<svg xmlns="http://www.w3.org/2000/svg" width="90" height="128" viewBox="0 0 90 128">
  <g id="Grupo_25816" data-name="Grupo 25816" transform="translate(-1078 -2629)">
    <text id="Servicio_de_teléfono" data-name="Servicio de
teléfono" transform="translate(1123 2732)" fill="#111e61" font-size="18" font-family="Roboto-Medium, Roboto" font-weight="500"><tspan x="-44.539" y="0">Servicio de</tspan><tspan x="-33.394" y="20">teléfono</tspan></text>
    <g id="informacion_1_" data-name="informacion (1)" transform="translate(1083 2623.5)">
      <path id="Trazado_19349" data-name="Trazado 19349" d="M66.293,16.874a38.833,38.833,0,1,1-54.919,0A38.833,38.833,0,0,1,66.293,16.874Z" transform="translate(0 0)" fill="#003278"/>
      <path id="Trazado_19350" data-name="Trazado 19350" d="M146.41,53.092A28.783,28.783,0,0,1,156.756,5.764a38.834,38.834,0,0,1,36.982,36.982A28.783,28.783,0,0,1,146.41,53.092Z" transform="translate(-116.112 -0.222)" fill="#1f3595"/>
      <path id="Trazado_19351" data-name="Trazado 19351" d="M88.153,132.3a1.575,1.575,0,0,1,1.553,1.87,9.509,9.509,0,0,1-3.508,5.653A34.08,34.08,0,0,1,38.083,91.864,9.511,9.511,0,0,1,43.939,88.2a1.494,1.494,0,0,1,1.772,1.467v22.089a1.5,1.5,0,0,1-1.78,1.474l-.166-.033c-.758,5.892.661,11.988,4.847,16.174s10.244,5.619,16.117,4.879l0-.019a1.616,1.616,0,0,1,1.593-1.924H88.153Z" transform="translate(-25.245 -69.569)" fill="#49cb5c"/>
      <path id="Trazado_19352" data-name="Trazado 19352" d="M75.2,223.682a34.092,34.092,0,0,1-43.341-43.341A44.055,44.055,0,0,0,75.2,223.682Z" transform="translate(-25.245 -147.128)" fill="#0cc33c"/>
      <path id="Trazado_19353" data-name="Trazado 19353" d="M123.547,89.677v20.605a2.378,2.378,0,0,1-2.378,2.378h-2.378a9.547,9.547,0,0,1-1.945-.2V87.5a9.549,9.549,0,0,1,1.943-.2h2.38A2.378,2.378,0,0,1,123.547,89.677Zm37.047,37.138H139.988a2.378,2.378,0,0,0-2.378,2.376v2.379a9.557,9.557,0,0,0,.2,1.943h24.963a9.558,9.558,0,0,0,.2-1.943v-2.378A2.377,2.377,0,0,0,160.593,126.814Z" transform="translate(-98.325 -68.833)" fill="#bbe0fb"/>
      <path id="Trazado_19354" data-name="Trazado 19354" d="M244.491,77.786H201.378A2.378,2.378,0,0,1,199,75.408V46.878a2.378,2.378,0,0,1,2.378-2.378h43.113a2.378,2.378,0,0,1,2.378,2.378V75.408A2.378,2.378,0,0,1,244.491,77.786Z" transform="translate(-167.457 -32.818)" fill="#f1ca50"/>
      <path id="Trazado_19355" data-name="Trazado 19355" d="M280.528,46.878V75.408a2.378,2.378,0,0,1-2.378,2.378H262.776L253.858,86.7a2.023,2.023,0,0,1-3.433-1.716l1.029-7.2H241.378A2.378,2.378,0,0,1,239,75.408V46.878a2.378,2.378,0,0,1,2.378-2.378H278.15A2.378,2.378,0,0,1,280.528,46.878Z" transform="translate(-201.117 -32.818)" fill="#fdf061"/>
      <path id="Trazado_19356" data-name="Trazado 19356" d="M359.605,96.543v.793a.793.793,0,0,1-.793.793h-19.02a.793.793,0,0,1-.793-.793v-.793a.793.793,0,0,1,.793-.793h19.02A.793.793,0,0,1,359.605,96.543Zm-19.813,6.472h17.435a.793.793,0,0,0,.793-.793v-.793a.793.793,0,0,0-.793-.793H339.793a.793.793,0,0,0-.793.793v.793A.793.793,0,0,0,339.793,103.015Zm19.02,2.51h-19.02a.793.793,0,0,0-.793.793v.793a.793.793,0,0,0,.793.793h19.02a.793.793,0,0,0,.793-.793v-.793A.793.793,0,0,0,358.813,105.524Zm-7.925,4.887h-11.1a.793.793,0,0,0-.793.793V112a.793.793,0,0,0,.793.793h11.1a.793.793,0,0,0,.793-.793V111.2A.793.793,0,0,0,350.888,110.412Z" transform="translate(-285.267 -75.945)" fill="#f19b0b"/>
      <path id="Trazado_19357" data-name="Trazado 19357" d="M251.761,80.024a2.378,2.378,0,1,1,2.378,2.378A2.378,2.378,0,0,1,251.761,80.024Zm5.165,17.231h-1.2V86.747a1.585,1.585,0,0,0-1.585-1.585h-3.56a1.585,1.585,0,0,0,0,3.17h1.975v8.922h-1.975a1.585,1.585,0,0,0,0,3.17h6.34a1.585,1.585,0,1,0,0-3.17Z" transform="translate(-209.532 -60.711)" fill="#c92c2c"/>
      <path id="Trazado_19358" data-name="Trazado 19358" d="M255.73,86.747v6.845a1.585,1.585,0,1,1-3.17,0v-5.26H250.64A1.621,1.621,0,0,1,249,86.852a1.585,1.585,0,0,1,1.582-1.69h3.56A1.585,1.585,0,0,1,255.73,86.747Zm-1.592-9.1a2.378,2.378,0,1,0,2.378,2.378A2.378,2.378,0,0,0,254.139,77.646Z" transform="translate(-209.533 -60.711)" fill="#f52c2c"/>
    </g>
  </g>
</svg>
