<svg xmlns="http://www.w3.org/2000/svg" width="14.688" height="38.711" viewBox="0 0 14.688 38.711">
  <path id="Trazado_4429" data-name="Trazado 4429" d="M197.643,207.232s1.738,3.1,2.25,4.2,2.8,2.229,3.031,5.295a5.468,5.468,0,0,1-.982,3.392,12.719,12.719,0,0,0,.691,5.873s1.4,9.964,1.2,14.306a11.709,11.709,0,0,1-11.065,5.589s-.962-5.871-.339-8.348,2.019-7.48,1.234-10.694a15.367,15.367,0,0,1-.376-5.159,15.476,15.476,0,0,0-.584-5.011c-.636-2.137-2.2-5.216-3.538-5.688C189.16,210.986,196.165,207.1,197.643,207.232Z" transform="translate(-189.16 -207.229)" fill="#bf2120" fill-rule="evenodd"/>
</svg>
