<svg xmlns="http://www.w3.org/2000/svg" width="11.634" height="34.012" viewBox="0 0 11.634 34.012">
  <path id="Trazado_4435" data-name="Trazado 4435" d="M201.942,220.118a12.719,12.719,0,0,0,.691,5.873s1.4,9.964,1.2,14.306a11.709,11.709,0,0,1-11.065,5.589s-.962-5.871-.339-8.348c.314-1.246.823-3.133,1.152-5.109a1.173,1.173,0,0,1,.342-.135c3.238-.682,4-6.132,4.924-8.471s.015-4.9-.557-7.726c-.3-1.5.818-3.049,1.941-4.17.811.98,2.5,2.184,2.7,4.8A5.468,5.468,0,0,1,201.942,220.118Z" transform="translate(-192.214 -211.927)" fill="#ce2525"/>
</svg>
