<svg xmlns="http://www.w3.org/2000/svg" width="17.592" height="42.299" viewBox="0 0 17.592 42.299">
  <path id="Trazado_4425" data-name="Trazado 4425" d="M190.184,223.363c-2.358-4.161-6.543-8.36-1.74-11.861a26.377,26.377,0,0,1,2.807-1.449.135.135,0,0,0-.008.036,22.077,22.077,0,0,1,6.1-2.823,2.047,2.047,0,0,1,.225-.022c2.1-.345,2.42,1.074,2.42,1.074.058.211.124.425.191.637a4.2,4.2,0,0,1,.209.62c.547,1.541,1.194,2.874,1.194,2.874,2.762,4.528.456,7.37.456,7.37-.734,1.984.6,6.172.6,6.172a159.422,159.422,0,0,1,1.2,16.983,8.972,8.972,0,0,1-.956,1.049l-.006.047s-.12.1-.34.263a13.308,13.308,0,0,1-2.9,1.88c-.511.286-1.065.57-1.644.831-1.325.758-7.658,4.181-9.189,1.329,0,0-3.108-13.454-.005-17.461C190.29,228.977,192.158,226.849,190.184,223.363Z" transform="translate(-186.236 -207.19)" fill="#dfdfdf" fill-rule="evenodd"/>
</svg>
