<svg xmlns="http://www.w3.org/2000/svg" width="108" height="111" viewBox="0 0 108 111">
  <g id="Grupo_25801" data-name="Grupo 25801" transform="translate(-544 -2196)">
    <g id="Grupo_25800" data-name="Grupo 25800">
      <g id="Grupo_25794" data-name="Grupo 25794">
        <text id="Habitaciones" transform="translate(598 2302)" fill="#111e61" font-size="18" font-family="Roboto-Medium, Roboto" font-weight="500"><tspan x="-53.104" y="0">Habitaciones</tspan></text>
        <g id="no-molestar" transform="translate(558 2190.5)">
          <path id="Trazado_18911" data-name="Trazado 18911" d="M0,58.188A38.68,38.68,0,0,1,24.433,22.059a1.535,1.535,0,0,1,1.085-.016,38.6,38.6,0,0,0,13.148,2.293,38.6,38.6,0,0,0,13.148-2.293,1.535,1.535,0,0,1,1.085.016,38.679,38.679,0,0,1,7.687,67.82,1.659,1.659,0,0,1-1.806.044,38.729,38.729,0,0,0-40.162-.02,1.7,1.7,0,0,1-1.85-.046A38.675,38.675,0,0,1,0,58.188Z" transform="translate(0 -13.855)" fill="#d73131"/>
          <path id="Trazado_18912" data-name="Trazado 18912" d="M69.669,108.176a38.89,38.89,0,0,1-8.907,8.625c-6.263,4.369-37.928,4.369-44.191,0a38.673,38.673,0,0,1-1.016-62.738,38.669,38.669,0,0,0,54.114,54.114Z" transform="translate(0 -40.898)" fill="#99302b"/>
          <path id="Trazado_18913" data-name="Trazado 18913" d="M182.382,43.272H153.5V8.287a38.808,38.808,0,0,1,28.882,0Z" transform="translate(-129.274)" fill="#8694dd"/>
          <path id="Trazado_18914" data-name="Trazado 18914" d="M149.19,45.762v50a38.686,38.686,0,0,1-44.19,0v-50a3.157,3.157,0,0,1,1.322-2.569l18.939-13.528a3.157,3.157,0,0,1,3.669,0l18.939,13.528A3.157,3.157,0,0,1,149.19,45.762Z" transform="translate(-88.429 -19.857)" fill="#fdf061"/>
          <path id="Trazado_18915" data-name="Trazado 18915" d="M149.19,146v3.653a38.686,38.686,0,0,1-44.19,0v-50a3.157,3.157,0,0,1,1.322-2.569l5.622-4.016V131.04a16.687,16.687,0,0,0,11.779,15.987A38.854,38.854,0,0,0,149.19,146Z" transform="translate(-88.429 -73.751)" fill="#f1ca50"/>
          <path id="Trazado_18916" data-name="Trazado 18916" d="M197.1,105.548A11.048,11.048,0,1,1,186.048,94.5,11.048,11.048,0,0,1,197.1,105.548Z" transform="translate(-147.381 -74.954)" fill="#fff5f5"/>
          <path id="Trazado_18917" data-name="Trazado 18917" d="M181.837,254.5a11.837,11.837,0,1,0,11.837,11.837A11.837,11.837,0,0,0,181.837,254.5Zm0,3.511a8.288,8.288,0,0,1,4.665,1.429L174.94,271a8.327,8.327,0,0,1,6.9-12.991Zm0,16.652a8.288,8.288,0,0,1-4.665-1.429l11.562-11.562a8.327,8.327,0,0,1-6.9,12.991Z" transform="translate(-143.17 -209.702)" fill="#f52c2c"/>
          <path id="Trazado_18918" data-name="Trazado 18918" d="M197.189,434.934a1.184,1.184,0,0,1-1.184,1.184H179.434a1.184,1.184,0,1,1,0-2.367h16.571A1.184,1.184,0,0,1,197.189,434.934Zm-4.971,3.156h-9a1.184,1.184,0,1,0,0,2.367h9a1.184,1.184,0,0,0,0-2.367Z" transform="translate(-150.118 -360.662)" fill="#ce9047"/>
          <path id="Trazado_18919" data-name="Trazado 18919" d="M210.782,122.391a7.891,7.891,0,1,1-7.891-7.891A7.891,7.891,0,0,1,210.782,122.391Z" transform="translate(-164.225 -91.797)" fill="#314dc8"/>
          <path id="Trazado_18920" data-name="Trazado 18920" d="M229.31,122.391a7.858,7.858,0,0,1-.851,3.568,7.894,7.894,0,0,1-10.608-10.608,7.894,7.894,0,0,1,11.459,7.04Z" transform="translate(-182.753 -91.797)" fill="#4f66cf"/>
          <path id="Trazado_18921" data-name="Trazado 18921" d="M269.56,145.225H231.367A2.367,2.367,0,0,1,229,142.857V138.7a2.367,2.367,0,0,1,2.367-2.367H269.56a2.367,2.367,0,0,1,2.367,2.367v4.156A2.367,2.367,0,0,1,269.56,145.225Z" transform="translate(-192.859 -110.185)" fill="#6c7fd7"/>
          <path id="Trazado_18922" data-name="Trazado 18922" d="M328.513,145.224H303.445a4.445,4.445,0,1,1,0-8.891h25.067a2.367,2.367,0,0,1,2.367,2.367v4.156A2.367,2.367,0,0,1,328.513,145.224Z" transform="translate(-251.811 -110.185)" fill="#8694dd"/>
          <path id="Trazado_18923" data-name="Trazado 18923" d="M251.367,154.235a2.367,2.367,0,1,1,2.367-2.367A2.367,2.367,0,0,1,251.367,154.235Z" transform="translate(-209.702 -121.273)" fill="#314dc8"/>
        </g>
      </g>
    </g>
  </g>
</svg>
