<svg xmlns="http://www.w3.org/2000/svg" width="114" height="129.833" viewBox="0 0 114 129.833">
  <g id="Grupo_25818" data-name="Grupo 25818" transform="translate(-361 -2807.167)">
    <text id="Requisitos_del_personal" data-name="Requisitos del
personal" transform="translate(418 2912)" fill="#111e61" font-size="18" font-family="Roboto-Medium, Roboto" font-weight="500"><tspan x="-56.878" y="0">Requisitos del</tspan><tspan x="-35.002" y="20">personal</tspan></text>
    <g id="lista" transform="translate(374.5 2807.167)">
      <path id="Trazado_19128" data-name="Trazado 19128" d="M15.807,72.119a1.669,1.669,0,0,1-2.548-.132,37.981,37.981,0,1,1,60.494-.066,1.74,1.74,0,0,1-2.656.137,37.981,37.981,0,0,0-55.29.06Z" transform="translate(0 -9.295)" fill="#0cc33c"/>
      <path id="Trazado_19129" data-name="Trazado 19129" d="M115.269,83.1v46.976A38.2,38.2,0,0,1,107.9,137.5H63.148a3.716,3.716,0,0,1-2.357-.853,38.208,38.208,0,0,1-6.29-6.569V83.1A3.1,3.1,0,0,1,57.6,80h54.568A3.1,3.1,0,0,1,115.269,83.1Z" transform="translate(-41.404 -67.598)" fill="#c92c2c"/>
      <path id="Trazado_19130" data-name="Trazado 19130" d="M61.941,80a3.1,3.1,0,0,0-3.1,3.1v51.829a38.185,38.185,0,0,1-4.341-4.853V83.1A3.1,3.1,0,0,1,57.6,80Z" transform="translate(-41.404 -67.598)" fill="#99302b"/>
      <path id="Trazado_19131" data-name="Trazado 19131" d="M139.767,121.55V172.68A37.994,37.994,0,0,1,94.5,170.371V121.55A1.55,1.55,0,0,1,96.05,120h42.166A1.55,1.55,0,0,1,139.767,121.55Z" transform="translate(-75.203 -101.397)" fill="#f3d373"/>
      <path id="Trazado_19132" data-name="Trazado 19132" d="M160.448,165.472a1.55,1.55,0,0,1-1.513,1.886H116.844a1.55,1.55,0,0,1-1.513-1.214l-.149-.673a112.594,112.594,0,0,1-2.681-24.425v-29.5a1.55,1.55,0,0,1,1.55-1.55h42.166a1.55,1.55,0,0,1,1.55,1.55v29.5A112.6,112.6,0,0,0,160.448,165.472Z" transform="translate(-90.412 -92.947)" fill="#fdf385"/>
      <path id="Trazado_19133" data-name="Trazado 19133" d="M156.2,195.988v.775a.775.775,0,0,1-.775.775H135.275a.775.775,0,0,1-.775-.775v-.775a.775.775,0,0,1,.775-.775h20.153A.775.775,0,0,1,156.2,195.988Zm-20.928,5.426h9.3a.775.775,0,0,0,.775-.775v-.775a.775.775,0,0,0-.775-.775h-9.3a.775.775,0,0,0-.775.775v.775A.775.775,0,0,0,135.275,201.414Zm37.593-7.751v7.751a1.162,1.162,0,0,1-1.163,1.163h-7.751a1.162,1.162,0,0,1-1.163-1.163v-7.751a1.162,1.162,0,0,1,1.163-1.163h7.751A1.162,1.162,0,0,1,172.868,193.663Zm-2.325,1.163h-5.426v5.426h5.426Zm-15.115,13.652H135.275a.775.775,0,0,0-.775.775v.775a.775.775,0,0,0,.775.775h20.153a.775.775,0,0,0,.775-.775v-.775A.775.775,0,0,0,155.428,208.477Zm-20.153,6.2h9.3a.775.775,0,0,0,.775-.775v-.775a.775.775,0,0,0-.775-.775h-9.3a.775.775,0,0,0-.775.775v.775A.775.775,0,0,0,135.275,214.678Zm37.593-7.751v7.751a1.162,1.162,0,0,1-1.163,1.163h-7.751a1.162,1.162,0,0,1-1.163-1.163v-7.751a1.162,1.162,0,0,1,1.163-1.163h7.751A1.162,1.162,0,0,1,172.868,206.927Zm-2.325,1.163h-5.426v5.426h5.426Zm-15.115,13.865H135.275a.775.775,0,0,0-.775.775v.775a.775.775,0,0,0,.775.775h20.153a.775.775,0,0,0,.775-.775v-.775A.775.775,0,0,0,155.428,221.954Zm-10.852,3.876h-9.3a.775.775,0,0,0-.775.775v.775a.775.775,0,0,0,.775.775h9.3a.775.775,0,0,0,.775-.775v-.775A.775.775,0,0,0,144.577,225.83Zm28.292-5.426v7.751a1.162,1.162,0,0,1-1.163,1.163h-7.751a1.162,1.162,0,0,1-1.163-1.163V220.4a1.162,1.162,0,0,1,1.163-1.163h7.751A1.162,1.162,0,0,1,172.868,220.4Zm-2.325,1.163h-5.426v5.426h5.426Z" transform="translate(-109.002 -162.658)" fill="#f3d373"/>
      <path id="Trazado_19134" data-name="Trazado 19134" d="M325.435,176.42l-9,9a1.163,1.163,0,0,1-1.644,0l-4.951-4.951a1.163,1.163,0,0,1,1.644-1.644l4.129,4.129,8.179-8.179a1.163,1.163,0,0,1,1.644,1.644Z" transform="translate(-256.871 -147.393)" fill="#fd4fb6"/>
      <path id="Trazado_19135" data-name="Trazado 19135" d="M196.215,85H182.263A4.268,4.268,0,0,0,178,89.263V94.5a4.288,4.288,0,0,0,3.127,4.11,30.059,30.059,0,0,0,16.224,0,4.288,4.288,0,0,0,3.127-4.11V89.263A4.268,4.268,0,0,0,196.215,85Zm1.938,9.5a1.955,1.955,0,0,1-1.43,1.871,27.731,27.731,0,0,1-14.969,0,1.955,1.955,0,0,1-1.429-1.871V89.263a1.94,1.94,0,0,1,1.938-1.938h13.952a1.94,1.94,0,0,1,1.938,1.938Z" transform="translate(-145.758 -71.823)" fill="#003278"/>
      <path id="Trazado_19136" data-name="Trazado 19136" d="M165.5,57.171v-9.3a1.547,1.547,0,0,1,1.11-1.487,43.325,43.325,0,0,1,24.134,0,1.547,1.547,0,0,1,1.11,1.487v9.3a1.55,1.55,0,0,1-1.55,1.55H167.05A1.55,1.55,0,0,1,165.5,57.171Z" transform="translate(-135.196 -37.742)" fill="#314dc8"/>
      <path id="Trazado_19137" data-name="Trazado 19137" d="M215.248,8.639a42.87,42.87,0,0,0-8.036-1.528V3.876A3.876,3.876,0,0,0,203.336,0h-.31a3.876,3.876,0,0,0-3.876,3.876V7.111q-.5.047-1,.1a4.159,4.159,0,0,0,.51,8.287H212.2a4.159,4.159,0,0,0,4.159-4.159V10.126a1.547,1.547,0,0,0-1.11-1.487Zm-13.23-1.973V4.186A1.085,1.085,0,0,1,203.1,3.1h.155a1.085,1.085,0,0,1,1.085,1.085v2.48a1.093,1.093,0,0,1-.035.273q-.562-.015-1.128-.015t-1.128.015A1.093,1.093,0,0,1,202.019,6.666Z" transform="translate(-159.701)" fill="#4f66cf"/>
    </g>
  </g>
</svg>
