<svg xmlns="http://www.w3.org/2000/svg" width="188" height="141.708" viewBox="0 0 188 141.708">
  <g id="servicio-de-habitacion" transform="translate(-0.001 -63.035)">
    <g id="Grupo_55525" data-name="Grupo 55525" transform="translate(25.703 70.679)">
      <path id="Trazado_101168" data-name="Trazado 101168" d="M339.24,121.448H272.414a33.413,33.413,0,0,1,66.826,0Z" transform="translate(-198.09 -86.5)" fill="#f5e9c6"/>
      <g id="Grupo_55523" data-name="Grupo 55523" transform="translate(17.469)">
        <path id="Trazado_101169" data-name="Trazado 101169" d="M212.257,83.853V98.445a7.344,7.344,0,0,1-14.687,0V83.853Z" transform="translate(-168.196 -83.853)" fill="#ff9d21"/>
        <path id="Trazado_101170" data-name="Trazado 101170" d="M132.26,83.853V98.445a7.343,7.343,0,0,1-14.687,0V83.853Z" transform="translate(-117.573 -83.853)" fill="#ff9d21"/>
      </g>
      <path id="Trazado_101171" data-name="Trazado 101171" d="M94.811,179.03H216.477a8.278,8.278,0,0,1,8.092,8.077l4.047,72.7H70l3.83-68.835.216-3.866a8.278,8.278,0,0,1,8.092-8.077H94.811Z" transform="translate(-69.998 -144.082)" fill="#ff9800"/>
      <g id="Grupo_55524" data-name="Grupo 55524" transform="translate(18.338 115.726)">
        <circle id="Elipse_1388" data-name="Elipse 1388" cx="7.333" cy="7.333" r="7.333" transform="translate(107.274)" fill="#f5e9c6"/>
        <path id="Trazado_101172" data-name="Trazado 101172" d="M134.607,406.356a7.334,7.334,0,1,1-7.333-7.333A7.334,7.334,0,0,1,134.607,406.356Z" transform="translate(-119.94 -399.023)" fill="#f5e9c6"/>
      </g>
    </g>
    <path id="Trazado_101173" data-name="Trazado 101173" d="M187.974,185.964,183.94,113.5a12,12,0,0,0-11.758-11.545h-1.84a37.148,37.148,0,0,0-33.23-33.23V66.707a3.672,3.672,0,1,0-7.344,0v2.018a37.151,37.151,0,0,0-33.232,33.23H83.561v-6.3A11.032,11.032,0,0,0,90.9,85.272V70.679a3.672,3.672,0,0,0-3.672-3.672H72.545a3.672,3.672,0,0,0-3.672,3.672V85.271a11.033,11.033,0,0,0,7.344,10.384v6.3H54.186v-6.3a11.032,11.032,0,0,0,7.343-10.383V70.679a3.672,3.672,0,0,0-3.672-3.672H43.171A3.672,3.672,0,0,0,39.5,70.679V85.271a11.033,11.033,0,0,0,7.344,10.383v6.3h-9A12,12,0,0,0,26.083,113.5l-.022.4H17.137L6.269,103.03a3.672,3.672,0,0,0-5.193,5.192L13.02,120.165a3.673,3.673,0,0,0,2.6,1.075H25.653L22.036,186.2a3.672,3.672,0,0,0,3.666,3.876H41a11.005,11.005,0,1,0,20.754,0h86.522a11.005,11.005,0,1,0,20.754,0h15.3A3.672,3.672,0,0,0,188,186.4,3.872,3.872,0,0,0,187.974,185.964ZM76.217,74.351h7.344v10.92a3.675,3.675,0,0,1-3.671,3.671h0a3.676,3.676,0,0,1-3.672-3.672V74.351Zm-29.374,0h7.343v10.92a3.675,3.675,0,0,1-3.671,3.671h0a3.675,3.675,0,0,1-3.671-3.672V74.351Zm86.6,1.536a29.778,29.778,0,0,1,29.506,26.069H103.934A29.779,29.779,0,0,1,133.44,75.887Zm-78.4,117.851a3.662,3.662,0,1,1-3.68-3.661h.035A3.666,3.666,0,0,1,55.036,193.738ZM158.65,197.4a3.662,3.662,0,0,1-.018-7.324h.036a3.662,3.662,0,0,1-.018,7.324Zm8.781-14.667V161.88a3.672,3.672,0,1,0-7.344,0v20.853h-22.03v-35.05a3.672,3.672,0,0,0-7.344,0v35.05H108.682V137.356a3.672,3.672,0,0,0-7.344,0v45.377H79.309v-24.2a3.672,3.672,0,0,0-7.344,0v24.2H49.934V161.88a3.672,3.672,0,1,0-7.344,0v20.853H29.584l3.832-68.826a4.606,4.606,0,0,1,4.426-4.609H172.182a4.608,4.608,0,0,1,4.426,4.61l3.831,68.825Z"/>
    <path id="Trazado_101174" data-name="Trazado 101174" d="M199.665,283.568a3.672,3.672,0,0,0-3.672,3.672v.174a3.672,3.672,0,1,0,7.344,0v-.174A3.672,3.672,0,0,0,199.665,283.568Z" transform="translate(-124.027 -139.556)"/>
  </g>
</svg>
