<svg xmlns="http://www.w3.org/2000/svg" width="108" height="108" viewBox="0 0 108 108">
  <g id="Grupo_55586" data-name="Grupo 55586" transform="translate(-223 -2827)">
    <g id="recepcion" transform="translate(234 2839)">
      <g id="_x3C_Group_x3E__16_" transform="translate(1.228 1.228)">
        <path id="Trazado_101175" data-name="Trazado 101175" d="M102.125,7.5H99.119c-.343,0-.705.164-1.087.164S97.233,7.5,96.8,7.5H33.771c-.429,0-.838.164-1.228.164-.435,0-.845-.164-1.228-.164a13.97,13.97,0,0,1-2.546.432.819.819,0,0,0-.819.819l.463,40.64h73.4l1.132-4.888V8.319a.819.819,0,0,0-.819-.819Z" transform="translate(-24.603 -7.5)" fill="#f7f9fa"/>
        <path id="Trazado_101176" data-name="Trazado 101176" d="M29.684,7.5V49.392h-2.9L26,44.5V8.319a.819.819,0,0,1,.819-.819Z" transform="translate(-22.971 -7.5)" fill="#e9edf1"/>
        <path id="Trazado_101177" data-name="Trazado 101177" d="M105.025,233.51V238.4H30.5l-.056-4.889Z" transform="translate(-26.684 -196.507)" fill="#e9edf1"/>
        <path id="Trazado_101178" data-name="Trazado 101178" d="M118.615,127.5H94.876a.819.819,0,0,0-.819.819v2.865l.164,1.228-.164,1.228v3.111l.164,1.228-.164,1.228v3.029a.819.819,0,0,0,.819.819h23.74a.819.819,0,0,0,.819-.819v-3.029l-.164-1.228.164-1.228V133.64l-.164-1.228.164-1.228v-2.865A.819.819,0,0,0,118.615,127.5Z" transform="translate(-79.886 -107.853)" fill="#8c818f"/>
        <path id="Trazado_101179" data-name="Trazado 101179" d="M160.4,202.513h-3.252l-.6-4.135V191.5h4.912v6.878Z" transform="translate(-132.153 -161.375)" fill="#766d78"/>
        <path id="Trazado_101180" data-name="Trazado 101180" d="M156.56,233.51h4.912v4.136H156.56Z" transform="translate(-132.156 -196.507)" fill="#655e67"/>
        <path id="Trazado_101181" data-name="Trazado 101181" d="M330.474,153.165h6.071V161.9h-6.071Z" transform="translate(-277.596 -129.316)" fill="#f2bb88"/>
        <path id="Trazado_101182" data-name="Trazado 101182" d="M317.515,127.98a12.8,12.8,0,0,1,.435,2.253c0,.167-.428.362-.413.53.241,2.8,2.448,5.567,5.135,5.567s4.894-2.77,5.135-5.567c.014-.168-.427-.362-.427-.53a12.544,12.544,0,0,1,.449-2.253Z" transform="translate(-266.759 -108.255)" fill="#f2d1a5"/>
        <path id="Trazado_101183" data-name="Trazado 101183" d="M300.082,195.749l-6.536-1.571a5.473,5.473,0,0,1-6.071,0l-5.143,1.236-1.3.787a1.991,1.991,0,0,0-1.538,2.215l-.433,7.089h22.208l.7-4.888v-2.48A2.456,2.456,0,0,0,300.082,195.749Z" transform="translate(-234.596 -163.615)" fill="#ff8086"/>
        <path id="Trazado_101184" data-name="Trazado 101184" d="M324.155,95.365H313.334c-.452,0-.819-.039-.819-.491V89.8a.819.819,0,0,1,.819-.819h10.822a.819.819,0,0,1,.819.819v3.438l-.3,1.518C324.674,95.207,324.607,95.365,324.155,95.365Z" transform="translate(-262.577 -75.64)" fill="#ff8086"/>
        <path id="Trazado_101185" data-name="Trazado 101185" d="M327.824,127.98v2.281c0,.167-.008.336-.021.5H317.531c-.013-.167-.021-.336-.021-.5V127.98Z" transform="translate(-266.755 -108.255)" fill="#f2bb88"/>
        <path id="Trazado_101186" data-name="Trazado 101186" d="M322.544,93.237v1.637a.819.819,0,0,1-.819.819h-11.3a.819.819,0,0,1-.819-.819V89.8a.819.819,0,0,1,.819-.819H311.9v3.766a.491.491,0,0,0,.491.491Z" transform="translate(-260.148 -75.64)" fill="#e5646e"/>
        <path id="Trazado_101187" data-name="Trazado 101187" d="M282.334,205.951V201.73l-1.393.336a2.455,2.455,0,0,0-1.881,2.387v7.369h22.906v-4.889h-18.65A.982.982,0,0,1,282.334,205.951Z" transform="translate(-234.6 -169.93)" fill="#e5646e"/>
        <path id="Trazado_101188" data-name="Trazado 101188" d="M26,233.51h3.684V238.4H26Z" transform="translate(-22.971 -196.507)" fill="#dce6eb"/>
        <path id="Trazado_101189" data-name="Trazado 101189" d="M100.619,464.5H26l.783,5.111a.819.819,0,0,0,.819.819l.855.62h72.038a.819.819,0,0,0,.819-.819v-1.637Z" transform="translate(-22.971 -389.679)" fill="#f7f9fa"/>
        <path id="Trazado_101190" data-name="Trazado 101190" d="M101.312,464.5v4.093h-72.2a.655.655,0,0,0-.655.655v1.8H26.819A.819.819,0,0,1,26,470.23V464.5Z" transform="translate(-22.971 -389.679)" fill="#e9edf1"/>
        <path id="Trazado_101191" data-name="Trazado 101191" d="M88.87,255.966V257.6l-.164,1.228.164,1.228v8.515l-.164,3.289.164,3.26v8.432l-.164,1.228.164,1.228v1.228a2.457,2.457,0,0,1-2.456,2.456H9.956A2.457,2.457,0,0,1,7.5,287.237l.164-1.228v-27.18L7.5,257.6l.246-1.719c0-1.356,1.1-1.965,2.456-1.965l1.069-.408H86.414A2.457,2.457,0,0,1,88.87,255.966Z" transform="translate(-7.5 -213.233)" fill="#c3ddff"/>
        <g id="Grupo_55527" data-name="Grupo 55527" transform="translate(20.134 54.112)">
          <path id="Trazado_101192" data-name="Trazado 101192" d="M356.034,344.553h-.007l-1.058,0v-5.32a1.228,1.228,0,0,0-2.456,0v6.543a1.228,1.228,0,0,0,1.021,1.21,5.534,5.534,0,0,0,.886.024c.356,0,.87,0,1.621-.006a1.228,1.228,0,0,0-.007-2.456Z" transform="translate(-316.161 -338.01)" fill="#f7f9fa"/>
          <path id="Trazado_101193" data-name="Trazado 101193" d="M136.239,338.011a1.228,1.228,0,0,0-1.228,1.228v1.934h-2.076v-1.934a1.228,1.228,0,0,0-2.456,0v6.549a1.228,1.228,0,0,0,2.456,0v-2.159h2.076v2.159a1.228,1.228,0,0,0,2.456,0v-6.549A1.228,1.228,0,0,0,136.239,338.011Z" transform="translate(-130.479 -338.011)" fill="#f7f9fa"/>
          <path id="Trazado_101194" data-name="Trazado 101194" d="M309.775,340.649a1.228,1.228,0,0,0,0-2.456h-2.734a1.228,1.228,0,0,0-1.228,1.228v6.489a1.228,1.228,0,0,0,1.228,1.228h2.734a1.228,1.228,0,0,0,0-2.456h-1.506v-.789h1.3a1.228,1.228,0,0,0,0-2.456h-1.3v-.789h1.506Z" transform="translate(-277.107 -338.163)" fill="#f7f9fa"/>
          <path id="Trazado_101195" data-name="Trazado 101195" d="M258.568,338.011h-3.617a1.228,1.228,0,1,0,0,2.456h.573v5.321a1.228,1.228,0,0,0,2.456,0v-5.321h.588a1.228,1.228,0,0,0,0-2.456Z" transform="translate(-233.545 -338.011)" fill="#f7f9fa"/>
          <path id="Trazado_101196" data-name="Trazado 101196" d="M192.662,338.011a4.5,4.5,0,1,0,4.5,4.5A4.507,4.507,0,0,0,192.662,338.011Zm0,6.549a2.047,2.047,0,1,1,2.047-2.047A2.049,2.049,0,0,1,192.662,344.56Z" transform="translate(-178.716 -338.011)" fill="#f7f9fa"/>
        </g>
        <path id="Trazado_101197" data-name="Trazado 101197" d="M420.471,352.06h-15.96a.491.491,0,0,1-.491-.491V346a.491.491,0,0,1,.491-.491h15.96Z" transform="translate(-339.101 -290.171)" fill="#f7f9fa"/>
        <path id="Trazado_101198" data-name="Trazado 101198" d="M88.87,286.009v1.228a2.457,2.457,0,0,1-2.456,2.456H9.956A2.457,2.457,0,0,1,7.5,287.237v-1.228l.164-1.2L7.5,283.553v-8.432l.164-3.274L7.5,268.6v-8.545l.164-1.228L7.5,257.6v-1.636a2.457,2.457,0,0,1,2.456-2.456h1.315l0,4.091-.58,1.228.584,1.228.01,8.545-1.277,3.26,1.287,3.259.01,8.432,0,2.456,42.573-1.228Z" transform="translate(-7.5 -213.233)" fill="#a4ccff"/>
        <path id="Trazado_101199" data-name="Trazado 101199" d="M27.544,352.213H12.384v-6.519h15.16a.491.491,0,0,1,.491.491v5.537A.491.491,0,0,1,27.544,352.213Z" transform="translate(-11.584 -290.324)" fill="#f7f9fa"/>
        <path id="Trazado_101200" data-name="Trazado 101200" d="M11.3,352.209H7.5V345.69h3.789Z" transform="translate(-7.5 -290.321)" fill="#e9edf1"/>
      </g>
      <g id="Grupo_55528" data-name="Grupo 55528">
        <path id="Trazado_101201" data-name="Trazado 101201" d="M80.8,40.337V2.047A2.049,2.049,0,0,0,78.75,0H5.075A2.049,2.049,0,0,0,3.029,2.047v17.3a1.228,1.228,0,0,0,2.456,0V2.456H7.941V40.277H5.485V25.224a1.228,1.228,0,1,0-2.456,0V40.337A3.689,3.689,0,0,0,0,43.961V75.232a3.689,3.689,0,0,0,3.029,3.624v2.923a2.049,2.049,0,0,0,2.047,2.047H78.75A2.049,2.049,0,0,0,80.8,81.779V78.856a3.689,3.689,0,0,0,3.029-3.624V43.961A3.689,3.689,0,0,0,80.8,40.337Zm.573,21.552H67.375V57.8H81.37ZM3.684,42.733H35.35a1.228,1.228,0,0,0,0-2.456H31.771V37.656h8.186A2.049,2.049,0,0,0,42,35.61V21.693a2.049,2.049,0,0,0-2.047-2.047H16.218a2.049,2.049,0,0,0-2.047,2.047V35.61a2.049,2.049,0,0,0,2.047,2.047H24.4v2.621H10.4V2.456H73.429V9.98a1.228,1.228,0,0,0,2.456,0V2.456h2.456V40.277H75.885V15.644a1.228,1.228,0,0,0-2.456,0V40.277H69.823V35.751A3.673,3.673,0,0,0,67,32.169l-5.6-1.345V27.37a8.051,8.051,0,0,0,2.122-5.283v-.859a2.048,2.048,0,0,0,1.326-1.913V14.241a2.049,2.049,0,0,0-2.047-2.047h-11.3a2.049,2.049,0,0,0-2.047,2.047v5.075a2.049,2.049,0,0,0,1.294,1.9v.87a8.051,8.051,0,0,0,2.122,5.283v3.454l-5.6,1.345a3.673,3.673,0,0,0-2.823,3.582v4.527H41.091a1.228,1.228,0,1,0,0,2.456H80.142a1.229,1.229,0,0,1,1.228,1.228V45.6H2.456V43.961a1.229,1.229,0,0,1,1.228-1.228ZM25.632,30.125h-9V27.014H39.548v3.111H25.632Zm6.14,2.456h7.777V35.2H31.771Zm7.777-8.022H16.627V22.1H39.548ZM16.627,32.581H24.4V35.2H16.627Zm10.233,0h2.456v7.7H26.86ZM51.918,18.907V14.65H62.4v4.257Zm3.416,10.151a5.151,5.151,0,0,0,3.615,0v2.021a4.229,4.229,0,0,1-3.615,0Zm5.737-7.695v.725c0,2.193-1.753,4.841-3.929,4.841s-3.929-2.649-3.929-4.841v-.725ZM53.9,33.1a6.679,6.679,0,0,0,6.48,0l6.045,1.453a1.224,1.224,0,0,1,.941,1.194v4.527H46.916V35.75a1.224,1.224,0,0,1,.941-1.194ZM2.456,57.825H16.451v4.063H2.456ZM78.341,81.37H5.485V78.914H78.341Zm1.8-4.91H79.6l-.035,0H4.257l-.035,0H3.684a1.229,1.229,0,0,1-1.228-1.228V74H51a1.228,1.228,0,1,0,0-2.456H2.456v-7.2H17.187a1.721,1.721,0,0,0,1.719-1.719V57.089a1.721,1.721,0,0,0-1.719-1.719H2.456V48.052H81.37V55.34H66.638a1.721,1.721,0,0,0-1.719,1.719v5.567a1.721,1.721,0,0,0,1.719,1.719H81.37v7.2H56.77a1.228,1.228,0,1,0,0,2.456h24.6v1.228A1.229,1.229,0,0,1,80.142,76.46Z"/>
        <path id="Trazado_101202" data-name="Trazado 101202" d="M353.535,346.992c.382.043,1.5.017,2.507.017a1.228,1.228,0,0,0-.007-2.456h-.007l-1.058,0v-5.32a1.228,1.228,0,0,0-2.456,0v6.543A1.228,1.228,0,0,0,353.535,346.992Z" transform="translate(-294.8 -282.67)"/>
        <path id="Trazado_101203" data-name="Trazado 101203" d="M136.239,338.011a1.228,1.228,0,0,0-1.228,1.228v1.934h-2.076v-1.934a1.228,1.228,0,0,0-2.456,0v6.549a1.228,1.228,0,0,0,2.456,0v-2.159h2.076v2.159a1.228,1.228,0,0,0,2.456,0v-6.549A1.228,1.228,0,0,0,136.239,338.011Z" transform="translate(-109.117 -282.671)"/>
        <path id="Trazado_101204" data-name="Trazado 101204" d="M309.775,340.649a1.228,1.228,0,0,0,0-2.456h-2.734a1.228,1.228,0,0,0-1.228,1.228v6.489a1.228,1.228,0,0,0,1.228,1.228h2.734a1.228,1.228,0,0,0,0-2.456h-1.506v-.789h1.3a1.228,1.228,0,0,0,0-2.456h-1.3v-.789h1.506Z" transform="translate(-255.745 -282.823)"/>
        <path id="Trazado_101205" data-name="Trazado 101205" d="M258.568,338.011h-3.617a1.228,1.228,0,1,0,0,2.456h.573v5.321a1.228,1.228,0,0,0,2.456,0v-5.321h.588a1.228,1.228,0,0,0,0-2.456Z" transform="translate(-212.183 -282.671)"/>
        <path id="Trazado_101206" data-name="Trazado 101206" d="M192.662,338.011a4.5,4.5,0,1,0,4.5,4.5A4.507,4.507,0,0,0,192.662,338.011Zm0,6.549a2.047,2.047,0,1,1,2.047-2.047A2.049,2.049,0,0,1,192.662,344.56Z" transform="translate(-157.354 -282.671)"/>
      </g>
    </g>
    <rect id="Rectángulo_5470" data-name="Rectángulo 5470" width="108" height="108" transform="translate(223 2827)" fill="none"/>
  </g>
</svg>
