<svg xmlns="http://www.w3.org/2000/svg" width="108" height="108" viewBox="0 0 108 108">
  <g id="Grupo_55585" data-name="Grupo 55585" transform="translate(-837 -2827)">
    <g id="filled_outline" data-name="filled outline" transform="translate(833.002 2817.999)">
      <path id="Trazado_101207" data-name="Trazado 101207" d="M294.647,169.075h-2.786v-9.751a12.537,12.537,0,1,0-25.075,0v8.358H264v-8.358a15.324,15.324,0,1,1,30.647,0Z" transform="translate(-204.817 -105.711)" fill="#428dc5"/>
      <path id="Trazado_101208" data-name="Trazado 101208" d="M232,272h39.005v5.572H232Z" transform="translate(-178.389 -211.422)" fill="#6cbae5"/>
      <path id="Trazado_101209" data-name="Trazado 101209" d="M273.433,330.468H242.786L240,304h36.219Z" transform="translate(-184.996 -237.85)" fill="#4799cf"/>
      <path id="Trazado_101210" data-name="Trazado 101210" d="M350.289,251.831v10.021a2.837,2.837,0,0,1-2.652,2.861,2.788,2.788,0,0,1-2.92-2.783,2.786,2.786,0,1,1-5.572,0,2.786,2.786,0,1,1-5.572,0,2.776,2.776,0,0,1-.373,1.393,2.811,2.811,0,0,1-1.02,1.02,2.75,2.75,0,0,1-1.35.373,2.851,2.851,0,0,1-2.83-2.863V251.831A3.831,3.831,0,0,1,331.831,248h14.627a3.831,3.831,0,0,1,3.831,3.831Z" transform="translate(-257.673 -191.602)" fill="#fd9226"/>
      <g id="Grupo_55529" data-name="Grupo 55529" transform="translate(57.79 75.901)">
        <path id="Trazado_101211" data-name="Trazado 101211" d="M256,456h30.647v5.572H256Z" transform="translate(-256 -439.283)" fill="#6cbae5"/>
        <path id="Trazado_101212" data-name="Trazado 101212" d="M392,392h2.786v6.965H392Z" transform="translate(-368.318 -386.428)" fill="#6cbae5"/>
        <path id="Trazado_101213" data-name="Trazado 101213" d="M392,360h2.786v2.786H392Z" transform="translate(-368.318 -360)" fill="#6cbae5"/>
      </g>
      <path id="Trazado_101214" data-name="Trazado 101214" d="M353.393,301.572a2.776,2.776,0,0,1-.373,1.393,2.81,2.81,0,0,1-1.02,1.02V296h1.393Z" transform="translate(-277.493 -231.243)" fill="#e08122"/>
      <path id="Trazado_101215" data-name="Trazado 101215" d="M385.393,301.572A2.785,2.785,0,0,1,384,303.986V296h1.393Z" transform="translate(-303.921 -231.243)" fill="#e08122"/>
      <path id="Trazado_101216" data-name="Trazado 101216" d="M417.393,301.572A2.785,2.785,0,0,1,416,303.986V296h1.393Z" transform="translate(-330.349 -231.243)" fill="#e08122"/>
      <path id="Trazado_101217" data-name="Trazado 101217" d="M100.578,435.144H56L58.786,424H97.791Z" transform="translate(-33.036 -336.955)" fill="#fbb540"/>
      <path id="Trazado_101218" data-name="Trazado 101218" d="M73.393,392h36.219a1.393,1.393,0,0,1,1.393,1.393v4.179H72v-4.179A1.393,1.393,0,0,1,73.393,392Z" transform="translate(-46.25 -310.527)" fill="#c17450"/>
      <path id="Trazado_101219" data-name="Trazado 101219" d="M161.393,424h5.572l1.393,11.144H160Z" transform="translate(-118.927 -336.955)" fill="#ea9d2d"/>
      <path id="Trazado_101220" data-name="Trazado 101220" d="M88,435.144,90.786,424h5.572l-2.786,11.144Z" transform="translate(-59.464 -336.955)" fill="#ea9d2d"/>
      <path id="Trazado_101221" data-name="Trazado 101221" d="M170.786,24a2.786,2.786,0,0,1,2.786,2.786V88.08H168V26.786A2.786,2.786,0,0,1,170.786,24Z" transform="translate(-125.534 -6.607)" fill="#8f563b"/>
      <path id="Trazado_101222" data-name="Trazado 101222" d="M77.572,208A8.811,8.811,0,0,1,72,213.572a8.811,8.811,0,0,1,5.572,5.572,8.811,8.811,0,0,1,5.572-5.572A8.811,8.811,0,0,1,77.572,208Z" transform="translate(-46.25 -158.567)" fill="#fbb540"/>
      <path id="Trazado_101223" data-name="Trazado 101223" d="M429.572,112A8.811,8.811,0,0,1,424,117.572a8.811,8.811,0,0,1,5.572,5.572,8.811,8.811,0,0,1,5.572-5.572A8.811,8.811,0,0,1,429.572,112Z" transform="translate(-336.956 -79.283)" fill="#fbb540"/>
      <path id="Trazado_101224" data-name="Trazado 101224" d="M29.572,304A8.811,8.811,0,0,1,24,309.572a8.811,8.811,0,0,1,5.572,5.572,8.811,8.811,0,0,1,5.572-5.572A8.811,8.811,0,0,1,29.572,304Z" transform="translate(-6.608 -237.85)" fill="#fbb540"/>
      <path id="Trazado_101225" data-name="Trazado 101225" d="M232,424h5.572l2.786,11.144h-5.572Z" transform="translate(-178.389 -336.955)" fill="#ea9d2d"/>
      <path id="Trazado_101226" data-name="Trazado 101226" d="M116.259,55.11v-1.5a15.324,15.324,0,0,0-30.647,0v5.572H80.04a1.393,1.393,0,0,0-1.393,1.393V66.15a1.393,1.393,0,0,0,1.393,1.393h.139L81.5,80.08H75.861v-59.9a4.179,4.179,0,0,0-8.358,0v59.9H53.572a2.789,2.789,0,0,0-2.786,2.786v4.008L48.042,97.852a1.393,1.393,0,0,0,1.351,1.731h65.473a1.393,1.393,0,0,0,1.393-1.393v-5.5l1.966-18.679a4.263,4.263,0,0,0,2.213-3.761V60.229A5.233,5.233,0,0,0,116.259,55.11ZM88.4,53.612a12.537,12.537,0,0,1,25.075,0v1.393H100.588a5.233,5.233,0,0,0-5.119,4.179H88.4Zm-6.965,8.358h13.93v2.786H81.433Zm1.547,5.572H95.364v2.709a4.316,4.316,0,0,0,1.284,3.054,4.109,4.109,0,0,0,2.959,1.2,4.2,4.2,0,0,0,2.722-1.067,4.172,4.172,0,0,0,5.572,0,4.172,4.172,0,0,0,5.571,0,4.136,4.136,0,0,0,1.91.971l-1.769,16.811H93.665l-1.088-4.351V82.866a2.789,2.789,0,0,0-2.786-2.786H84.3ZM70.289,20.179a1.393,1.393,0,1,1,2.786,0v59.9H70.289ZM53.572,82.866H89.792v2.786H53.572ZM56.75,96.8l2.09-8.358h2.7L59.45,96.8Zm-3.483-8.358h2.7L53.878,96.8h-2.7Zm11.144,0h2.907L66.273,96.8H62.322ZM69.081,96.8l1.045-8.358h3.113L74.283,96.8Zm8.01,0-1.045-8.358h2.907l2.09,8.358Zm6.823,0-2.09-8.358h2.7l2.09,8.358Zm5.572,0L87.4,88.438h2.7l2.09,8.358Zm23.987,0H95.058l-.7-2.786h19.112Zm4.179-30.647v4.1a1.45,1.45,0,0,1-1.323,1.47,1.393,1.393,0,0,1-1.463-1.391V64.757H112.08v5.572a1.393,1.393,0,1,1-2.786,0V64.757h-2.786v5.572a1.393,1.393,0,1,1-2.786,0V64.757h-2.786v5.572a1.392,1.392,0,0,1-1.371,1.393h-.019a1.341,1.341,0,0,1-.942-.4,1.513,1.513,0,0,1-.453-1.069V60.229a2.44,2.44,0,0,1,2.438-2.438h14.627a2.44,2.44,0,0,1,2.438,2.438Z" transform="translate(-26.429)"/>
      <path id="Trazado_101227" data-name="Trazado 101227" d="M392,392h2.786v6.965H392Z" transform="translate(-310.528 -310.527)"/>
      <path id="Trazado_101228" data-name="Trazado 101228" d="M392,360h2.786v2.786H392Z" transform="translate(-310.528 -284.099)"/>
      <path id="Trazado_101229" data-name="Trazado 101229" d="M69.642,212.979a1.393,1.393,0,0,0,2.643,0,7.453,7.453,0,0,1,4.691-4.691,1.393,1.393,0,0,0,0-2.643,7.453,7.453,0,0,1-4.691-4.691,1.393,1.393,0,0,0-2.643,0,7.453,7.453,0,0,1-4.691,4.691,1.393,1.393,0,0,0,0,2.643A7.453,7.453,0,0,1,69.642,212.979Zm1.321-8.526a10.31,10.31,0,0,0,2.513,2.513,10.31,10.31,0,0,0-2.513,2.513,10.31,10.31,0,0,0-2.513-2.513A10.31,10.31,0,0,0,70.964,204.453Z" transform="translate(-39.642 -151.961)"/>
      <path id="Trazado_101230" data-name="Trazado 101230" d="M428.977,109.645a7.453,7.453,0,0,1-4.691-4.691,1.393,1.393,0,0,0-2.643,0,7.453,7.453,0,0,1-4.691,4.691,1.393,1.393,0,0,0,0,2.643,7.453,7.453,0,0,1,4.691,4.691,1.393,1.393,0,0,0,2.643,0,7.453,7.453,0,0,1,4.691-4.691,1.393,1.393,0,0,0,0-2.643Zm-6.013,3.835a10.31,10.31,0,0,0-2.513-2.513,10.309,10.309,0,0,0,2.513-2.513,10.31,10.31,0,0,0,2.513,2.513A10.31,10.31,0,0,0,422.964,113.48Z" transform="translate(-330.348 -72.678)"/>
      <path id="Trazado_101231" data-name="Trazado 101231" d="M22.964,309.931a1.393,1.393,0,0,0,1.321-.952,7.453,7.453,0,0,1,4.691-4.691,1.393,1.393,0,0,0,0-2.643,7.453,7.453,0,0,1-4.691-4.691,1.393,1.393,0,0,0-2.643,0,7.453,7.453,0,0,1-4.691,4.691,1.393,1.393,0,0,0,0,2.643,7.453,7.453,0,0,1,4.691,4.691A1.393,1.393,0,0,0,22.964,309.931Zm0-9.478a10.309,10.309,0,0,0,2.513,2.513,10.31,10.31,0,0,0-2.513,2.513,10.31,10.31,0,0,0-2.513-2.513A10.31,10.31,0,0,0,22.964,300.453Z" transform="translate(0 -231.244)"/>
    </g>
    <rect id="Rectángulo_5475" data-name="Rectángulo 5475" width="108" height="108" transform="translate(837 2827)" fill="none"/>
  </g>
</svg>
