<svg xmlns="http://www.w3.org/2000/svg" width="108" height="108" viewBox="0 0 108 108">
  <g id="Grupo_55584" data-name="Grupo 55584" transform="translate(-837 -2986)">
    <g id="toalla_1_" data-name="toalla (1)" transform="translate(831.532 2995.582)">
      <g id="Grupo_55568" data-name="Grupo 55568" transform="translate(19.311 1.843)">
        <g id="Grupo_55540" data-name="Grupo 55540" transform="translate(0 17.143)">
          <g id="Grupo_55539" data-name="Grupo 55539">
            <g id="Grupo_55538" data-name="Grupo 55538">
              <path id="Trazado_101250" data-name="Trazado 101250" d="M27.468,103h9.146v8.9H27.468Z" transform="translate(-27.468 -103)" fill="#ccf5fc"/>
            </g>
          </g>
        </g>
        <g id="Grupo_55544" data-name="Grupo 55544" transform="translate(9.146 0)">
          <g id="Grupo_55543" data-name="Grupo 55543">
            <g id="Grupo_55542" data-name="Grupo 55542">
              <g id="Grupo_55541" data-name="Grupo 55541">
                <path id="Trazado_101251" data-name="Trazado 101251" d="M130.887,10H87.644A10.558,10.558,0,0,0,77.086,20.558v62.77h53.8" transform="translate(-77.086 -10)" fill="#ff9eb1"/>
              </g>
            </g>
          </g>
        </g>
        <g id="Grupo_55555" data-name="Grupo 55555" transform="translate(62.947)">
          <g id="Grupo_55549" data-name="Grupo 55549">
            <g id="Grupo_55548" data-name="Grupo 55548">
              <g id="Grupo_55547" data-name="Grupo 55547">
                <g id="Grupo_55546" data-name="Grupo 55546">
                  <g id="Grupo_55545" data-name="Grupo 55545">
                    <path id="Trazado_101252" data-name="Trazado 101252" d="M368.953,82.023h16.034V20.558A10.558,10.558,0,0,0,374.429,10h-5.476" transform="translate(-368.953 -10)" fill="#ff7d97"/>
                  </g>
                </g>
              </g>
            </g>
          </g>
          <g id="Grupo_55554" data-name="Grupo 55554" transform="translate(0 9.447)">
            <g id="Grupo_55553" data-name="Grupo 55553">
              <g id="Grupo_55552" data-name="Grupo 55552">
                <g id="Grupo_55551" data-name="Grupo 55551">
                  <g id="Grupo_55550" data-name="Grupo 55550">
                    <path id="Trazado_101253" data-name="Trazado 101253" d="M368.954,63.655a2.4,2.4,0,0,1,2.405-2.406h4.49a2.4,2.4,0,0,1,2.405,2.406v50.613h-6.9a2.4,2.4,0,0,1-2.405-2.406" transform="translate(-368.954 -61.249)" fill="#fff2a0"/>
                  </g>
                </g>
              </g>
            </g>
          </g>
        </g>
        <g id="Grupo_55559" data-name="Grupo 55559" transform="translate(9.146 73.328)">
          <g id="Grupo_55558" data-name="Grupo 55558">
            <g id="Grupo_55557" data-name="Grupo 55557">
              <g id="Grupo_55556" data-name="Grupo 55556">
                <path id="Trazado_101254" data-name="Trazado 101254" d="M77.086,407.8h53.8v10.862h-53.8Z" transform="translate(-77.086 -407.8)" fill="#faf7f5"/>
              </g>
            </g>
          </g>
        </g>
        <g id="Grupo_55567" data-name="Grupo 55567" transform="translate(9.146 17.143)">
          <g id="Grupo_55562" data-name="Grupo 55562" transform="translate(53.801)">
            <g id="Grupo_55561" data-name="Grupo 55561">
              <g id="Grupo_55560" data-name="Grupo 55560">
                <path id="Trazado_101255" data-name="Trazado 101255" d="M368.954,103h21.305v8.9H368.954Z" transform="translate(-368.954 -103)" fill="#ccf5fc"/>
              </g>
            </g>
          </g>
          <g id="Grupo_55566" data-name="Grupo 55566" transform="translate(0 2.832)">
            <g id="Grupo_55565" data-name="Grupo 55565">
              <g id="Grupo_55564" data-name="Grupo 55564">
                <g id="Grupo_55563" data-name="Grupo 55563">
                  <path id="Trazado_101256" data-name="Trazado 101256" d="M77.086,118.362h53.8v11.484h-53.8Z" transform="translate(-77.086 -118.362)" fill="#faf7f5"/>
                </g>
              </g>
            </g>
          </g>
        </g>
      </g>
      <g id="Grupo_55570" data-name="Grupo 55570" transform="translate(17.468)">
        <g id="Grupo_55569" data-name="Grupo 55569">
          <path id="Trazado_101257" data-name="Trazado 101257" d="M362.511,245.163a1.844,1.844,0,1,0-.68,2.238A1.862,1.862,0,0,0,362.511,245.163Z" transform="translate(-296.018 -199.043)"/>
          <path id="Trazado_101258" data-name="Trazado 101258" d="M103.564,17.143h-3.428V12.4A12.415,12.415,0,0,0,87.735,0H39.015a12.415,12.415,0,0,0-12.4,12.4v4.741h-7.3a1.844,1.844,0,0,0-1.843,1.843v8.9a1.844,1.844,0,0,0,1.843,1.843h7.3V92.536a1.843,1.843,0,1,0,3.687,0V87.877h4v4.659a1.843,1.843,0,1,0,3.687,0V87.877h4v4.659a1.843,1.843,0,0,0,3.687,0V87.877h4v4.659a1.843,1.843,0,1,0,3.687,0V87.877h4v4.659a1.843,1.843,0,1,0,3.687,0V87.877h4v4.659a1.843,1.843,0,0,0,3.687,0V87.877h4v4.659a1.843,1.843,0,0,0,3.687,0V87.877h4v4.659a1.843,1.843,0,0,0,3.687,0V75.709h14.19a1.844,1.844,0,0,0,1.843-1.843V29.725h3.428a1.844,1.844,0,0,0,1.843-1.843v-8.9a1.843,1.843,0,0,0-1.843-1.843ZM30.3,12.4a8.724,8.724,0,0,1,8.714-8.715h48.72A8.724,8.724,0,0,1,96.449,12.4v4.741H93.4V13.7a4.254,4.254,0,0,0-4.249-4.249h-4.49A4.254,4.254,0,0,0,80.415,13.7c0,.031,0,.062,0,.092s0,.061,0,.092v6.095H30.3ZM82.259,53.267a1.844,1.844,0,0,0-1.843,1.843V73.328H30.3V35.145H80.415v3.329a1.843,1.843,0,0,0,3.687,0V29.725h5.614V62.466H84.664A.563.563,0,0,1,84.1,61.9V55.11a1.843,1.843,0,0,0-1.843-1.843ZM80.415,31.458H30.3v-7.8H80.415ZM84.1,13.788c0-.031,0-.061,0-.092a.563.563,0,0,1,.562-.562h4.49a.563.563,0,0,1,.562.562v3.447H84.1V13.88C84.1,13.849,84.1,13.818,84.1,13.788ZM21.155,26.038V20.83h5.46v5.208ZM30.3,77.015H80.415V84.19H30.3Zm66.148-4.992H84.1V66.116a4.283,4.283,0,0,0,.562.037h6.9A1.844,1.844,0,0,0,93.4,64.309V29.725h3.046Zm5.271-45.985H84.1V20.83H101.72Z" transform="translate(-17.468 0)"/>
        </g>
      </g>
    </g>
    <rect id="Rectángulo_5476" data-name="Rectángulo 5476" width="108" height="108" transform="translate(837 2986)" fill="none"/>
  </g>
</svg>
