<svg xmlns="http://www.w3.org/2000/svg" width="108" height="108" viewBox="0 0 108 108">
  <g id="Grupo_55588" data-name="Grupo 55588" transform="translate(-223 -3145)">
    <g id="caja-fuerte" transform="translate(233 3155.133)">
      <path id="Trazado_101259" data-name="Trazado 101259" d="M1,1H86.693V72.871H1Z" transform="translate(0.382 0.382)" fill="#23a8cc"/>
      <path id="Trazado_101260" data-name="Trazado 101260" d="M8,6H74.343V59.9H8Z" transform="translate(3.057 2.293)" fill="#1d7d9f"/>
      <path id="Trazado_101261" data-name="Trazado 101261" d="M10,53h8.293V66.821H10Z" transform="translate(3.821 20.253)" fill="#6a951f"/>
      <path id="Trazado_101262" data-name="Trazado 101262" d="M48,53h8.293V66.821H48Z" transform="translate(18.343 20.253)" fill="#6a951f"/>
      <path id="Trazado_101263" data-name="Trazado 101263" d="M51.407,30.2a15.552,15.552,0,0,1-15.2,15.2A15.552,15.552,0,0,1,21,30.2,15.552,15.552,0,0,1,36.2,15a15.552,15.552,0,0,1,15.2,15.2Z" transform="translate(8.025 5.732)" fill="#fcc325"/>
      <g id="Grupo_55571" data-name="Grupo 55571" transform="translate(1.382 1.382)" opacity="0.2">
        <path id="Trazado_101264" data-name="Trazado 101264" d="M1,17.153C7.536,21.483,37.292,39.346,86.693,42.3V1H1Z" transform="translate(-1 -1)" fill="#fff"/>
      </g>
      <g id="Grupo_55572" data-name="Grupo 55572" transform="translate(13.821 73.253)" opacity="0.2">
        <path id="Trazado_101265" data-name="Trazado 101265" d="M10,53h8.293v6.911H10Z" transform="translate(-10 -53)"/>
      </g>
      <g id="Grupo_55573" data-name="Grupo 55573" transform="translate(66.343 73.253)" opacity="0.2">
        <path id="Trazado_101266" data-name="Trazado 101266" d="M48,53h8.293v6.911H48Z" transform="translate(-48 -53)"/>
      </g>
      <g id="Grupo_55574" data-name="Grupo 55574" transform="translate(0)">
        <path id="Trazado_101267" data-name="Trazado 101267" d="M84.4,0H8.382a1.382,1.382,0,0,0,0,2.764H83.018V27.643a1.382,1.382,0,0,0,2.764,0V1.382A1.382,1.382,0,0,0,84.4,0Z" transform="translate(2.675)" fill="#043c49"/>
        <path id="Trazado_101268" data-name="Trazado 101268" d="M87.075,38.7a1.382,1.382,0,0,0-1.382,1.382V71.871H2.764V2.764H5.529A1.382,1.382,0,1,0,5.529,0H1.382A1.382,1.382,0,0,0,0,1.382V73.253a1.382,1.382,0,0,0,1.382,1.382H12.439V88.457H23.5V74.636H64.961V88.457H76.018V74.636H87.075a1.382,1.382,0,0,0,1.382-1.382V40.082A1.382,1.382,0,0,0,87.075,38.7ZM20.732,85.693H15.2V74.636h5.529Zm52.521,0H67.725V74.636h5.529Z" transform="translate(0)" fill="#043c49"/>
        <path id="Trazado_101269" data-name="Trazado 101269" d="M9.382,48a1.382,1.382,0,0,0,0,2.764h1.382a1.382,1.382,0,1,0,0-2.764Z" transform="translate(3.057 18.343)" fill="#043c49"/>
        <path id="Trazado_101270" data-name="Trazado 101270" d="M13.382,48a1.382,1.382,0,0,0,0,2.764h1.382a1.382,1.382,0,0,0,0-2.764Z" transform="translate(4.586 18.343)" fill="#043c49"/>
        <path id="Trazado_101271" data-name="Trazado 101271" d="M5.382,48a1.382,1.382,0,0,0,0,2.764H6.764a1.382,1.382,0,1,0,0-2.764Z" transform="translate(1.529 18.343)" fill="#043c49"/>
        <path id="Trazado_101272" data-name="Trazado 101272" d="M47.382,11.764h1.382a1.382,1.382,0,0,0,0-2.764H47.382a1.382,1.382,0,0,0,0,2.764Z" transform="translate(17.578 3.439)" fill="#043c49"/>
        <path id="Trazado_101273" data-name="Trazado 101273" d="M51.382,11.764h1.382a1.382,1.382,0,0,0,0-2.764H51.382a1.382,1.382,0,0,0,0,2.764Z" transform="translate(19.107 3.439)" fill="#043c49"/>
        <path id="Trazado_101274" data-name="Trazado 101274" d="M43.382,11.764h1.382a1.382,1.382,0,0,0,0-2.764H43.382a1.382,1.382,0,0,0,0,2.764Z" transform="translate(16.05 3.439)" fill="#043c49"/>
        <path id="Trazado_101275" data-name="Trazado 101275" d="M63.382,23A1.382,1.382,0,0,0,62,24.382v1.382a1.382,1.382,0,0,0,2.764,0V24.382A1.382,1.382,0,0,0,63.382,23Z" transform="translate(23.693 8.789)" fill="#043c49"/>
        <path id="Trazado_101276" data-name="Trazado 101276" d="M36.586,47.171A17.065,17.065,0,0,0,53.1,31.968h2.839a1.382,1.382,0,0,0,0-2.764H53.1A17.065,17.065,0,0,0,36.586,14,17.02,17.02,0,0,0,20,30.586,17.02,17.02,0,0,0,36.586,47.171Zm0-30.407A14.236,14.236,0,0,1,50.331,29.2H36.586a1.382,1.382,0,0,0,0,2.764H50.331A14.236,14.236,0,0,1,36.586,44.407,14.184,14.184,0,0,1,22.764,30.586,14.184,14.184,0,0,1,36.586,16.764Z" transform="translate(7.643 5.35)" fill="#043c49"/>
        <path id="Trazado_101277" data-name="Trazado 101277" d="M6.382,21.586H7.764V46.464H6.382a1.382,1.382,0,0,0,0,2.764H7.764V60.286a1.382,1.382,0,0,0,1.382,1.382H75.489a1.382,1.382,0,0,0,1.382-1.382V6.382A1.382,1.382,0,0,0,75.489,5H9.146A1.382,1.382,0,0,0,7.764,6.382V18.821H6.382a1.382,1.382,0,0,0,0,2.764ZM10.529,7.764H74.107V58.9H10.529V49.229h1.382a1.382,1.382,0,0,0,0-2.764H10.529V21.586h1.382a1.382,1.382,0,0,0,0-2.764H10.529Z" transform="translate(1.911 1.911)" fill="#043c49"/>
      </g>
    </g>
    <rect id="Rectángulo_5473" data-name="Rectángulo 5473" width="108" height="108" transform="translate(223 3145)" fill="none"/>
  </g>
</svg>
