<svg xmlns="http://www.w3.org/2000/svg" width="108" height="108" viewBox="0 0 108 108">
  <g id="Grupo_55589" data-name="Grupo 55589" transform="translate(-223 -3348)">
    <g id="lavadora" transform="translate(233 3359.344)">
      <g id="Grupo_55577" data-name="Grupo 55577" transform="translate(1.255 1.255)">
        <path id="Trazado_101278" data-name="Trazado 101278" d="M187.217,7.5h-52.7L129.5,12.519h62.736Zm5.019,20.075H129.5V68.061h5.019l2.509,2.509V73.08l-2.509,2.509,2.509,2.509v2.509l-2.509,2.509,2.509,2.509v2.509l-2.509,2.509h52.7l5.019-5.019ZM160.868,38.2a20.912,20.912,0,1,1-20.912,20.912A20.912,20.912,0,0,1,160.868,38.2Z" transform="translate(-109.09 -7.5)" fill="#e0dfde" fill-rule="evenodd"/>
        <ellipse id="Elipse_1389" data-name="Elipse 1389" cx="16.217" cy="15.848" rx="16.217" ry="15.848" transform="translate(35.601 35.751)" fill="#fff"/>
        <g id="Grupo_55575" data-name="Grupo 55575">
          <circle id="Elipse_1390" data-name="Elipse 1390" cx="2.509" cy="2.509" r="2.509" transform="translate(72.06 12.554) rotate(-45)" fill="#c4e5f9"/>
          <circle id="Elipse_1391" data-name="Elipse 1391" cx="2.509" cy="2.509" r="2.509" transform="matrix(0.987, -0.16, 0.16, 0.987, 62.694, 10.483)" fill="#f492a7"/>
          <circle id="Elipse_1392" data-name="Elipse 1392" cx="2.509" cy="2.509" r="2.509" transform="matrix(0.987, -0.16, 0.16, 0.987, 52.657, 10.481)" fill="#e7cda2"/>
          <path id="Trazado_101279" data-name="Trazado 101279" d="M159.5,67.5h15.057v5.019H159.5Z" transform="translate(-134.07 -57.462)" fill="#c4e5f9" fill-rule="evenodd"/>
          <path id="Trazado_101280" data-name="Trazado 101280" d="M162.123,45.028a2.509,2.509,0,1,1,2.509,2.509A2.51,2.51,0,0,1,162.123,45.028ZM192.236,37.5H129.5V52.557h62.736Zm-20.075,7.528a2.509,2.509,0,1,1,2.509,2.509A2.509,2.509,0,0,1,172.161,45.028Zm10.038,0a2.509,2.509,0,1,1,2.509,2.509A2.51,2.51,0,0,1,182.2,45.028Zm-32.623-2.509v5.019H134.519V42.519Z" transform="translate(-109.09 -32.481)" fill="#ffcf7b" fill-rule="evenodd"/>
          <path id="Trazado_101281" data-name="Trazado 101281" d="M233.824,211.911a20.912,20.912,0,1,0-20.912,20.912A20.912,20.912,0,0,0,233.824,211.911Zm-20.912-15.9a15.915,15.915,0,0,1,15.7,18.411h-13.2L210.4,209.4h-13.2a15.905,15.905,0,0,1,15.7-13.392Z" transform="translate(-161.134 -160.3)" fill="#bfbec1" fill-rule="evenodd"/>
          <path id="Trazado_101282" data-name="Trazado 101282" d="M253.555,306.018A15.9,15.9,0,0,1,222.148,301h13.194l5.019,5.019Z" transform="translate(-186.073 -251.898)" fill="#c4e5f9" fill-rule="evenodd"/>
          <path id="Trazado_101283" data-name="Trazado 101283" d="M32.929,369.5H10.009L7.5,372.009v2.509l2.509,2.509h22.92l2.509-2.509v-2.509Z" transform="translate(-7.5 -308.939)" fill="#f492a7" fill-rule="evenodd"/>
          <path id="Trazado_101284" data-name="Trazado 101284" d="M32.929,414.5H10.009L7.5,417.009v2.509l2.509,2.509h22.92l2.509-2.509v-2.509Z" transform="translate(-7.5 -346.41)" fill="#7fdcc7" fill-rule="evenodd"/>
          <path id="Trazado_101285" data-name="Trazado 101285" d="M32.929,459.5H10.009L7.5,462.009v2.509l2.509,2.509h22.92l2.509-2.509v-2.509Z" transform="translate(-7.5 -383.882)" fill="#c4e5f9" fill-rule="evenodd"/>
          <path id="Trazado_101286" data-name="Trazado 101286" d="M139.537,7.5h-5.019L129.5,12.519h5.019Zm-5.019,20.075H129.5V68.061h5.019Zm0,40.486,2.509,2.509V73.08l-2.509,2.509,2.509,2.509v2.509l-2.509,2.509,2.509,2.509v2.509l-2.509,2.509h5.019l2.509-2.509V85.627l-2.509-2.509,2.509-2.509V78.1l-2.509-2.509,2.509-2.509V70.571l-2.509-2.509Z" transform="translate(-109.089 -7.5)" fill="#bfbec1" fill-rule="evenodd"/>
          <path id="Trazado_101287" data-name="Trazado 101287" d="M215.421,191.146a20.913,20.913,0,1,0,0,41.523,20.913,20.913,0,0,1,0-41.523Z" transform="translate(-161.133 -160.297)" fill="#9c9c9f" fill-rule="evenodd"/>
          <path id="Trazado_101288" data-name="Trazado 101288" d="M240.362,319.212A15.911,15.911,0,0,1,222.148,301h5.019a15.913,15.913,0,0,0,13.2,18.213Z" transform="translate(-186.073 -251.898)" fill="#a4d7f5" fill-rule="evenodd"/>
          <path id="Trazado_101289" data-name="Trazado 101289" d="M129.5,37.5h5.019V52.557H129.5Z" transform="translate(-109.09 -32.481)" fill="#ffaf02" fill-rule="evenodd"/>
          <path id="Trazado_101290" data-name="Trazado 101290" d="M15.028,369.5H10.009L7.5,372.009v2.509l2.509,2.509h5.019l-2.509-2.509v-2.509Z" transform="translate(-7.5 -308.939)" fill="#f05d7a" fill-rule="evenodd"/>
          <path id="Trazado_101291" data-name="Trazado 101291" d="M15.028,414.5H10.009L7.5,417.009v2.509l2.509,2.509h5.019l-2.509-2.509v-2.509Z" transform="translate(-7.5 -346.41)" fill="#6ab7a4" fill-rule="evenodd"/>
          <path id="Trazado_101292" data-name="Trazado 101292" d="M15.028,459.5H10.009L7.5,462.009v2.509l2.509,2.509h5.019l-2.509-2.509v-2.509Z" transform="translate(-7.5 -383.882)" fill="#a4d7f5" fill-rule="evenodd"/>
        </g>
        <g id="Grupo_55576" data-name="Grupo 55576" transform="translate(31.703 23.84)">
          <path id="Trazado_101293" data-name="Trazado 101293" d="M204.527,206.8h-2.509v-2.509h2.509Zm-5.019,0H197v-2.509h2.509Zm45.17-54.288H234.641V150h10.038Zm-12.547,0h-2.509V150h2.509Z" transform="translate(-196.999 -149.999)" fill="#fff"/>
        </g>
      </g>
      <g id="Grupo_55578" data-name="Grupo 55578">
        <path id="Trazado_101294" data-name="Trazado 101294" d="M181.492,0H127.754L122,5.754V27.6h2.509V22.585h60.227V78.127H173.444v2.509h9.518l-2.509,2.509H134.547v2.509h46.945l5.754-5.754V5.754Zm-52.7,2.509h51.659l2.509,2.509H126.284Zm-4.284,17.566V7.528h60.227V20.075Z" transform="translate(-101.59)"/>
        <path id="Trazado_101295" data-name="Trazado 101295" d="M122,180h2.509v27.939H122Z" transform="translate(-101.59 -149.886)"/>
        <path id="Trazado_101296" data-name="Trazado 101296" d="M206.667,227.833A22.167,22.167,0,1,0,184.5,205.667,22.192,22.192,0,0,0,206.667,227.833Zm0-41.824a19.657,19.657,0,1,1-19.657,19.657A19.68,19.68,0,0,1,206.667,186.009Z" transform="translate(-153.634 -152.801)"/>
        <path id="Trazado_101297" data-name="Trazado 101297" d="M231.606,247.762a17.159,17.159,0,0,0,11.137-4.106l-1.63-1.908a14.647,14.647,0,0,1-24.154-11.142c0-.423.019-.841.054-1.255h11.563l5.019,5.019h12.163a14.632,14.632,0,0,1-3.011,5.743l1.908,1.63a17.156,17.156,0,1,0-13.05,6.02Zm0-31.8a14.672,14.672,0,0,1,14.155,10.883h-8.489v2.509H246.2c.035.414.054.832.054,1.255s-.019.839-.055,1.255H234.635l-5.019-5.019H217.451A14.673,14.673,0,0,1,231.606,215.959Z" transform="translate(-178.573 -177.741)"/>
        <path id="Trazado_101298" data-name="Trazado 101298" d="M440.764,60a3.764,3.764,0,1,0,3.764,3.764A3.768,3.768,0,0,0,440.764,60Zm0,5.019a1.255,1.255,0,1,1,1.255-1.255A1.256,1.256,0,0,1,440.764,65.019Z" transform="translate(-363.891 -49.962)"/>
        <path id="Trazado_101299" data-name="Trazado 101299" d="M380.765,60a3.764,3.764,0,1,0,3.764,3.764A3.768,3.768,0,0,0,380.765,60Zm0,5.019a1.255,1.255,0,1,1,1.255-1.255A1.256,1.256,0,0,1,380.765,65.019Z" transform="translate(-313.93 -49.962)"/>
        <path id="Trazado_101300" data-name="Trazado 101300" d="M320.766,60a3.764,3.764,0,1,0,3.764,3.764A3.768,3.768,0,0,0,320.766,60Zm0,5.019a1.255,1.255,0,1,1,1.255-1.255A1.256,1.256,0,0,1,320.766,65.019Z" transform="translate(-263.969 -49.962)"/>
        <path id="Trazado_101301" data-name="Trazado 101301" d="M152,67.528h17.566V60H152Zm2.509-5.019h12.547v2.509H154.509Z" transform="translate(-126.571 -49.962)"/>
        <path id="Trazado_101302" data-name="Trazado 101302" d="M3.245,362,0,365.244v3.549l1.99,1.99L0,372.773v3.549l1.99,1.99L0,380.3v3.549l3.245,3.245H27.2l3.245-3.245V380.3l-1.99-1.99,1.99-1.99v-3.549l-1.99-1.99,1.99-1.99v-3.549L27.2,362Zm24.694,20.811-1.775,1.774H4.284l-1.774-1.774v-1.47l1.774-1.774h4.5v-2.509h-4.5l-1.774-1.774v-1.47l1.774-1.774h21.88l1.775,1.774v1.47l-1.775,1.774H11.293v2.509H26.164l1.774,1.774Zm0-15.057-1.775,1.774H4.284l-1.774-1.774v-1.47l1.774-1.774h21.88l1.775,1.774Z" transform="translate(0 -301.439)"/>
      </g>
    </g>
    <rect id="Rectángulo_5474" data-name="Rectángulo 5474" width="108" height="108" transform="translate(223 3348)" fill="none"/>
  </g>
</svg>
