<svg xmlns="http://www.w3.org/2000/svg" width="108" height="108" viewBox="0 0 108 108">
  <g id="Grupo_55582" data-name="Grupo 55582" transform="translate(-839 -3302)">
    <g id="bola-de-disco_1_" data-name="bola-de-disco (1)" transform="translate(847.439 3309.904)">
      <g id="Grupo_55579" data-name="Grupo 55579" transform="translate(5.761 40.743)">
        <path id="Trazado_101303" data-name="Trazado 101303" d="M61.87,108.058a7.558,7.558,0,0,1-4.688,4.688,7.558,7.558,0,0,1,4.688,4.688,7.558,7.558,0,0,1,4.688-4.688,7.558,7.558,0,0,1-4.688-4.688Z" transform="translate(-22.198 -73.074)" fill="#f4cb1c"/>
        <path id="Trazado_101304" data-name="Trazado 101304" d="M112.746,57.182a7.558,7.558,0,0,1-4.688,4.688,7.558,7.558,0,0,1,4.688,4.688,7.556,7.556,0,0,1,4.688-4.688,7.556,7.556,0,0,1-4.688-4.688Z" transform="translate(-38.091 -57.182)" fill="#f4cb1c"/>
        <path id="Trazado_101305" data-name="Trazado 101305" d="M10.994,57.182A7.558,7.558,0,0,1,6.306,61.87a7.558,7.558,0,0,1,4.688,4.688,7.558,7.558,0,0,1,4.688-4.688,7.558,7.558,0,0,1-4.688-4.688Z" transform="translate(-6.306 -57.182)" fill="#f4cb1c"/>
      </g>
      <circle id="Elipse_1393" data-name="Elipse 1393" cx="24.839" cy="24.839" r="24.839" transform="translate(20.594 20.592)" fill="#2fcad6"/>
      <path id="Trazado_101306" data-name="Trazado 101306" d="M67.967,6.306V9.084a4.057,4.057,0,0,1-4.057,4.057H57.479a4.057,4.057,0,0,1-4.057-4.057V6.306Z" transform="translate(-15.263 -0.546)" fill="#f4cb1c"/>
      <g id="Grupo_55580" data-name="Grupo 55580" transform="translate(4.561 4.557)">
        <path id="Trazado_101307" data-name="Trazado 101307" d="M66.408,111.063a6.317,6.317,0,0,1-3.927-3.882,1.2,1.2,0,0,0-2.317.006,6.319,6.319,0,0,1-3.925,3.876,1.2,1.2,0,0,0,0,2.273,6.316,6.316,0,0,1,3.925,3.876,1.2,1.2,0,0,0,2.318,0,6.319,6.319,0,0,1,3.926-3.876,1.2,1.2,0,0,0,0-2.273Zm-5.084,3.216a8.728,8.728,0,0,0-2.075-2.079,8.733,8.733,0,0,0,2.075-2.08A8.744,8.744,0,0,0,63.4,112.2,8.741,8.741,0,0,0,61.324,114.279Z" transform="translate(-20.452 -36.342)" fill="#022625"/>
        <path id="Trazado_101308" data-name="Trazado 101308" d="M117.285,60.187a6.319,6.319,0,0,1-3.926-3.882,1.2,1.2,0,0,0-2.317.006,6.314,6.314,0,0,1-3.926,3.876,1.2,1.2,0,0,0,0,2.269,6.321,6.321,0,0,1,3.926,3.876,1.2,1.2,0,0,0,2.318,0,6.319,6.319,0,0,1,3.925-3.876,1.2,1.2,0,0,0,0-2.269ZM112.2,63.4a8.753,8.753,0,0,0-2.075-2.079,8.753,8.753,0,0,0,2.075-2.079,8.754,8.754,0,0,0,2.075,2.079A8.754,8.754,0,0,0,112.2,63.4Z" transform="translate(-36.346 -20.449)" fill="#022625"/>
        <path id="Trazado_101309" data-name="Trazado 101309" d="M15.534,60.187A6.32,6.32,0,0,1,11.606,56.3a1.2,1.2,0,0,0-2.316.006,6.319,6.319,0,0,1-3.926,3.877,1.2,1.2,0,0,0,0,2.269,6.321,6.321,0,0,1,3.926,3.876,1.2,1.2,0,0,0,2.318,0,6.319,6.319,0,0,1,3.926-3.876,1.2,1.2,0,0,0,0-2.269ZM10.449,63.4a8.75,8.75,0,0,0-2.075-2.079,8.75,8.75,0,0,0,2.075-2.079,8.754,8.754,0,0,0,2.075,2.079A8.754,8.754,0,0,0,10.449,63.4Z" transform="translate(-4.561 -20.449)" fill="#022625"/>
        <path id="Trazado_101310" data-name="Trazado 101310" d="M76.511,50.542a1.2,1.2,0,0,0-1.467.862,23.709,23.709,0,0,1-1.33,3.767H68.684a36.317,36.317,0,0,0,1.276-8.536h5.814v.027a1.2,1.2,0,0,0,1.139,1.264h.064a1.2,1.2,0,0,0,1.2-1.141q.034-.673.034-1.354,0-.7-.036-1.386a1.223,1.223,0,0,0-1.265-1.139,1.2,1.2,0,0,0-1.139,1.265v.056H69.96a36.317,36.317,0,0,0-1.276-8.536h5.031a23.653,23.653,0,0,1,1.328,3.763,1.2,1.2,0,1,0,2.329-.607,26.039,26.039,0,0,0-24-19.428V13.8h2.014a5.264,5.264,0,0,0,5.258-5.258V5.76a1.2,1.2,0,0,0-1.2-1.2H44.9a1.2,1.2,0,0,0-1.2,1.2V8.538A5.264,5.264,0,0,0,48.953,13.8h2.013v5.623A26.076,26.076,0,0,0,28.875,33.811a1.2,1.2,0,0,0-.131.256,26,26,0,0,0,0,22.736,1.2,1.2,0,0,0,.131.256,26.04,26.04,0,0,0,48.5-5.046,1.2,1.2,0,0,0-.862-1.47Zm-30.41-42V6.964H58.238V8.538a2.854,2.854,0,0,1-2.851,2.852H48.953A2.854,2.854,0,0,1,46.1,8.538ZM66.2,55.171H60.033a81.627,81.627,0,0,0,.557-8.536h6.964A34.061,34.061,0,0,1,66.2,55.171ZM28.564,46.635h5.815a36.317,36.317,0,0,0,1.276,8.536H30.642a23.459,23.459,0,0,1-2.078-8.536Zm2.078-10.943h5.013a36.317,36.317,0,0,0-1.276,8.536H28.564a23.459,23.459,0,0,1,2.078-8.536Zm34.737-2.407H59.7a32.8,32.8,0,0,0-3.151-10.512C60.273,24.471,63.414,28.275,65.379,33.285ZM56.123,28.2a45.025,45.025,0,0,1,1.125,5.082H47.1C48.324,26.044,50.5,21.8,52.169,21.8,53.132,21.8,54.747,23.474,56.123,28.2ZM46.157,44.228a75.632,75.632,0,0,1,.58-8.536H57.6a77.4,77.4,0,0,1,.571,8.536Zm12.025,2.407a75.794,75.794,0,0,1-.58,8.536H46.737a77.248,77.248,0,0,1-.571-8.536ZM47.792,22.774a32.807,32.807,0,0,0-3.151,10.512H38.96c1.965-5.011,5.1-8.815,8.832-10.512ZM44.306,35.693a81.445,81.445,0,0,0-.557,8.536H36.784a34.061,34.061,0,0,1,1.357-8.537ZM36.784,46.635h6.964a81.447,81.447,0,0,0,.557,8.536H38.142a34.061,34.061,0,0,1-1.357-8.536Zm7.856,10.943a32.824,32.824,0,0,0,3.151,10.512c-3.727-1.7-6.867-5.5-8.832-10.512Zm3.576,5.082a45.025,45.025,0,0,1-1.125-5.082H57.243c-1.228,7.245-3.406,11.489-5.073,11.489-.963,0-2.578-1.678-3.954-6.408Zm8.331,5.432A32.78,32.78,0,0,0,59.7,57.58h5.68c-1.965,5.009-5.106,8.812-8.832,10.51ZM67.555,44.231H60.59a81.629,81.629,0,0,0-.557-8.536H66.2a34.061,34.061,0,0,1,1.354,8.533Zm4.9-10.946H67.916a25.648,25.648,0,0,0-5.531-9.17,23.671,23.671,0,0,1,10.069,9.17ZM41.949,24.122a25.648,25.648,0,0,0-5.526,9.163H31.905a23.792,23.792,0,0,1,10.044-9.163ZM31.9,57.578h4.52a25.648,25.648,0,0,0,5.526,9.163A23.792,23.792,0,0,1,31.9,57.578Zm30.482,9.17a25.637,25.637,0,0,0,5.531-9.17h4.538a23.666,23.666,0,0,1-10.07,9.17Z" transform="translate(-11.298 -4.557)" fill="#022625"/>
        <path id="Trazado_101311" data-name="Trazado 101311" d="M107.511,19.894a1.2,1.2,0,0,0,.851-.352l1.551-1.551a1.2,1.2,0,0,0-1.7-1.7l-1.551,1.547a1.2,1.2,0,0,0,.851,2.054Z" transform="translate(-36.344 -8.112)" fill="#022625"/>
        <path id="Trazado_101312" data-name="Trazado 101312" d="M99.621,23.226,94.43,28.417a1.2,1.2,0,1,0,1.7,1.7l5.191-5.192a1.2,1.2,0,1,0-1.7-1.7Z" transform="translate(-32.524 -10.279)" fill="#022625"/>
        <path id="Trazado_101313" data-name="Trazado 101313" d="M17.835,106.66l-1.551,1.551a1.2,1.2,0,1,0,1.7,1.7l1.554-1.547a1.206,1.206,0,1,0-1.705-1.705Z" transform="translate(-8.113 -36.341)" fill="#022625"/>
        <path id="Trazado_101314" data-name="Trazado 101314" d="M28.417,94.43l-5.191,5.192a1.2,1.2,0,1,0,1.7,1.7l5.192-5.191a1.2,1.2,0,0,0-1.7-1.7Z" transform="translate(-10.281 -32.521)" fill="#022625"/>
        <path id="Trazado_101315" data-name="Trazado 101315" d="M108.367,106.66a1.2,1.2,0,0,0-1.7,1.7l1.551,1.551a1.2,1.2,0,1,0,1.7-1.7Z" transform="translate(-36.346 -36.341)" fill="#022625"/>
        <path id="Trazado_101316" data-name="Trazado 101316" d="M96.131,94.43a1.2,1.2,0,1,0-1.7,1.7l5.192,5.191a1.2,1.2,0,1,0,1.7-1.7Z" transform="translate(-32.524 -32.521)" fill="#022625"/>
        <path id="Trazado_101317" data-name="Trazado 101317" d="M17.992,16.29a1.2,1.2,0,0,0-1.7,1.7l1.547,1.551a1.206,1.206,0,0,0,1.705-1.705Z" transform="translate(-8.115 -8.112)" fill="#022625"/>
        <path id="Trazado_101318" data-name="Trazado 101318" d="M28.417,30.119a1.2,1.2,0,0,0,1.7-1.7l-5.192-5.191a1.2,1.2,0,1,0-1.7,1.7Z" transform="translate(-10.281 -10.279)" fill="#022625"/>
      </g>
    </g>
    <rect id="Rectángulo_5478" data-name="Rectángulo 5478" width="108" height="108" transform="translate(839 3302)" fill="none"/>
  </g>
</svg>
