<svg xmlns="http://www.w3.org/2000/svg" width="108" height="108" viewBox="0 0 108 108">
  <g id="Grupo_55581" data-name="Grupo 55581" transform="translate(-839 -3461)">
    <g id="shopping-bag" transform="translate(852 3460.261)">
      <path id="Trazado_101319" data-name="Trazado 101319" d="M58.334,182.767h-47.4a2.939,2.939,0,0,1-2.924-3.222c4.021-41.538,3.048-31.478,4.939-51.029a2.938,2.938,0,0,1,2.924-2.654h37.52a2.938,2.938,0,0,1,2.924,2.654c1.892,19.559.914,9.445,4.939,51.029A2.939,2.939,0,0,1,58.334,182.767Z" transform="translate(-6.623 -91.74)" fill="#ffaa64"/>
      <path id="Trazado_101320" data-name="Trazado 101320" d="M56.768,133.164a2.75,2.75,0,0,1-2.738,3.014A35.475,35.475,0,0,0,18.7,168.3l-1.16,11.98a2.752,2.752,0,0,1-2.738,2.487H10.936a2.939,2.939,0,0,1-2.924-3.222c4.021-41.537,3.048-31.478,4.939-51.029a2.938,2.938,0,0,1,2.924-2.654h37.52a2.938,2.938,0,0,1,2.924,2.654C56.491,130.29,56.638,131.818,56.768,133.164Z" transform="translate(-6.623 -91.741)" fill="#ffbd7b"/>
      <path id="Trazado_101321" data-name="Trazado 101321" d="M243.388,244.8v31.086a2.938,2.938,0,0,1-2.938,2.938H198.876a2.938,2.938,0,0,1-2.938-2.938V244.8a2.938,2.938,0,0,1,2.938-2.938H240.45A2.938,2.938,0,0,1,243.388,244.8Z" transform="translate(-162.253 -187.797)" fill="#aefcfe"/>
      <path id="Trazado_101322" data-name="Trazado 101322" d="M240.426,247.02H229.939a28.879,28.879,0,0,0-28.88,28.879c0,3.023-4.385,3.607-5.079.665-.122-.518-.079-31.936-.079-31.764a2.938,2.938,0,0,1,2.938-2.938h41.574C244.006,241.862,243.75,247.02,240.426,247.02Z" transform="translate(-162.216 -187.797)" fill="#ccfeff"/>
      <path id="Trazado_101323" data-name="Trazado 101323" d="M195.938,290.862h47.45v8.424h-47.45Z" transform="translate(-162.253 -228.373)" fill="#585966"/>
      <path id="Trazado_101324" data-name="Trazado 101324" d="M295.54,290.862v8.424H258.918a29.024,29.024,0,0,1,9.854-8.424Z" transform="translate(-214.405 -228.373)" fill="#42434d"/>
      <path id="Trazado_101325" data-name="Trazado 101325" d="M82.51,57v13.91a1.375,1.375,0,0,1-1.375,1.375H42.281a1.375,1.375,0,1,1,0-2.751H79.76V63.864h-44.7V88.089a1.565,1.565,0,0,0,1.563,1.563H78.2a1.565,1.565,0,0,0,1.563-1.563V79.853a1.375,1.375,0,1,1,2.751,0v8.236A4.319,4.319,0,0,1,78.2,92.4H36.623a4.319,4.319,0,0,1-4.314-4.314V57a4.319,4.319,0,0,1,4.314-4.314H49.855L48.327,36.91A1.557,1.557,0,0,0,46.772,35.5,1.375,1.375,0,0,1,45.4,34.122c0-2.546,5.284-1.455,5.669,2.523l1.649,17.044a1.374,1.374,0,0,1-1.345,1.752H36.623A1.565,1.565,0,0,0,35.061,57v4.11h44.7V57A1.565,1.565,0,0,0,78.2,55.44H60.848a1.375,1.375,0,0,1,0-2.751H78.2A4.319,4.319,0,0,1,82.51,57ZM71.336,78.477A1.375,1.375,0,0,0,69.96,77.1H64.8a1.375,1.375,0,1,0,0,2.751H69.96A1.375,1.375,0,0,0,71.336,78.477ZM64.8,83.119a1.375,1.375,0,1,0,0,2.751h1.891a1.375,1.375,0,0,0,0-2.751Zm-40.15,6.533H4.314a1.561,1.561,0,0,1-1.556-1.714L7.7,36.91A1.557,1.557,0,0,1,9.252,35.5h6.21V46.329a1.375,1.375,0,0,0,2.751,0v-18.7a9.8,9.8,0,0,1,19.6,0v5.121H25.132a1.375,1.375,0,0,0,0,2.751H37.811V46.329a1.375,1.375,0,1,0,2.751,0v-18.7a12.55,12.55,0,0,0-25.1,0v5.121H9.252a4.3,4.3,0,0,0-4.294,3.9L.02,87.674A4.316,4.316,0,0,0,4.314,92.4H24.653a1.375,1.375,0,0,0,0-2.751Z" transform="translate(0)"/>
    </g>
    <rect id="Rectángulo_5479" data-name="Rectángulo 5479" width="108" height="108" transform="translate(839 3461)" fill="none"/>
  </g>
</svg>
