<svg xmlns="http://www.w3.org/2000/svg" width="177.688" height="177.688" viewBox="0 0 177.688 177.688">
  <g id="revision" transform="translate(-16 -15.999)">
    <path id="Trazado_101119" data-name="Trazado 101119" d="M48.432,417.769h-.74v-8.884A8.884,8.884,0,0,0,38.807,400H32.884A8.884,8.884,0,0,0,24,408.884v23.692H59.538v-3.7a11.105,11.105,0,0,0-11.105-11.105Z" transform="translate(-5.039 -241.85)" fill="#79d8eb"/>
    <path id="Trazado_101120" data-name="Trazado 101120" d="M403.105,417.769h.74v-8.884A8.884,8.884,0,0,1,412.73,400h5.923a8.884,8.884,0,0,1,8.884,8.884v23.692H392v-3.7A11.105,11.105,0,0,1,403.105,417.769Z" transform="translate(-236.811 -241.85)" fill="#79d8eb"/>
    <path id="Trazado_101121" data-name="Trazado 101121" d="M0,0H100.69V85.882H0Z" transform="translate(155.189 190.726) rotate(180)" fill="#fac850"/>
    <path id="Trazado_101122" data-name="Trazado 101122" d="M120,456h26.653v11.846H120Z" transform="translate(-65.501 -277.12)" fill="#fa5d3f"/>
    <path id="Trazado_101123" data-name="Trazado 101123" d="M320,456h26.653v11.846H320Z" transform="translate(-191.465 -277.12)" fill="#fa5d3f"/>
    <g id="Grupo_55502" data-name="Grupo 55502" transform="translate(81.152 87.075)">
      <path id="Trazado_101124" data-name="Trazado 101124" d="M192,208h47.383V311.651H192Z" transform="translate(-192 -208)" fill="#fa5d3f"/>
      <path id="Trazado_101125" data-name="Trazado 101125" d="M232,424h17.769v23.692H232Z" transform="translate(-217.193 -344.041)" fill="#fac850"/>
    </g>
    <path id="Trazado_101126" data-name="Trazado 101126" d="M210.31,24l8.3,16.816,18.558,2.7L223.738,56.6l3.17,18.483-16.6-8.726-16.6,8.726,3.17-18.483-13.428-13.09,18.558-2.7Z" transform="translate(-105.465 -5.039)" fill="#fac850"/>
    <path id="Trazado_101127" data-name="Trazado 101127" d="M221.869,73.008a2.961,2.961,0,0,1-1.378-.34l-15.222-8-15.22,8a2.961,2.961,0,0,1-4.3-3.122L188.659,52.6l-12.312-12a2.961,2.961,0,0,1,1.64-5.052L195,33.071l7.611-15.42a2.961,2.961,0,0,1,5.311,0l7.61,15.42,17.017,2.472a2.961,2.961,0,0,1,1.641,5.052l-12.314,12,2.907,16.948a2.961,2.961,0,0,1-2.919,3.462Zm-16.6-14.649a2.958,2.958,0,0,1,1.378.34l11.287,5.934-2.152-12.568a2.961,2.961,0,0,1,.851-2.621l9.13-8.9-12.62-1.834a2.962,2.962,0,0,1-2.23-1.62L205.27,25.653l-5.644,11.435a2.961,2.961,0,0,1-2.23,1.62l-12.618,1.835,9.131,8.9a2.961,2.961,0,0,1,.851,2.621l-2.156,12.568L203.892,58.7a2.958,2.958,0,0,1,1.377-.341Z" transform="translate(-100.426)"/>
    <g id="Grupo_55503" data-name="Grupo 55503" transform="translate(18.961 51.537)">
      <path id="Trazado_101128" data-name="Trazado 101128" d="M354.63,112l5.757,11.665,12.873,1.871-9.315,9.08,2.2,12.821-11.514-6.053-11.514,6.053,2.2-12.821L336,125.535l12.873-1.871Z" transform="translate(-220.503 -112)" fill="#fac850"/>
      <path id="Trazado_101129" data-name="Trazado 101129" d="M431.749,216l3.948,8,8.828,1.283-6.388,6.227,1.508,8.793-7.9-4.151-7.9,4.151,1.508-8.793-6.388-6.227L427.8,224Z" transform="translate(-272.761 -177.501)" fill="#fac850"/>
      <path id="Trazado_101130" data-name="Trazado 101130" d="M93.977,112,88.22,123.665l-12.873,1.871,9.315,9.08-2.2,12.821,11.514-6.053,11.514,6.053-2.2-12.821,9.315-9.08-12.873-1.871Z" transform="translate(-56.339 -112)" fill="#fac850"/>
      <path id="Trazado_101131" data-name="Trazado 101131" d="M36.776,216l-3.948,8L24,225.283l6.388,6.227L28.88,240.3l7.9-4.151,7.9,4.151-1.508-8.793,6.388-6.227L40.724,224Z" transform="translate(-24 -177.501)" fill="#fac850"/>
      <path id="Trazado_101132" data-name="Trazado 101132" d="M224,184h23.692v17.769H224Z" transform="translate(-149.964 -157.347)" fill="#fac850"/>
    </g>
    <g id="Grupo_55504" data-name="Grupo 55504" transform="translate(16 48.576)">
      <path id="Trazado_101133" data-name="Trazado 101133" d="M216,320h5.923v5.923H216Z" transform="translate(-141.964 -240.041)"/>
      <path id="Trazado_101134" data-name="Trazado 101134" d="M248,320h5.923v5.923H248Z" transform="translate(-162.118 -240.041)"/>
      <path id="Trazado_101135" data-name="Trazado 101135" d="M280,320h5.923v5.923H280Z" transform="translate(-182.272 -240.041)"/>
      <path id="Trazado_101136" data-name="Trazado 101136" d="M216,352h5.923v5.923H216Z" transform="translate(-141.964 -260.195)"/>
      <path id="Trazado_101137" data-name="Trazado 101137" d="M248,352h5.923v5.923H248Z" transform="translate(-162.118 -260.195)"/>
      <path id="Trazado_101138" data-name="Trazado 101138" d="M280,352h5.923v5.923H280Z" transform="translate(-182.272 -260.195)"/>
      <path id="Trazado_101139" data-name="Trazado 101139" d="M216,384h5.923v5.923H216Z" transform="translate(-141.964 -280.349)"/>
      <path id="Trazado_101140" data-name="Trazado 101140" d="M248,384h5.923v5.923H248Z" transform="translate(-162.118 -280.349)"/>
      <path id="Trazado_101141" data-name="Trazado 101141" d="M280,384h5.923v5.923H280Z" transform="translate(-182.272 -280.349)"/>
      <path id="Trazado_101142" data-name="Trazado 101142" d="M216,256h5.923v5.923H216Z" transform="translate(-141.964 -199.732)"/>
      <path id="Trazado_101143" data-name="Trazado 101143" d="M248,256h5.923v5.923H248Z" transform="translate(-162.118 -199.732)"/>
      <path id="Trazado_101144" data-name="Trazado 101144" d="M280,256h5.923v5.923H280Z" transform="translate(-182.272 -199.732)"/>
      <path id="Trazado_101145" data-name="Trazado 101145" d="M216,288h5.923v5.923H216Z" transform="translate(-141.964 -219.887)"/>
      <path id="Trazado_101146" data-name="Trazado 101146" d="M248,288h5.923v5.923H248Z" transform="translate(-162.118 -219.887)"/>
      <path id="Trazado_101147" data-name="Trazado 101147" d="M280,288h5.923v5.923H280Z" transform="translate(-182.272 -219.887)"/>
      <path id="Trazado_101148" data-name="Trazado 101148" d="M328.894,122.618l8.2,7.993L335.158,141.9a2.961,2.961,0,0,0,4.3,3.122l10.136-5.329,10.136,5.329a2.961,2.961,0,0,0,4.3-3.122l-1.936-11.286,8.2-7.993a2.961,2.961,0,0,0-1.641-5.051l-11.332-1.646-5.068-10.269a2.961,2.961,0,0,0-5.311,0l-5.068,10.269-11.332,1.647a2.961,2.961,0,0,0-1.641,5.052Zm15.366-1.061a2.961,2.961,0,0,0,2.23-1.62l3.1-6.284,3.1,6.284a2.962,2.962,0,0,0,2.23,1.62l6.935,1.008-5.018,4.892a2.962,2.962,0,0,0-.851,2.621l1.185,6.907-6.2-3.261a2.962,2.962,0,0,0-2.756,0l-6.2,3.261,1.185-6.907a2.961,2.961,0,0,0-.851-2.621l-5.019-4.892Z" transform="translate(-212.503 -104)"/>
      <path id="Trazado_101149" data-name="Trazado 101149" d="M413.509,217.314a2.961,2.961,0,0,0-1.641,5.051l5.273,5.14-1.245,7.259a2.961,2.961,0,0,0,4.3,3.122l6.518-3.427,6.518,3.427a2.961,2.961,0,0,0,4.3-3.122l-1.245-7.258,5.274-5.143a2.961,2.961,0,0,0-1.641-5.051l-7.287-1.057-3.258-6.6a2.961,2.961,0,0,0-5.311,0l-3.258,6.6Zm11.912,2.958,1.292-2.619,1.293,2.619a2.962,2.962,0,0,0,2.227,1.62l2.89.42-2.091,2.038a2.962,2.962,0,0,0-.851,2.622l.494,2.878-2.585-1.359a2.961,2.961,0,0,0-2.756,0l-2.585,1.359.493-2.878a2.962,2.962,0,0,0-.851-2.622l-2.091-2.038,2.89-.42a2.961,2.961,0,0,0,2.231-1.62Z" transform="translate(-264.761 -169.502)"/>
      <path id="Trazado_101150" data-name="Trazado 101150" d="M68.243,122.618l8.2,7.993L74.507,141.9a2.961,2.961,0,0,0,4.3,3.122l10.136-5.329,10.136,5.329a2.961,2.961,0,0,0,4.3-3.122l-1.936-11.286,8.2-7.993A2.961,2.961,0,0,0,108,117.567l-11.332-1.646L91.6,105.652a2.961,2.961,0,0,0-5.311,0l-5.068,10.269-11.331,1.646a2.961,2.961,0,0,0-1.641,5.052Zm15.366-1.061a2.961,2.961,0,0,0,2.23-1.62l3.1-6.284,3.1,6.284a2.961,2.961,0,0,0,2.23,1.62l6.935,1.008-5.018,4.892a2.961,2.961,0,0,0-.851,2.621l1.185,6.907-6.2-3.261a2.964,2.964,0,0,0-2.756,0l-6.2,3.26,1.185-6.907a2.961,2.961,0,0,0-.851-2.621l-5.02-4.89Z" transform="translate(-48.341 -104.001)"/>
      <path id="Trazado_101151" data-name="Trazado 101151" d="M16.9,222.364l5.273,5.142-1.244,7.259a2.961,2.961,0,0,0,4.3,3.122l6.518-3.427,6.518,3.427a2.961,2.961,0,0,0,4.3-3.122l-1.245-7.259,5.273-5.142a2.961,2.961,0,0,0-1.641-5.051l-7.288-1.057-3.258-6.6a2.961,2.961,0,0,0-5.311,0l-3.258,6.6-7.29,1.058a2.961,2.961,0,0,0-1.641,5.05Zm11.322-.471a2.962,2.962,0,0,0,2.23-1.62l1.293-2.619,1.292,2.619a2.962,2.962,0,0,0,2.23,1.62l2.89.42-2.091,2.038a2.961,2.961,0,0,0-.851,2.622l.493,2.878-2.585-1.359a2.961,2.961,0,0,0-2.756,0l-2.585,1.359.494-2.878a2.961,2.961,0,0,0-.851-2.622l-2.091-2.038Z" transform="translate(-16.002 -169.502)"/>
      <path id="Trazado_101152" data-name="Trazado 101152" d="M144,288h8.884v5.923H144Z" transform="translate(-96.617 -219.887)"/>
      <path id="Trazado_101153" data-name="Trazado 101153" d="M144,328h8.884v5.923H144Z" transform="translate(-96.617 -245.079)"/>
      <path id="Trazado_101154" data-name="Trazado 101154" d="M144,368h8.884v5.923H144Z" transform="translate(-96.617 -270.272)"/>
      <path id="Trazado_101155" data-name="Trazado 101155" d="M144,408h8.884v5.923H144Z" transform="translate(-96.617 -295.465)"/>
      <path id="Trazado_101156" data-name="Trazado 101156" d="M181.842,255.959h-5.923a11.859,11.859,0,0,0-11.846,11.846v6.1a13.993,13.993,0,0,0-5.923,2.428V261.882h-5.923V276.69H131.5V208.576h20.73v47.383h5.923V205.615a2.961,2.961,0,0,0-2.961-2.961H131.5V187.846a2.961,2.961,0,0,0-2.961-2.961h-8.884v-5.923A2.961,2.961,0,0,0,116.69,176H93a2.961,2.961,0,0,0-2.961,2.961v5.923H81.152a2.961,2.961,0,0,0-2.961,2.961v14.807H54.5a2.961,2.961,0,0,0-2.961,2.961v17.769H57.46V208.576h20.73V276.69H57.46V229.306H51.538v47.025a13.993,13.993,0,0,0-5.923-2.428v-6.1a11.859,11.859,0,0,0-11.846-11.846H27.846A11.859,11.859,0,0,0,16,267.805V291.5a2.961,2.961,0,0,0,2.961,2.961H190.726a2.961,2.961,0,0,0,2.961-2.961V267.805A11.859,11.859,0,0,0,181.842,255.959ZM95.959,181.923h17.769v11.846H95.959ZM21.923,267.805a5.93,5.93,0,0,1,5.923-5.923h5.923a5.93,5.93,0,0,1,5.923,5.923v6.1A14.09,14.09,0,0,0,27.846,287.8v.74H21.923Zm11.846,20.73v-.74a8.153,8.153,0,0,1,8.144-8.144h1.481a8.153,8.153,0,0,1,8.144,8.144v.74Zm23.692-5.923h20.73v5.923H57.46Zm26.653-91.805h5.923v5.923A2.961,2.961,0,0,0,93,199.692H116.69a2.961,2.961,0,0,0,2.961-2.961v-5.923h5.923v97.728H116.69v-20.73a2.961,2.961,0,0,0-2.961-2.961H95.959A2.961,2.961,0,0,0,93,267.805v20.73H84.114Zm14.807,97.728V270.767h11.846v17.769Zm32.576-5.923h20.73v5.923H131.5Zm26.653,5.923v-.74a8.153,8.153,0,0,1,8.144-8.144h1.481a8.153,8.153,0,0,1,8.144,8.144v.74Zm29.615,0h-5.923v-.74A14.089,14.089,0,0,0,170,273.9v-6.1a5.93,5.93,0,0,1,5.923-5.923h5.923a5.93,5.93,0,0,1,5.923,5.923Z" transform="translate(-16 -149.347)"/>
      <path id="Trazado_101157" data-name="Trazado 101157" d="M344,368h8.884v5.923H344Z" transform="translate(-222.58 -270.272)"/>
      <path id="Trazado_101158" data-name="Trazado 101158" d="M344,408h8.884v5.923H344Z" transform="translate(-222.58 -295.465)"/>
      <path id="Trazado_101159" data-name="Trazado 101159" d="M344,288h8.884v5.923H344Z" transform="translate(-222.58 -219.887)"/>
      <path id="Trazado_101160" data-name="Trazado 101160" d="M344,328h8.884v5.923H344Z" transform="translate(-222.58 -245.079)"/>
    </g>
  </g>
</svg>
