<svg xmlns="http://www.w3.org/2000/svg" width="108" height="108" viewBox="0 0 108 108">
  <g id="Grupo_55587" data-name="Grupo 55587" transform="translate(-223 -2981)">
    <g id="cama" transform="translate(229.812 2933.662)">
      <path id="Trazado_101232" data-name="Trazado 101232" d="M8.48,139.557h5.569a.98.98,0,0,0,.98-.98V74.435a5.184,5.184,0,0,0-5.184-5.184H8.48a.98.98,0,0,0-.98.98v68.345a.98.98,0,0,0,.98.98Z" transform="translate(-6.088 -6.088)" fill="#d8aa8b"/>
      <path id="Trazado_101233" data-name="Trazado 101233" d="M147.716,228.245V216.806a5,5,0,0,1,5-5h-7.467a5,5,0,0,0-5,5v11.439Z" transform="translate(-113.849 -121.81)" fill="#407093"/>
      <path id="Trazado_101234" data-name="Trazado 101234" d="M233.487,216.807a5,5,0,0,0-5-5h-43.57a5,5,0,0,0-5,5v11.439h53.568Z" transform="translate(-146.052 -121.811)" fill="#365e7d"/>
      <path id="Trazado_101235" data-name="Trazado 101235" d="M51.459,101.441a5.338,5.338,0,0,0-3.774,6.537L50.4,118.11a5.338,5.338,0,0,0,10.312-2.763L58,105.215A5.338,5.338,0,0,0,51.459,101.441Z" transform="translate(-38.56 -32.07)" fill="#d3effb"/>
      <path id="Trazado_101236" data-name="Trazado 101236" d="M75.135,115.348,72.42,105.216a5.34,5.34,0,0,0-5.153-3.957,5.355,5.355,0,0,1,.447,1.134l2.715,10.132a5.342,5.342,0,0,1-5.159,6.72,5.338,5.338,0,0,0,9.865-3.9Z" transform="translate(-52.984 -32.071)" fill="#b1e4f9"/>
      <path id="Trazado_101237" data-name="Trazado 101237" d="M69.959,211.808H52.5a5,5,0,0,0-5,5v11.439H64.96V216.807A5,5,0,0,1,69.959,211.808Z" transform="translate(-38.561 -121.811)" fill="#d3effb"/>
      <path id="Trazado_101238" data-name="Trazado 101238" d="M140.249,279.132h7.467V282.9h-7.467Z" transform="translate(-113.849 -176.462)" fill="#365e7d"/>
      <path id="Trazado_101239" data-name="Trazado 101239" d="M47.5,279.132H64.96V282.9H47.5Z" transform="translate(-38.561 -176.462)" fill="#b1e4f9"/>
      <path id="Trazado_101240" data-name="Trazado 101240" d="M228.488,211.808H225.8a5.013,5.013,0,0,1,.154,1.234v1.778a9.66,9.66,0,0,1-9.66,9.66H179.919v3.765h53.568V216.807A5,5,0,0,0,228.488,211.808Z" transform="translate(-146.052 -121.811)" fill="#2b4d66"/>
      <path id="Trazado_101241" data-name="Trazado 101241" d="M47.5,299.132h78.493v11.624H47.5Z" transform="translate(-38.561 -192.698)" fill="#ce9875"/>
      <path id="Trazado_101242" data-name="Trazado 101242" d="M465.478,291.153h5.569a.98.98,0,0,0,.98-.98V256.98a.98.98,0,0,0-.98-.98h-1.365a5.184,5.184,0,0,0-5.184,5.184v28.988A.98.98,0,0,0,465.478,291.153Z" transform="translate(-377.063 -157.685)" fill="#d8aa8b"/>
      <path id="Trazado_101243" data-name="Trazado 101243" d="M93.984,96.9H92.619a6.559,6.559,0,0,0-3.773,1.188V95a6.418,6.418,0,0,0-6.411-6.411H70.567a1.412,1.412,0,1,0,0,2.824H82.436A3.591,3.591,0,0,1,86.023,95v10.027H35.279V95a3.591,3.591,0,0,1,3.587-3.587H63.979a1.412,1.412,0,1,0,0-2.824h-41.5a6.74,6.74,0,0,0,1.034-5.674,1.412,1.412,0,1,0-2.728.731A3.926,3.926,0,0,1,13.2,85.674L10.488,75.543a3.926,3.926,0,0,1,7.584-2.032l1,3.716A1.412,1.412,0,1,0,21.8,76.5l-1-3.716a6.758,6.758,0,0,0-10.446-3.747v-.686a6.6,6.6,0,0,0-6.6-6.6H2.392A2.4,2.4,0,0,0,0,64.143v68.345a2.4,2.4,0,0,0,2.392,2.392H7.961a2.4,2.4,0,0,0,2.392-2.392V119.47h1.6a1.412,1.412,0,0,0,0-2.824h-1.6v-8.8H86.023v8.8H18.54a1.412,1.412,0,1,0,0,2.824H86.023v13.017a2.4,2.4,0,0,0,2.392,2.392h5.569a2.4,2.4,0,0,0,2.392-2.392V99.3A2.4,2.4,0,0,0,93.984,96.9ZM31.4,91.409h2.157A6.375,6.375,0,0,0,32.455,95v10.027H27.812V95A3.591,3.591,0,0,1,31.4,91.409Zm-20.923-5a6.713,6.713,0,0,0,1.315,2.551,6.393,6.393,0,0,0-1.438.729V85.948ZM7.53,132.057H2.823V64.574h.934A3.777,3.777,0,0,1,7.53,68.347ZM10.353,95a3.591,3.591,0,0,1,3.587-3.587H26.088A6.373,6.373,0,0,0,24.988,95v10.027H10.353Zm83.2,37.061H88.846V103.5a3.777,3.777,0,0,1,3.773-3.773h.934Z" transform="translate(0 0)"/>
    </g>
    <rect id="Rectángulo_5472" data-name="Rectángulo 5472" width="108" height="108" transform="translate(223 2981)" fill="none"/>
  </g>
</svg>
